<svg width="86" height="96" viewBox="0 0 86 96" fill="none" xmlns="http://www.w3.org/2000/svg">
<path d="M27.9986 95.4846C26.3452 95.4846 25.0049 94.1488 25.0049 92.501V91.3075C25.0049 89.6623 23.6619 88.3239 22.0112 88.3239H19.4688C16.5808 88.3239 13.8186 87.2517 11.6913 85.3052C9.56394 83.3585 8.25703 80.7069 8.01095 77.8391L7.41145 70.8496C1.80931 70.547 -1.7809 64.2165 0.914339 59.2817C2.37348 56.4991 4.54946 53.2304 7.55366 49.3108C7.82489 34.7639 16.749 23.5769 30.9003 20.2328C34.798 19.4517 36.1333 24.9459 32.3138 26.0314C20.3748 28.9222 13.5275 37.7835 13.5275 50.3431C13.5275 51.0048 13.3068 51.6476 12.9003 52.1705C9.83936 56.108 7.59197 59.4304 6.22085 62.0454C5.76521 62.9143 6.11443 63.6636 6.28567 63.9454C6.4605 64.2332 6.97617 64.9023 7.98565 64.9023C10.7935 64.9023 13.091 67.0049 13.3302 69.7929L13.9767 77.3306C14.2223 80.1958 16.5835 82.3564 19.4686 82.3564H22.0111C26.9633 82.3564 30.9922 86.3718 30.9922 91.3074V92.5008C30.9924 94.1488 29.6521 95.4846 27.9986 95.4846ZM73.8076 46.0737C74.3682 44.5234 73.5617 42.8138 72.0064 42.2551C70.4513 41.6964 68.7355 42.5 68.1748 44.0502C62.5387 58.8359 40.8429 55.0864 40.5723 39.2437C40.436 29.1224 51.5053 21.9171 60.7264 26.4397C62.2287 27.1282 64.0063 26.4727 64.6971 24.9756C65.3881 23.4786 64.7305 21.7067 63.2284 21.0183C60.4579 19.7481 57.6197 19.1042 54.7924 19.1042C27.982 20.211 27.9945 58.2826 54.7924 59.3834C63.2866 59.3834 70.9282 54.0347 73.8076 46.0737ZM65.2704 92.501V74.0024C65.2704 71.6198 65.7153 69.5532 66.7126 67.3016C67.3804 65.7941 66.6954 64.0326 65.1829 63.367C63.6703 62.7017 61.9029 63.3842 61.235 64.8915C59.9033 67.8983 59.283 70.7933 59.283 74.0022V92.5008C59.283 94.1487 60.6233 95.4845 62.2767 95.4845C63.9301 95.4845 65.2704 94.1488 65.2704 92.501ZM62.45 43.1018L74.133 31.3485C75.2967 30.1779 75.2878 28.2888 74.1131 27.1291C72.9382 25.9693 71.0428 25.9783 69.8795 27.1489L58.1907 38.9082C57.5876 39.5476 56.5047 39.5492 55.9037 38.9173L51.6951 34.6231C50.5398 33.4445 48.6447 33.4222 47.4617 34.5734C46.2789 35.7248 46.2566 37.6139 47.4118 38.7927L51.6296 43.096C53.073 44.5562 54.9954 45.3605 57.0428 45.3605C59.0902 45.3605 61.0126 44.5561 62.45 43.1018Z" fill="url(#paint0_linear)"/>
<g opacity="0.2">
<path d="M41.3878 1.16599C44.9031 0.915073 45.9694 5.99242 42.3138 7.03129C30.3748 9.92214 23.5275 18.7834 23.5275 31.3431C23.5275 32.0047 23.3068 32.6475 22.9003 33.1704C19.8394 37.1079 17.592 40.4303 16.2209 43.0454C15.7652 43.9142 16.1144 44.6635 16.2857 44.9453C16.4605 45.2331 16.9762 45.9022 17.9856 45.9022C20.7935 45.9022 23.091 48.0048 23.3302 50.7928L23.9767 58.3306C24.2223 61.1958 26.5835 63.3564 29.4686 63.3564H32.0111C36.9633 63.3564 40.9922 67.3717 40.9922 72.3073V73.5007C40.9924 75.1488 39.6521 76.4845 37.9986 76.4845C49.0809 79.4148 71.446 78.6333 72.2767 76.4844C70.6233 76.4844 69.283 75.1486 69.283 73.5007V55.0022C69.283 51.7933 69.9033 48.8982 71.235 45.8915C71.9029 44.3841 73.6703 43.7016 75.1829 44.367C76.5426 44.9652 77.2336 46.4493 76.8741 47.8383L84.1131 27.0736C85.6239 21.4602 85.671 18.251 84.133 12.3484L72.45 24.1018C71.0126 25.556 69.0902 26.3604 67.0428 26.3604C64.9954 26.3604 63.073 25.5561 61.6296 24.0959L57.4118 19.7926C56.2566 18.6138 56.2789 16.7247 57.4617 15.5733C58.6447 14.4221 60.5398 14.4445 61.6951 15.623L65.9037 19.9172C66.5047 20.5491 67.5876 20.5475 68.1907 19.9081L79.8795 8.14881C78.0207 4.85576 76.4332 3.74816 73.5661 2.19954C74.8254 2.98294 75.3339 4.59592 74.6971 5.97553C74.0063 7.47257 72.2287 8.12808 70.7264 7.4396C61.5053 2.917 50.436 10.1223 50.5723 20.2436C50.8429 36.0863 72.5387 39.8359 78.1748 25.0501C78.7355 23.5 80.4513 22.6963 82.0064 23.255C83.5617 23.8137 84.3682 25.5233 83.8076 27.0736C80.9282 35.0346 73.2866 40.3834 64.7924 40.3834C37.9945 39.2825 37.982 1.21095 64.7924 0.104167C55.2343 -0.149359 49.9278 0.00727034 41.3878 1.16599Z" fill="url(#paint1_linear)"/>
<path fill-rule="evenodd" clip-rule="evenodd" d="M35.0049 73.5009C35.0049 75.1488 36.3452 76.4845 37.9986 76.4845C39.6521 76.4845 40.9924 75.1488 40.9922 73.5007V72.3073C40.9922 67.3717 36.9633 63.3564 32.0111 63.3564H29.4686C26.5835 63.3564 24.2223 61.1958 23.9767 58.3306L23.3302 50.7928C23.091 48.0048 20.7935 45.9022 17.9856 45.9022C16.9762 45.9022 16.4605 45.2331 16.2857 44.9453C16.1144 44.6635 15.7652 43.9142 16.2209 43.0454C17.592 40.4303 19.8394 37.1079 22.9003 33.1704C23.3068 32.6475 23.5275 32.0047 23.5275 31.3431C23.5275 18.7834 30.3748 9.92214 42.3138 7.03129C45.9694 5.99242 44.9031 0.915073 41.3878 1.16599C41.2301 1.17724 41.0676 1.19921 40.9003 1.23273C26.749 4.5768 17.8249 15.7638 17.5537 30.3107C14.5495 34.2303 12.3735 37.4991 10.9143 40.2816C8.2191 45.2164 11.8093 51.547 17.4115 51.8495L18.0109 58.839C18.257 61.7069 19.5639 64.3584 21.6913 66.3051C23.8186 68.2516 26.5808 69.3238 29.4688 69.3238H32.0112C33.662 69.3238 35.0049 70.6623 35.0049 72.3074V73.5009ZM82.0064 23.255C83.5617 23.8137 84.3682 25.5233 83.8076 27.0736C80.9282 35.0346 73.2866 40.3834 64.7924 40.3834C37.9945 39.2825 37.982 1.21095 64.7924 0.104167C67.6197 0.104167 70.4579 0.748037 73.2284 2.01817C73.3462 2.07218 73.4589 2.13285 73.5661 2.19954C74.8254 2.98294 75.3339 4.59592 74.6971 5.97553C74.0063 7.47257 72.2287 8.12808 70.7264 7.4396C61.5053 2.917 50.436 10.1223 50.5723 20.2436C50.8429 36.0863 72.5387 39.8359 78.1748 25.0501C78.7355 23.5 80.4513 22.6963 82.0064 23.255ZM75.2704 55.0023V73.5009C75.2704 75.1488 73.9301 76.4844 72.2767 76.4844C70.6233 76.4844 69.283 75.1486 69.283 73.5007V55.0022C69.283 51.7933 69.9033 48.8982 71.235 45.8915C71.9029 44.3841 73.6703 43.7016 75.1829 44.367C76.5426 44.9652 77.2336 46.4493 76.8741 47.8383C76.8337 47.9943 76.7801 48.1492 76.7126 48.3015C75.7153 50.5531 75.2704 52.6197 75.2704 55.0023ZM84.133 12.3484L72.45 24.1018C71.0126 25.556 69.0902 26.3604 67.0428 26.3604C64.9954 26.3604 63.073 25.5561 61.6296 24.0959L57.4118 19.7926C56.2566 18.6138 56.2789 16.7247 57.4617 15.5733C58.6447 14.4221 60.5398 14.4445 61.6951 15.623L65.9037 19.9172C66.5047 20.5491 67.5876 20.5475 68.1907 19.9081L79.8795 8.14881L84.133 12.3484Z" fill="url(#paint2_linear)"/>
</g>
<defs>
<linearGradient id="paint0_linear" x1="37.5" y1="19.1042" x2="37.5" y2="95.4846" gradientUnits="userSpaceOnUse">
<stop stop-color="#F4A96B"/>
<stop offset="1" stop-color="#946AAD"/>
</linearGradient>
<linearGradient id="paint1_linear" x1="47.5" y1="0.104248" x2="47.5" y2="76.4846" gradientUnits="userSpaceOnUse">
<stop stop-color="#F4A96B"/>
<stop offset="1" stop-color="#946AAD"/>
</linearGradient>
<linearGradient id="paint2_linear" x1="47.5" y1="0.104248" x2="47.5" y2="76.4846" gradientUnits="userSpaceOnUse">
<stop stop-color="#F4A96B"/>
<stop offset="1" stop-color="#946AAD"/>
</linearGradient>
</defs>
</svg>
