<svg width="85" height="86" viewBox="0 0 85 86" fill="none" xmlns="http://www.w3.org/2000/svg">
<g opacity="0.2">
<path d="M50.8691 53.3203C50.8691 56.5512 53.4977 59.1797 56.7285 59.1797H63.6133C66.8441 59.1797 69.4727 56.5512 69.4727 53.3203V46.4355C69.4727 43.2047 66.8441 40.5762 63.6133 40.5762H56.7285C53.4977 40.5762 50.8691 43.2047 50.8691 46.4355V53.3203ZM56.7285 46.4355H63.6133L63.6169 53.3202C63.6169 53.3202 63.6159 53.3203 63.6133 53.3203H56.7285V46.4355Z" fill="url(#paint0_linear)"/>
<path d="M66.543 33.6914C68.161 33.6914 69.4727 32.3797 69.4727 30.7617C69.4727 29.1437 68.161 27.832 66.543 27.832C64.9249 27.832 63.6133 29.1437 63.6133 30.7617C63.6133 32.3797 64.9249 33.6914 66.543 33.6914Z" fill="url(#paint1_linear)"/>
<path d="M53.7988 33.6914C55.4169 33.6914 56.7285 32.3797 56.7285 30.7617C56.7285 29.1437 55.4169 27.832 53.7988 27.832C52.1808 27.832 50.8691 29.1437 50.8691 30.7617C50.8691 32.3797 52.1808 33.6914 53.7988 33.6914Z" fill="url(#paint2_linear)"/>
<path d="M82.0703 51.5625C83.6884 51.5625 85 50.2509 85 48.6328V17.5781C85 11.1164 79.743 5.85938 73.2812 5.85938H69.4727V2.92969C69.4727 1.31162 68.161 0 66.543 0C64.9249 0 63.6133 1.31162 63.6133 2.92969V5.85938H50.2832V2.92969C50.2832 1.31162 48.9716 0 47.3535 0C45.7355 0 44.4238 1.31162 44.4238 2.92969V5.85938H31.2402V2.92969C31.2402 1.31162 29.9286 0 28.3105 0C26.6925 0 25.3809 1.31162 25.3809 2.92969V5.85938H21.7188C15.257 5.85938 10 11.1164 10 17.5781V63.2812C10 69.743 15.257 75 21.7188 75H73.2812C79.743 75 85 69.743 85 63.2812C85 61.6632 83.6884 60.3516 82.0703 60.3516C80.4522 60.3516 79.1406 61.6632 79.1406 63.2812C79.1406 66.5121 76.5121 69.1406 73.2812 69.1406H21.7188C18.4879 69.1406 15.8594 66.5121 15.8594 63.2812V17.5781C15.8594 14.3473 18.4879 11.7188 21.7188 11.7188H25.3809V14.6484C25.3809 16.2665 26.6925 17.5781 28.3105 17.5781C29.9286 17.5781 31.2402 16.2665 31.2402 14.6484V11.7188H44.4238V14.6484C44.4238 16.2665 45.7355 17.5781 47.3535 17.5781C48.9716 17.5781 50.2832 16.2665 50.2832 14.6484V11.7188H63.6133V14.6484C63.6133 16.2665 64.9249 17.5781 66.543 17.5781C68.161 17.5781 69.4727 16.2665 69.4727 14.6484V11.7188H73.2812C76.5121 11.7188 79.1406 14.3473 79.1406 17.5781V48.6328C79.1406 50.2509 80.4522 51.5625 82.0703 51.5625Z" fill="url(#paint3_linear)"/>
<path d="M28.3105 59.1797C29.9286 59.1797 31.2402 57.868 31.2402 56.25C31.2402 54.632 29.9286 53.3203 28.3105 53.3203C26.6925 53.3203 25.3809 54.632 25.3809 56.25C25.3809 57.868 26.6925 59.1797 28.3105 59.1797Z" fill="url(#paint4_linear)"/>
<path d="M28.3105 33.6914C29.9286 33.6914 31.2402 32.3797 31.2402 30.7617C31.2402 29.1437 29.9286 27.832 28.3105 27.832C26.6925 27.832 25.3809 29.1437 25.3809 30.7617C25.3809 32.3797 26.6925 33.6914 28.3105 33.6914Z" fill="url(#paint5_linear)"/>
<path d="M28.3105 46.4355C29.9286 46.4355 31.2402 45.1239 31.2402 43.5059C31.2402 41.8878 29.9286 40.5762 28.3105 40.5762C26.6925 40.5762 25.3809 41.8878 25.3809 43.5059C25.3809 45.1239 26.6925 46.4355 28.3105 46.4355Z" fill="url(#paint6_linear)"/>
<path d="M41.0547 46.4355C42.6727 46.4355 43.9844 45.1239 43.9844 43.5059C43.9844 41.8878 42.6727 40.5762 41.0547 40.5762C39.4367 40.5762 38.125 41.8878 38.125 43.5059C38.125 45.1239 39.4367 46.4355 41.0547 46.4355Z" fill="url(#paint7_linear)"/>
<path d="M41.0547 33.6914C42.6727 33.6914 43.9844 32.3797 43.9844 30.7617C43.9844 29.1437 42.6727 27.832 41.0547 27.832C39.4367 27.832 38.125 29.1437 38.125 30.7617C38.125 32.3797 39.4367 33.6914 41.0547 33.6914Z" fill="url(#paint8_linear)"/>
<path d="M41.0547 59.1797C42.6727 59.1797 43.9844 57.868 43.9844 56.25C43.9844 54.632 42.6727 53.3203 41.0547 53.3203C39.4367 53.3203 38.125 54.632 38.125 56.25C38.125 57.868 39.4367 59.1797 41.0547 59.1797Z" fill="url(#paint9_linear)"/>
<path fill-rule="evenodd" clip-rule="evenodd" d="M85 48.6328C85 50.2509 83.6884 51.5625 82.0703 51.5625C80.4522 51.5625 79.1406 50.2509 79.1406 48.6328V17.5781C79.1406 14.3473 76.5121 11.7188 73.2812 11.7188H69.4727V14.6484C69.4727 16.2665 68.161 17.5781 66.543 17.5781C64.9249 17.5781 63.6133 16.2665 63.6133 14.6484V11.7188H50.2832V14.6484C50.2832 16.2665 48.9716 17.5781 47.3535 17.5781C45.7355 17.5781 44.4238 16.2665 44.4238 14.6484V11.7188H31.2402V14.6484C31.2402 16.2665 29.9286 17.5781 28.3105 17.5781C26.6925 17.5781 25.3809 16.2665 25.3809 14.6484V11.7188H21.7188C18.4879 11.7188 15.8594 14.3473 15.8594 17.5781V63.2812C15.8594 66.5121 18.4879 69.1406 21.7188 69.1406H73.2812C76.5121 69.1406 79.1406 66.5121 79.1406 63.2812C79.1406 61.6632 80.4522 60.3516 82.0703 60.3516C83.6884 60.3516 85 61.6632 85 63.2812V48.6328ZM56.7285 59.1797C53.4977 59.1797 50.8691 56.5512 50.8691 53.3203V46.4355C50.8691 43.2047 53.4977 40.5762 56.7285 40.5762H63.6133C66.8441 40.5762 69.4727 43.2047 69.4727 46.4355V53.3203C69.4727 56.5512 66.8441 59.1797 63.6133 59.1797H56.7285ZM66.543 33.6914C68.161 33.6914 69.4727 32.3797 69.4727 30.7617C69.4727 29.1437 68.161 27.832 66.543 27.832C64.9249 27.832 63.6133 29.1437 63.6133 30.7617C63.6133 32.3797 64.9249 33.6914 66.543 33.6914ZM53.7988 33.6914C55.4169 33.6914 56.7285 32.3797 56.7285 30.7617C56.7285 29.1437 55.4169 27.832 53.7988 27.832C52.1808 27.832 50.8691 29.1437 50.8691 30.7617C50.8691 32.3797 52.1808 33.6914 53.7988 33.6914ZM28.3105 59.1797C29.9286 59.1797 31.2402 57.868 31.2402 56.25C31.2402 54.632 29.9286 53.3203 28.3105 53.3203C26.6925 53.3203 25.3809 54.632 25.3809 56.25C25.3809 57.868 26.6925 59.1797 28.3105 59.1797ZM28.3105 33.6914C29.9286 33.6914 31.2402 32.3797 31.2402 30.7617C31.2402 29.1437 29.9286 27.832 28.3105 27.832C26.6925 27.832 25.3809 29.1437 25.3809 30.7617C25.3809 32.3797 26.6925 33.6914 28.3105 33.6914ZM28.3105 46.4355C29.9286 46.4355 31.2402 45.1239 31.2402 43.5059C31.2402 41.8878 29.9286 40.5762 28.3105 40.5762C26.6925 40.5762 25.3809 41.8878 25.3809 43.5059C25.3809 45.1239 26.6925 46.4355 28.3105 46.4355ZM41.0547 46.4355C42.6727 46.4355 43.9844 45.1239 43.9844 43.5059C43.9844 41.8878 42.6727 40.5762 41.0547 40.5762C39.4367 40.5762 38.125 41.8878 38.125 43.5059C38.125 45.1239 39.4367 46.4355 41.0547 46.4355ZM41.0547 33.6914C42.6727 33.6914 43.9844 32.3797 43.9844 30.7617C43.9844 29.1437 42.6727 27.832 41.0547 27.832C39.4367 27.832 38.125 29.1437 38.125 30.7617C38.125 32.3797 39.4367 33.6914 41.0547 33.6914ZM41.0547 59.1797C42.6727 59.1797 43.9844 57.868 43.9844 56.25C43.9844 54.632 42.6727 53.3203 41.0547 53.3203C39.4367 53.3203 38.125 54.632 38.125 56.25C38.125 57.868 39.4367 59.1797 41.0547 59.1797Z" fill="url(#paint10_linear)"/>
<path d="M56.7285 46.4355H63.6133L63.6169 53.3202C63.6169 53.3202 63.6159 53.3203 63.6133 53.3203H56.7285V46.4355Z" fill="url(#paint11_linear)"/>
</g>
<path d="M40.8691 64.3203C40.8691 67.5512 43.4977 70.1797 46.7285 70.1797H53.6133C56.8441 70.1797 59.4727 67.5512 59.4727 64.3203V57.4355C59.4727 54.2047 56.8441 51.5762 53.6133 51.5762H46.7285C43.4977 51.5762 40.8691 54.2047 40.8691 57.4355V64.3203ZM46.7285 57.4355H53.6133L53.6169 64.3202C53.6169 64.3202 53.6159 64.3203 53.6133 64.3203H46.7285V57.4355Z" fill="url(#paint12_linear)"/>
<path d="M56.543 44.6914C58.161 44.6914 59.4727 43.3797 59.4727 41.7617C59.4727 40.1437 58.161 38.832 56.543 38.832C54.9249 38.832 53.6133 40.1437 53.6133 41.7617C53.6133 43.3797 54.9249 44.6914 56.543 44.6914Z" fill="url(#paint13_linear)"/>
<path d="M43.7988 44.6914C45.4169 44.6914 46.7285 43.3797 46.7285 41.7617C46.7285 40.1437 45.4169 38.832 43.7988 38.832C42.1808 38.832 40.8691 40.1437 40.8691 41.7617C40.8691 43.3797 42.1808 44.6914 43.7988 44.6914Z" fill="url(#paint14_linear)"/>
<path d="M72.0703 62.5625C73.6884 62.5625 75 61.2509 75 59.6328V28.5781C75 22.1164 69.743 16.8594 63.2812 16.8594H59.4727V13.9297C59.4727 12.3116 58.161 11 56.543 11C54.9249 11 53.6133 12.3116 53.6133 13.9297V16.8594H40.2832V13.9297C40.2832 12.3116 38.9716 11 37.3535 11C35.7355 11 34.4238 12.3116 34.4238 13.9297V16.8594H21.2402V13.9297C21.2402 12.3116 19.9286 11 18.3105 11C16.6925 11 15.3809 12.3116 15.3809 13.9297V16.8594H11.7188C5.25703 16.8594 0 22.1164 0 28.5781V74.2812C0 80.743 5.25703 86 11.7188 86H63.2812C69.743 86 75 80.743 75 74.2812C75 72.6632 73.6884 71.3516 72.0703 71.3516C70.4522 71.3516 69.1406 72.6632 69.1406 74.2812C69.1406 77.5121 66.5121 80.1406 63.2812 80.1406H11.7188C8.48789 80.1406 5.85938 77.5121 5.85938 74.2812V28.5781C5.85938 25.3473 8.48789 22.7188 11.7188 22.7188H15.3809V25.6484C15.3809 27.2665 16.6925 28.5781 18.3105 28.5781C19.9286 28.5781 21.2402 27.2665 21.2402 25.6484V22.7188H34.4238V25.6484C34.4238 27.2665 35.7355 28.5781 37.3535 28.5781C38.9716 28.5781 40.2832 27.2665 40.2832 25.6484V22.7188H53.6133V25.6484C53.6133 27.2665 54.9249 28.5781 56.543 28.5781C58.161 28.5781 59.4727 27.2665 59.4727 25.6484V22.7188H63.2812C66.5121 22.7188 69.1406 25.3473 69.1406 28.5781V59.6328C69.1406 61.2509 70.4522 62.5625 72.0703 62.5625Z" fill="url(#paint15_linear)"/>
<path d="M18.3105 70.1797C19.9286 70.1797 21.2402 68.868 21.2402 67.25C21.2402 65.632 19.9286 64.3203 18.3105 64.3203C16.6925 64.3203 15.3809 65.632 15.3809 67.25C15.3809 68.868 16.6925 70.1797 18.3105 70.1797Z" fill="url(#paint16_linear)"/>
<path d="M18.3105 44.6914C19.9286 44.6914 21.2402 43.3797 21.2402 41.7617C21.2402 40.1437 19.9286 38.832 18.3105 38.832C16.6925 38.832 15.3809 40.1437 15.3809 41.7617C15.3809 43.3797 16.6925 44.6914 18.3105 44.6914Z" fill="url(#paint17_linear)"/>
<path d="M18.3105 57.4355C19.9286 57.4355 21.2402 56.1239 21.2402 54.5059C21.2402 52.8878 19.9286 51.5762 18.3105 51.5762C16.6925 51.5762 15.3809 52.8878 15.3809 54.5059C15.3809 56.1239 16.6925 57.4355 18.3105 57.4355Z" fill="url(#paint18_linear)"/>
<path d="M31.0547 57.4355C32.6727 57.4355 33.9844 56.1239 33.9844 54.5059C33.9844 52.8878 32.6727 51.5762 31.0547 51.5762C29.4367 51.5762 28.125 52.8878 28.125 54.5059C28.125 56.1239 29.4367 57.4355 31.0547 57.4355Z" fill="url(#paint19_linear)"/>
<path d="M31.0547 44.6914C32.6727 44.6914 33.9844 43.3797 33.9844 41.7617C33.9844 40.1437 32.6727 38.832 31.0547 38.832C29.4367 38.832 28.125 40.1437 28.125 41.7617C28.125 43.3797 29.4367 44.6914 31.0547 44.6914Z" fill="url(#paint20_linear)"/>
<path d="M31.0547 70.1797C32.6727 70.1797 33.9844 68.868 33.9844 67.25C33.9844 65.632 32.6727 64.3203 31.0547 64.3203C29.4367 64.3203 28.125 65.632 28.125 67.25C28.125 68.868 29.4367 70.1797 31.0547 70.1797Z" fill="url(#paint21_linear)"/>
<defs>
<linearGradient id="paint0_linear" x1="47.5" y1="0" x2="47.5" y2="75" gradientUnits="userSpaceOnUse">
<stop stop-color="#F4A96B"/>
<stop offset="1" stop-color="#946AAD"/>
</linearGradient>
<linearGradient id="paint1_linear" x1="47.5" y1="0" x2="47.5" y2="75" gradientUnits="userSpaceOnUse">
<stop stop-color="#F4A96B"/>
<stop offset="1" stop-color="#946AAD"/>
</linearGradient>
<linearGradient id="paint2_linear" x1="47.5" y1="0" x2="47.5" y2="75" gradientUnits="userSpaceOnUse">
<stop stop-color="#F4A96B"/>
<stop offset="1" stop-color="#946AAD"/>
</linearGradient>
<linearGradient id="paint3_linear" x1="47.5" y1="0" x2="47.5" y2="75" gradientUnits="userSpaceOnUse">
<stop stop-color="#F4A96B"/>
<stop offset="1" stop-color="#946AAD"/>
</linearGradient>
<linearGradient id="paint4_linear" x1="47.5" y1="0" x2="47.5" y2="75" gradientUnits="userSpaceOnUse">
<stop stop-color="#F4A96B"/>
<stop offset="1" stop-color="#946AAD"/>
</linearGradient>
<linearGradient id="paint5_linear" x1="47.5" y1="0" x2="47.5" y2="75" gradientUnits="userSpaceOnUse">
<stop stop-color="#F4A96B"/>
<stop offset="1" stop-color="#946AAD"/>
</linearGradient>
<linearGradient id="paint6_linear" x1="47.5" y1="0" x2="47.5" y2="75" gradientUnits="userSpaceOnUse">
<stop stop-color="#F4A96B"/>
<stop offset="1" stop-color="#946AAD"/>
</linearGradient>
<linearGradient id="paint7_linear" x1="47.5" y1="0" x2="47.5" y2="75" gradientUnits="userSpaceOnUse">
<stop stop-color="#F4A96B"/>
<stop offset="1" stop-color="#946AAD"/>
</linearGradient>
<linearGradient id="paint8_linear" x1="47.5" y1="0" x2="47.5" y2="75" gradientUnits="userSpaceOnUse">
<stop stop-color="#F4A96B"/>
<stop offset="1" stop-color="#946AAD"/>
</linearGradient>
<linearGradient id="paint9_linear" x1="47.5" y1="0" x2="47.5" y2="75" gradientUnits="userSpaceOnUse">
<stop stop-color="#F4A96B"/>
<stop offset="1" stop-color="#946AAD"/>
</linearGradient>
<linearGradient id="paint10_linear" x1="47.5" y1="0" x2="47.5" y2="75" gradientUnits="userSpaceOnUse">
<stop stop-color="#F4A96B"/>
<stop offset="1" stop-color="#946AAD"/>
</linearGradient>
<linearGradient id="paint11_linear" x1="47.5" y1="0" x2="47.5" y2="75" gradientUnits="userSpaceOnUse">
<stop stop-color="#F4A96B"/>
<stop offset="1" stop-color="#946AAD"/>
</linearGradient>
<linearGradient id="paint12_linear" x1="37.5" y1="11" x2="37.5" y2="86" gradientUnits="userSpaceOnUse">
<stop stop-color="#F4A96B"/>
<stop offset="1" stop-color="#946AAD"/>
</linearGradient>
<linearGradient id="paint13_linear" x1="37.5" y1="11" x2="37.5" y2="86" gradientUnits="userSpaceOnUse">
<stop stop-color="#F4A96B"/>
<stop offset="1" stop-color="#946AAD"/>
</linearGradient>
<linearGradient id="paint14_linear" x1="37.5" y1="11" x2="37.5" y2="86" gradientUnits="userSpaceOnUse">
<stop stop-color="#F4A96B"/>
<stop offset="1" stop-color="#946AAD"/>
</linearGradient>
<linearGradient id="paint15_linear" x1="37.5" y1="11" x2="37.5" y2="86" gradientUnits="userSpaceOnUse">
<stop stop-color="#F4A96B"/>
<stop offset="1" stop-color="#946AAD"/>
</linearGradient>
<linearGradient id="paint16_linear" x1="37.5" y1="11" x2="37.5" y2="86" gradientUnits="userSpaceOnUse">
<stop stop-color="#F4A96B"/>
<stop offset="1" stop-color="#946AAD"/>
</linearGradient>
<linearGradient id="paint17_linear" x1="37.5" y1="11" x2="37.5" y2="86" gradientUnits="userSpaceOnUse">
<stop stop-color="#F4A96B"/>
<stop offset="1" stop-color="#946AAD"/>
</linearGradient>
<linearGradient id="paint18_linear" x1="37.5" y1="11" x2="37.5" y2="86" gradientUnits="userSpaceOnUse">
<stop stop-color="#F4A96B"/>
<stop offset="1" stop-color="#946AAD"/>
</linearGradient>
<linearGradient id="paint19_linear" x1="37.5" y1="11" x2="37.5" y2="86" gradientUnits="userSpaceOnUse">
<stop stop-color="#F4A96B"/>
<stop offset="1" stop-color="#946AAD"/>
</linearGradient>
<linearGradient id="paint20_linear" x1="37.5" y1="11" x2="37.5" y2="86" gradientUnits="userSpaceOnUse">
<stop stop-color="#F4A96B"/>
<stop offset="1" stop-color="#946AAD"/>
</linearGradient>
<linearGradient id="paint21_linear" x1="37.5" y1="11" x2="37.5" y2="86" gradientUnits="userSpaceOnUse">
<stop stop-color="#F4A96B"/>
<stop offset="1" stop-color="#946AAD"/>
</linearGradient>
</defs>
</svg>
