<svg width="86" height="86" viewBox="0 0 86 86" fill="none" xmlns="http://www.w3.org/2000/svg">
<g opacity="0.2">
<path fill-rule="evenodd" clip-rule="evenodd" d="M71.4603 37.75L80.6491 28.5612C87.1171 22.0931 87.1171 11.569 80.6491 5.10113C74.181 -1.36699 63.6568 -1.36699 57.189 5.10099L48.0002 14.2898L38.8112 5.10099C32.3431 -1.36714 21.8188 -1.36685 15.351 5.10099C8.88301 11.5691 8.88301 22.0932 15.351 28.5611L24.5399 37.75L15.351 46.939C8.88301 53.407 8.88301 63.9311 15.351 70.3991C18.585 73.6331 22.8331 75.25 27.0811 75.25C31.3292 75.25 35.5772 73.6331 38.8112 70.3991L48.0003 61.2101L57.1893 70.3991C60.4233 73.6331 64.6713 75.25 68.9193 75.25C73.1674 75.25 77.4155 73.6329 80.6495 70.3989C87.1175 63.931 87.1175 53.4068 80.6495 46.9389L71.4603 37.75ZM27.5714 34.5685L44.8185 17.3214L68.4287 40.9316L51.1816 58.1788L27.5714 34.5685ZM60.2956 8.20757C65.0506 3.45258 72.7877 3.45272 77.5426 8.20771C82.2976 12.9627 82.2976 20.6996 77.5426 25.4548L68.3538 34.6436L51.1068 17.3964L60.2956 8.20757ZM18.4574 8.20757C20.8348 5.83015 23.958 4.64129 27.0811 4.64129C30.2041 4.64129 33.3271 5.83 35.7046 8.20757L41.7119 14.2148L24.4648 31.4619L18.4574 25.4545C13.7026 20.6995 13.7026 12.9626 18.4574 8.20757ZM35.7045 67.2927C30.9495 72.0477 23.2124 72.0477 18.4574 67.2927C13.7024 62.5377 13.7024 54.8007 18.4574 50.0456L27.6464 40.8566L44.8934 58.1037L35.7045 67.2927ZM77.5425 67.2925C72.7877 72.0475 65.0506 72.0478 60.2954 67.2927L54.288 61.2853L71.5351 44.038L77.5425 50.0454C82.2975 54.8004 82.2975 62.5375 77.5425 67.2925Z" fill="url(#paint0_linear)"/>
<path d="M44.9194 30.6011C46.1326 30.6011 47.1161 29.6176 47.1161 28.4044C47.1161 27.1912 46.1326 26.2077 44.9194 26.2077C43.7062 26.2077 42.7227 27.1912 42.7227 28.4044C42.7227 29.6176 43.7062 30.6011 44.9194 30.6011Z" fill="url(#paint1_linear)"/>
<path fill-rule="evenodd" clip-rule="evenodd" d="M52.6859 36.1709C53.5438 35.313 53.5438 33.9222 52.6859 33.0643C51.828 32.2064 50.4372 32.2064 49.5793 33.0643C48.7214 33.9222 48.7214 35.313 49.5793 36.1709C50.4371 37.0286 51.8279 37.0286 52.6859 36.1709Z" fill="url(#paint2_linear)"/>
<path fill-rule="evenodd" clip-rule="evenodd" d="M58.8991 42.3841C59.757 41.5262 59.757 40.1354 58.8991 39.2775C58.0412 38.4196 56.6504 38.4196 55.7925 39.2775C54.9346 40.1354 54.9346 41.5262 55.7925 42.3841C56.6504 43.242 58.0412 43.242 58.8991 42.3841Z" fill="url(#paint3_linear)"/>
<path d="M38.6544 36.8661C39.8676 36.8661 40.8511 35.8826 40.8511 34.6694C40.8511 33.4562 39.8676 32.4727 38.6544 32.4727C37.4412 32.4727 36.4577 33.4562 36.4577 34.6694C36.4577 35.8826 37.4412 36.8661 38.6544 36.8661Z" fill="url(#paint4_linear)"/>
<path fill-rule="evenodd" clip-rule="evenodd" d="M43.3142 39.3292C42.4563 40.1871 42.4563 41.5779 43.3142 42.4358C44.1721 43.2936 45.5629 43.2936 46.4207 42.4358C47.2786 41.5779 47.2786 40.1871 46.4207 39.3292C45.563 38.4714 44.1721 38.4714 43.3142 39.3292Z" fill="url(#paint5_linear)"/>
<path fill-rule="evenodd" clip-rule="evenodd" d="M52.6341 45.5425C51.7762 44.6846 50.3854 44.6846 49.5275 45.5425C48.6696 46.4004 48.6696 47.7912 49.5275 48.6491C50.3854 49.507 51.7762 49.507 52.6341 48.6491C53.4919 47.7912 53.4919 46.4004 52.6341 45.5425Z" fill="url(#paint6_linear)"/>
<path fill-rule="evenodd" clip-rule="evenodd" d="M15.1742 4.92421C21.7397 -1.64125 32.4222 -1.64155 38.988 4.92421L48.0002 13.9363L57.0122 4.92421C63.5777 -1.64141 74.2601 -1.6414 80.8259 4.92436C87.3915 11.4898 87.3915 22.1722 80.8259 28.738L71.8138 37.75L80.8263 46.7621C87.3919 53.3277 87.3919 64.0101 80.8263 70.5757C77.5434 73.8586 73.2308 75.5 68.9193 75.5C64.6079 75.5 60.2954 73.8588 57.0125 70.5759L48.0003 61.5637L38.988 70.5759C35.7051 73.8588 31.3926 75.5 27.0811 75.5C22.7697 75.5 18.4571 73.8588 15.1742 70.5759C8.6086 64.0103 8.6086 53.3278 15.1742 46.7622L24.1864 37.75L15.1742 28.7379C8.60859 22.1724 8.6086 11.49 15.1742 4.92421ZM38.6344 5.27776C32.2639 -1.09273 21.898 -1.09244 15.5278 5.27776C9.15741 11.6483 9.15742 22.0141 15.5278 28.3843L24.8935 37.75L15.5278 47.1158C9.15741 53.4861 9.15741 63.852 15.5278 70.2223C18.7128 73.4074 22.8965 75 27.0811 75C31.2659 75 35.4494 73.4074 38.6344 70.2223L48.0003 60.8566L57.3661 70.2223C60.5511 73.4074 64.7346 75 68.9193 75C73.104 75 77.2877 73.4072 80.4727 70.2222C86.8431 63.8518 86.8431 53.486 80.4727 47.1156L71.1067 37.75L80.4723 28.3844C86.8427 22.0139 86.8427 11.6481 80.4723 5.27791C74.1018 -1.09259 63.736 -1.09258 57.3658 5.27776L48.0002 14.6434L38.6344 5.27776ZM27.0811 4.89129C24.0213 4.89129 20.9627 6.05584 18.6342 8.38434C13.977 13.0417 13.977 20.6204 18.6342 25.2777L24.4648 31.1083L41.3583 14.2148L35.5279 8.38434C33.1992 6.0557 30.1407 4.89129 27.0811 4.89129ZM18.2806 8.03079C20.707 5.60445 23.8946 4.39129 27.0811 4.39129C30.2674 4.39129 33.4549 5.6043 35.8814 8.03079L42.0654 14.2148L24.4648 31.8154L18.2806 25.6313C13.4282 20.7786 13.4282 12.8834 18.2806 8.03079ZM77.3659 8.38449C72.7085 3.72713 65.1297 3.72699 60.4724 8.38434L51.4603 17.3964L68.3538 34.29L77.3659 25.278C82.0232 20.6205 82.0232 13.0418 77.3659 8.38449ZM60.1188 8.03079C64.9714 3.17817 72.8668 3.17832 77.7194 8.03094C82.572 12.8836 82.572 20.7788 77.7194 25.6316L68.3538 34.9972L50.7532 17.3964L60.1188 8.03079ZM44.8185 16.9679L68.7822 40.9316L51.1816 58.5324L27.2178 34.5685L44.8185 16.9679ZM27.925 34.5685L51.1816 57.8253L68.0751 40.9316L44.8185 17.675L27.925 34.5685ZM44.9194 26.4577C43.8442 26.4577 42.9727 27.3292 42.9727 28.4044C42.9727 29.4795 43.8442 30.3511 44.9194 30.3511C45.9945 30.3511 46.8661 29.4795 46.8661 28.4044C46.8661 27.3292 45.9945 26.4577 44.9194 26.4577ZM42.4727 28.4044C42.4727 27.0531 43.5681 25.9577 44.9194 25.9577C46.2707 25.9577 47.3661 27.0531 47.3661 28.4044C47.3661 29.7557 46.2707 30.8511 44.9194 30.8511C43.5681 30.8511 42.4727 29.7557 42.4727 28.4044ZM49.4025 32.8875C50.3581 31.932 51.9072 31.932 52.8627 32.8875C53.8182 33.8431 53.8182 35.3922 52.8627 36.3477C51.907 37.303 50.3579 37.3031 49.4025 36.3477C48.447 35.3922 48.447 33.8431 49.4025 32.8875ZM52.5091 33.2411C51.7489 32.4808 50.5164 32.4808 49.7561 33.2411C48.9958 34.0014 48.9958 35.2339 49.7561 35.9941C50.5162 36.7542 51.7487 36.7543 52.5091 35.9941M38.6544 32.7227C37.5792 32.7227 36.7077 33.5942 36.7077 34.6694C36.7077 35.7445 37.5792 36.6161 38.6544 36.6161C39.7295 36.6161 40.6011 35.7445 40.6011 34.6694C40.6011 33.5942 39.7295 32.7227 38.6544 32.7227ZM36.2077 34.6694C36.2077 33.3181 37.3031 32.2227 38.6544 32.2227C40.0056 32.2227 41.1011 33.3181 41.1011 34.6694C41.1011 36.0207 40.0056 37.1161 38.6544 37.1161C37.3031 37.1161 36.2077 36.0207 36.2077 34.6694ZM43.1374 39.1524C44.0929 38.197 45.6421 38.197 46.5975 39.1524C47.553 40.1079 47.553 41.657 46.5975 42.6125C45.642 43.5681 44.0929 43.5681 43.1374 42.6125C42.1819 41.657 42.1819 40.1079 43.1374 39.1524ZM55.6157 39.1007C56.5712 38.1452 58.1203 38.1452 59.0758 39.1007C60.0314 40.0562 60.0314 41.6053 59.0758 42.5608C58.1203 43.5164 56.5712 43.5164 55.6157 42.5608C54.6602 41.6053 54.6602 40.0562 55.6157 39.1007ZM46.244 39.506C45.4839 38.7459 44.2512 38.7458 43.4909 39.506C42.7307 40.2662 42.7307 41.4987 43.4909 42.259C44.2512 43.0192 45.4837 43.0192 46.244 42.259C47.0042 41.4987 47.0042 40.2662 46.244 39.506ZM27.6464 40.5031L45.247 58.1037L35.8813 67.4694C31.0286 72.3221 23.1333 72.3221 18.2806 67.4694C13.428 62.6168 13.428 54.7216 18.2806 49.8688L27.6464 40.5031ZM27.6464 41.2102L18.6342 50.2224C13.9768 54.8799 13.9768 62.4585 18.6342 67.1159C23.2916 71.7732 30.8703 71.7732 35.5277 67.1159L44.5399 58.1037L27.6464 41.2102ZM71.5351 43.6845L77.7193 49.8687C82.5719 54.7213 82.5719 62.6167 77.7193 67.4693C72.8668 72.3219 64.9714 72.3222 60.1187 67.4694L53.9345 61.2853L71.5351 43.6845ZM54.6416 61.2852L60.4722 67.1159C65.1297 71.7734 72.7085 71.7731 77.3657 67.1157C82.0231 62.4584 82.0231 54.8796 77.3657 50.2222L71.5351 44.3916L54.6416 61.2852ZM49.3507 45.3657C50.3062 44.4102 51.8553 44.4102 52.8108 45.3657C53.7664 46.3212 53.7664 47.8703 52.8108 48.8258C51.8553 49.7814 50.3062 49.7814 49.3507 48.8258C48.3952 47.8703 48.3952 46.3212 49.3507 45.3657ZM52.4573 45.7193C51.697 44.959 50.4645 44.959 49.7043 45.7193C48.944 46.4795 48.944 47.712 49.7043 48.4723C50.4645 49.2326 51.697 49.2326 52.4573 48.4723C53.2175 47.712 53.2175 46.4795 52.4573 45.7193Z" fill="url(#paint7_linear)"/>
<path d="M18.6342 8.38434C20.9627 6.05584 24.0213 4.89129 27.0811 4.89129C30.1407 4.89129 33.1992 6.0557 35.5279 8.38434L41.3583 14.2148L24.4648 31.1083L18.6342 25.2777C13.977 20.6204 13.977 13.0417 18.6342 8.38434Z" fill="url(#paint8_linear)"/>
<path d="M18.6342 50.2224L27.6464 41.2102L44.5399 58.1037L35.5277 67.1159C30.8703 71.7732 23.2916 71.7732 18.6342 67.1159C13.9768 62.4585 13.9768 54.8799 18.6342 50.2224Z" fill="url(#paint9_linear)"/>
<path fill-rule="evenodd" clip-rule="evenodd" d="M51.1816 57.8253L27.925 34.5685L44.8185 17.675L68.0751 40.9316L51.1816 57.8253ZM42.4727 28.4044C42.4727 27.0531 43.5681 25.9577 44.9194 25.9577C46.2707 25.9577 47.3661 27.0531 47.3661 28.4044C47.3661 29.7557 46.2707 30.8511 44.9194 30.8511C43.5681 30.8511 42.4727 29.7557 42.4727 28.4044ZM49.4025 32.8875C50.3581 31.932 51.9072 31.932 52.8627 32.8875C53.8182 33.8431 53.8182 35.3922 52.8627 36.3477C51.907 37.303 50.3579 37.3031 49.4025 36.3477C48.447 35.3922 48.447 33.8431 49.4025 32.8875ZM36.2077 34.6694C36.2077 33.3181 37.3031 32.2227 38.6544 32.2227C40.0056 32.2227 41.1011 33.3181 41.1011 34.6694C41.1011 36.0207 40.0056 37.1161 38.6544 37.1161C37.3031 37.1161 36.2077 36.0207 36.2077 34.6694ZM43.1374 39.1524C44.0929 38.197 45.6421 38.197 46.5975 39.1524C47.553 40.1079 47.553 41.657 46.5975 42.6125C45.642 43.5681 44.0929 43.5681 43.1374 42.6125C42.1819 41.657 42.1819 40.1079 43.1374 39.1524ZM55.6157 39.1007C56.5712 38.1452 58.1203 38.1452 59.0758 39.1007C60.0314 40.0562 60.0314 41.6053 59.0758 42.5608C58.1203 43.5164 56.5712 43.5164 55.6157 42.5608C54.6602 41.6053 54.6602 40.0562 55.6157 39.1007ZM49.3507 45.3657C50.3062 44.4102 51.8553 44.4102 52.8108 45.3657C53.7664 46.3212 53.7664 47.8703 52.8108 48.8258C51.8553 49.7814 50.3062 49.7814 49.3507 48.8258C48.3952 47.8703 48.3952 46.3212 49.3507 45.3657Z" fill="url(#paint10_linear)"/>
<path d="M60.4722 67.1159L54.6416 61.2852L71.5351 44.3916L77.3657 50.2222C82.0231 54.8796 82.0231 62.4584 77.3657 67.1157C72.7085 71.7731 65.1297 71.7734 60.4722 67.1159Z" fill="url(#paint11_linear)"/>
<path d="M60.4724 8.38434C65.1297 3.72699 72.7085 3.72713 77.3659 8.38449C82.0232 13.0418 82.0232 20.6205 77.3659 25.278L68.3538 34.29L51.4603 17.3964L60.4724 8.38434Z" fill="url(#paint12_linear)"/>
</g>
<path fill-rule="evenodd" clip-rule="evenodd" d="M61.2103 47.5L70.3991 38.3112C76.8671 31.8431 76.8671 21.319 70.3991 14.8511C63.931 8.38301 53.4068 8.38301 46.939 14.851L37.7502 24.0398L28.5612 14.851C22.0931 8.38286 11.5688 8.38315 5.10098 14.851C-1.36699 21.3191 -1.36699 31.8432 5.10098 38.3111L14.2899 47.5L5.10098 56.689C-1.36699 63.157 -1.36699 73.6811 5.10098 80.1491C8.33497 83.3831 12.5831 85 16.8311 85C21.0792 85 25.3272 83.3831 28.5612 80.1491L37.7503 70.9601L46.9393 80.1491C50.1733 83.3831 54.4213 85 58.6693 85C62.9174 85 67.1655 83.3829 70.3995 80.1489C76.8675 73.681 76.8675 63.1568 70.3995 56.6889L61.2103 47.5ZM17.3214 44.3185L34.5685 27.0714L58.1787 50.6816L40.9316 67.9288L17.3214 44.3185ZM50.0456 17.9576C54.8006 13.2026 62.5377 13.2027 67.2926 17.9577C72.0476 22.7127 72.0476 30.4496 67.2926 35.2048L58.1038 44.3936L40.8568 27.1464L50.0456 17.9576ZM8.20742 17.9576C10.5848 15.5801 13.708 14.3913 16.8311 14.3913C19.9541 14.3913 23.0771 15.58 25.4546 17.9576L31.4619 23.9648L14.2148 41.2119L8.20742 35.2045C3.45258 30.4495 3.45258 22.7126 8.20742 17.9576ZM25.4545 77.0427C20.6995 81.7977 12.9624 81.7977 8.20742 77.0427C3.45243 72.2877 3.45243 64.5507 8.20742 59.7956L17.3964 50.6066L34.6434 67.8537L25.4545 77.0427ZM67.2925 77.0425C62.5377 81.7975 54.8006 81.7978 50.0454 77.0427L44.038 71.0353L61.2851 53.788L67.2925 59.7954C72.0475 64.5504 72.0475 72.2875 67.2925 77.0425Z" fill="url(#paint13_linear)"/>
<path d="M34.6694 40.3511C35.8826 40.3511 36.8661 39.3676 36.8661 38.1544C36.8661 36.9412 35.8826 35.9577 34.6694 35.9577C33.4562 35.9577 32.4727 36.9412 32.4727 38.1544C32.4727 39.3676 33.4562 40.3511 34.6694 40.3511Z" fill="url(#paint14_linear)"/>
<path fill-rule="evenodd" clip-rule="evenodd" d="M42.4359 45.9209C43.2938 45.063 43.2938 43.6722 42.4359 42.8143C41.578 41.9564 40.1872 41.9564 39.3293 42.8143C38.4714 43.6722 38.4714 45.063 39.3293 45.9209C40.1871 46.7786 41.5779 46.7786 42.4359 45.9209Z" fill="url(#paint15_linear)"/>
<path fill-rule="evenodd" clip-rule="evenodd" d="M48.6491 52.1341C49.507 51.2762 49.507 49.8854 48.6491 49.0275C47.7912 48.1696 46.4004 48.1696 45.5425 49.0275C44.6846 49.8854 44.6846 51.2762 45.5425 52.1341C46.4004 52.992 47.7912 52.992 48.6491 52.1341Z" fill="url(#paint16_linear)"/>
<path d="M28.4044 46.6161C29.6176 46.6161 30.6011 45.6326 30.6011 44.4194C30.6011 43.2062 29.6176 42.2227 28.4044 42.2227C27.1912 42.2227 26.2077 43.2062 26.2077 44.4194C26.2077 45.6326 27.1912 46.6161 28.4044 46.6161Z" fill="url(#paint17_linear)"/>
<path fill-rule="evenodd" clip-rule="evenodd" d="M33.0642 49.0792C32.2063 49.9371 32.2063 51.3279 33.0642 52.1858C33.9221 53.0436 35.3129 53.0436 36.1707 52.1858C37.0286 51.3279 37.0286 49.9371 36.1707 49.0792C35.313 48.2214 33.9221 48.2214 33.0642 49.0792Z" fill="url(#paint18_linear)"/>
<path fill-rule="evenodd" clip-rule="evenodd" d="M42.3841 55.2925C41.5262 54.4346 40.1354 54.4346 39.2775 55.2925C38.4196 56.1504 38.4196 57.5412 39.2775 58.3991C40.1354 59.257 41.5262 59.257 42.3841 58.3991C43.2419 57.5412 43.2419 56.1504 42.3841 55.2925Z" fill="url(#paint19_linear)"/>
<path fill-rule="evenodd" clip-rule="evenodd" d="M4.92421 14.6742C11.4897 8.10875 22.1722 8.10845 28.738 14.6742L37.7502 23.6863L46.7622 14.6742C53.3277 8.10859 64.0101 8.1086 70.5759 14.6744C77.1415 21.2398 77.1415 31.9222 70.5759 38.488L61.5638 47.5L70.5763 56.5121C77.1419 63.0777 77.1419 73.7601 70.5763 80.3257C67.2934 83.6086 62.9808 85.25 58.6693 85.25C54.3579 85.25 50.0454 83.6088 46.7625 80.3259L37.7503 71.3137L28.738 80.3259C25.4551 83.6088 21.1426 85.25 16.8311 85.25C12.5197 85.25 8.20712 83.6088 4.92421 80.3259C-1.6414 73.7603 -1.6414 63.0778 4.92421 56.5122L13.9364 47.5L4.92421 38.4879C-1.64141 31.9224 -1.6414 21.24 4.92421 14.6742ZM28.3844 15.0278C22.0139 8.65727 11.648 8.65756 5.27776 15.0278C-1.09259 21.3983 -1.09258 31.7641 5.27776 38.1343L14.6435 47.5L5.27776 56.8658C-1.09259 63.2361 -1.09259 73.602 5.27776 79.9723C8.46283 83.1574 12.6465 84.75 16.8311 84.75C21.0159 84.75 25.1994 83.1574 28.3844 79.9723L37.7503 70.6066L47.1161 79.9723C50.3011 83.1574 54.4846 84.75 58.6693 84.75C62.854 84.75 67.0377 83.1572 70.2227 79.9722C76.5931 73.6018 76.5931 63.236 70.2227 56.8656L60.8567 47.5L70.2223 38.1344C76.5927 31.7639 76.5927 21.3981 70.2223 15.0279C63.8518 8.65741 53.486 8.65742 47.1158 15.0278L37.7502 24.3934L28.3844 15.0278ZM16.8311 14.6413C13.7713 14.6413 10.7127 15.8058 8.3842 18.1343C3.72698 22.7917 3.72698 30.3704 8.3842 35.0277L14.2148 40.8583L31.1083 23.9648L25.2779 18.1343C22.9492 15.8057 19.8907 14.6413 16.8311 14.6413ZM8.03064 17.7808C10.457 15.3544 13.6446 14.1413 16.8311 14.1413C20.0174 14.1413 23.2049 15.3543 25.6314 17.7808L31.8154 23.9648L14.2148 41.5654L8.03064 35.3813C3.17817 30.5286 3.17817 22.6334 8.03064 17.7808ZM67.1159 18.1345C62.4585 13.4771 54.8797 13.477 50.2224 18.1343L41.2103 27.1464L58.1038 44.04L67.1159 35.028C71.7732 30.3705 71.7732 22.7918 67.1159 18.1345ZM49.8688 17.7808C54.7214 12.9282 62.6168 12.9283 67.4694 17.7809C72.322 22.6336 72.322 30.5288 67.4694 35.3816L58.1038 44.7472L40.5032 27.1464L49.8688 17.7808ZM34.5685 26.7179L58.5322 50.6816L40.9316 68.2824L16.9678 44.3185L34.5685 26.7179ZM17.675 44.3185L40.9316 67.5753L57.8251 50.6816L34.5685 27.425L17.675 44.3185ZM34.6694 36.2077C33.5942 36.2077 32.7227 37.0792 32.7227 38.1544C32.7227 39.2295 33.5942 40.1011 34.6694 40.1011C35.7445 40.1011 36.6161 39.2295 36.6161 38.1544C36.6161 37.0792 35.7445 36.2077 34.6694 36.2077ZM32.2227 38.1544C32.2227 36.8031 33.3181 35.7077 34.6694 35.7077C36.0207 35.7077 37.1161 36.8031 37.1161 38.1544C37.1161 39.5057 36.0207 40.6011 34.6694 40.6011C33.3181 40.6011 32.2227 39.5057 32.2227 38.1544ZM39.1525 42.6375C40.1081 41.682 41.6572 41.682 42.6127 42.6375C43.5682 43.5931 43.5682 45.1422 42.6127 46.0977C41.657 47.053 40.1079 47.0531 39.1525 46.0977C38.197 45.1422 38.197 43.5931 39.1525 42.6375ZM42.2591 42.9911C41.4989 42.2308 40.2664 42.2308 39.5061 42.9911C38.7458 43.7514 38.7458 44.9839 39.5061 45.7441C40.2662 46.5042 41.4987 46.5043 42.2591 45.7441C42.2591 45.7441 42.2591 45.7441 42.2591 45.7441M28.4044 42.4727C27.3292 42.4727 26.4577 43.3442 26.4577 44.4194C26.4577 45.4945 27.3292 46.3661 28.4044 46.3661C29.4795 46.3661 30.3511 45.4945 30.3511 44.4194C30.3511 43.3442 29.4795 42.4727 28.4044 42.4727ZM25.9577 44.4194C25.9577 43.0681 27.0531 41.9727 28.4044 41.9727C29.7556 41.9727 30.8511 43.0681 30.8511 44.4194C30.8511 45.7707 29.7556 46.8661 28.4044 46.8661C27.0531 46.8661 25.9577 45.7707 25.9577 44.4194ZM32.8874 48.9024C33.8429 47.947 35.3921 47.947 36.3475 48.9024C37.303 49.8579 37.303 51.407 36.3475 52.3625C35.392 53.3181 33.8429 53.3181 32.8874 52.3625C31.9319 51.407 31.9319 49.8579 32.8874 48.9024ZM45.3657 48.8507C46.3212 47.8952 47.8703 47.8952 48.8258 48.8507C49.7814 49.8062 49.7814 51.3553 48.8258 52.3108C47.8703 53.2664 46.3212 53.2664 45.3657 52.3108C44.4102 51.3553 44.4102 49.8062 45.3657 48.8507ZM35.994 49.256C35.2339 48.4959 34.0012 48.4958 33.2409 49.256C32.4807 50.0162 32.4807 51.2487 33.2409 52.009C34.0012 52.7692 35.2337 52.7692 35.994 52.009C36.7542 51.2487 36.7542 50.0162 35.994 49.256ZM17.3964 50.2531L34.997 67.8537L25.6313 77.2194C20.7786 82.0721 12.8833 82.0721 8.03064 77.2194C3.17802 72.3668 3.17802 64.4716 8.03064 59.6188L17.3964 50.2531ZM17.3964 50.9602L8.3842 59.9724C3.72684 64.6299 3.72684 72.2085 8.3842 76.8659C13.0416 81.5232 20.6203 81.5232 25.2777 76.8659L34.2899 67.8537L17.3964 50.9602ZM61.2851 53.4345L67.4693 59.6187C72.3219 64.4713 72.3219 72.3667 67.4693 77.2193C62.6168 82.0719 54.7214 82.0722 49.8687 77.2194L43.6845 71.0353L61.2851 53.4345ZM44.3916 71.0352L50.2222 76.8659C54.8797 81.5234 62.4585 81.5231 67.1157 76.8657C71.7731 72.2084 71.7731 64.6296 67.1157 59.9722L61.2851 54.1416L44.3916 71.0352ZM39.1007 55.1157C40.0562 54.1602 41.6053 54.1602 42.5608 55.1157C43.5164 56.0712 43.5164 57.6203 42.5608 58.5758C41.6053 59.5314 40.0562 59.5314 39.1007 58.5758C38.1452 57.6203 38.1452 56.0712 39.1007 55.1157ZM42.2073 55.4693C41.447 54.709 40.2145 54.709 39.4543 55.4693C38.694 56.2295 38.694 57.462 39.4543 58.2223C40.2145 58.9826 41.447 58.9826 42.2073 58.2223C42.9675 57.462 42.9675 56.2295 42.2073 55.4693Z" fill="url(#paint20_linear)"/>
<defs>
<linearGradient id="paint0_linear" x1="48.0003" y1="0" x2="48.0003" y2="75.5" gradientUnits="userSpaceOnUse">
<stop stop-color="#F4A96B"/>
<stop offset="1" stop-color="#946AAD"/>
</linearGradient>
<linearGradient id="paint1_linear" x1="48.0003" y1="0" x2="48.0003" y2="75.5" gradientUnits="userSpaceOnUse">
<stop stop-color="#F4A96B"/>
<stop offset="1" stop-color="#946AAD"/>
</linearGradient>
<linearGradient id="paint2_linear" x1="48.0003" y1="0" x2="48.0003" y2="75.5" gradientUnits="userSpaceOnUse">
<stop stop-color="#F4A96B"/>
<stop offset="1" stop-color="#946AAD"/>
</linearGradient>
<linearGradient id="paint3_linear" x1="48.0003" y1="0" x2="48.0003" y2="75.5" gradientUnits="userSpaceOnUse">
<stop stop-color="#F4A96B"/>
<stop offset="1" stop-color="#946AAD"/>
</linearGradient>
<linearGradient id="paint4_linear" x1="48.0003" y1="0" x2="48.0003" y2="75.5" gradientUnits="userSpaceOnUse">
<stop stop-color="#F4A96B"/>
<stop offset="1" stop-color="#946AAD"/>
</linearGradient>
<linearGradient id="paint5_linear" x1="48.0003" y1="0" x2="48.0003" y2="75.5" gradientUnits="userSpaceOnUse">
<stop stop-color="#F4A96B"/>
<stop offset="1" stop-color="#946AAD"/>
</linearGradient>
<linearGradient id="paint6_linear" x1="48.0003" y1="0" x2="48.0003" y2="75.5" gradientUnits="userSpaceOnUse">
<stop stop-color="#F4A96B"/>
<stop offset="1" stop-color="#946AAD"/>
</linearGradient>
<linearGradient id="paint7_linear" x1="48.0003" y1="0" x2="48.0003" y2="75.5" gradientUnits="userSpaceOnUse">
<stop stop-color="#F4A96B"/>
<stop offset="1" stop-color="#946AAD"/>
</linearGradient>
<linearGradient id="paint8_linear" x1="48.0003" y1="0" x2="48.0003" y2="75.5" gradientUnits="userSpaceOnUse">
<stop stop-color="#F4A96B"/>
<stop offset="1" stop-color="#946AAD"/>
</linearGradient>
<linearGradient id="paint9_linear" x1="48.0003" y1="0" x2="48.0003" y2="75.5" gradientUnits="userSpaceOnUse">
<stop stop-color="#F4A96B"/>
<stop offset="1" stop-color="#946AAD"/>
</linearGradient>
<linearGradient id="paint10_linear" x1="48.0003" y1="0" x2="48.0003" y2="75.5" gradientUnits="userSpaceOnUse">
<stop stop-color="#F4A96B"/>
<stop offset="1" stop-color="#946AAD"/>
</linearGradient>
<linearGradient id="paint11_linear" x1="48.0003" y1="0" x2="48.0003" y2="75.5" gradientUnits="userSpaceOnUse">
<stop stop-color="#F4A96B"/>
<stop offset="1" stop-color="#946AAD"/>
</linearGradient>
<linearGradient id="paint12_linear" x1="48.0003" y1="0" x2="48.0003" y2="75.5" gradientUnits="userSpaceOnUse">
<stop stop-color="#F4A96B"/>
<stop offset="1" stop-color="#946AAD"/>
</linearGradient>
<linearGradient id="paint13_linear" x1="37.7503" y1="9.75" x2="37.7503" y2="85.25" gradientUnits="userSpaceOnUse">
<stop stop-color="#F4A96B"/>
<stop offset="1" stop-color="#946AAD"/>
</linearGradient>
<linearGradient id="paint14_linear" x1="37.7503" y1="9.75" x2="37.7503" y2="85.25" gradientUnits="userSpaceOnUse">
<stop stop-color="#F4A96B"/>
<stop offset="1" stop-color="#946AAD"/>
</linearGradient>
<linearGradient id="paint15_linear" x1="37.7503" y1="9.75" x2="37.7503" y2="85.25" gradientUnits="userSpaceOnUse">
<stop stop-color="#F4A96B"/>
<stop offset="1" stop-color="#946AAD"/>
</linearGradient>
<linearGradient id="paint16_linear" x1="37.7503" y1="9.75" x2="37.7503" y2="85.25" gradientUnits="userSpaceOnUse">
<stop stop-color="#F4A96B"/>
<stop offset="1" stop-color="#946AAD"/>
</linearGradient>
<linearGradient id="paint17_linear" x1="37.7503" y1="9.75" x2="37.7503" y2="85.25" gradientUnits="userSpaceOnUse">
<stop stop-color="#F4A96B"/>
<stop offset="1" stop-color="#946AAD"/>
</linearGradient>
<linearGradient id="paint18_linear" x1="37.7503" y1="9.75" x2="37.7503" y2="85.25" gradientUnits="userSpaceOnUse">
<stop stop-color="#F4A96B"/>
<stop offset="1" stop-color="#946AAD"/>
</linearGradient>
<linearGradient id="paint19_linear" x1="37.7503" y1="9.75" x2="37.7503" y2="85.25" gradientUnits="userSpaceOnUse">
<stop stop-color="#F4A96B"/>
<stop offset="1" stop-color="#946AAD"/>
</linearGradient>
<linearGradient id="paint20_linear" x1="37.7503" y1="9.75" x2="37.7503" y2="85.25" gradientUnits="userSpaceOnUse">
<stop stop-color="#F4A96B"/>
<stop offset="1" stop-color="#946AAD"/>
</linearGradient>
</defs>
</svg>
