<svg width="85" height="95" viewBox="0 0 85 95" fill="none" xmlns="http://www.w3.org/2000/svg">
<g opacity="0.2">
<path d="M22.3402 11.112C27.2302 8.71408 35.0685 5.85565 44.6401 5.85565C51.1831 5.85565 57.4919 7.42174 63.4476 10.5147C55.046 12.1016 48.6711 19.4952 48.6711 28.3511C48.6711 33.1987 50.5626 37.7433 53.9971 41.1473C57.4186 44.5386 61.9738 46.4061 66.8236 46.4061C71.6734 46.4061 76.2287 44.5386 79.6501 41.1473C83.0846 37.7433 84.9761 33.1989 84.9761 28.3511C84.9761 23.447 83.0205 18.9916 79.8491 15.7218L79.8501 15.7209C79.7121 15.5576 76.4004 11.6737 70.4319 7.81114C62.5358 2.70106 53.6171 0 44.64 0C33.8506 0 25.0478 3.23686 19.563 5.95241C13.5861 8.91156 10.1436 11.8949 10 12.0203L13.8494 16.433C13.8801 16.4063 16.9861 13.7373 22.3402 11.112ZM66.8236 40.5504C60.0431 40.5504 54.5268 35.0778 54.5268 28.3511C54.5268 21.5706 60.0431 16.0543 66.8236 16.0543C73.6042 16.0543 79.1205 21.5706 79.1205 28.3511C79.1205 35.0778 73.6042 40.5504 66.8236 40.5504ZM81.1506 58.5193C81.1199 58.5459 78.0139 61.2149 72.6598 63.8403C67.7698 66.2382 59.9315 69.0966 50.3599 69.0966C43.8568 69.0966 37.5636 67.5278 31.5974 64.429C39.9767 62.8242 46.3287 55.4413 46.3287 46.6013C46.3287 41.7537 44.4372 37.2091 41.0027 33.8051C37.5813 30.4138 33.026 28.5463 28.1762 28.5463C23.3264 28.5463 18.7712 30.4138 15.3497 33.8051C11.9152 37.2091 10.0237 41.7535 10.0237 46.6013C10.0237 51.4094 11.9035 55.7862 14.9657 59.0374L14.9624 59.0403C15.1023 59.2056 18.4573 63.1327 24.468 67.0412C32.4273 72.2167 41.3806 74.9524 50.3599 74.9524C61.1492 74.9524 69.952 71.7154 75.4368 69C81.4138 66.0409 84.8564 63.0576 85 62.932L81.1506 58.5193ZM28.1764 34.4019C34.9569 34.4019 40.4732 39.8745 40.4732 46.6011C40.4732 53.3817 34.9569 58.898 28.1764 58.898C21.3958 58.898 15.8795 53.3817 15.8795 46.6011C15.8795 39.8745 21.3958 34.4019 28.1764 34.4019Z" fill="url(#paint0_linear)"/>
<path d="M66.8236 40.5504C60.0431 40.5504 54.5268 35.0778 54.5268 28.3511C54.5268 21.5706 60.0431 16.0543 66.8236 16.0543C73.6042 16.0543 79.1205 21.5706 79.1205 28.3511C79.1205 35.0778 73.6042 40.5504 66.8236 40.5504Z" fill="url(#paint1_linear)"/>
<path d="M28.1764 34.4019C34.9569 34.4019 40.4732 39.8745 40.4732 46.6011C40.4732 53.3817 34.9569 58.898 28.1764 58.898C21.3958 58.898 15.8795 53.3817 15.8795 46.6011C15.8795 39.8745 21.3958 34.4019 28.1764 34.4019Z" fill="url(#paint2_linear)"/>
</g>
<path d="M12.3402 31.1359C17.2302 28.738 25.0685 25.8796 34.6401 25.8796C41.1831 25.8796 47.4919 27.4457 53.4476 30.5386C45.046 32.1255 38.6711 39.5191 38.6711 48.3751C38.6711 53.2227 40.5626 57.7672 43.9971 61.1713C47.4186 64.5626 51.9738 66.4301 56.8236 66.4301C61.6734 66.4301 66.2287 64.5626 69.6501 61.1713C73.0846 57.7672 74.9761 53.2228 74.9761 48.3751C74.9761 43.471 73.0205 39.0155 69.8491 35.7458L69.8501 35.7449C69.7121 35.5815 66.4004 31.6976 60.4319 27.8351C52.5358 22.725 43.6171 20.0239 34.64 20.0239C23.8506 20.0239 15.0478 23.2608 9.563 25.9763C3.58614 28.9355 0.14361 31.9188 0 32.0443L3.84936 36.4569C3.8801 36.4303 6.98608 33.7613 12.3402 31.1359ZM56.8236 60.5743C50.0431 60.5743 44.5268 55.1017 44.5268 48.3751C44.5268 41.5945 50.0431 36.0782 56.8236 36.0782C63.6042 36.0782 69.1205 41.5945 69.1205 48.3751C69.1205 55.1017 63.6042 60.5743 56.8236 60.5743ZM71.1506 78.5432C71.1199 78.5699 68.0139 81.2389 62.6598 83.8642C57.7698 86.2621 49.9315 89.1206 40.3599 89.1206C33.8568 89.1206 27.5636 87.5517 21.5974 84.4529C29.9767 82.8481 36.3287 75.4652 36.3287 66.6252C36.3287 61.7776 34.4372 57.233 31.0027 53.829C27.5813 50.4377 23.026 48.5702 18.1762 48.5702C13.3264 48.5702 8.77117 50.4377 5.34972 53.829C1.91524 57.233 0.0237154 61.7775 0.0237154 66.6252C0.0237154 71.4333 1.90352 75.8101 4.96573 79.0613L4.96237 79.0642C5.10232 79.2295 8.45731 83.1566 14.468 87.0651C22.4273 92.2406 31.3806 94.9763 40.3599 94.9763C51.1492 94.9763 59.952 91.7393 65.4368 89.0239C71.4138 86.0648 74.8564 83.0815 75 82.9559L71.1506 78.5432ZM18.1764 54.4258C24.9569 54.4258 30.4732 59.8984 30.4732 66.6251C30.4732 73.4056 24.9569 78.9219 18.1764 78.9219C11.3958 78.9219 5.87951 73.4056 5.87951 66.6251C5.87951 59.8984 11.3958 54.4258 18.1764 54.4258Z" fill="url(#paint3_linear)"/>
<defs>
<linearGradient id="paint0_linear" x1="47.5" y1="0" x2="47.5" y2="74.9524" gradientUnits="userSpaceOnUse">
<stop stop-color="#F4A96B"/>
<stop offset="1" stop-color="#946AAD"/>
</linearGradient>
<linearGradient id="paint1_linear" x1="47.5" y1="0" x2="47.5" y2="74.9524" gradientUnits="userSpaceOnUse">
<stop stop-color="#F4A96B"/>
<stop offset="1" stop-color="#946AAD"/>
</linearGradient>
<linearGradient id="paint2_linear" x1="47.5" y1="0" x2="47.5" y2="74.9524" gradientUnits="userSpaceOnUse">
<stop stop-color="#F4A96B"/>
<stop offset="1" stop-color="#946AAD"/>
</linearGradient>
<linearGradient id="paint3_linear" x1="37.5" y1="20.0239" x2="37.5" y2="94.9763" gradientUnits="userSpaceOnUse">
<stop stop-color="#F4A96B"/>
<stop offset="1" stop-color="#946AAD"/>
</linearGradient>
</defs>
</svg>
