<svg width="68" height="86" viewBox="0 0 68 86" fill="none" xmlns="http://www.w3.org/2000/svg">
<g opacity="0.2">
<path d="M58.2763 54.4069C58.0349 53.425 57.1542 52.7344 56.1426 52.7344H53.7702C61.7902 47.6709 67.1289 38.7302 67.1289 28.5645C67.1289 12.8139 54.315 0 38.5645 0C22.8139 0 10 12.8139 10 28.5645C10 38.7302 15.3387 47.6709 23.3587 52.7344H20.9863C19.9747 52.7344 19.094 53.425 18.8526 54.4069L14.458 72.278C14.2967 72.9338 14.446 73.6273 14.8626 74.1583C15.2792 74.6899 15.9166 75 16.5918 75H60.5371C61.2123 75 61.8497 74.6899 62.2663 74.1583C62.6829 73.6273 62.8316 72.9338 62.6709 72.278L58.2763 54.4069ZM14.3945 28.5645C14.3945 15.2372 25.2372 4.39453 38.5645 4.39453C51.8917 4.39453 62.7344 15.2372 62.7344 28.5645C62.7344 41.8917 51.8917 52.7344 38.5645 52.7344C25.2372 52.7344 14.3945 41.8917 14.3945 28.5645ZM19.395 70.6055L22.7087 57.1289H54.4202L57.7339 70.6055H19.395Z" fill="url(#paint0_linear)"/>
<path d="M50.5991 23.7591L43.6451 22.7486L40.5346 16.4469C40.1649 15.6967 39.401 15.2218 38.5645 15.2218C37.7279 15.2218 36.964 15.6967 36.5944 16.4469L33.4838 22.7486L26.5298 23.7591C25.7019 23.8792 25.0141 24.4589 24.756 25.2542C24.4974 26.0502 24.7131 26.9234 25.3116 27.507L30.3442 32.412L29.1563 39.3379C29.0149 40.1625 29.3537 40.9956 30.03 41.4871C30.7069 41.9786 31.6042 42.0439 32.344 41.6548L38.5645 38.3841L44.7849 41.6548C45.1059 41.8236 45.4572 41.9071 45.8068 41.9071C46.2623 41.9071 46.7161 41.7652 47.0989 41.4877C47.7752 40.9956 48.114 40.1625 47.9726 39.3385L46.7847 32.412L51.8167 27.507C52.4158 26.9234 52.6315 26.0502 52.3729 25.2542C52.1143 24.4589 51.427 23.8792 50.5991 23.7591ZM42.8903 30.0716C42.3725 30.5763 42.1362 31.3036 42.258 32.0166L42.8886 35.693L39.587 33.9569C39.2671 33.7887 38.9158 33.7046 38.5645 33.7046C38.2131 33.7046 37.8618 33.7887 37.5419 33.9569L34.2403 35.693L34.8709 32.0166C34.9928 31.3036 34.7564 30.5763 34.2386 30.0716L31.5675 27.4675L35.2588 26.9314C35.9747 26.8272 36.5932 26.3781 36.9136 25.7292L38.5645 22.3841L40.2153 25.7292C40.5351 26.3781 41.1543 26.8272 41.8695 26.9314L45.5614 27.4675L42.8903 30.0716Z" fill="url(#paint1_linear)"/>
<path d="M19.395 70.6055L22.7087 57.1289H54.4202L57.7339 70.6055H19.395Z" fill="url(#paint2_linear)"/>
<path fill-rule="evenodd" clip-rule="evenodd" d="M14.3945 28.5645C14.3945 15.2372 25.2372 4.39453 38.5645 4.39453C51.8917 4.39453 62.7344 15.2372 62.7344 28.5645C62.7344 41.8917 51.8917 52.7344 38.5645 52.7344C25.2372 52.7344 14.3945 41.8917 14.3945 28.5645ZM43.6451 22.7486L50.5991 23.7591C51.427 23.8792 52.1143 24.4589 52.3729 25.2542C52.6315 26.0502 52.4158 26.9234 51.8167 27.507L46.7847 32.412L47.9726 39.3385C48.114 40.1625 47.7752 40.9956 47.0989 41.4877C46.7161 41.7652 46.2623 41.9071 45.8068 41.9071C45.4572 41.9071 45.1059 41.8236 44.7849 41.6548L38.5645 38.3841L32.344 41.6548C31.6042 42.0439 30.7069 41.9786 30.03 41.4871C29.3537 40.9956 29.0149 40.1625 29.1563 39.3379L30.3442 32.412L25.3116 27.507C24.7131 26.9234 24.4974 26.0502 24.756 25.2542C25.0141 24.4589 25.7019 23.8792 26.5298 23.7591L33.4838 22.7486L36.5944 16.4469C36.964 15.6967 37.7279 15.2218 38.5645 15.2218C39.401 15.2218 40.1649 15.6967 40.5346 16.4469L43.6451 22.7486Z" fill="url(#paint3_linear)"/>
<path d="M42.8903 30.0716C42.3725 30.5763 42.1362 31.3036 42.258 32.0166L42.8886 35.693L39.587 33.9569C39.2671 33.7887 38.9158 33.7046 38.5645 33.7046C38.2131 33.7046 37.8618 33.7887 37.5419 33.9569L34.2403 35.693L34.8709 32.0166C34.9928 31.3036 34.7564 30.5763 34.2386 30.0716L31.5675 27.4675L35.2588 26.9314C35.9747 26.8272 36.5932 26.3781 36.9136 25.7292L38.5645 22.3841L40.2153 25.7292C40.5351 26.3781 41.1543 26.8272 41.8695 26.9314L45.5614 27.4675L42.8903 30.0716Z" fill="url(#paint4_linear)"/>
</g>
<path d="M48.2763 65.4069C48.0349 64.425 47.1542 63.7344 46.1426 63.7344H43.7702C51.7902 58.6709 57.1289 49.7302 57.1289 39.5645C57.1289 23.8139 44.315 11 28.5645 11C12.8139 11 0 23.8139 0 39.5645C0 49.7302 5.33867 58.6709 13.3587 63.7344H10.9863C9.97467 63.7344 9.09405 64.425 8.85258 65.4069L4.45805 83.278C4.29668 83.9338 4.44603 84.6273 4.86259 85.1583C5.27916 85.6899 5.9166 86 6.5918 86H50.5371C51.2123 86 51.8497 85.6899 52.2663 85.1583C52.6829 84.6273 52.8316 83.9338 52.6709 83.278L48.2763 65.4069ZM4.39453 39.5645C4.39453 26.2372 15.2372 15.3945 28.5645 15.3945C41.8917 15.3945 52.7344 26.2372 52.7344 39.5645C52.7344 52.8917 41.8917 63.7344 28.5645 63.7344C15.2372 63.7344 4.39453 52.8917 4.39453 39.5645ZM9.39503 81.6055L12.7087 68.1289H44.4202L47.7339 81.6055H9.39503Z" fill="url(#paint5_linear)"/>
<path d="M40.5991 34.7591L33.6451 33.7486L30.5346 27.4469C30.1649 26.6967 29.401 26.2218 28.5645 26.2218C27.7279 26.2218 26.964 26.6967 26.5944 27.4469L23.4838 33.7486L16.5298 34.7591C15.7019 34.8792 15.0141 35.4589 14.756 36.2542C14.4974 37.0502 14.7131 37.9234 15.3116 38.507L20.3442 43.412L19.1563 50.3379C19.0149 51.1625 19.3537 51.9956 20.03 52.4871C20.7069 52.9786 21.6042 53.0439 22.344 52.6548L28.5645 49.3841L34.7849 52.6548C35.1059 52.8236 35.4572 52.9071 35.8068 52.9071C36.2623 52.9071 36.7161 52.7652 37.0989 52.4877C37.7752 51.9956 38.114 51.1625 37.9726 50.3385L36.7847 43.412L41.8167 38.507C42.4158 37.9234 42.6315 37.0502 42.3729 36.2542C42.1143 35.4589 41.427 34.8792 40.5991 34.7591ZM32.8903 41.0716C32.3725 41.5763 32.1362 42.3036 32.258 43.0166L32.8886 46.693L29.587 44.9569C29.2671 44.7887 28.9158 44.7046 28.5645 44.7046C28.2131 44.7046 27.8618 44.7887 27.5419 44.9569L24.2403 46.693L24.8709 43.0166C24.9928 42.3036 24.7564 41.5763 24.2386 41.0716L21.5675 38.4675L25.2588 37.9314C25.9747 37.8272 26.5932 37.3781 26.9136 36.7292L28.5645 33.3841L30.2153 36.7292C30.5351 37.3781 31.1543 37.8272 31.8695 37.9314L35.5614 38.4675L32.8903 41.0716Z" fill="url(#paint6_linear)"/>
<defs>
<linearGradient id="paint0_linear" x1="38.5645" y1="0" x2="38.5645" y2="75" gradientUnits="userSpaceOnUse">
<stop stop-color="#F4A96B"/>
<stop offset="1" stop-color="#946AAD"/>
</linearGradient>
<linearGradient id="paint1_linear" x1="38.5645" y1="0" x2="38.5645" y2="75" gradientUnits="userSpaceOnUse">
<stop stop-color="#F4A96B"/>
<stop offset="1" stop-color="#946AAD"/>
</linearGradient>
<linearGradient id="paint2_linear" x1="38.5645" y1="0" x2="38.5645" y2="75" gradientUnits="userSpaceOnUse">
<stop stop-color="#F4A96B"/>
<stop offset="1" stop-color="#946AAD"/>
</linearGradient>
<linearGradient id="paint3_linear" x1="38.5645" y1="0" x2="38.5645" y2="75" gradientUnits="userSpaceOnUse">
<stop stop-color="#F4A96B"/>
<stop offset="1" stop-color="#946AAD"/>
</linearGradient>
<linearGradient id="paint4_linear" x1="38.5645" y1="0" x2="38.5645" y2="75" gradientUnits="userSpaceOnUse">
<stop stop-color="#F4A96B"/>
<stop offset="1" stop-color="#946AAD"/>
</linearGradient>
<linearGradient id="paint5_linear" x1="28.5645" y1="11" x2="28.5645" y2="86" gradientUnits="userSpaceOnUse">
<stop stop-color="#F4A96B"/>
<stop offset="1" stop-color="#946AAD"/>
</linearGradient>
<linearGradient id="paint6_linear" x1="28.5645" y1="11" x2="28.5645" y2="86" gradientUnits="userSpaceOnUse">
<stop stop-color="#F4A96B"/>
<stop offset="1" stop-color="#946AAD"/>
</linearGradient>
</defs>
</svg>
