<svg width="85" height="86" viewBox="0 0 85 86" fill="none" xmlns="http://www.w3.org/2000/svg">
<g opacity="0.2">
<path d="M20.7145 21.4285C14.8065 21.4285 10 16.6231 10 10.7145C10 4.80537 14.8065 0 20.7145 0C26.622 0 31.4285 4.80537 31.4285 10.7145C31.4285 16.6231 26.622 21.4285 20.7145 21.4285ZM20.7145 5.35698C17.7597 5.35698 15.357 7.76138 15.357 10.7145C15.357 13.6677 17.7597 16.0715 20.7145 16.0715C23.6688 16.0715 26.0715 13.6677 26.0715 10.7145C26.0715 7.76138 23.6688 5.35698 20.7145 5.35698Z" fill="url(#paint0_linear)"/>
<path d="M47.5 21.4285C41.592 21.4285 36.7855 16.6231 36.7855 10.7145C36.7855 4.80537 41.592 0 47.5 0C53.408 0 58.2145 4.80537 58.2145 10.7145C58.2145 16.6231 53.408 21.4285 47.5 21.4285ZM47.5 5.35698C44.5457 5.35698 42.143 7.76138 42.143 10.7145C42.143 13.6677 44.5457 16.0715 47.5 16.0715C50.4543 16.0715 52.857 13.6677 52.857 10.7145C52.857 7.76138 50.4543 5.35698 47.5 5.35698Z" fill="url(#paint1_linear)"/>
<path d="M74.2855 21.4285C68.378 21.4285 63.5715 16.6231 63.5715 10.7145C63.5715 4.80537 68.378 0 74.2855 0C80.1935 0 85 4.80537 85 10.7145C85 16.6231 80.1935 21.4285 74.2855 21.4285ZM74.2855 5.35698C71.3312 5.35698 68.9285 7.76138 68.9285 10.7145C68.9285 13.6677 71.3312 16.0715 74.2855 16.0715C77.2403 16.0715 79.643 13.6677 79.643 10.7145C79.643 7.76138 77.2403 5.35698 74.2855 5.35698Z" fill="url(#paint2_linear)"/>
<path d="M20.7145 48.2145C14.8065 48.2145 10 43.4092 10 37.5C10 31.5908 14.8065 26.7855 20.7145 26.7855C26.622 26.7855 31.4285 31.5908 31.4285 37.5C31.4285 43.4092 26.622 48.2145 20.7145 48.2145ZM20.7145 32.143C17.7597 32.143 15.357 34.5469 15.357 37.5C15.357 40.4531 17.7597 42.857 20.7145 42.857C23.6688 42.857 26.0715 40.4531 26.0715 37.5C26.0715 34.5469 23.6688 32.143 20.7145 32.143Z" fill="url(#paint3_linear)"/>
<path d="M47.5 48.2145C41.592 48.2145 36.7855 43.4092 36.7855 37.5C36.7855 31.5908 41.592 26.7855 47.5 26.7855C53.408 26.7855 58.2145 31.5908 58.2145 37.5C58.2145 43.4092 53.408 48.2145 47.5 48.2145ZM47.5 32.143C44.5457 32.143 42.143 34.5469 42.143 37.5C42.143 40.4531 44.5457 42.857 47.5 42.857C50.4543 42.857 52.857 40.4531 52.857 37.5C52.857 34.5469 50.4543 32.143 47.5 32.143Z" fill="url(#paint4_linear)"/>
<path d="M74.2855 48.2145C68.378 48.2145 63.5715 43.4092 63.5715 37.5C63.5715 31.5908 68.378 26.7855 74.2855 26.7855C80.1935 26.7855 85 31.5908 85 37.5C85 43.4092 80.1935 48.2145 74.2855 48.2145ZM74.2855 32.143C71.3312 32.143 68.9285 34.5469 68.9285 37.5C68.9285 40.4531 71.3312 42.857 74.2855 42.857C77.2403 42.857 79.643 40.4531 79.643 37.5C79.643 34.5469 77.2403 32.143 74.2855 32.143Z" fill="url(#paint5_linear)"/>
<path d="M20.7145 75C14.8065 75 10 70.1946 10 64.2855C10 58.3769 14.8065 53.5715 20.7145 53.5715C26.622 53.5715 31.4285 58.3769 31.4285 64.2855C31.4285 70.1946 26.622 75 20.7145 75ZM20.7145 58.9285C17.7597 58.9285 15.357 61.3323 15.357 64.2855C15.357 67.2386 17.7597 69.643 20.7145 69.643C23.6688 69.643 26.0715 67.2386 26.0715 64.2855C26.0715 61.3323 23.6688 58.9285 20.7145 58.9285Z" fill="url(#paint6_linear)"/>
<path d="M47.5 75C41.592 75 36.7855 70.1946 36.7855 64.2855C36.7855 58.3769 41.592 53.5715 47.5 53.5715C53.408 53.5715 58.2145 58.3769 58.2145 64.2855C58.2145 70.1946 53.408 75 47.5 75ZM47.5 58.9285C44.5457 58.9285 42.143 61.3323 42.143 64.2855C42.143 67.2386 44.5457 69.643 47.5 69.643C50.4543 69.643 52.857 67.2386 52.857 64.2855C52.857 61.3323 50.4543 58.9285 47.5 58.9285Z" fill="url(#paint7_linear)"/>
<path d="M74.2855 75C68.378 75 63.5715 70.1946 63.5715 64.2855C63.5715 58.3769 68.378 53.5715 74.2855 53.5715C80.1935 53.5715 85 58.3769 85 64.2855C85 70.1946 80.1935 75 74.2855 75ZM74.2855 58.9285C71.3312 58.9285 68.9285 61.3323 68.9285 64.2855C68.9285 67.2386 71.3312 69.643 74.2855 69.643C77.2403 69.643 79.643 67.2386 79.643 64.2855C79.643 61.3323 77.2403 58.9285 74.2855 58.9285Z" fill="url(#paint8_linear)"/>
<path d="M20.7145 5.35698C17.7597 5.35698 15.357 7.76138 15.357 10.7145C15.357 13.6677 17.7597 16.0715 20.7145 16.0715C23.6688 16.0715 26.0715 13.6677 26.0715 10.7145C26.0715 7.76138 23.6688 5.35698 20.7145 5.35698Z" fill="url(#paint9_linear)"/>
<path d="M47.5 5.35698C44.5457 5.35698 42.143 7.76138 42.143 10.7145C42.143 13.6677 44.5457 16.0715 47.5 16.0715C50.4543 16.0715 52.857 13.6677 52.857 10.7145C52.857 7.76138 50.4543 5.35698 47.5 5.35698Z" fill="url(#paint10_linear)"/>
<path d="M74.2855 5.35698C71.3312 5.35698 68.9285 7.76138 68.9285 10.7145C68.9285 13.6677 71.3312 16.0715 74.2855 16.0715C77.2403 16.0715 79.643 13.6677 79.643 10.7145C79.643 7.76138 77.2403 5.35698 74.2855 5.35698Z" fill="url(#paint11_linear)"/>
<path d="M74.2855 32.143C71.3312 32.143 68.9285 34.5469 68.9285 37.5C68.9285 40.4531 71.3312 42.857 74.2855 42.857C77.2403 42.857 79.643 40.4531 79.643 37.5C79.643 34.5469 77.2403 32.143 74.2855 32.143Z" fill="url(#paint12_linear)"/>
<path d="M47.5 32.143C44.5457 32.143 42.143 34.5469 42.143 37.5C42.143 40.4531 44.5457 42.857 47.5 42.857C50.4543 42.857 52.857 40.4531 52.857 37.5C52.857 34.5469 50.4543 32.143 47.5 32.143Z" fill="url(#paint13_linear)"/>
<path d="M20.7145 32.143C17.7597 32.143 15.357 34.5469 15.357 37.5C15.357 40.4531 17.7597 42.857 20.7145 42.857C23.6688 42.857 26.0715 40.4531 26.0715 37.5C26.0715 34.5469 23.6688 32.143 20.7145 32.143Z" fill="url(#paint14_linear)"/>
<path d="M20.7145 58.9285C17.7597 58.9285 15.357 61.3323 15.357 64.2855C15.357 67.2386 17.7597 69.643 20.7145 69.643C23.6688 69.643 26.0715 67.2386 26.0715 64.2855C26.0715 61.3323 23.6688 58.9285 20.7145 58.9285Z" fill="url(#paint15_linear)"/>
<path d="M47.5 58.9285C44.5457 58.9285 42.143 61.3323 42.143 64.2855C42.143 67.2386 44.5457 69.643 47.5 69.643C50.4543 69.643 52.857 67.2386 52.857 64.2855C52.857 61.3323 50.4543 58.9285 47.5 58.9285Z" fill="url(#paint16_linear)"/>
<path d="M74.2855 58.9285C71.3312 58.9285 68.9285 61.3323 68.9285 64.2855C68.9285 67.2386 71.3312 69.643 74.2855 69.643C77.2403 69.643 79.643 67.2386 79.643 64.2855C79.643 61.3323 77.2403 58.9285 74.2855 58.9285Z" fill="url(#paint17_linear)"/>
</g>
<path d="M10.7145 32.4285C4.80652 32.4285 0 27.6231 0 21.7145C0 15.8054 4.80652 11 10.7145 11C16.622 11 21.4285 15.8054 21.4285 21.7145C21.4285 27.6231 16.622 32.4285 10.7145 32.4285ZM10.7145 16.357C7.75967 16.357 5.35698 18.7614 5.35698 21.7145C5.35698 24.6677 7.75967 27.0715 10.7145 27.0715C13.6688 27.0715 16.0715 24.6677 16.0715 21.7145C16.0715 18.7614 13.6688 16.357 10.7145 16.357Z" fill="url(#paint18_linear)"/>
<path d="M37.5 32.4285C31.592 32.4285 26.7855 27.6231 26.7855 21.7145C26.7855 15.8054 31.592 11 37.5 11C43.408 11 48.2145 15.8054 48.2145 21.7145C48.2145 27.6231 43.408 32.4285 37.5 32.4285ZM37.5 16.357C34.5457 16.357 32.143 18.7614 32.143 21.7145C32.143 24.6677 34.5457 27.0715 37.5 27.0715C40.4543 27.0715 42.857 24.6677 42.857 21.7145C42.857 18.7614 40.4543 16.357 37.5 16.357Z" fill="url(#paint19_linear)"/>
<path d="M64.2855 32.4285C58.378 32.4285 53.5715 27.6231 53.5715 21.7145C53.5715 15.8054 58.378 11 64.2855 11C70.1935 11 75 15.8054 75 21.7145C75 27.6231 70.1935 32.4285 64.2855 32.4285ZM64.2855 16.357C61.3312 16.357 58.9285 18.7614 58.9285 21.7145C58.9285 24.6677 61.3312 27.0715 64.2855 27.0715C67.2403 27.0715 69.643 24.6677 69.643 21.7145C69.643 18.7614 67.2403 16.357 64.2855 16.357Z" fill="url(#paint20_linear)"/>
<path d="M10.7145 59.2145C4.80652 59.2145 0 54.4092 0 48.5C0 42.5908 4.80652 37.7855 10.7145 37.7855C16.622 37.7855 21.4285 42.5908 21.4285 48.5C21.4285 54.4092 16.622 59.2145 10.7145 59.2145ZM10.7145 43.143C7.75967 43.143 5.35698 45.5469 5.35698 48.5C5.35698 51.4531 7.75967 53.857 10.7145 53.857C13.6688 53.857 16.0715 51.4531 16.0715 48.5C16.0715 45.5469 13.6688 43.143 10.7145 43.143Z" fill="url(#paint21_linear)"/>
<path d="M37.5 59.2145C31.592 59.2145 26.7855 54.4092 26.7855 48.5C26.7855 42.5908 31.592 37.7855 37.5 37.7855C43.408 37.7855 48.2145 42.5908 48.2145 48.5C48.2145 54.4092 43.408 59.2145 37.5 59.2145ZM37.5 43.143C34.5457 43.143 32.143 45.5469 32.143 48.5C32.143 51.4531 34.5457 53.857 37.5 53.857C40.4543 53.857 42.857 51.4531 42.857 48.5C42.857 45.5469 40.4543 43.143 37.5 43.143Z" fill="url(#paint22_linear)"/>
<path d="M64.2855 59.2145C58.378 59.2145 53.5715 54.4092 53.5715 48.5C53.5715 42.5908 58.378 37.7855 64.2855 37.7855C70.1935 37.7855 75 42.5908 75 48.5C75 54.4092 70.1935 59.2145 64.2855 59.2145ZM64.2855 43.143C61.3312 43.143 58.9285 45.5469 58.9285 48.5C58.9285 51.4531 61.3312 53.857 64.2855 53.857C67.2403 53.857 69.643 51.4531 69.643 48.5C69.643 45.5469 67.2403 43.143 64.2855 43.143Z" fill="url(#paint23_linear)"/>
<path d="M10.7145 86C4.80652 86 0 81.1946 0 75.2855C0 69.3769 4.80652 64.5715 10.7145 64.5715C16.622 64.5715 21.4285 69.3769 21.4285 75.2855C21.4285 81.1946 16.622 86 10.7145 86ZM10.7145 69.9285C7.75967 69.9285 5.35698 72.3323 5.35698 75.2855C5.35698 78.2386 7.75967 80.643 10.7145 80.643C13.6688 80.643 16.0715 78.2386 16.0715 75.2855C16.0715 72.3323 13.6688 69.9285 10.7145 69.9285Z" fill="url(#paint24_linear)"/>
<path d="M37.5 86C31.592 86 26.7855 81.1946 26.7855 75.2855C26.7855 69.3769 31.592 64.5715 37.5 64.5715C43.408 64.5715 48.2145 69.3769 48.2145 75.2855C48.2145 81.1946 43.408 86 37.5 86ZM37.5 69.9285C34.5457 69.9285 32.143 72.3323 32.143 75.2855C32.143 78.2386 34.5457 80.643 37.5 80.643C40.4543 80.643 42.857 78.2386 42.857 75.2855C42.857 72.3323 40.4543 69.9285 37.5 69.9285Z" fill="url(#paint25_linear)"/>
<path d="M64.2855 86C58.378 86 53.5715 81.1946 53.5715 75.2855C53.5715 69.3769 58.378 64.5715 64.2855 64.5715C70.1935 64.5715 75 69.3769 75 75.2855C75 81.1946 70.1935 86 64.2855 86ZM64.2855 69.9285C61.3312 69.9285 58.9285 72.3323 58.9285 75.2855C58.9285 78.2386 61.3312 80.643 64.2855 80.643C67.2403 80.643 69.643 78.2386 69.643 75.2855C69.643 72.3323 67.2403 69.9285 64.2855 69.9285Z" fill="url(#paint26_linear)"/>
<defs>
<linearGradient id="paint0_linear" x1="47.5" y1="0" x2="47.5" y2="75" gradientUnits="userSpaceOnUse">
<stop stop-color="#F4A96B"/>
<stop offset="1" stop-color="#946AAD"/>
</linearGradient>
<linearGradient id="paint1_linear" x1="47.5" y1="0" x2="47.5" y2="75" gradientUnits="userSpaceOnUse">
<stop stop-color="#F4A96B"/>
<stop offset="1" stop-color="#946AAD"/>
</linearGradient>
<linearGradient id="paint2_linear" x1="47.5" y1="0" x2="47.5" y2="75" gradientUnits="userSpaceOnUse">
<stop stop-color="#F4A96B"/>
<stop offset="1" stop-color="#946AAD"/>
</linearGradient>
<linearGradient id="paint3_linear" x1="47.5" y1="0" x2="47.5" y2="75" gradientUnits="userSpaceOnUse">
<stop stop-color="#F4A96B"/>
<stop offset="1" stop-color="#946AAD"/>
</linearGradient>
<linearGradient id="paint4_linear" x1="47.5" y1="0" x2="47.5" y2="75" gradientUnits="userSpaceOnUse">
<stop stop-color="#F4A96B"/>
<stop offset="1" stop-color="#946AAD"/>
</linearGradient>
<linearGradient id="paint5_linear" x1="47.5" y1="0" x2="47.5" y2="75" gradientUnits="userSpaceOnUse">
<stop stop-color="#F4A96B"/>
<stop offset="1" stop-color="#946AAD"/>
</linearGradient>
<linearGradient id="paint6_linear" x1="47.5" y1="0" x2="47.5" y2="75" gradientUnits="userSpaceOnUse">
<stop stop-color="#F4A96B"/>
<stop offset="1" stop-color="#946AAD"/>
</linearGradient>
<linearGradient id="paint7_linear" x1="47.5" y1="0" x2="47.5" y2="75" gradientUnits="userSpaceOnUse">
<stop stop-color="#F4A96B"/>
<stop offset="1" stop-color="#946AAD"/>
</linearGradient>
<linearGradient id="paint8_linear" x1="47.5" y1="0" x2="47.5" y2="75" gradientUnits="userSpaceOnUse">
<stop stop-color="#F4A96B"/>
<stop offset="1" stop-color="#946AAD"/>
</linearGradient>
<linearGradient id="paint9_linear" x1="47.5" y1="0" x2="47.5" y2="75" gradientUnits="userSpaceOnUse">
<stop stop-color="#F4A96B"/>
<stop offset="1" stop-color="#946AAD"/>
</linearGradient>
<linearGradient id="paint10_linear" x1="47.5" y1="0" x2="47.5" y2="75" gradientUnits="userSpaceOnUse">
<stop stop-color="#F4A96B"/>
<stop offset="1" stop-color="#946AAD"/>
</linearGradient>
<linearGradient id="paint11_linear" x1="47.5" y1="0" x2="47.5" y2="75" gradientUnits="userSpaceOnUse">
<stop stop-color="#F4A96B"/>
<stop offset="1" stop-color="#946AAD"/>
</linearGradient>
<linearGradient id="paint12_linear" x1="47.5" y1="0" x2="47.5" y2="75" gradientUnits="userSpaceOnUse">
<stop stop-color="#F4A96B"/>
<stop offset="1" stop-color="#946AAD"/>
</linearGradient>
<linearGradient id="paint13_linear" x1="47.5" y1="0" x2="47.5" y2="75" gradientUnits="userSpaceOnUse">
<stop stop-color="#F4A96B"/>
<stop offset="1" stop-color="#946AAD"/>
</linearGradient>
<linearGradient id="paint14_linear" x1="47.5" y1="0" x2="47.5" y2="75" gradientUnits="userSpaceOnUse">
<stop stop-color="#F4A96B"/>
<stop offset="1" stop-color="#946AAD"/>
</linearGradient>
<linearGradient id="paint15_linear" x1="47.5" y1="0" x2="47.5" y2="75" gradientUnits="userSpaceOnUse">
<stop stop-color="#F4A96B"/>
<stop offset="1" stop-color="#946AAD"/>
</linearGradient>
<linearGradient id="paint16_linear" x1="47.5" y1="0" x2="47.5" y2="75" gradientUnits="userSpaceOnUse">
<stop stop-color="#F4A96B"/>
<stop offset="1" stop-color="#946AAD"/>
</linearGradient>
<linearGradient id="paint17_linear" x1="47.5" y1="0" x2="47.5" y2="75" gradientUnits="userSpaceOnUse">
<stop stop-color="#F4A96B"/>
<stop offset="1" stop-color="#946AAD"/>
</linearGradient>
<linearGradient id="paint18_linear" x1="37.5" y1="11" x2="37.5" y2="86" gradientUnits="userSpaceOnUse">
<stop stop-color="#F4A96B"/>
<stop offset="1" stop-color="#946AAD"/>
</linearGradient>
<linearGradient id="paint19_linear" x1="37.5" y1="11" x2="37.5" y2="86" gradientUnits="userSpaceOnUse">
<stop stop-color="#F4A96B"/>
<stop offset="1" stop-color="#946AAD"/>
</linearGradient>
<linearGradient id="paint20_linear" x1="37.5" y1="11" x2="37.5" y2="86" gradientUnits="userSpaceOnUse">
<stop stop-color="#F4A96B"/>
<stop offset="1" stop-color="#946AAD"/>
</linearGradient>
<linearGradient id="paint21_linear" x1="37.5" y1="11" x2="37.5" y2="86" gradientUnits="userSpaceOnUse">
<stop stop-color="#F4A96B"/>
<stop offset="1" stop-color="#946AAD"/>
</linearGradient>
<linearGradient id="paint22_linear" x1="37.5" y1="11" x2="37.5" y2="86" gradientUnits="userSpaceOnUse">
<stop stop-color="#F4A96B"/>
<stop offset="1" stop-color="#946AAD"/>
</linearGradient>
<linearGradient id="paint23_linear" x1="37.5" y1="11" x2="37.5" y2="86" gradientUnits="userSpaceOnUse">
<stop stop-color="#F4A96B"/>
<stop offset="1" stop-color="#946AAD"/>
</linearGradient>
<linearGradient id="paint24_linear" x1="37.5" y1="11" x2="37.5" y2="86" gradientUnits="userSpaceOnUse">
<stop stop-color="#F4A96B"/>
<stop offset="1" stop-color="#946AAD"/>
</linearGradient>
<linearGradient id="paint25_linear" x1="37.5" y1="11" x2="37.5" y2="86" gradientUnits="userSpaceOnUse">
<stop stop-color="#F4A96B"/>
<stop offset="1" stop-color="#946AAD"/>
</linearGradient>
<linearGradient id="paint26_linear" x1="37.5" y1="11" x2="37.5" y2="86" gradientUnits="userSpaceOnUse">
<stop stop-color="#F4A96B"/>
<stop offset="1" stop-color="#946AAD"/>
</linearGradient>
</defs>
</svg>
