<svg width="1881" height="624" viewBox="0 0 1881 624" fill="none" xmlns="http://www.w3.org/2000/svg">
<path d="M619 242C619 244.209 617.209 246 615 246C612.791 246 611 244.209 611 242C611 239.791 612.791 238 615 238C617.209 238 619 239.791 619 242Z" fill="#206BD4"/>
<path d="M259 196C259 198.209 257.209 200 255 200C252.791 200 251 198.209 251 196C251 193.791 252.791 192 255 192C257.209 192 259 193.791 259 196Z" fill="#206BD4"/>
<path d="M1098 156C1098 158.209 1096.21 160 1094 160C1091.79 160 1090 158.209 1090 156C1090 153.791 1091.79 152 1094 152C1096.21 152 1098 153.791 1098 156Z" fill="#206BD4"/>
<path d="M480 341C480 343.209 478.209 345 476 345C473.791 345 472 343.209 472 341C472 338.791 473.791 337 476 337C478.209 337 480 338.791 480 341Z" fill="#206BD4"/>
<path d="M439 178C439 180.209 437.209 182 435 182C432.791 182 431 180.209 431 178C431 175.791 432.791 174 435 174C437.209 174 439 175.791 439 178Z" fill="#206BD4"/>
<path d="M32 452C32 454.209 30.2091 456 28 456C25.7909 456 24 454.209 24 452C24 449.791 25.7909 448 28 448C30.2091 448 32 449.791 32 452Z" fill="#206BD4"/>
<path d="M1577 242C1577 244.209 1575.21 246 1573 246C1570.79 246 1569 244.209 1569 242C1569 239.791 1570.79 238 1573 238C1575.21 238 1577 239.791 1577 242Z" fill="#206BD4"/>
<path d="M208 522C208 524.209 206.209 526 204 526C201.791 526 200 524.209 200 522C200 519.791 201.791 518 204 518C206.209 518 208 519.791 208 522Z" fill="#206BD4"/>
<path d="M1761 269C1761 271.209 1759.21 273 1757 273C1754.79 273 1753 271.209 1753 269C1753 266.791 1754.79 265 1757 265C1759.21 265 1761 266.791 1761 269Z" fill="#206BD4"/>
<path d="M1099 551.5C1099 552.328 1098.33 553 1097.5 553C1096.67 553 1096 552.328 1096 551.5C1096 550.672 1096.67 550 1097.5 550C1098.33 550 1099 550.672 1099 551.5Z" fill="#206BD4"/>
<path d="M1410 103C1410 105.209 1408.21 107 1406 107C1403.79 107 1402 105.209 1402 103C1402 100.791 1403.79 99 1406 99C1408.21 99 1410 100.791 1410 103Z" fill="#206BD4"/>
<path d="M1494 536C1494 538.209 1492.21 540 1490 540C1487.79 540 1486 538.209 1486 536C1486 533.791 1487.79 532 1490 532C1492.21 532 1494 533.791 1494 536Z" fill="#206BD4"/>
<path d="M937 158C937 160.209 935.209 162 933 162C930.791 162 929 160.209 929 158C929 155.791 930.791 154 933 154C935.209 154 937 155.791 937 158Z" fill="#206BD4"/>
<path d="M1068 232C1068 234.209 1066.21 236 1064 236C1061.79 236 1060 234.209 1060 232C1060 229.791 1061.79 228 1064 228C1066.21 228 1068 229.791 1068 232Z" fill="#206BD4"/>
<path d="M790 452C790 454.209 788.209 456 786 456C783.791 456 782 454.209 782 452C782 449.791 783.791 448 786 448C788.209 448 790 449.791 790 452Z" fill="#206BD4"/>
<path d="M1189 307C1189 309.209 1187.21 311 1185 311C1182.79 311 1181 309.209 1181 307C1181 304.791 1182.79 303 1185 303C1187.21 303 1189 304.791 1189 307Z" fill="#206BD4"/>
<path d="M1233 8C1233 10.2091 1231.21 12 1229 12C1226.79 12 1225 10.2091 1225 8C1225 5.79086 1226.79 4 1229 4C1231.21 4 1233 5.79086 1233 8Z" fill="#206BD4"/>
<path d="M1635 363C1635 365.209 1633.21 367 1631 367C1628.79 367 1627 365.209 1627 363C1627 360.791 1628.79 359 1631 359C1633.21 359 1635 360.791 1635 363Z" fill="#206BD4"/>
<path d="M1419 313C1419 315.209 1417.21 317 1415 317C1412.79 317 1411 315.209 1411 313C1411 310.791 1412.79 309 1415 309C1417.21 309 1419 310.791 1419 313Z" fill="#206BD4"/>
<path d="M25 32C25 34.2091 23.2091 36 21 36C18.7909 36 17 34.2091 17 32C17 29.7909 18.7909 28 21 28C23.2091 28 25 29.7909 25 32Z" fill="#206BD4"/>
<path d="M170 379C170 381.209 168.209 383 166 383C163.791 383 162 381.209 162 379C162 376.791 163.791 375 166 375C168.209 375 170 376.791 170 379Z" fill="#206BD4"/>
<path d="M1839 530C1839 532.209 1837.21 534 1835 534C1832.79 534 1831 532.209 1831 530C1831 527.791 1832.79 526 1835 526C1837.21 526 1839 527.791 1839 530Z" fill="#206BD4"/>
<path d="M1331 249C1331 251.209 1329.21 253 1327 253C1324.79 253 1323 251.209 1323 249C1323 246.791 1324.79 245 1327 245C1329.21 245 1331 246.791 1331 249Z" fill="#206BD4"/>
<path d="M952 108C952 110.209 950.209 112 948 112C945.791 112 944 110.209 944 108C944 105.791 945.791 104 948 104C950.209 104 952 105.791 952 108Z" fill="#206BD4"/>
<path d="M25 572C25 574.209 23.2091 576 21 576C18.7909 576 17 574.209 17 572C17 569.791 18.7909 568 21 568C23.2091 568 25 569.791 25 572Z" fill="#206BD4"/>
<path d="M740 4C740 6.20914 738.209 8 736 8C733.791 8 732 6.20914 732 4C732 1.79086 733.791 0 736 0C738.209 0 740 1.79086 740 4Z" fill="#206BD4"/>
<path d="M1831 88C1831 90.2091 1829.21 92 1827 92C1824.79 92 1823 90.2091 1823 88C1823 85.7909 1824.79 84 1827 84C1829.21 84 1831 85.7909 1831 88Z" fill="#206BD4"/>
<path d="M295 74.5C295 75.3284 294.328 76 293.5 76C292.672 76 292 75.3284 292 74.5C292 73.6716 292.672 73 293.5 73C294.328 73 295 73.6716 295 74.5Z" fill="#206BD4"/>
<path d="M101 443.5C101 444.328 100.328 445 99.5 445C98.6716 445 98 444.328 98 443.5C98 442.672 98.6716 442 99.5 442C100.328 442 101 442.672 101 443.5Z" fill="#206BD4"/>
<path d="M1861 184.5C1861 185.328 1860.33 186 1859.5 186C1858.67 186 1858 185.328 1858 184.5C1858 183.672 1858.67 183 1859.5 183C1860.33 183 1861 183.672 1861 184.5Z" fill="#206BD4"/>
<path d="M648 435.5C648 436.328 647.328 437 646.5 437C645.672 437 645 436.328 645 435.5C645 434.672 645.672 434 646.5 434C647.328 434 648 434.672 648 435.5Z" fill="#206BD4"/>
<path d="M1210 535.5C1210 536.328 1209.33 537 1208.5 537C1207.67 537 1207 536.328 1207 535.5C1207 534.672 1207.67 534 1208.5 534C1209.33 534 1210 534.672 1210 535.5Z" fill="#206BD4"/>
<path d="M1587 259.5C1587 260.328 1586.33 261 1585.5 261C1584.67 261 1584 260.328 1584 259.5C1584 258.672 1584.67 258 1585.5 258C1586.33 258 1587 258.672 1587 259.5Z" fill="#206BD4"/>
<path d="M561 622.5C561 623.328 560.328 624 559.5 624C558.672 624 558 623.328 558 622.5C558 621.672 558.672 621 559.5 621C560.328 621 561 621.672 561 622.5Z" fill="#206BD4"/>
<path d="M793 303.5C793 304.328 792.328 305 791.5 305C790.672 305 790 304.328 790 303.5C790 302.672 790.672 302 791.5 302C792.328 302 793 302.672 793 303.5Z" fill="#206BD4"/>
<path d="M3 131.5C3 132.328 2.32843 133 1.5 133C0.671573 133 0 132.328 0 131.5C0 130.672 0.671573 130 1.5 130C2.32843 130 3 130.672 3 131.5Z" fill="#206BD4"/>
<path d="M568 146.5C568 147.328 567.328 148 566.5 148C565.672 148 565 147.328 565 146.5C565 145.672 565.672 145 566.5 145C567.328 145 568 145.672 568 146.5Z" fill="#206BD4"/>
<path d="M1107 337.5C1107 338.328 1106.33 339 1105.5 339C1104.67 339 1104 338.328 1104 337.5C1104 336.672 1104.67 336 1105.5 336C1106.33 336 1107 336.672 1107 337.5Z" fill="#206BD4"/>
<path d="M610 17.5C610 18.3284 609.328 19 608.5 19C607.672 19 607 18.3284 607 17.5C607 16.6716 607.672 16 608.5 16C609.328 16 610 16.6716 610 17.5Z" fill="#206BD4"/>
<path d="M191 276.5C191 277.328 190.328 278 189.5 278C188.672 278 188 277.328 188 276.5C188 275.672 188.672 275 189.5 275C190.328 275 191 275.672 191 276.5Z" fill="#206BD4"/>
<path d="M1358 377.5C1358 378.328 1357.33 379 1356.5 379C1355.67 379 1355 378.328 1355 377.5C1355 376.672 1355.67 376 1356.5 376C1357.33 376 1358 376.672 1358 377.5Z" fill="#206BD4"/>
<path d="M1584 567.5C1584 568.328 1583.33 569 1582.5 569C1581.67 569 1581 568.328 1581 567.5C1581 566.672 1581.67 566 1582.5 566C1583.33 566 1584 566.672 1584 567.5Z" fill="#206BD4"/>
<path d="M780 474.5C780 475.328 779.328 476 778.5 476C777.672 476 777 475.328 777 474.5C777 473.672 777.672 473 778.5 473C779.328 473 780 473.672 780 474.5Z" fill="#206BD4"/>
<path d="M1571 268.5C1571 269.328 1570.33 270 1569.5 270C1568.67 270 1568 269.328 1568 268.5C1568 267.672 1568.67 267 1569.5 267C1570.33 267 1571 267.672 1571 268.5Z" fill="#206BD4"/>
<path d="M24 585.5C24 586.328 23.3284 587 22.5 587C21.6716 587 21 586.328 21 585.5C21 584.672 21.6716 584 22.5 584C23.3284 584 24 584.672 24 585.5Z" fill="#206BD4"/>
<path d="M605 525.5C605 526.328 604.328 527 603.5 527C602.672 527 602 526.328 602 525.5C602 524.672 602.672 524 603.5 524C604.328 524 605 524.672 605 525.5Z" fill="#206BD4"/>
<path d="M1035 250.5C1035 251.328 1034.33 252 1033.5 252C1032.67 252 1032 251.328 1032 250.5C1032 249.672 1032.67 249 1033.5 249C1034.33 249 1035 249.672 1035 250.5Z" fill="#206BD4"/>
<path d="M1814 394.5C1814 395.328 1813.33 396 1812.5 396C1811.67 396 1811 395.328 1811 394.5C1811 393.672 1811.67 393 1812.5 393C1813.33 393 1814 393.672 1814 394.5Z" fill="#206BD4"/>
<path d="M1214 58.5C1214 59.3284 1213.33 60 1212.5 60C1211.67 60 1211 59.3284 1211 58.5C1211 57.6716 1211.67 57 1212.5 57C1213.33 57 1214 57.6716 1214 58.5Z" fill="#206BD4"/>
<path d="M1326 304.5C1326 305.328 1325.33 306 1324.5 306C1323.67 306 1323 305.328 1323 304.5C1323 303.672 1323.67 303 1324.5 303C1325.33 303 1326 303.672 1326 304.5Z" fill="#206BD4"/>
<path d="M1531 548.5C1531 549.328 1530.33 550 1529.5 550C1528.67 550 1528 549.328 1528 548.5C1528 547.672 1528.67 547 1529.5 547C1530.33 547 1531 547.672 1531 548.5Z" fill="#206BD4"/>
<path d="M819 464.5C819 465.328 818.328 466 817.5 466C816.672 466 816 465.328 816 464.5C816 463.672 816.672 463 817.5 463C818.328 463 819 463.672 819 464.5Z" fill="#206BD4"/>
<path d="M1647 312.5C1647 313.328 1646.33 314 1645.5 314C1644.67 314 1644 313.328 1644 312.5C1644 311.672 1644.67 311 1645.5 311C1646.33 311 1647 311.672 1647 312.5Z" fill="#206BD4"/>
<path d="M472 324.5C472 325.328 471.328 326 470.5 326C469.672 326 469 325.328 469 324.5C469 323.672 469.672 323 470.5 323C471.328 323 472 323.672 472 324.5Z" fill="#206BD4"/>
<path d="M550 109.5C550 110.328 549.328 111 548.5 111C547.672 111 547 110.328 547 109.5C547 108.672 547.672 108 548.5 108C549.328 108 550 108.672 550 109.5Z" fill="#206BD4"/>
<path d="M1177 248.5C1177 249.328 1176.33 250 1175.5 250C1174.67 250 1174 249.328 1174 248.5C1174 247.672 1174.67 247 1175.5 247C1176.33 247 1177 247.672 1177 248.5Z" fill="#206BD4"/>
<path d="M3 244.5C3 245.328 2.32843 246 1.5 246C0.671573 246 0 245.328 0 244.5C0 243.672 0.671573 243 1.5 243C2.32843 243 3 243.672 3 244.5Z" fill="#206BD4"/>
<path d="M1441 389.5C1441 390.328 1440.33 391 1439.5 391C1438.67 391 1438 390.328 1438 389.5C1438 388.672 1438.67 388 1439.5 388C1440.33 388 1441 388.672 1441 389.5Z" fill="#206BD4"/>
<path d="M1742 18.5C1742 19.3284 1741.33 20 1740.5 20C1739.67 20 1739 19.3284 1739 18.5C1739 17.6716 1739.67 17 1740.5 17C1741.33 17 1742 17.6716 1742 18.5Z" fill="#206BD4"/>
<path d="M370 219.5C370 220.328 369.328 221 368.5 221C367.672 221 367 220.328 367 219.5C367 218.672 367.672 218 368.5 218C369.328 218 370 218.672 370 219.5Z" fill="#206BD4"/>
<path d="M406 232.5C406 233.881 404.881 235 403.5 235C402.119 235 401 233.881 401 232.5C401 231.119 402.119 230 403.5 230C404.881 230 406 231.119 406 232.5Z" fill="#206BD4"/>
<path d="M1749 243.5C1749 244.328 1748.33 245 1747.5 245C1746.67 245 1746 244.328 1746 243.5C1746 242.672 1746.67 242 1747.5 242C1748.33 242 1749 242.672 1749 243.5Z" fill="#206BD4"/>
<path d="M758 325.5C758 326.328 757.328 327 756.5 327C755.672 327 755 326.328 755 325.5C755 324.672 755.672 324 756.5 324C757.328 324 758 324.672 758 325.5Z" fill="#206BD4"/>
<path d="M1093 581.5C1093 582.328 1092.33 583 1091.5 583C1090.67 583 1090 582.328 1090 581.5C1090 580.672 1090.67 580 1091.5 580C1092.33 580 1093 580.672 1093 581.5Z" fill="#206BD4"/>
<path d="M79 215.5C79 216.328 78.3284 217 77.5 217C76.6716 217 76 216.328 76 215.5C76 214.672 76.6716 214 77.5 214C78.3284 214 79 214.672 79 215.5Z" fill="#206BD4"/>
<path d="M1740 213.5C1740 214.328 1739.33 215 1738.5 215C1737.67 215 1737 214.328 1737 213.5C1737 212.672 1737.67 212 1738.5 212C1739.33 212 1740 212.672 1740 213.5Z" fill="#206BD4"/>
<path d="M1505 368.5C1505 369.328 1504.33 370 1503.5 370C1502.67 370 1502 369.328 1502 368.5C1502 367.672 1502.67 367 1503.5 367C1504.33 367 1505 367.672 1505 368.5Z" fill="#206BD4"/>
<path d="M757 219.5C757 220.328 756.328 221 755.5 221C754.672 221 754 220.328 754 219.5C754 218.672 754.672 218 755.5 218C756.328 218 757 218.672 757 219.5Z" fill="#206BD4"/>
<path d="M1127 210.5C1127 211.328 1126.33 212 1125.5 212C1124.67 212 1124 211.328 1124 210.5C1124 209.672 1124.67 209 1125.5 209C1126.33 209 1127 209.672 1127 210.5Z" fill="#206BD4"/>
<path d="M1084 427.5C1084 428.328 1083.33 429 1082.5 429C1081.67 429 1081 428.328 1081 427.5C1081 426.672 1081.67 426 1082.5 426C1083.33 426 1084 426.672 1084 427.5Z" fill="#206BD4"/>
<path d="M979 449.5C979 450.328 978.328 451 977.5 451C976.672 451 976 450.328 976 449.5C976 448.672 976.672 448 977.5 448C978.328 448 979 448.672 979 449.5Z" fill="#206BD4"/>
<path d="M1807 499.5C1807 500.328 1806.33 501 1805.5 501C1804.67 501 1804 500.328 1804 499.5C1804 498.672 1804.67 498 1805.5 498C1806.33 498 1807 498.672 1807 499.5Z" fill="#206BD4"/>
<path d="M1642 608.5C1642 609.328 1641.33 610 1640.5 610C1639.67 610 1639 609.328 1639 608.5C1639 607.672 1639.67 607 1640.5 607C1641.33 607 1642 607.672 1642 608.5Z" fill="#206BD4"/>
<path d="M1881 556.5C1881 557.328 1880.33 558 1879.5 558C1878.67 558 1878 557.328 1878 556.5C1878 555.672 1878.67 555 1879.5 555C1880.33 555 1881 555.672 1881 556.5Z" fill="#206BD4"/>
<path d="M521 173.5C521 174.328 520.328 175 519.5 175C518.672 175 518 174.328 518 173.5C518 172.672 518.672 172 519.5 172C520.328 172 521 172.672 521 173.5Z" fill="#206BD4"/>
<path d="M862 160.5C862 161.328 861.328 162 860.5 162C859.672 162 859 161.328 859 160.5C859 159.672 859.672 159 860.5 159C861.328 159 862 159.672 862 160.5Z" fill="#206BD4"/>
<path d="M940 280.5C940 281.328 939.328 282 938.5 282C937.672 282 937 281.328 937 280.5C937 279.672 937.672 279 938.5 279C939.328 279 940 279.672 940 280.5Z" fill="#206BD4"/>
<path d="M1494 184.5C1494 185.328 1493.33 186 1492.5 186C1491.67 186 1491 185.328 1491 184.5C1491 183.672 1491.67 183 1492.5 183C1493.33 183 1494 183.672 1494 184.5Z" fill="#206BD4"/>
<path d="M358 43.5C358 44.3284 357.328 45 356.5 45C355.672 45 355 44.3284 355 43.5C355 42.6716 355.672 42 356.5 42C357.328 42 358 42.6716 358 43.5Z" fill="#206BD4"/>
<path d="M1779 472.5C1779 473.328 1778.33 474 1777.5 474C1776.67 474 1776 473.328 1776 472.5C1776 471.672 1776.67 471 1777.5 471C1778.33 471 1779 471.672 1779 472.5Z" fill="#206BD4"/>
<path d="M1703 230.5C1703 231.328 1702.33 232 1701.5 232C1700.67 232 1700 231.328 1700 230.5C1700 229.672 1700.67 229 1701.5 229C1702.33 229 1703 229.672 1703 230.5Z" fill="#206BD4"/>
<path d="M666 316.5C666 317.328 665.328 318 664.5 318C663.672 318 663 317.328 663 316.5C663 315.672 663.672 315 664.5 315C665.328 315 666 315.672 666 316.5Z" fill="#206BD4"/>
<path d="M629 317.5C629 318.328 628.328 319 627.5 319C626.672 319 626 318.328 626 317.5C626 316.672 626.672 316 627.5 316C628.328 316 629 316.672 629 317.5Z" fill="#206BD4"/>
<path d="M1203 135.5C1203 136.328 1202.33 137 1201.5 137C1200.67 137 1200 136.328 1200 135.5C1200 134.672 1200.67 134 1201.5 134C1202.33 134 1203 134.672 1203 135.5Z" fill="#206BD4"/>
<path d="M893 55.5C893 56.3284 892.328 57 891.5 57C890.672 57 890 56.3284 890 55.5C890 54.6716 890.672 54 891.5 54C892.328 54 893 54.6716 893 55.5Z" fill="#206BD4"/>
<path d="M898 404.5C898 405.328 897.328 406 896.5 406C895.672 406 895 405.328 895 404.5C895 403.672 895.672 403 896.5 403C897.328 403 898 403.672 898 404.5Z" fill="#206BD4"/>
<path d="M1340 569.5C1340 570.328 1339.33 571 1338.5 571C1337.67 571 1337 570.328 1337 569.5C1337 568.672 1337.67 568 1338.5 568C1339.33 568 1340 568.672 1340 569.5Z" fill="#206BD4"/>
<path d="M788 240.5C788 241.328 787.328 242 786.5 242C785.672 242 785 241.328 785 240.5C785 239.672 785.672 239 786.5 239C787.328 239 788 239.672 788 240.5Z" fill="#206BD4"/>
<path d="M292 16.5C292 17.8807 290.881 19 289.5 19C288.119 19 287 17.8807 287 16.5C287 15.1193 288.119 14 289.5 14C290.881 14 292 15.1193 292 16.5Z" fill="#206BD4"/>
<path d="M1147 527.5C1147 528.881 1145.88 530 1144.5 530C1143.12 530 1142 528.881 1142 527.5C1142 526.119 1143.12 525 1144.5 525C1145.88 525 1147 526.119 1147 527.5Z" fill="#206BD4"/>
<path d="M1512 504.5C1512 505.881 1510.88 507 1509.5 507C1508.12 507 1507 505.881 1507 504.5C1507 503.119 1508.12 502 1509.5 502C1510.88 502 1512 503.119 1512 504.5Z" fill="#206BD4"/>
<path d="M1330 397.5C1330 398.881 1328.88 400 1327.5 400C1326.12 400 1325 398.881 1325 397.5C1325 396.119 1326.12 395 1327.5 395C1328.88 395 1330 396.119 1330 397.5Z" fill="#206BD4"/>
<path d="M1757 365.5C1757 366.881 1755.88 368 1754.5 368C1753.12 368 1752 366.881 1752 365.5C1752 364.119 1753.12 363 1754.5 363C1755.88 363 1757 364.119 1757 365.5Z" fill="#206BD4"/>
<path d="M790 149.5C790 150.881 788.881 152 787.5 152C786.119 152 785 150.881 785 149.5C785 148.119 786.119 147 787.5 147C788.881 147 790 148.119 790 149.5Z" fill="#206BD4"/>
<path d="M1478 395.5C1478 396.881 1476.88 398 1475.5 398C1474.12 398 1473 396.881 1473 395.5C1473 394.119 1474.12 393 1475.5 393C1476.88 393 1478 394.119 1478 395.5Z" fill="#206BD4"/>
<path d="M1525 331.5C1525 332.881 1523.88 334 1522.5 334C1521.12 334 1520 332.881 1520 331.5C1520 330.119 1521.12 329 1522.5 329C1523.88 329 1525 330.119 1525 331.5Z" fill="#206BD4"/>
<path d="M984 175.5C984 176.881 982.881 178 981.5 178C980.119 178 979 176.881 979 175.5C979 174.119 980.119 173 981.5 173C982.881 173 984 174.119 984 175.5Z" fill="#206BD4"/>
<path d="M139 237.5C139 238.881 137.881 240 136.5 240C135.119 240 134 238.881 134 237.5C134 236.119 135.119 235 136.5 235C137.881 235 139 236.119 139 237.5Z" fill="#206BD4"/>
<path d="M1813 159.5C1813 160.881 1811.88 162 1810.5 162C1809.12 162 1808 160.881 1808 159.5C1808 158.119 1809.12 157 1810.5 157C1811.88 157 1813 158.119 1813 159.5Z" fill="#206BD4"/>
</svg>
