<svg width="371" height="268" viewBox="0 0 371 268" fill="none" xmlns="http://www.w3.org/2000/svg">
<path d="M265.797 103.914C265.797 104.863 265.028 105.632 264.08 105.632C263.131 105.632 262.362 104.863 262.362 103.914C262.362 102.966 263.131 102.197 264.08 102.197C265.028 102.197 265.797 102.966 265.797 103.914Z" fill="#206BD4"/>
<path d="M111.214 84.162C111.214 85.1106 110.445 85.8796 109.497 85.8796C108.548 85.8796 107.779 85.1106 107.779 84.162C107.779 83.2134 108.548 82.4445 109.497 82.4445C110.445 82.4445 111.214 83.2134 111.214 84.162Z" fill="#206BD4"/>
<path d="M206.111 146.425C206.111 147.373 205.342 148.142 204.394 148.142C203.445 148.142 202.676 147.373 202.676 146.425C202.676 145.476 203.445 144.707 204.394 144.707C205.342 144.707 206.111 145.476 206.111 146.425Z" fill="#206BD4"/>
<path d="M188.506 76.4329C188.506 77.3815 187.737 78.1505 186.788 78.1505C185.84 78.1505 185.071 77.3815 185.071 76.4329C185.071 75.4843 185.84 74.7153 186.788 74.7153C187.737 74.7153 188.506 75.4843 188.506 76.4329Z" fill="#206BD4"/>
<path d="M13.7407 194.088C13.7407 195.037 12.9717 195.806 12.0231 195.806C11.0745 195.806 10.3056 195.037 10.3056 194.088C10.3056 193.139 11.0745 192.37 12.0231 192.37C12.9717 192.37 13.7407 193.139 13.7407 194.088Z" fill="#206BD4"/>
<path d="M89.3148 224.146C89.3148 225.094 88.5458 225.863 87.5972 225.863C86.6486 225.863 85.8796 225.094 85.8796 224.146C85.8796 223.197 86.6486 222.428 87.5972 222.428C88.5458 222.428 89.3148 223.197 89.3148 224.146Z" fill="#206BD4"/>
<path d="M339.225 194.088C339.225 195.037 338.456 195.806 337.507 195.806C336.558 195.806 335.789 195.037 335.789 194.088C335.789 193.139 336.558 192.37 337.507 192.37C338.456 192.37 339.225 193.139 339.225 194.088Z" fill="#206BD4"/>
<path d="M10.735 13.7407C10.735 14.6893 9.96596 15.4583 9.01736 15.4583C8.06876 15.4583 7.29977 14.6893 7.29977 13.7407C7.29977 12.7921 8.06876 12.0231 9.01736 12.0231C9.96596 12.0231 10.735 12.7921 10.735 13.7407Z" fill="#206BD4"/>
<path d="M72.9977 162.742C72.9977 163.691 72.2287 164.46 71.2801 164.46C70.3315 164.46 69.5625 163.691 69.5625 162.742C69.5625 161.793 70.3315 161.024 71.2801 161.024C72.2287 161.024 72.9977 161.793 72.9977 162.742Z" fill="#206BD4"/>
<path d="M10.735 245.616C10.735 246.564 9.96596 247.333 9.01736 247.333C8.06876 247.333 7.29977 246.564 7.29977 245.616C7.29977 244.667 8.06876 243.898 9.01736 243.898C9.96596 243.898 10.735 244.667 10.735 245.616Z" fill="#206BD4"/>
<path d="M317.755 1.71759C317.755 2.66619 316.986 3.43519 316.037 3.43519C315.088 3.43519 314.319 2.66619 314.319 1.71759C314.319 0.768992 315.088 0 316.037 0C316.986 0 317.755 0.768992 317.755 1.71759Z" fill="#206BD4"/>
<path d="M126.672 31.9902C126.672 32.3459 126.384 32.6343 126.028 32.6343C125.673 32.6343 125.384 32.3459 125.384 31.9902C125.384 31.6344 125.673 31.3461 126.028 31.3461C126.384 31.3461 126.672 31.6344 126.672 31.9902Z" fill="#206BD4"/>
<path d="M43.3692 190.438C43.3692 190.794 43.0808 191.082 42.7251 191.082C42.3694 191.082 42.081 190.794 42.081 190.438C42.081 190.082 42.3694 189.794 42.7251 189.794C43.0808 189.794 43.3692 190.082 43.3692 190.438Z" fill="#206BD4"/>
<path d="M278.25 187.003C278.25 187.359 277.962 187.647 277.606 187.647C277.25 187.647 276.962 187.359 276.962 187.003C276.962 186.647 277.25 186.359 277.606 186.359C277.962 186.359 278.25 186.647 278.25 187.003Z" fill="#206BD4"/>
<path d="M240.892 267.3C240.892 267.656 240.604 267.944 240.248 267.944C239.893 267.944 239.604 267.656 239.604 267.3C239.604 266.945 239.893 266.656 240.248 266.656C240.604 266.656 240.892 266.945 240.892 267.3Z" fill="#206BD4"/>
<path d="M340.513 130.322C340.513 130.678 340.224 130.966 339.869 130.966C339.513 130.966 339.225 130.678 339.225 130.322C339.225 129.967 339.513 129.678 339.869 129.678C340.224 129.678 340.513 129.967 340.513 130.322Z" fill="#206BD4"/>
<path d="M1.28819 56.4659C1.28819 56.8216 0.999822 57.11 0.644097 57.11C0.288372 57.11 0 56.8216 0 56.4659C0 56.1101 0.288372 55.8218 0.644097 55.8218C0.999822 55.8218 1.28819 56.1101 1.28819 56.4659Z" fill="#206BD4"/>
<path d="M243.898 62.9068C243.898 63.2626 243.61 63.5509 243.254 63.5509C242.898 63.5509 242.61 63.2626 242.61 62.9068C242.61 62.5511 242.898 62.2627 243.254 62.2627C243.61 62.2627 243.898 62.5511 243.898 62.9068Z" fill="#206BD4"/>
<path d="M261.933 7.51447C261.933 7.87019 261.645 8.15857 261.289 8.15857C260.933 8.15857 260.645 7.87019 260.645 7.51447C260.645 7.15874 260.933 6.87037 261.289 6.87037C261.645 6.87037 261.933 7.15874 261.933 7.51447Z" fill="#206BD4"/>
<path d="M82.015 118.729C82.015 119.084 81.7267 119.373 81.3709 119.373C81.0152 119.373 80.7269 119.084 80.7269 118.729C80.7269 118.373 81.0152 118.084 81.3709 118.084C81.7267 118.084 82.015 118.373 82.015 118.729Z" fill="#206BD4"/>
<path d="M334.931 203.749C334.931 204.105 334.642 204.394 334.286 204.394C333.931 204.394 333.642 204.105 333.642 203.749C333.642 203.394 333.931 203.105 334.286 203.105C334.642 203.105 334.931 203.394 334.931 203.749Z" fill="#206BD4"/>
<path d="M10.3056 251.413C10.3056 251.768 10.0172 252.057 9.66146 252.057C9.30573 252.057 9.01736 251.768 9.01736 251.413C9.01736 251.057 9.30573 250.769 9.66146 250.769C10.0172 250.769 10.3056 251.057 10.3056 251.413Z" fill="#206BD4"/>
<path d="M259.786 225.649C259.786 226.004 259.497 226.293 259.142 226.293C258.786 226.293 258.498 226.004 258.498 225.649C258.498 225.293 258.786 225.005 259.142 225.005C259.497 225.005 259.786 225.293 259.786 225.649Z" fill="#206BD4"/>
<path d="M351.677 199.455C351.677 199.811 351.389 200.1 351.033 200.1C350.677 200.1 350.389 199.811 350.389 199.455C350.389 199.1 350.677 198.811 351.033 198.811C351.389 198.811 351.677 199.1 351.677 199.455Z" fill="#206BD4"/>
<path d="M202.676 139.34C202.676 139.695 202.388 139.984 202.032 139.984C201.676 139.984 201.388 139.695 201.388 139.34C201.388 138.984 201.676 138.696 202.032 138.696C202.388 138.696 202.676 138.984 202.676 139.34Z" fill="#206BD4"/>
<path d="M236.169 47.0191C236.169 47.3748 235.881 47.6632 235.525 47.6632C235.169 47.6632 234.881 47.3748 234.881 47.0191C234.881 46.6634 235.169 46.375 235.525 46.375C235.881 46.375 236.169 46.6634 236.169 47.0191Z" fill="#206BD4"/>
<path d="M1.28819 104.988C1.28819 105.344 0.999822 105.632 0.644097 105.632C0.288372 105.632 0 105.344 0 104.988C0 104.632 0.288372 104.344 0.644097 104.344C0.999822 104.344 1.28819 104.632 1.28819 104.988Z" fill="#206BD4"/>
<path d="M158.877 94.2529C158.877 94.6086 158.589 94.897 158.233 94.897C157.877 94.897 157.589 94.6086 157.589 94.2529C157.589 93.8972 157.877 93.6088 158.233 93.6088C158.589 93.6088 158.877 93.8972 158.877 94.2529Z" fill="#206BD4"/>
<path d="M174.336 99.8351C174.336 100.428 173.855 100.909 173.262 100.909C172.669 100.909 172.189 100.428 172.189 99.8351C172.189 99.2422 172.669 98.7616 173.262 98.7616C173.855 98.7616 174.336 99.2422 174.336 99.8351Z" fill="#206BD4"/>
<path d="M325.484 139.769C325.484 140.125 325.195 140.413 324.84 140.413C324.484 140.413 324.196 140.125 324.196 139.769C324.196 139.413 324.484 139.125 324.84 139.125C325.195 139.125 325.484 139.413 325.484 139.769Z" fill="#206BD4"/>
<path d="M33.9225 92.5353C33.9225 92.891 33.6341 93.1794 33.2784 93.1794C32.9226 93.1794 32.6343 92.891 32.6343 92.5353C32.6343 92.1796 32.9226 91.8912 33.2784 91.8912C33.6341 91.8912 33.9225 92.1796 33.9225 92.5353Z" fill="#206BD4"/>
<path d="M325.054 94.2529C325.054 94.6086 324.766 94.897 324.41 94.897C324.055 94.897 323.766 94.6086 323.766 94.2529C323.766 93.8972 324.055 93.6088 324.41 93.6088C324.766 93.6088 325.054 93.8972 325.054 94.2529Z" fill="#206BD4"/>
<path d="M223.716 74.5006C223.716 74.8563 223.428 75.1447 223.072 75.1447C222.717 75.1447 222.428 74.8563 222.428 74.5006C222.428 74.1449 222.717 73.8565 223.072 73.8565C223.428 73.8565 223.716 74.1449 223.716 74.5006Z" fill="#206BD4"/>
<path d="M370.141 68.9184C370.141 69.2741 369.853 69.5625 369.497 69.5625C369.141 69.5625 368.853 69.2741 368.853 68.9184C368.853 68.5627 369.141 68.2743 369.497 68.2743C369.853 68.2743 370.141 68.5627 370.141 68.9184Z" fill="#206BD4"/>
<path d="M153.725 18.6788C153.725 19.0345 153.436 19.3229 153.08 19.3229C152.725 19.3229 152.436 19.0345 152.436 18.6788C152.436 18.3231 152.725 18.0347 153.08 18.0347C153.436 18.0347 153.725 18.3231 153.725 18.6788Z" fill="#206BD4"/>
<path d="M285.979 135.905C285.979 136.26 285.691 136.549 285.335 136.549C284.979 136.549 284.691 136.26 284.691 135.905C284.691 135.549 284.979 135.26 285.335 135.26C285.691 135.26 285.979 135.549 285.979 135.905Z" fill="#206BD4"/>
<path d="M270.091 136.334C270.091 136.69 269.803 136.978 269.447 136.978C269.092 136.978 268.803 136.69 268.803 136.334C268.803 135.978 269.092 135.69 269.447 135.69C269.803 135.69 270.091 135.978 270.091 136.334Z" fill="#206BD4"/>
<path d="M338.366 103.27C338.366 103.626 338.077 103.914 337.722 103.914C337.366 103.914 337.078 103.626 337.078 103.27C337.078 102.915 337.366 102.626 337.722 102.626C338.077 102.626 338.366 102.915 338.366 103.27Z" fill="#206BD4"/>
<path d="M125.384 7.08507C125.384 7.67795 124.904 8.15857 124.311 8.15857C123.718 8.15857 123.237 7.67795 123.237 7.08507C123.237 6.4922 123.718 6.01157 124.311 6.01157C124.904 6.01157 125.384 6.4922 125.384 7.08507Z" fill="#206BD4"/>
<path d="M339.225 64.195C339.225 64.7879 338.744 65.2685 338.151 65.2685C337.558 65.2685 337.078 64.7879 337.078 64.195C337.078 63.6022 337.558 63.1215 338.151 63.1215C338.744 63.1215 339.225 63.6022 339.225 64.195Z" fill="#206BD4"/>
<path d="M59.6863 101.982C59.6863 102.575 59.2057 103.056 58.6128 103.056C58.02 103.056 57.5394 102.575 57.5394 101.982C57.5394 101.389 58.02 100.909 58.6128 100.909C59.2057 100.909 59.6863 101.389 59.6863 101.982Z" fill="#206BD4"/>
</svg>
