<svg width="75" height="86" viewBox="0 0 75 86" fill="none" xmlns="http://www.w3.org/2000/svg">
<g opacity="0.2">
<path d="M62.705 17.4999C62.0412 12.9047 59.8358 8.67905 56.4058 5.48203C52.613 1.94692 47.6684 0 42.4827 0C37.297 0 32.3524 1.94692 28.5594 5.48203C25.1295 8.67905 22.9241 12.9047 22.2602 17.4999C14.8723 20.7284 10 28.0935 10 36.2465C10 47.5228 19.1666 56.6965 30.4337 56.6965C33.9063 56.6965 37.2904 55.8129 40.2869 54.1613V75H44.6779V54.1613C47.6744 55.8129 51.0585 56.6965 54.5311 56.6965C65.7984 56.6965 74.9648 47.5226 74.9648 36.2465C74.9652 28.0935 70.0929 20.7283 62.705 17.4999ZM54.5314 52.302C50.9492 52.302 47.4867 51.105 44.6782 48.9149V35.475L54.5257 30.2931L52.4821 26.4035L44.6782 30.5101V21.8599H40.2872V40.2502L32.4833 36.1437L30.4397 40.0333L40.2872 45.2152V48.9149C37.4787 51.105 34.0162 52.302 30.434 52.302C21.5879 52.302 14.3913 45.0995 14.3913 36.2465C14.3913 29.4773 18.6691 23.3999 25.0359 21.1233L26.379 20.6432L26.4864 19.2199C26.7906 15.1961 28.5896 11.4593 31.5522 8.69795C34.5295 5.9228 38.4115 4.39453 42.4827 4.39453C46.5539 4.39453 50.4359 5.9228 53.4133 8.6978C56.3759 11.4592 58.1749 15.1959 58.4791 19.2198L58.5865 20.643L59.9296 21.1232C66.2964 23.3997 70.5742 29.4772 70.5742 36.2464C70.5742 45.0995 63.3774 52.302 54.5314 52.302Z" fill="url(#paint0_linear)"/>
<path d="M54.5314 52.302C50.9492 52.302 47.4867 51.105 44.6782 48.9149V35.475L54.5257 30.2931L52.4821 26.4035L44.6782 30.5101V21.8599H40.2872V40.2502L32.4833 36.1437L30.4397 40.0333L40.2872 45.2152V48.9149C37.4787 51.105 34.0162 52.302 30.434 52.302C21.5879 52.302 14.3913 45.0995 14.3913 36.2465C14.3913 29.4773 18.6691 23.3999 25.0359 21.1233L26.379 20.6432L26.4864 19.2199C26.7906 15.1961 28.5896 11.4593 31.5522 8.69795C34.5295 5.9228 38.4115 4.39453 42.4827 4.39453C46.5539 4.39453 50.4359 5.9228 53.4133 8.6978C56.3759 11.4592 58.1749 15.1959 58.4791 19.2198L58.5865 20.643L59.9296 21.1232C66.2964 23.3997 70.5742 29.4772 70.5742 36.2464C70.5742 45.0995 63.3774 52.302 54.5314 52.302Z" fill="url(#paint1_linear)"/>
</g>
<path d="M52.705 28.4999C52.0412 23.9047 49.8358 19.6791 46.4058 16.482C42.613 12.9469 37.6684 11 32.4827 11C27.297 11 22.3524 12.9469 18.5594 16.482C15.1295 19.6791 12.9241 23.9047 12.2602 28.4999C4.87229 31.7284 0 39.0935 0 47.2465C0 58.5228 9.16658 67.6965 20.4337 67.6965C23.9063 67.6965 27.2904 66.8129 30.2869 65.1613V86H34.6779V65.1613C37.6744 66.8129 41.0585 67.6965 44.5311 67.6965C55.7984 67.6965 64.9648 58.5226 64.9648 47.2465C64.9652 39.0935 60.0929 31.7283 52.705 28.4999ZM44.5314 63.302C40.9492 63.302 37.4867 62.105 34.6782 59.9149V46.475L44.5257 41.2931L42.4821 37.4035L34.6782 41.5101V32.8599H30.2872V51.2502L22.4833 47.1437L20.4397 51.0333L30.2872 56.2152V59.9149C27.4787 62.105 24.0162 63.302 20.434 63.302C11.5879 63.302 4.39133 56.0995 4.39133 47.2465C4.39133 40.4773 8.66908 34.3999 15.0359 32.1233L16.379 31.6432L16.4864 30.2199C16.7906 26.1961 18.5896 22.4593 21.5522 19.6979C24.5295 16.9228 28.4115 15.3945 32.4827 15.3945C36.5539 15.3945 40.4359 16.9228 43.4133 19.6978C46.3759 22.4592 48.1749 26.1958 48.4791 30.2198L48.5865 31.643L49.9296 32.1232C56.2964 34.3997 60.5742 40.4772 60.5742 47.2464C60.5742 56.0995 53.3774 63.302 44.5314 63.302Z" fill="url(#paint2_linear)"/>
<defs>
<linearGradient id="paint0_linear" x1="42.4824" y1="0" x2="42.4824" y2="75" gradientUnits="userSpaceOnUse">
<stop stop-color="#F4A96B"/>
<stop offset="1" stop-color="#946AAD"/>
</linearGradient>
<linearGradient id="paint1_linear" x1="42.4824" y1="0" x2="42.4824" y2="75" gradientUnits="userSpaceOnUse">
<stop stop-color="#F4A96B"/>
<stop offset="1" stop-color="#946AAD"/>
</linearGradient>
<linearGradient id="paint2_linear" x1="32.4824" y1="11" x2="32.4824" y2="86" gradientUnits="userSpaceOnUse">
<stop stop-color="#F4A96B"/>
<stop offset="1" stop-color="#946AAD"/>
</linearGradient>
</defs>
</svg>
