<svg width="77" height="87" viewBox="0 0 77 87" fill="none" xmlns="http://www.w3.org/2000/svg">
<g opacity="0.2">
<path d="M76.6542 27.4852C76.6542 19.7676 70.5723 13.4437 62.9496 13.0523C64.2357 6.26045 58.9989 0 52.1359 0C48.5372 0 45.3367 1.73613 43.3272 4.41445C41.3179 1.73613 38.1172 0 34.5185 0C27.6943 0 22.496 6.17739 23.6788 12.9067C11.2567 13.5668 5.49501 28.5927 14.1079 37.4266C5.50072 46.2546 11.2457 61.308 23.7051 61.9477C22.4189 68.7394 27.6558 75 34.5187 75C38.1174 75 41.3179 73.2639 43.3274 70.5855C45.3367 73.2639 48.5372 75 52.1359 75C58.9602 75 64.1585 68.8226 62.9756 62.0933C70.5864 61.6888 76.6542 55.3704 76.6542 47.6616C76.6542 43.7895 75.1603 40.1344 72.5605 37.4455C75.1892 34.7918 76.6542 31.2825 76.6542 27.4852ZM26.4142 17.4729C28.2519 17.8345 29.6723 15.8707 28.7537 14.2392C26.2867 9.85752 29.4682 4.39453 34.5185 4.39453C38.1641 4.39453 41.13 7.35981 41.13 11.0046V15.7074C36.1164 14.4798 31.2405 18.4603 31.6061 23.7327C31.9324 28.4372 36.4567 31.812 41.13 30.665V35.2293H33.961C31.7207 35.2293 30.3977 37.7459 31.6675 39.5908C33.1079 41.6832 31.7247 44.5859 29.1804 44.7623C26.3626 44.9568 24.6751 41.8241 26.2117 39.5914C27.4816 37.7464 26.1593 35.2293 23.9186 35.2293H18.221C15.814 33.3261 14.395 30.4229 14.395 27.3384C14.395 21.0354 20.1644 16.2413 26.4142 17.4729ZM34.5185 70.6055C29.4065 70.6055 26.2316 65.0191 28.8244 60.6375C29.7905 59.0043 28.3621 56.9836 26.4912 57.3662C20.2187 58.6548 14.3948 53.8425 14.3948 47.5148C14.3948 44.4303 15.814 41.5273 18.2207 39.6239H21.4581C20.2366 44.6093 24.1826 49.5139 29.4843 49.1462C34.1312 48.8243 37.5783 44.3492 36.4176 39.6239H41.13V46.6447C41.13 48.884 43.6453 50.2078 45.4918 48.9381C47.778 47.3648 50.8557 49.1452 50.6643 51.9056C50.4878 54.4499 47.5832 55.8321 45.4914 54.392C43.647 53.1229 41.1301 54.445 41.1301 56.6855V63.9954C41.13 67.6402 38.1641 70.6055 34.5185 70.6055ZM60.2403 57.5271C58.4036 57.1652 56.9819 59.1287 57.9008 60.7608C60.3679 65.1425 57.1864 70.6055 52.1359 70.6055C48.4904 70.6055 45.5245 67.6402 45.5245 63.9954V59.142C50.2609 60.3048 54.7267 56.846 55.0483 52.2095C55.4122 46.9638 50.5691 42.9492 45.5245 44.1844V39.6239H52.6935C54.9341 39.6239 56.2564 37.1071 54.9865 35.2619C53.456 33.0379 55.1292 29.8947 57.9552 30.091C60.4993 30.2673 61.8826 33.1699 60.4423 35.2623C59.1722 37.1077 60.4959 39.6239 62.7357 39.6239H68.4317C70.807 41.5166 72.2595 44.5378 72.2595 47.6616C72.2597 53.9646 66.4902 58.7587 60.2403 57.5271ZM68.4514 35.2293H65.1925C66.3531 30.5035 62.906 26.029 58.2593 25.707C53.0003 25.3418 49.0013 30.2001 50.2331 35.2293H45.5247V28.2083C45.5247 25.9695 43.0088 24.6447 41.1632 25.915C39.0667 27.3571 36.1664 25.967 35.9903 23.4286C35.7984 20.6587 38.8851 18.8938 41.1629 20.4609C43.0083 21.7301 45.5247 20.4079 45.5247 18.1676V11.0046C45.5247 7.35981 48.4905 4.39453 52.1361 4.39453C57.2481 4.39453 60.423 9.98086 57.8302 14.3625C56.8627 15.9981 58.2963 18.0161 60.1634 17.6338C66.4359 16.3452 72.2598 21.1575 72.2598 27.4852C72.2597 30.5339 70.8799 33.3214 68.4514 35.2293Z" fill="url(#paint0_linear)"/>
<path d="M26.4142 17.4729C28.2519 17.8345 29.6723 15.8707 28.7537 14.2392C26.2867 9.85752 29.4682 4.39453 34.5185 4.39453C38.1641 4.39453 41.13 7.35981 41.13 11.0046V15.7074C36.1164 14.4798 31.2405 18.4603 31.6061 23.7327C31.9324 28.4372 36.4567 31.812 41.13 30.665V35.2293H33.961C31.7207 35.2293 30.3977 37.7459 31.6675 39.5908C33.1079 41.6832 31.7247 44.5859 29.1804 44.7623C26.3626 44.9568 24.6751 41.8241 26.2117 39.5914C27.4816 37.7464 26.1593 35.2293 23.9186 35.2293H18.221C15.814 33.3261 14.395 30.4229 14.395 27.3384C14.395 21.0354 20.1644 16.2413 26.4142 17.4729Z" fill="url(#paint1_linear)"/>
<path d="M68.4514 35.2293H65.1925C66.3531 30.5035 62.906 26.029 58.2593 25.707C53.0003 25.3418 49.0013 30.2001 50.2331 35.2293H45.5247V28.2083C45.5247 25.9695 43.0088 24.6447 41.1632 25.915C39.0667 27.3571 36.1664 25.967 35.9903 23.4286C35.7984 20.6587 38.8851 18.8938 41.1629 20.4609C43.0083 21.7301 45.5247 20.4079 45.5247 18.1676V11.0046C45.5247 7.35981 48.4905 4.39453 52.1361 4.39453C57.2481 4.39453 60.423 9.98086 57.8302 14.3625C56.8627 15.9981 58.2963 18.0161 60.1634 17.6338C66.4359 16.3452 72.2598 21.1575 72.2598 27.4852C72.2597 30.5339 70.8799 33.3214 68.4514 35.2293Z" fill="url(#paint2_linear)"/>
<path d="M60.2403 57.5271C58.4036 57.1652 56.9819 59.1287 57.9008 60.7608C60.3679 65.1425 57.1864 70.6055 52.1359 70.6055C48.4904 70.6055 45.5245 67.6402 45.5245 63.9954V59.142C50.2609 60.3048 54.7267 56.846 55.0483 52.2095C55.4122 46.9638 50.5691 42.9492 45.5245 44.1844V39.6239H52.6935C54.9341 39.6239 56.2564 37.1071 54.9865 35.2619C53.456 33.0379 55.1292 29.8947 57.9552 30.091C60.4993 30.2673 61.8826 33.1699 60.4423 35.2623C59.1722 37.1077 60.4959 39.6239 62.7357 39.6239H68.4317C70.807 41.5166 72.2595 44.5378 72.2595 47.6616C72.2597 53.9646 66.4902 58.7587 60.2403 57.5271Z" fill="url(#paint3_linear)"/>
<path d="M34.5185 70.6055C29.4065 70.6055 26.2316 65.0191 28.8244 60.6375C29.7905 59.0043 28.3621 56.9836 26.4912 57.3662C20.2187 58.6548 14.3948 53.8425 14.3948 47.5148C14.3948 44.4303 15.814 41.5273 18.2207 39.6239H21.4581C20.2366 44.6093 24.1826 49.5139 29.4843 49.1462C34.1312 48.8243 37.5783 44.3492 36.4176 39.6239H41.13V46.6447C41.13 48.884 43.6453 50.2078 45.4918 48.9381C47.778 47.3648 50.8557 49.1452 50.6643 51.9056C50.4878 54.4499 47.5832 55.8321 45.4914 54.392C43.647 53.1229 41.1301 54.445 41.1301 56.6855V63.9954C41.13 67.6402 38.1641 70.6055 34.5185 70.6055Z" fill="url(#paint4_linear)"/>
</g>
<path d="M66.6542 39.4852C66.6542 31.7676 60.5723 25.4437 52.9496 25.0523C54.2357 18.2604 48.9989 12 42.1359 12C38.5372 12 35.3367 13.7361 33.3272 16.4145C31.3179 13.7361 28.1172 12 24.5185 12C17.6943 12 12.496 18.1774 13.6788 24.9067C1.25668 25.5668 -4.50499 40.5927 4.10785 49.4266C-4.49928 58.2546 1.24569 73.308 13.7051 73.9477C12.4189 80.7394 17.6558 87 24.5187 87C28.1174 87 31.3179 85.2639 33.3274 82.5855C35.3367 85.2639 38.5372 87 42.1359 87C48.9602 87 54.1585 80.8226 52.9756 74.0933C60.5864 73.6888 66.6542 67.3704 66.6542 59.6616C66.6542 55.7895 65.1603 52.1344 62.5605 49.4455C65.1892 46.7918 66.6542 43.2825 66.6542 39.4852ZM16.4142 29.4729C18.2519 29.8345 19.6723 27.8707 18.7537 26.2392C16.2867 21.8575 19.4682 16.3945 24.5185 16.3945C28.1641 16.3945 31.13 19.3598 31.13 23.0046V27.7074C26.1164 26.4798 21.2405 30.4603 21.6061 35.7327C21.9324 40.4372 26.4567 43.812 31.13 42.665V47.2293H23.961C21.7207 47.2293 20.3976 49.7459 21.6675 51.5908C23.1079 53.6832 21.7247 56.5859 19.1804 56.7623C16.3626 56.9568 14.6751 53.8241 16.2117 51.5914C17.4816 49.7464 16.1593 47.2293 13.9186 47.2293H8.22099C5.81396 45.3261 4.39496 42.4229 4.39496 39.3384C4.39496 33.0354 10.1644 28.2413 16.4142 29.4729ZM24.5185 82.6055C19.4065 82.6055 16.2316 77.0191 18.8244 72.6375C19.7905 71.0043 18.3621 68.9836 16.4912 69.3662C10.2187 70.6548 4.39482 65.8425 4.39482 59.5148C4.39482 56.4303 5.81396 53.5273 8.2207 51.6239H11.4581C10.2366 56.6093 14.1826 61.5139 19.4843 61.1462C24.1312 60.8243 27.5783 56.3492 26.4176 51.6239H31.13V58.6447C31.13 60.884 33.6453 62.2078 35.4918 60.9381C37.778 59.3648 40.8557 61.1452 40.6643 63.9056C40.4878 66.4499 37.5832 67.8321 35.4914 66.392C33.647 65.1229 31.1301 66.445 31.1301 68.6855V75.9954C31.13 79.6402 28.1641 82.6055 24.5185 82.6055ZM50.2403 69.5271C48.4036 69.1652 46.9819 71.1287 47.9008 72.7608C50.3679 77.1425 47.1864 82.6055 42.1359 82.6055C38.4904 82.6055 35.5245 79.6402 35.5245 75.9954V71.142C40.2609 72.3048 44.7267 68.846 45.0483 64.2095C45.4122 58.9638 40.5691 54.9492 35.5245 56.1844V51.6239H42.6935C44.9341 51.6239 46.2564 49.1071 44.9865 47.2619C43.456 45.0379 45.1292 41.8947 47.9552 42.091C50.4993 42.2673 51.8826 45.1699 50.4423 47.2623C49.1722 49.1077 50.4959 51.6239 52.7357 51.6239H58.4317C60.807 53.5166 62.2595 56.5378 62.2595 59.6616C62.2597 65.9646 56.4902 70.7587 50.2403 69.5271ZM58.4514 47.2293H55.1925C56.3531 42.5035 52.906 38.029 48.2593 37.707C43.0003 37.3418 39.0013 42.2001 40.2331 47.2293H35.5247V40.2083C35.5247 37.9695 33.0088 36.6447 31.1632 37.915C29.0667 39.3571 26.1664 37.967 25.9903 35.4286C25.7984 32.6587 28.8851 30.8938 31.1629 32.4609C33.0083 33.7301 35.5247 32.4079 35.5247 30.1676V23.0046C35.5247 19.3598 38.4905 16.3945 42.1361 16.3945C47.2481 16.3945 50.423 21.9809 47.8302 26.3625C46.8627 27.9981 48.2963 30.0161 50.1634 29.6338C56.4359 28.3452 62.2598 33.1575 62.2598 39.4852C62.2597 42.5339 60.8799 45.3214 58.4514 47.2293Z" fill="url(#paint5_linear)"/>
<defs>
<linearGradient id="paint0_linear" x1="43.3271" y1="0" x2="43.3271" y2="75" gradientUnits="userSpaceOnUse">
<stop stop-color="#F4A96B"/>
<stop offset="1" stop-color="#946AAD"/>
</linearGradient>
<linearGradient id="paint1_linear" x1="43.3271" y1="0" x2="43.3271" y2="75" gradientUnits="userSpaceOnUse">
<stop stop-color="#F4A96B"/>
<stop offset="1" stop-color="#946AAD"/>
</linearGradient>
<linearGradient id="paint2_linear" x1="43.3271" y1="0" x2="43.3271" y2="75" gradientUnits="userSpaceOnUse">
<stop stop-color="#F4A96B"/>
<stop offset="1" stop-color="#946AAD"/>
</linearGradient>
<linearGradient id="paint3_linear" x1="43.3271" y1="0" x2="43.3271" y2="75" gradientUnits="userSpaceOnUse">
<stop stop-color="#F4A96B"/>
<stop offset="1" stop-color="#946AAD"/>
</linearGradient>
<linearGradient id="paint4_linear" x1="43.3271" y1="0" x2="43.3271" y2="75" gradientUnits="userSpaceOnUse">
<stop stop-color="#F4A96B"/>
<stop offset="1" stop-color="#946AAD"/>
</linearGradient>
<linearGradient id="paint5_linear" x1="33.3271" y1="12" x2="33.3271" y2="87" gradientUnits="userSpaceOnUse">
<stop stop-color="#F4A96B"/>
<stop offset="1" stop-color="#946AAD"/>
</linearGradient>
</defs>
</svg>
