<svg width="283" height="84" viewBox="0 0 283 84" fill="none" xmlns="http://www.w3.org/2000/svg">
<path d="M281.122 73.9526C281.122 75.0079 280.914 76.0529 280.51 77.0279C280.106 78.0028 279.513 78.8885 278.766 79.6343C278.02 80.3802 277.133 80.9716 276.157 81.3747C275.182 81.7778 274.136 81.9847 273.081 81.9836H9.91825C7.7853 81.9858 5.7388 81.141 4.22881 79.635C2.71882 78.1289 1.86899 76.085 1.86621 73.9526V9.90773C1.86899 7.77438 2.71849 5.72934 4.22817 4.22162C5.73786 2.7139 7.78434 1.86676 9.91825 1.86621H273.079C274.135 1.86621 275.181 2.07423 276.156 2.47838C277.132 2.88253 278.019 3.47489 278.766 4.22164C279.512 4.96839 280.105 5.8549 280.509 6.83053C280.913 7.80616 281.12 8.8518 281.12 9.90773L281.122 73.9526Z" fill="white"/>
<path d="M273.081 83.8519H9.91875C7.29121 83.8514 4.7712 82.8088 2.91167 80.9529C1.05215 79.097 0.00499949 76.5794 0 73.9526L0 9.90983C0.00388707 7.28168 1.05034 4.76238 2.90981 2.90459C4.76927 1.0468 7.2899 0.00221825 9.91875 0L273.079 0C275.708 0.00332511 278.228 1.04826 280.087 2.90581C281.946 4.76337 282.993 7.28202 282.998 9.90983V73.9526C283.002 79.4128 278.545 83.8519 273.081 83.8519Z" fill="#A6A6A6"/>
<path d="M281.122 73.9526C281.122 75.0079 280.914 76.0529 280.51 77.0279C280.106 78.0028 279.513 78.8885 278.766 79.6343C278.02 80.3802 277.133 80.9716 276.157 81.3747C275.182 81.7778 274.136 81.9847 273.081 81.9836H9.91825C7.7853 81.9858 5.7388 81.141 4.22881 79.635C2.71882 78.1289 1.86899 76.085 1.86621 73.9526V9.90773C1.86899 7.77438 2.71849 5.72934 4.22817 4.22162C5.73786 2.7139 7.78434 1.86676 9.91825 1.86621H273.079C274.135 1.86621 275.181 2.07423 276.156 2.47838C277.132 2.88253 278.019 3.47489 278.766 4.22164C279.512 4.96839 280.105 5.8549 280.509 6.83053C280.913 7.80616 281.12 8.8518 281.12 9.90773L281.122 73.9526Z" fill="black"/>
<path d="M63.1913 41.4847C63.1305 34.7264 68.7264 31.4385 68.9823 31.2855C65.8131 26.6661 60.9009 26.0349 59.1747 25.9846C55.0491 25.5505 51.0472 28.4526 48.9456 28.4526C46.802 28.4526 43.5657 26.0265 40.0776 26.0978C35.5891 26.167 31.3901 28.765 29.0871 32.7994C24.3343 41.0255 27.879 53.1139 32.4325 59.7631C34.7103 63.0217 37.372 66.6556 40.8558 66.5276C44.2641 66.3893 45.5373 64.3574 49.6503 64.3574C53.7256 64.3574 54.9212 66.5277 58.4742 66.4459C62.1321 66.3893 64.4351 63.1748 66.6332 59.889C69.2655 56.1586 70.3226 52.4807 70.3645 52.292C70.2806 52.2626 63.2626 49.5828 63.1913 41.4847ZM56.4796 21.6105C58.3127 19.3186 59.567 16.2006 59.2188 13.0364C56.5655 13.1538 53.2474 14.8711 51.3367 17.1127C49.6461 19.088 48.136 22.3255 48.5261 25.3702C51.5065 25.5925 54.5667 23.8667 56.4796 21.6105Z" fill="white"/>
<path d="M273.082 0H132.124L187.335 83.8519H273.082C275.71 83.8497 278.23 82.8057 280.089 80.9488C281.949 79.0919 282.996 76.5737 283.001 73.9463V9.90983C282.996 7.28185 281.949 4.76288 280.09 2.9052C278.231 1.04753 275.71 0.00277189 273.082 0V0Z" fill="url(#paint0_linear)"/>
<path d="M112.559 66.06H107.796L105.186 57.8633H96.117L93.6316 66.06H88.9941L97.9816 38.1548H103.531L112.559 66.06ZM104.4 54.4244L102.04 47.1378C101.791 46.3934 101.321 44.6404 100.633 41.8809H100.549C100.272 43.0678 99.8295 44.8207 99.2233 47.1378L96.9035 54.4244H104.4ZM135.626 55.7518C135.626 59.1739 134.697 61.8788 132.837 63.8646C131.171 65.6322 129.101 66.515 126.633 66.515C123.967 66.515 122.05 65.5651 120.886 63.6612V74.2189H116.414V52.5519C116.414 50.4026 116.357 48.1988 116.248 45.9384H120.181L120.43 49.1277H120.514C122.006 46.7247 124.269 45.5232 127.306 45.5232C129.68 45.5232 131.662 46.4605 133.248 48.3372C134.831 50.2181 135.626 52.6882 135.626 55.7518ZM131.071 55.9153C131.071 53.9568 130.63 52.3422 129.745 51.0694C128.778 49.7463 127.48 49.0837 125.852 49.0837C124.749 49.0837 123.746 49.4527 122.851 50.1804C121.953 50.9143 121.366 51.8725 121.091 53.0594C120.968 53.5032 120.899 53.96 120.883 54.4202V57.7773C120.883 59.2389 121.332 60.4739 122.23 61.4846C123.128 62.4911 124.294 62.9965 125.729 62.9965C127.413 62.9965 128.724 62.3443 129.661 61.0506C130.601 59.7526 131.071 58.0415 131.071 55.9153ZM158.776 55.7518C158.776 59.1739 157.846 61.8788 155.986 63.8646C154.319 65.6322 152.251 66.515 149.78 66.515C147.114 66.515 145.197 65.5651 144.033 63.6612V74.2189H139.561V52.5519C139.561 50.4026 139.504 48.1988 139.395 45.9384H143.328L143.578 49.1277H143.662C145.151 46.7247 147.414 45.5232 150.453 45.5232C152.825 45.5232 154.807 46.4605 156.397 48.3372C157.979 50.2181 158.776 52.6882 158.776 55.7518ZM154.218 55.9153C154.218 53.9568 153.775 52.3422 152.89 51.0694C151.923 49.7463 150.629 49.0837 149.002 49.0837C147.898 49.0837 146.896 49.4527 145.996 50.1804C145.098 50.9143 144.513 51.8725 144.238 53.0594C144.102 53.6129 144.029 54.0638 144.029 54.4202V57.7773C144.029 59.2389 144.48 60.4739 145.373 61.4846C146.271 62.489 147.437 62.9965 148.876 62.9965C150.562 62.9965 151.873 62.3443 152.808 61.0506C153.748 59.7526 154.218 58.0415 154.218 55.9153ZM184.658 58.2324C184.658 60.6081 183.827 62.5393 182.177 64.0302C180.36 65.6574 177.825 66.4731 174.573 66.4731C171.57 66.4731 169.162 65.8943 167.346 64.7348L168.38 61.0086C170.341 62.1703 172.495 62.749 174.84 62.749C176.526 62.749 177.837 62.3674 178.773 61.6104C179.71 60.8514 180.184 59.8365 180.184 58.57C180.184 57.4355 179.792 56.4857 179.022 55.7119C178.248 54.9403 176.969 54.221 175.171 53.5605C170.284 51.7383 167.839 49.0732 167.839 45.5672C167.839 43.2774 168.703 41.4028 170.427 39.9371C172.151 38.4735 174.437 37.7417 177.281 37.7417C179.821 37.7417 181.938 38.1841 183.618 39.0669L182.495 42.7113C180.914 41.8558 179.129 41.428 177.132 41.428C175.555 41.428 174.318 41.8159 173.432 42.5876C172.688 43.2774 172.31 44.1183 172.31 45.1164C172.31 46.2173 172.74 47.1315 173.596 47.8486C174.339 48.5092 175.694 49.2284 177.653 50C180.056 50.9688 181.822 52.0969 182.953 53.3928C184.092 54.6886 184.658 56.3053 184.658 58.2324ZM199.48 49.2934H194.552V59.0627C194.552 61.5475 195.42 62.7868 197.161 62.7868C197.96 62.7868 198.623 62.7197 199.147 62.5792L199.271 65.974C198.39 66.3032 197.23 66.4689 195.793 66.4689C194.027 66.4689 192.647 65.93 191.651 64.8522C190.659 63.7744 190.16 61.969 190.16 59.4276V49.285H187.223V45.93H190.16V42.2458L194.552 40.9206V45.93H199.48V49.2934ZM221.675 55.8335C221.675 58.9264 220.79 61.4657 219.024 63.4515C217.176 65.4959 214.718 66.515 211.654 66.515C208.697 66.515 206.345 65.5358 204.592 63.5794C202.838 61.6188 201.962 59.1487 201.962 56.169C201.962 53.051 202.868 50.497 204.674 48.5112C206.484 46.5234 208.921 45.5295 211.985 45.5295C214.939 45.5295 217.311 46.5108 219.106 48.4693C220.822 50.3691 221.675 52.8224 221.675 55.8335ZM217.04 55.9363C217.04 54.0931 216.642 52.5121 215.843 51.189C214.905 49.5911 213.563 48.7922 211.824 48.7922C210.033 48.7922 208.659 49.5911 207.723 51.189C206.922 52.5121 206.524 54.1204 206.524 56.0202C206.524 57.8654 206.922 59.4506 207.723 60.7696C208.69 62.3674 210.039 63.1663 211.786 63.1663C213.495 63.1663 214.836 62.3506 215.805 60.7297C216.627 59.3752 217.04 57.7836 217.04 55.9363ZM236.217 49.87C235.752 49.7861 235.28 49.7447 234.807 49.7463C233.234 49.7463 232.018 50.3376 231.162 51.5286C230.42 52.5771 230.046 53.9023 230.046 55.5022V66.06H225.575V52.2751C225.579 50.1629 225.535 48.0508 225.445 45.9405H229.339L229.503 49.7903H229.627C230.101 48.4672 230.843 47.3999 231.863 46.601C232.796 45.9029 233.929 45.5249 235.095 45.5232C235.508 45.5232 235.881 45.5526 236.213 45.605L236.217 49.87ZM256.216 55.0472C256.227 55.7268 256.173 56.4059 256.052 57.0749H242.637C242.688 59.0627 243.338 60.5851 244.584 61.6335C245.714 62.5687 247.176 63.0384 248.971 63.0384C250.958 63.0384 252.77 62.7239 254.4 62.0885L255.1 65.1898C253.196 66.0202 250.947 66.4332 248.353 66.4332C245.232 66.4332 242.782 65.5148 240.999 63.6821C239.22 61.8474 238.329 59.3814 238.329 56.2927C238.329 53.2607 239.158 50.7339 240.817 48.7188C242.553 46.5674 244.9 45.4917 247.854 45.4917C250.754 45.4917 252.95 46.5674 254.442 48.7188C255.622 50.4236 256.216 52.5372 256.216 55.0472ZM251.952 53.8876C251.983 52.5603 251.69 51.4175 251.084 50.4509C250.31 49.2053 249.118 48.5846 247.522 48.5846C246.06 48.5846 244.869 49.1906 243.963 50.4068C243.218 51.3735 242.776 52.5352 242.639 53.8834L251.952 53.8876Z" fill="white"/>
<path d="M95.72 31.16C94.5893 31.16 93.5653 30.9147 92.648 30.424C91.7413 29.9227 91.0267 29.2347 90.504 28.36C89.992 27.4853 89.736 26.4987 89.736 25.4C89.736 24.3013 89.9973 23.3147 90.52 22.44C91.0427 21.5653 91.7573 20.8827 92.664 20.392C93.5813 19.8907 94.6053 19.64 95.736 19.64C96.6533 19.64 97.4907 19.8 98.248 20.12C99.0053 20.44 99.6453 20.904 100.168 21.512L98.824 22.776C98.0133 21.9013 97.016 21.464 95.832 21.464C95.064 21.464 94.376 21.6347 93.768 21.976C93.16 22.3067 92.6853 22.7707 92.344 23.368C92.0027 23.9653 91.832 24.6427 91.832 25.4C91.832 26.1573 92.0027 26.8347 92.344 27.432C92.6853 28.0293 93.16 28.4987 93.768 28.84C94.376 29.1707 95.064 29.336 95.832 29.336C97.016 29.336 98.0133 28.8933 98.824 28.008L100.168 29.288C99.6453 29.896 99 30.36 98.232 30.68C97.4747 31 96.6373 31.16 95.72 31.16ZM106.227 26.28H104.147V31H102.099V19.8H104.147V24.488H106.291L109.507 19.8H111.715L107.891 25.224L111.859 31H109.507L106.227 26.28ZM120.508 28.408H114.908L113.804 31H111.66L116.7 19.8H118.748L123.804 31H121.628L120.508 28.408ZM119.82 26.776L117.708 21.88L115.612 26.776H119.82ZM133.46 19.8V31H131.396V26.776C130.34 27.1707 129.338 27.368 128.388 27.368C126.959 27.368 125.855 27.0267 125.076 26.344C124.308 25.6507 123.924 24.6587 123.924 23.368V19.8H125.988V23.144C125.988 23.9333 126.218 24.536 126.676 24.952C127.135 25.368 127.791 25.576 128.644 25.576C129.615 25.576 130.532 25.3787 131.396 24.984V19.8H133.46ZM144.023 28.408H138.423L137.319 31H135.175L140.215 19.8H142.263L147.319 31H145.143L144.023 28.408ZM143.335 26.776L141.223 21.88L139.127 26.776H143.335ZM156.602 21.56H152.89V31H150.826V21.56H147.13V19.8H156.602V21.56ZM163.564 23.592C164.908 23.592 165.937 23.896 166.652 24.504C167.377 25.1013 167.74 25.992 167.74 27.176C167.74 28.4133 167.345 29.3627 166.556 30.024C165.767 30.6747 164.657 31 163.228 31H158.412V19.8H160.46V23.592H163.564ZM163.132 29.4C163.943 29.4 164.567 29.2133 165.004 28.84C165.441 28.4667 165.66 27.9227 165.66 27.208C165.66 25.8533 164.817 25.176 163.132 25.176H160.46V29.4H163.132ZM184.239 19.8V31H182.159V26.2H176.367V31H174.287V19.8H176.367V24.424H182.159V19.8H184.239ZM194.805 28.408H189.205L188.101 31H185.957L190.997 19.8H193.045L198.101 31H195.925L194.805 28.408ZM194.117 26.776L192.005 21.88L189.909 26.776H194.117Z" fill="white"/>
<defs>
<linearGradient id="paint0_linear" x1="207.56" y1="84.0745" x2="207.56" y2="-218.336" gradientUnits="userSpaceOnUse">
<stop stop-color="#1A1A1A" stop-opacity="0.1"/>
<stop offset="0.123" stop-color="#212121" stop-opacity="0.151"/>
<stop offset="0.308" stop-color="#353535" stop-opacity="0.227"/>
<stop offset="0.532" stop-color="#575757" stop-opacity="0.318"/>
<stop offset="0.783" stop-color="#858585" stop-opacity="0.421"/>
<stop offset="1" stop-color="#B3B3B3" stop-opacity="0.51"/>
</linearGradient>
</defs>
</svg>
