<svg width="546" height="346" viewBox="0 0 546 346" fill="none" xmlns="http://www.w3.org/2000/svg">
<path d="M78 28.878C41 -10.6223 0 1.87796 0 1.87796V276.878H545.5C545.5 276.878 538.5 247.878 518 239.378C497.5 230.878 489 239.378 489 239.378C489 239.378 485.5 214.378 462 209.378C438.5 204.378 430.5 229.878 430.5 229.878C430.5 229.878 430.5 224.378 422 222.878C413.5 221.378 408 229.878 408 229.878C408 229.878 405.5 202.378 382.5 200.878C359.5 199.378 354 222.878 354 222.878C354 222.878 348.098 212.223 341.5 209.378C335.045 206.594 323.5 209.378 323.5 209.378C323.5 209.378 325 191.378 307 182.878C289 174.378 275 187.878 275 187.878C275 187.878 276.217 145.32 236.5 132.878C195 119.878 172.5 154.378 172.5 154.378C172.5 154.378 167.073 142.109 160 138.878C153.428 135.876 141.5 138.878 141.5 138.878C141.5 138.878 137.707 116.804 127 110.378C116.62 104.148 96 110.378 96 110.378C96 110.378 115 68.3782 78 28.878Z" fill="url(#paint0_linear)"/>
<path d="M-2.67215 143.058C-37.4505 113.846 -72.9082 126.284 -72.9082 126.284L-57.8539 345.269L423.011 312.211C423.011 312.211 415.253 289.542 396.717 284.016C378.18 278.49 371.153 285.774 371.153 285.774C371.153 285.774 366.699 266.078 345.71 263.521C324.72 260.963 319.064 281.754 319.064 281.754C319.064 281.754 318.763 277.374 311.188 276.695C303.613 276.015 299.23 283.117 299.23 283.117C299.23 283.117 295.521 261.37 275.164 261.57C254.807 261.769 251.245 280.816 251.245 280.816C251.245 280.816 245.459 272.689 239.487 270.823C233.645 268.998 223.62 271.914 223.62 271.914C223.62 271.914 223.957 257.489 207.625 251.812C191.292 246.134 179.69 257.732 179.69 257.732C179.69 257.732 178.433 223.769 142.741 216.269C105.446 208.432 87.501 237.268 87.501 237.268C87.501 237.268 82.0456 227.827 75.6336 225.682C69.6764 223.69 59.3256 226.803 59.3256 226.803C59.3256 226.803 54.7737 209.456 44.9835 204.987C35.4923 200.655 17.6566 206.866 17.6566 206.866C17.6566 206.866 32.1062 172.27 -2.67215 143.058Z" fill="url(#paint1_linear)"/>
<defs>
<linearGradient id="paint0_linear" x1="272.75" y1="0" x2="272.75" y2="276.878" gradientUnits="userSpaceOnUse">
<stop stop-color="#605ABB"/>
<stop offset="1" stop-color="#5F5BBC" stop-opacity="0"/>
</linearGradient>
<linearGradient id="paint1_linear" x1="167.422" y1="108.26" x2="182.579" y2="328.74" gradientUnits="userSpaceOnUse">
<stop stop-color="#605ABB"/>
<stop offset="1" stop-color="#5F5BBC" stop-opacity="0"/>
</linearGradient>
</defs>
</svg>
