<svg width="738" height="307" viewBox="0 0 738 307" fill="none" xmlns="http://www.w3.org/2000/svg">
<path d="M654.506 22.0326C693.423 -14.0502 738 5.05246 738 5.05246V264H0C0 264 3.53787 205.277 49.5302 200.324C95.5225 195.372 108.966 227.917 108.966 227.917C108.966 227.917 130.901 137.356 215.103 123.206C299.304 109.056 346.711 189.712 346.711 189.712C346.711 189.712 365.816 157.874 401.195 147.969C436.573 138.064 476.905 163.534 476.905 163.534C476.905 163.534 484.688 137.356 520.775 123.206C556.861 109.056 587.994 129.574 587.994 129.574C587.994 129.574 583.041 116.131 598.608 103.396C614.174 90.6608 629.741 103.396 629.741 103.396C629.741 103.396 615.59 58.1155 654.506 22.0326Z" fill="url(#paint0_linear)"/>
<path d="M805.582 86.9837C829.999 58.7153 862.634 68.657 862.634 68.657L882.63 249.998L366.756 306.881C366.756 306.881 364.695 265.485 396.462 258.471C428.229 251.458 440.139 273.213 440.139 273.213C440.139 273.213 448.479 208.103 506.244 191.704C564.01 175.304 603.376 228.134 603.376 228.134C603.376 228.134 614.272 204.365 638.238 194.702C662.203 185.038 692.362 199.766 692.362 199.766C692.362 199.766 695.782 180.834 719.914 168.143C744.046 155.452 767.393 167.421 767.393 167.421C767.393 167.421 762.893 158.389 772.791 148.271C782.689 138.153 794.553 145.871 794.553 145.871C794.553 145.871 781.165 115.252 805.582 86.9837Z" fill="url(#paint1_linear)"/>
<defs>
<linearGradient id="paint0_linear" x1="369" y1="0" x2="369" y2="264" gradientUnits="userSpaceOnUse">
<stop stop-color="#605ABB"/>
<stop offset="1" stop-color="#5F5BBC" stop-opacity="0"/>
</linearGradient>
<linearGradient id="paint1_linear" x1="604.307" y1="93.5602" x2="624.693" y2="278.44" gradientUnits="userSpaceOnUse">
<stop stop-color="#605ABB"/>
<stop offset="1" stop-color="#5F5BBC" stop-opacity="0"/>
</linearGradient>
</defs>
</svg>
