<svg width="304" height="151" viewBox="0 0 304 151" fill="none" xmlns="http://www.w3.org/2000/svg">
<path d="M320.081 11.3486C339.098 -6.28321 360.88 3.05127 360.88 3.05127V129.585H0.258301C0.258301 129.585 1.98707 100.89 24.4611 98.4704C46.9352 96.0504 53.5045 111.954 53.5045 111.954C53.5045 111.954 64.2229 67.7012 105.368 60.7868C146.512 53.8723 169.678 93.2846 169.678 93.2846C169.678 93.2846 179.013 77.7271 196.301 72.887C213.589 68.0469 233.297 80.4929 233.297 80.4929C233.297 80.4929 237.1 67.7012 254.734 60.7868C272.367 53.8723 287.58 63.8983 287.58 63.8983C287.58 63.8983 285.16 57.3296 292.767 51.1066C300.373 44.8836 307.98 51.1066 307.98 51.1066C307.98 51.1066 301.065 28.9804 320.081 11.3486Z" fill="url(#paint0_linear)"/>
<path d="M393.904 43.0868C405.835 29.2735 421.782 34.1315 421.782 34.1315L431.553 122.743L179.473 150.539C179.473 150.539 178.465 130.311 193.988 126.884C209.511 123.457 215.331 134.088 215.331 134.088C215.331 134.088 219.406 102.271 247.633 94.2579C275.86 86.2444 295.097 112.059 295.097 112.059C295.097 112.059 300.421 100.445 312.131 95.7228C323.842 91.0008 338.579 98.1977 338.579 98.1977C338.579 98.1977 340.25 88.9465 352.042 82.7452C363.834 76.5439 375.243 82.3925 375.243 82.3925C375.243 82.3925 373.044 77.9789 377.88 73.0347C382.717 68.0904 388.515 71.8621 388.515 71.8621C388.515 71.8621 381.972 56.9001 393.904 43.0868Z" fill="url(#paint1_linear)"/>
<defs>
<linearGradient id="paint0_linear" x1="180.569" y1="0.582397" x2="180.569" y2="129.585" gradientUnits="userSpaceOnUse">
<stop stop-color="#605ABB"/>
<stop offset="1" stop-color="#5F5BBC" stop-opacity="0"/>
</linearGradient>
<linearGradient id="paint1_linear" x1="295.551" y1="46.3004" x2="305.513" y2="136.641" gradientUnits="userSpaceOnUse">
<stop stop-color="#605ABB"/>
<stop offset="1" stop-color="#5F5BBC" stop-opacity="0"/>
</linearGradient>
</defs>
</svg>
