<svg width="180" height="67" viewBox="0 0 180 67" fill="none" xmlns="http://www.w3.org/2000/svg">
<path d="M176.729 38.5681C165.618 38.5681 162.004 30.3019 159.327 26.7021C156.917 23.1023 153.035 20.7025 148.483 20.5692C146.341 20.4358 144.467 20.8358 142.593 21.6358C140.317 17.5027 135.9 14.5695 130.813 14.3029C130.679 14.3029 130.545 14.3029 130.411 14.3029C125.592 8.96983 118.631 5.50337 110.867 5.10339C102.299 4.70342 94.4008 8.16988 88.9123 14.0362C83.156 6.03667 73.7852 0.570321 63.0758 0.0370183C48.752 -0.62961 36.0345 7.76991 30.6798 20.1692C27.8686 18.3026 24.3881 17.1027 20.7736 16.9694C9.79649 16.4361 0.559621 24.8356 0.02415 35.7683C-0.511321 46.701 7.92235 55.9004 18.8995 56.4338C24.2542 56.7004 29.3412 54.7005 32.9556 51.3674C38.578 60.3002 48.4842 66.4332 59.863 66.9665C68.966 67.3664 77.3997 64.1666 83.8253 58.567C84.8963 58.8336 85.9671 59.1003 87.0381 59.1003C89.9832 59.2336 92.7944 58.4336 95.0702 57.1004C98.9523 59.3669 103.37 60.8335 108.189 60.9668C121.041 61.5001 132.285 53.5006 136.168 41.9013C138.577 45.5011 142.459 47.9009 147.145 48.1676C149.822 48.3009 152.499 47.6343 154.641 46.301C160.531 43.7678 164.012 41.6346 172.312 41.1013C173.784 40.968 175.123 40.968 176.462 40.968C182.218 40.8346 179.942 38.5681 176.729 38.5681Z" fill="url(#paint0_linear)"/>
<defs>
<linearGradient id="paint0_linear" x1="90" y1="0" x2="90" y2="67" gradientUnits="userSpaceOnUse">
<stop stop-color="#605ABB"/>
<stop offset="1" stop-color="#5F5BBC" stop-opacity="0"/>
</linearGradient>
</defs>
</svg>
