<svg width="281" height="84" viewBox="0 0 281 84" fill="none" xmlns="http://www.w3.org/2000/svg">
<path d="M270.589 83.2582H10.4073C4.5792 83.2582 0 78.679 0 72.8509V10.4073C0 4.5792 4.5792 0 10.4073 0H270.589C276.417 0 280.996 4.5792 280.996 10.4073V72.8509C280.996 78.679 276.417 83.2582 270.589 83.2582Z" fill="black"/>
<path d="M270.589 1.66516C275.377 1.66516 279.331 5.61993 279.331 10.4073V72.8509C279.331 77.6383 275.377 81.593 270.589 81.593H10.4073C5.61993 81.593 1.66516 77.6383 1.66516 72.8509V10.4073C1.66516 5.61993 5.61993 1.66516 10.4073 1.66516H270.589ZM270.589 0H10.4073C4.5792 0 0 4.78735 0 10.4073V72.8509C0 78.679 4.5792 83.2582 10.4073 83.2582H270.589C276.417 83.2582 280.996 78.679 280.996 72.8509V10.4073C280.996 4.78735 276.417 0 270.589 0Z" fill="black"/>
<path d="M141.747 45.3759C136.752 45.3759 132.797 49.1225 132.797 54.3261C132.797 59.3216 136.752 63.2764 141.747 63.2764C146.743 63.2764 150.697 59.5298 150.697 54.3261C150.697 48.9143 146.743 45.3759 141.747 45.3759ZM141.747 59.5298C139.041 59.5298 136.752 57.2402 136.752 54.118C136.752 50.9958 139.041 48.7062 141.747 48.7062C144.453 48.7062 146.743 50.7876 146.743 54.118C146.743 57.2402 144.453 59.5298 141.747 59.5298ZM122.39 45.3759C117.394 45.3759 113.439 49.1225 113.439 54.3261C113.439 59.3216 117.394 63.2764 122.39 63.2764C127.385 63.2764 131.34 59.5298 131.34 54.3261C131.34 48.9143 127.385 45.3759 122.39 45.3759ZM122.39 59.5298C119.684 59.5298 117.394 57.2402 117.394 54.118C117.394 50.9958 119.684 48.7062 122.39 48.7062C125.096 48.7062 127.385 50.7876 127.385 54.118C127.385 57.2402 125.096 59.5298 122.39 59.5298ZM99.2855 48.0817V51.8284H108.236C108.028 53.9098 107.195 55.575 106.154 56.6157C104.905 57.8646 102.824 59.3216 99.2855 59.3216C93.6655 59.3216 89.5026 54.9506 89.5026 49.3306C89.5026 43.7107 93.8737 39.3396 99.2855 39.3396C102.199 39.3396 104.489 40.5885 106.154 42.0455L108.86 39.3396C106.571 37.2582 103.657 35.593 99.4936 35.593C92.0004 35.593 85.5479 41.8374 85.5479 49.3306C85.5479 56.8239 92.0004 63.0682 99.4936 63.0682C103.657 63.0682 106.571 61.8194 109.068 59.1135C111.566 56.6157 112.399 53.0772 112.399 50.3714C112.399 49.5388 112.399 48.7062 112.19 48.0817H99.2855ZM193.784 50.9958C192.951 48.9143 190.869 45.3759 186.29 45.3759C181.711 45.3759 177.964 48.9143 177.964 54.3261C177.964 59.3216 181.711 63.2764 186.707 63.2764C190.661 63.2764 193.159 60.7786 193.992 59.3216L191.078 57.2402C190.037 58.6972 188.788 59.7379 186.707 59.7379C184.625 59.7379 183.376 58.9053 182.336 57.032L194.2 52.0365L193.784 50.9958ZM181.711 53.9098C181.711 50.5795 184.417 48.7062 186.29 48.7062C187.747 48.7062 189.204 49.5388 189.621 50.5795L181.711 53.9098ZM171.928 62.4438H175.883V36.4256H171.928V62.4438ZM165.684 47.2492C164.643 46.2084 162.978 45.1677 160.897 45.1677C156.525 45.1677 152.363 49.1225 152.363 54.118C152.363 59.1135 156.317 62.8601 160.897 62.8601C162.978 62.8601 164.643 61.8194 165.476 60.7786H165.684V62.0275C165.684 65.3578 163.811 67.2311 160.897 67.2311C158.607 67.2311 156.942 65.566 156.525 64.109L153.195 65.566C154.236 67.8556 156.734 70.7696 161.105 70.7696C165.684 70.7696 169.431 68.0637 169.431 61.6112V45.7921H165.684V47.2492ZM161.105 59.5298C158.399 59.5298 156.109 57.2402 156.109 54.118C156.109 50.9958 158.399 48.7062 161.105 48.7062C163.811 48.7062 165.892 50.9958 165.892 54.118C165.892 57.2402 163.811 59.5298 161.105 59.5298ZM211.892 36.4256H202.526V62.4438H206.48V52.6609H211.892C216.263 52.6609 220.426 49.5388 220.426 44.5433C220.426 39.5478 216.263 36.4256 211.892 36.4256ZM212.1 48.9143H206.48V39.9641H212.1C215.014 39.9641 216.68 42.4618 216.68 44.3351C216.471 46.6247 214.806 48.9143 212.1 48.9143ZM236.037 45.1677C233.123 45.1677 230.209 46.4166 229.168 49.1225L232.707 50.5795C233.539 49.1225 234.788 48.7062 236.245 48.7062C238.327 48.7062 240.2 49.9551 240.408 52.0365V52.2447C239.784 51.8284 238.119 51.2039 236.453 51.2039C232.707 51.2039 228.96 53.2854 228.96 57.032C228.96 60.5705 232.082 62.8601 235.413 62.8601C238.119 62.8601 239.367 61.6112 240.408 60.3623H240.616V62.4438H244.363V52.4528C243.947 47.8736 240.408 45.1677 236.037 45.1677ZM235.621 59.5298C234.372 59.5298 232.499 58.9053 232.499 57.2402C232.499 55.1587 234.788 54.5343 236.661 54.5343C238.327 54.5343 239.159 54.9506 240.2 55.3668C239.784 57.8646 237.702 59.5298 235.621 59.5298ZM257.476 45.7921L253.105 57.032H252.897L248.318 45.7921H244.155L251.024 61.6112L247.069 70.3533H251.024L261.639 45.7921H257.476ZM222.508 62.4438H226.462V36.4256H222.508V62.4438Z" fill="white"/>
<path d="M21.647 15.6108C21.0226 16.2353 20.8145 17.276 20.8145 18.5249V64.525C20.8145 65.7739 21.2307 66.8146 21.8552 67.4391L22.0633 67.6472L47.8734 41.8372V41.4209L21.647 15.6108Z" fill="url(#paint0_linear)"/>
<path d="M56.199 50.5793L47.665 42.0454V41.4209L56.199 32.887L56.4072 33.0951L66.6063 38.9232C69.5203 40.5883 69.5203 43.2942 66.6063 44.9594L56.199 50.5793Z" fill="url(#paint1_linear)"/>
<path d="M56.4068 50.3713L47.6647 41.6292L21.6465 67.6473C22.6872 68.6881 24.1442 68.6881 26.0175 67.8555L56.4068 50.3713Z" fill="url(#paint2_linear)"/>
<path d="M56.4068 32.8868L26.0175 15.6107C24.1442 14.57 22.6872 14.7782 21.6465 15.8189L47.6647 41.6289L56.4068 32.8868Z" fill="url(#paint3_linear)"/>
<path opacity="0.2" d="M56.1986 50.1631L26.0175 67.231C24.3524 68.2717 22.8954 68.0636 21.8546 67.231L21.6465 67.4392L21.8546 67.6473C22.8954 68.4799 24.3524 68.688 26.0175 67.6473L56.1986 50.1631Z" fill="black"/>
<path opacity="0.2" d="M21.647 67.231C21.0226 66.6066 20.8145 65.5659 20.8145 64.317V64.5252C20.8145 65.774 21.2307 66.8148 21.8552 67.4392V67.231H21.647ZM66.6065 44.335L56.1992 50.1631L56.4073 50.3713L66.6065 44.5432C68.0635 43.7106 68.6879 42.6699 68.6879 41.6292C68.6879 42.6699 67.8553 43.5025 66.6065 44.335Z" fill="black"/>
<path opacity="0.2" d="M26.0181 15.8192L66.6065 38.9234C67.8553 39.7559 68.6879 40.5885 68.6879 41.6293C68.6879 40.5885 68.0635 39.5478 66.6065 38.7152L26.0181 15.6111C23.1041 13.9459 20.8145 15.1948 20.8145 18.5251V18.7332C20.8145 15.6111 23.1041 14.154 26.0181 15.8192Z" fill="white"/>
<g filter="url(#filter0_d)">
<path d="M92.72 27.16C91.5893 27.16 90.5653 26.9147 89.648 26.424C88.7413 25.9227 88.0267 25.2347 87.504 24.36C86.992 23.4853 86.736 22.4987 86.736 21.4C86.736 20.3013 86.9973 19.3147 87.52 18.44C88.0427 17.5653 88.7573 16.8827 89.664 16.392C90.5813 15.8907 91.6053 15.64 92.736 15.64C93.6533 15.64 94.4907 15.8 95.248 16.12C96.0053 16.44 96.6453 16.904 97.168 17.512L95.824 18.776C95.0133 17.9013 94.016 17.464 92.832 17.464C92.064 17.464 91.376 17.6347 90.768 17.976C90.16 18.3067 89.6853 18.7707 89.344 19.368C89.0027 19.9653 88.832 20.6427 88.832 21.4C88.832 22.1573 89.0027 22.8347 89.344 23.432C89.6853 24.0293 90.16 24.4987 90.768 24.84C91.376 25.1707 92.064 25.336 92.832 25.336C94.016 25.336 95.0133 24.8933 95.824 24.008L97.168 25.288C96.6453 25.896 96 26.36 95.232 26.68C94.4747 27 93.6373 27.16 92.72 27.16ZM103.227 22.28H101.147V27H99.0993V15.8H101.147V20.488H103.291L106.507 15.8H108.715L104.891 21.224L108.859 27H106.507L103.227 22.28ZM117.508 24.408H111.908L110.804 27H108.66L113.7 15.8H115.748L120.804 27H118.628L117.508 24.408ZM116.82 22.776L114.708 17.88L112.612 22.776H116.82ZM130.46 15.8V27H128.396V22.776C127.34 23.1707 126.338 23.368 125.388 23.368C123.959 23.368 122.855 23.0267 122.076 22.344C121.308 21.6507 120.924 20.6587 120.924 19.368V15.8H122.988V19.144C122.988 19.9333 123.218 20.536 123.676 20.952C124.135 21.368 124.791 21.576 125.644 21.576C126.615 21.576 127.532 21.3787 128.396 20.984V15.8H130.46ZM141.023 24.408H135.423L134.319 27H132.175L137.215 15.8H139.263L144.319 27H142.143L141.023 24.408ZM140.335 22.776L138.223 17.88L136.127 22.776H140.335ZM153.602 17.56H149.89V27H147.826V17.56H144.13V15.8H153.602V17.56ZM160.564 19.592C161.908 19.592 162.937 19.896 163.652 20.504C164.377 21.1013 164.74 21.992 164.74 23.176C164.74 24.4133 164.345 25.3627 163.556 26.024C162.767 26.6747 161.657 27 160.228 27H155.412V15.8H157.46V19.592H160.564ZM160.132 25.4C160.943 25.4 161.567 25.2133 162.004 24.84C162.441 24.4667 162.66 23.9227 162.66 23.208C162.66 21.8533 161.817 21.176 160.132 21.176H157.46V25.4H160.132ZM181.239 15.8V27H179.159V22.2H173.367V27H171.287V15.8H173.367V20.424H179.159V15.8H181.239ZM191.805 24.408H186.205L185.101 27H182.957L187.997 15.8H190.045L195.101 27H192.925L191.805 24.408ZM191.117 22.776L189.005 17.88L186.909 22.776H191.117Z" fill="white"/>
</g>
<defs>
<filter id="filter0_d" x="82.7363" y="15.6399" width="116.365" height="19.52" filterUnits="userSpaceOnUse" color-interpolation-filters="sRGB">
<feFlood flood-opacity="0" result="BackgroundImageFix"/>
<feColorMatrix in="SourceAlpha" type="matrix" values="0 0 0 0 0 0 0 0 0 0 0 0 0 0 0 0 0 0 127 0" result="hardAlpha"/>
<feOffset dy="4"/>
<feGaussianBlur stdDeviation="2"/>
<feComposite in2="hardAlpha" operator="out"/>
<feColorMatrix type="matrix" values="0 0 0 0 0 0 0 0 0 0 0 0 0 0 0 0 0 0 0.25 0"/>
<feBlend mode="normal" in2="BackgroundImageFix" result="effect1_dropShadow"/>
<feBlend mode="normal" in="SourceGraphic" in2="effect1_dropShadow" result="shape"/>
</filter>
<linearGradient id="paint0_linear" x1="45.3756" y1="18.1294" x2="10.4426" y2="53.0604" gradientUnits="userSpaceOnUse">
<stop stop-color="#00A0FF"/>
<stop offset="0.007" stop-color="#00A1FF"/>
<stop offset="0.26" stop-color="#00BEFF"/>
<stop offset="0.512" stop-color="#00D2FF"/>
<stop offset="0.76" stop-color="#00DFFF"/>
<stop offset="1" stop-color="#00E3FF"/>
</linearGradient>
<linearGradient id="paint1_linear" x1="70.4237" y1="41.6312" x2="20.0587" y2="41.6312" gradientUnits="userSpaceOnUse">
<stop stop-color="#FFE000"/>
<stop offset="0.409" stop-color="#FFBD00"/>
<stop offset="0.775" stop-color="#FFA500"/>
<stop offset="1" stop-color="#FF9C00"/>
</linearGradient>
<linearGradient id="paint2_linear" x1="51.6756" y1="46.4082" x2="4.30588" y2="93.7779" gradientUnits="userSpaceOnUse">
<stop stop-color="#FF3A44"/>
<stop offset="1" stop-color="#C31162"/>
</linearGradient>
<linearGradient id="paint3_linear" x1="15.1877" y1="0.366163" x2="36.3416" y2="21.52" gradientUnits="userSpaceOnUse">
<stop stop-color="#32A071"/>
<stop offset="0.069" stop-color="#2DA771"/>
<stop offset="0.476" stop-color="#15CF74"/>
<stop offset="0.801" stop-color="#06E775"/>
<stop offset="1" stop-color="#00F076"/>
</linearGradient>
</defs>
</svg>
