<svg width="1920" height="395" viewBox="0 0 1920 395" fill="none" xmlns="http://www.w3.org/2000/svg">
<path d="M0 180C511 394.5 1377.5 352.5 1919 180V394.5H0V180Z" fill="#020A1D"/>
<path d="M340.337 359.604H1680.31C1679.52 353.265 1709.52 342.965 1707.94 337.419C1681.89 341.777 1685.84 312.858 1685.05 311.273C1683.86 307.708 1671.63 329.892 1670.05 326.723C1662.16 309.292 1652.68 295.427 1650.71 279.581C1644.79 294.635 1645.18 310.481 1647.95 324.346C1645.97 323.554 1644.39 322.365 1642.42 321.573C1641.63 319.988 1641.24 318.008 1640.45 316.423C1640.84 315.631 1641.24 314.442 1641.63 313.65C1640.84 314.046 1640.45 314.442 1639.66 314.442C1636.5 304.935 1633.34 296.219 1632.95 290.673C1628.21 297.012 1626.24 304.538 1625.45 312.462C1622.29 310.085 1619.13 307.312 1616.77 304.142C1617.16 312.462 1619.53 319.592 1622.29 325.535C1621.11 326.723 1619.92 327.515 1618.74 328.704C1615.98 329.1 1613.21 329.892 1610.45 330.685C1612.42 319.592 1610.85 305.331 1603.74 288.692C1600.19 306.519 1591.51 321.573 1579.67 335.835C1579.67 335.438 1579.67 335.042 1579.67 334.646C1580.85 327.515 1581.64 321.177 1584.4 314.442C1582.43 315.235 1580.85 316.027 1579.27 317.215C1578.09 303.35 1576.51 290.673 1580.85 279.185C1572.17 287.9 1565.85 297.011 1560.72 305.331C1559.14 290.673 1555.19 276.015 1548.48 264.923C1548.48 280.373 1547.3 293.842 1544.93 306.123C1543.75 300.577 1541.78 294.635 1539.01 288.692C1537.43 297.012 1534.67 304.935 1530.72 312.462C1527.17 300.577 1522.04 288.692 1514.94 279.977C1516.91 291.861 1517.3 308.896 1518.49 327.119C1514.54 314.838 1510.59 303.35 1508.23 293.05C1505.46 299.388 1503.1 305.727 1501.12 311.669C1495.99 302.161 1489.28 293.05 1479.81 285.919C1482.97 297.804 1482.97 315.235 1484.54 333.458C1482.18 328.308 1480.2 323.95 1479.02 319.196C1477.44 321.177 1475.86 323.554 1474.28 325.535C1473.1 319.592 1471.52 313.254 1468.36 306.519C1466.78 315.631 1463.23 323.554 1458.89 331.477C1460.07 315.631 1460.86 299.785 1463.63 293.05C1445.08 301.765 1437.18 325.535 1433.63 342.965C1432.05 329.892 1430.08 318.404 1429.68 308.104C1424.55 315.235 1420.21 322.761 1417.05 329.496C1418.63 311.273 1419.03 293.842 1422.18 281.958C1410.74 290.277 1402.84 301.369 1397.32 312.858C1391.4 317.215 1385.48 322.762 1380.35 328.308C1383.9 308.5 1385.08 291.862 1389.82 275.223C1381.14 281.958 1374.03 289.881 1368.51 298.2C1368.9 289.485 1369.69 281.958 1370.48 275.619C1361.4 288.692 1356.27 308.5 1353.51 325.535C1351.53 322.761 1349.17 319.592 1346.8 316.423C1345.61 320.781 1343.25 325.535 1341.27 330.685C1342.85 312.462 1343.25 295.031 1346.4 283.146C1336.54 290.277 1329.04 299.388 1323.91 308.896C1321.93 302.954 1319.56 296.615 1316.41 290.277C1314.04 300.577 1309.7 312.065 1305.75 324.346C1306.93 306.519 1307.33 289.088 1309.7 277.204C1301.8 286.315 1296.28 298.596 1292.73 310.481C1293.51 294.238 1295.49 276.808 1300.22 257C1289.17 268.885 1281.28 287.504 1275.75 306.123C1270.23 296.219 1262.73 285.919 1252.07 275.619C1257.2 289.088 1254.05 304.538 1253.26 321.573C1248.52 318.404 1242.99 315.235 1236.28 312.065C1239.44 319.196 1240.23 325.931 1241.42 333.854C1228.79 319.592 1219.31 304.142 1215.76 286.315C1208.26 302.954 1206.29 317.215 1208.66 328.308C1205.89 327.119 1203.13 326.723 1199.97 326.327C1198.79 325.138 1197.6 324.346 1196.03 323.158C1199.18 316.819 1201.16 310.085 1201.95 301.765C1199.18 304.935 1196.03 307.708 1192.87 310.085C1192.08 302.162 1189.71 294.635 1184.58 288.296C1184.19 294.238 1181.03 302.954 1177.48 312.065C1176.69 311.669 1176.29 311.273 1175.5 311.273C1175.9 312.065 1176.29 313.254 1176.69 314.046C1175.9 315.631 1175.5 317.611 1174.71 319.196C1172.74 319.988 1170.77 320.781 1169.19 321.969C1172.34 307.708 1172.74 292.258 1166.42 277.204C1164.45 293.05 1154.19 307.312 1145.9 324.742C1147.87 307.312 1147.48 288.692 1140.37 275.619C1139.19 285.919 1133.27 302.161 1127.74 319.196C1126.56 296.219 1124.19 277.204 1124.59 257C1116.3 269.677 1110.77 283.146 1107.22 296.615C1102.09 290.673 1096.17 285.919 1089.06 282.75C1092.62 291.069 1093.41 311.669 1094.99 331.477C1092.62 333.458 1090.64 335.835 1088.67 337.815C1088.28 313.65 1085.12 295.031 1086.3 275.223C1072.88 293.05 1066.57 312.858 1063.8 330.288C1061.83 327.515 1059.86 324.346 1057.49 321.573C1056.31 325.931 1053.94 330.685 1051.96 335.835C1053.54 317.612 1053.94 300.181 1057.09 288.296C1047.23 295.427 1039.73 304.538 1034.6 314.046C1032.62 308.104 1030.26 301.765 1027.1 295.427C1023.55 309.292 1017.63 324.742 1012.1 342.569C1009.34 343.362 1006.57 344.55 1004.21 346.135C1005.79 337.023 1006.57 329.496 1009.73 321.573C997.891 327.119 989.603 333.458 983.682 339.796C985.261 333.458 986.84 327.515 989.603 321.573C982.498 327.515 976.973 333.062 972.631 338.608C974.21 319.988 977.367 299.388 980.13 277.996C967.895 289.088 961.185 307.311 957.238 325.138C953.686 311.273 948.16 296.615 939.872 286.315C941.845 298.2 942.24 315.235 943.424 333.458C939.477 321.177 935.53 309.688 933.162 299.388C930.399 305.727 928.031 312.065 926.058 318.008C920.927 308.5 914.217 299.388 904.744 292.258C907.902 304.142 907.902 321.573 909.481 339.796C907.112 334.646 905.139 330.288 903.955 325.535C901.587 328.704 899.613 331.477 897.64 334.25C895.272 316.819 889.351 297.012 876.327 279.185C877.511 298.992 874.748 317.612 873.958 341.777C872.38 339.796 870.406 337.419 868.038 335.438C869.617 315.631 870.406 295.031 873.564 286.712C866.854 289.881 861.328 294.635 856.592 300.577C853.04 287.504 847.909 274.035 840.015 260.962C840.804 281.165 838.436 300.181 837.252 323.158C832.121 305.727 826.596 289.485 825.411 279.581C818.307 292.654 817.912 311.273 819.886 328.704C811.992 311.273 802.519 297.012 800.546 281.165C794.626 296.219 795.02 312.065 797.783 325.931C795.81 325.138 794.231 323.95 792.257 323.158C791.468 321.573 791.073 319.592 790.284 318.008C790.679 317.215 791.073 316.027 791.468 315.235C790.679 315.631 790.284 316.027 789.495 316.027C786.337 306.519 783.18 297.804 782.785 292.258C778.049 298.596 776.075 306.123 775.286 314.046C772.128 311.669 768.971 308.896 766.602 305.727C766.997 314.046 769.365 321.177 772.128 327.119C770.944 328.308 769.76 329.1 768.576 330.288C765.813 330.685 763.05 331.477 760.287 332.269C762.261 321.177 760.682 306.915 753.578 290.277C750.026 308.104 741.342 323.158 729.502 337.419C729.502 337.023 729.502 336.627 729.502 336.231C730.686 329.1 731.475 322.762 734.238 316.027C732.264 316.819 730.686 317.612 729.107 318.8C727.923 304.935 726.344 292.258 730.686 280.769C722.003 289.485 715.687 298.596 710.556 306.915C708.978 292.258 705.031 277.6 698.321 266.508C698.321 281.958 697.137 295.427 694.769 307.708C693.585 302.161 691.611 296.219 688.848 290.277C687.27 298.596 684.507 306.519 680.56 314.046C677.008 302.162 671.877 290.277 664.772 281.561C666.746 293.446 667.141 310.481 668.325 328.704C664.378 316.423 660.431 304.935 658.063 294.635C655.3 300.973 652.932 307.311 650.958 313.254C645.827 303.746 639.117 294.635 629.645 287.504C632.802 299.388 632.802 316.819 634.381 335.042C632.013 329.892 630.04 325.535 628.855 320.781C627.277 322.762 625.698 325.138 624.119 327.119C622.935 321.177 621.356 314.838 618.199 308.104C616.62 317.215 613.068 325.138 608.726 333.061C609.91 317.215 610.7 301.369 613.463 294.635C594.912 303.35 587.018 327.119 583.466 344.55C581.887 331.477 579.914 319.988 579.519 309.688C574.388 316.819 570.047 324.346 566.889 331.081C568.468 312.858 568.862 295.427 572.02 283.542C560.574 291.861 552.68 302.954 547.154 314.442C541.234 318.8 535.314 324.346 530.183 329.892C533.735 310.085 534.919 293.446 539.655 276.808C530.972 283.542 523.868 291.465 518.342 299.785C518.737 291.069 519.526 283.542 520.316 277.204C511.238 290.277 506.107 310.085 503.344 327.119C501.37 324.346 499.002 321.177 496.634 318.008C495.45 322.365 493.082 327.119 491.108 332.269C492.687 314.046 493.082 296.615 496.239 284.731C486.372 291.862 478.873 300.973 473.742 310.481C471.769 304.538 469.4 298.2 466.243 291.861C463.875 302.161 459.533 313.65 455.586 325.931C456.77 308.104 457.165 290.673 459.533 278.788C451.639 287.9 446.114 300.181 442.561 312.065C443.351 295.823 445.324 278.392 450.061 258.585C439.009 270.469 431.115 289.088 425.59 307.708C420.064 297.804 412.565 287.504 401.908 277.204C407.039 290.673 403.882 306.123 403.092 323.158C398.356 319.988 392.83 316.819 386.121 313.65C389.278 320.781 390.068 327.515 391.252 335.438C378.622 321.177 369.149 305.727 365.597 287.9C358.098 304.538 356.124 318.8 358.492 329.892C355.729 328.704 352.967 328.308 349.809 327.912C348.625 326.723 347.441 325.931 345.862 324.742C349.02 318.404 350.993 311.669 351.783 303.35C349.02 306.519 345.862 309.292 342.705 311.669C341.915 303.746 339.547 296.219 334.416 289.881C334.022 295.823 330.864 304.538 327.312 313.65C326.522 313.254 326.128 312.858 325.338 312.858C325.733 313.65 326.128 314.838 326.522 315.631C325.733 317.215 325.338 319.196 324.549 320.781C322.575 321.573 320.602 322.365 319.023 323.554C322.181 309.292 322.576 293.842 316.26 278.788C314.287 294.635 304.025 308.896 295.737 326.327C297.71 308.896 297.315 290.277 290.211 277.204C289.027 287.504 283.106 303.746 277.581 320.781C276.397 297.804 274.029 278.788 274.423 258.585C266.135 271.262 260.609 284.731 257.057 298.2C251.926 292.258 246.006 287.504 238.901 284.335C242.453 292.654 243.243 313.254 244.821 333.061C242.453 335.042 240.48 337.419 238.506 339.4C238.112 315.235 234.954 296.615 236.138 276.808C222.719 294.635 216.404 314.442 213.641 331.873C211.667 329.1 209.694 325.931 207.326 323.158C206.142 327.515 203.774 332.269 201.8 337.419C203.379 319.196 203.774 301.765 206.931 289.881C197.064 297.011 189.565 306.123 184.434 315.631C182.46 309.688 180.092 303.35 176.935 297.012C174.566 307.312 170.225 318.8 166.278 331.081C167.462 313.254 167.857 295.823 170.225 283.938C161.147 294.238 155.621 308.5 151.674 322.762C147.728 304.935 140.228 286.711 127.598 275.619C130.361 297.011 133.913 317.612 135.492 336.231C130.756 330.685 125.23 324.742 117.731 319.196C120.494 325.535 122.073 331.081 124.046 337.419C117.731 331.081 109.048 324.742 96.4177 319.196C99.9699 327.119 100.759 335.042 102.338 343.758C92.8655 338.608 80.6301 336.627 68 341.777C78.262 347.323 82.6036 353.662 87.7345 360C90.1027 359.604 339.942 358.415 340.337 359.604Z" fill="#020A1D"/>
<path d="M-281.677 130.317L491.935 352.196C492.99 346.801 512.761 343.213 513.171 338.345C497.094 337.651 506.262 314.284 506.183 312.837C506.349 309.68 494 326.08 493.844 323.187C493.439 307.402 491.273 294.317 493.909 280.828C486.904 292.351 483.357 305.579 481.649 317.552C480.699 316.568 480.07 315.319 479.12 314.334C479.042 312.887 479.286 311.177 479.207 309.73C479.624 309.137 480.135 308.215 480.552 307.623C480.001 307.821 479.679 308.085 479.223 307.954C479.665 299.534 479.919 291.772 481.012 287.1C476.768 291.581 473.835 297.506 471.492 303.956C470.235 301.459 469.073 298.633 468.461 295.608C466.707 302.584 466.375 308.898 466.555 314.292C465.588 315.083 464.716 315.545 463.749 316.336C462.06 316.207 460.276 316.408 458.492 316.608C462.274 307.722 464.76 295.615 464.622 280.619C458.324 294.838 449.725 305.903 439.491 315.788C439.586 315.459 439.68 315.13 439.775 314.801C442.157 309.075 444.123 303.941 447.322 298.804C445.994 299.136 444.894 299.532 443.699 300.258C446.318 288.545 448.427 277.755 453.67 268.931C446.581 274.733 440.765 281.255 435.82 287.315C438.401 274.879 439.614 262.051 438.382 251.727C434.702 264.559 430.81 275.551 426.517 285.359C427.155 280.556 427.431 275.294 427.251 269.901C424.358 276.549 420.875 282.673 416.804 288.271C417.584 277.811 417.453 267.09 415.428 258.675C413.736 268.873 409.906 283.087 406.248 298.419C406.895 287.565 407.353 277.37 408.439 268.423C405.334 273.23 402.457 278.102 399.902 282.711C399.205 273.964 397.502 265.286 393.732 257.794C392.723 268.188 388.571 282.666 385.141 298.063C385.001 293.394 384.9 289.448 385.349 285.303C383.965 286.687 382.488 288.4 381.104 289.783C381.836 284.652 382.435 279.126 382.216 273.009C379.134 280.316 375.196 286.308 370.802 292.17C375.26 279.205 379.491 266.174 382.69 261.038C369.904 265.205 359.685 283.64 353.482 297.53C355.684 286.41 357.282 276.541 359.508 267.921C354.847 272.994 350.547 278.527 347.12 283.597C352.372 268.723 356.753 254.31 361.407 244.962C352.817 249.977 345.617 257.883 339.69 266.51C335.234 269.149 330.495 272.775 326.211 276.532C332.981 260.668 337.628 247.045 344.326 234.009C337.708 238.165 331.719 243.57 326.547 249.564C328.851 242.391 331.1 236.27 333.066 231.136C324.711 240.491 317.03 256.094 311.377 269.785C310.898 267.155 310.286 264.13 309.673 261.106C307.952 264.529 305.452 268.086 303.086 272.036C308.339 257.162 312.719 242.749 317.373 233.401C309.977 237.69 303.477 244.016 298.25 251.064C298.526 245.801 298.669 240.144 298.356 234.357C294.535 242.52 289.292 251.343 284.088 260.89C289.018 246.279 293.398 231.867 297.597 222.387C290.869 228.648 284.753 237.934 279.871 247.217C284.196 233.857 289.488 219.706 296.941 204.038C287.729 212.079 278.737 226.237 271.111 240.787C270.28 231.646 268.404 221.849 264.706 211.529C264.459 223.566 258.956 235.876 254.442 249.894C252.463 246.478 250.027 242.93 246.909 239.187C247.033 245.633 245.884 251.357 244.68 258.134C240.786 244.197 238.998 229.796 241.194 214.401C232.901 226.979 228.364 238.498 227.088 248.103C225.777 246.658 224.276 245.872 222.547 245.02C222.147 243.837 221.652 242.983 221.024 241.734C224.357 236.992 227.1 231.725 229.538 224.946C227.188 227.121 224.704 228.901 222.315 230.353C223.747 223.641 224.172 216.997 222.72 210.883C221.077 215.753 217.178 222.469 212.956 229.449C212.595 228.989 212.461 228.595 212.006 228.464C212.045 229.188 211.989 230.24 212.029 230.964C211.195 232.149 210.496 233.729 209.662 234.914C208.334 235.246 207.006 235.577 205.812 236.303C211.032 224.98 214.94 212.213 214.881 198.664C209.966 211.499 200.644 221.645 191.707 234.75C196.999 220.599 201.206 205.069 200.219 193.034C197.082 201.393 189.794 213.903 182.546 227.137C187.336 207.857 190.499 191.671 195.54 174.955C187.735 184.112 181.336 194.384 176.076 204.983C174.53 199.198 172.244 194.269 168.897 190.461C168.966 197.959 164.515 215.2 160.708 231.913C158.868 233.166 157.163 234.814 155.552 236.132C161.081 215.995 163.693 200.007 169.095 183.751C157.101 196.336 148.737 211.743 142.989 225.763C142.51 223.133 142.126 220.174 141.419 217.478C139.698 220.902 137.198 224.458 134.832 228.409C140.084 213.534 144.465 199.122 149.119 189.773C141.723 194.062 135.223 200.389 129.996 207.436C130.272 202.174 130.415 196.517 130.102 190.729C124.748 201.657 117.65 213.51 110.213 227.402C108.429 227.602 106.551 228.132 104.806 229.056C107.888 221.75 110.137 215.628 113.847 209.57C105.69 212.216 99.3949 216.109 94.4669 220.393C96.8883 215.39 99.2154 210.715 102.226 206.237C96.7089 209.997 92.1975 213.688 88.3698 217.576C93.7167 202.372 100.447 185.785 107.138 168.474C97.4319 175.661 89.217 189.686 82.6916 203.84C83.9438 191.735 84.2454 178.645 81.9139 168.718C80.222 178.916 76.3919 193.13 72.7344 208.462C73.3812 197.608 73.8394 187.412 74.9259 178.465C71.8208 183.272 68.9436 188.145 66.3887 192.754C65.6913 184.007 63.9881 175.328 60.218 167.837C59.2098 178.231 55.0574 192.709 51.6278 208.106C51.4874 203.437 51.3861 199.49 51.835 195.346C49.7128 197.586 47.9129 199.562 46.1129 201.539C48.8981 186.669 50.1987 169.237 46.9258 152.273C42.8908 168.921 36.8602 183.929 30.6478 203.869C30.2082 201.963 29.6351 199.662 28.7397 197.624C34.3698 181.434 39.7329 164.454 43.5376 158.067C38.9089 159.589 34.5863 162.622 30.4363 166.774C31.4998 155.327 31.7461 143.29 30.3031 131.124C25.9458 148.036 20.0487 163.438 13.8916 182.326C15.0816 166.999 15.7607 152.593 17.4365 144.171C10.2205 153.853 5.55715 169.253 2.5441 184.058C2.1391 168.273 0.067699 154.859 2.70326 141.37C-4.30091 152.893 -7.84792 166.12 -9.5559 178.094C-10.5065 177.109 -11.1349 175.861 -12.0854 174.876C-12.1637 173.429 -11.9197 171.719 -11.998 170.272C-11.5813 169.679 -11.0703 168.757 -10.6537 168.164C-11.2038 168.363 -11.5261 168.627 -11.9818 168.496C-11.5398 160.076 -11.2866 152.314 -10.1932 147.642C-14.4376 152.123 -17.37 158.048 -19.7132 164.498C-20.9699 162.001 -22.1322 159.175 -22.7445 156.15C-24.4984 163.125 -24.8299 169.44 -24.6504 174.833C-25.6171 175.624 -26.4895 176.086 -27.4562 176.878C-29.1457 176.749 -30.9295 176.95 -32.7133 177.15C-28.9315 168.264 -26.4456 156.157 -26.5836 141.161C-32.8812 155.38 -41.4804 166.445 -51.7139 176.33C-51.6195 176.001 -51.5251 175.672 -51.4308 175.343C-49.0484 169.616 -47.0828 164.482 -43.8833 159.346C-45.2114 159.677 -46.3117 160.074 -47.5063 160.8C-44.8868 149.087 -42.7784 138.297 -37.535 129.473C-44.6243 135.274 -50.4408 141.797 -55.3849 147.857C-52.8046 135.421 -51.5914 122.593 -52.8228 112.269C-56.5033 125.101 -60.3956 136.093 -64.6883 145.901C-64.0507 141.098 -63.7745 135.836 -63.9539 130.443C-66.8473 137.091 -70.3298 143.214 -74.4015 148.813C-73.6211 138.353 -73.7523 127.632 -75.7777 119.217C-77.4695 129.415 -81.2997 143.629 -84.9572 158.961C-84.3104 148.107 -83.8523 137.912 -82.7658 128.964C-85.8708 133.772 -88.7479 138.644 -91.3028 143.253C-92.0002 134.506 -93.7034 125.827 -97.4735 118.336C-98.4818 128.73 -102.634 143.208 -106.064 158.605C-106.204 153.936 -106.305 149.99 -105.857 145.845C-107.24 147.229 -108.718 148.941 -110.101 150.325C-109.369 145.194 -108.77 139.668 -108.989 133.551C-112.071 140.858 -116.009 146.85 -120.403 152.712C-115.945 139.746 -111.714 126.716 -108.515 121.579C-121.301 125.747 -131.521 144.182 -137.724 158.072C-135.521 146.952 -133.923 137.083 -131.698 128.462C-136.359 133.535 -140.658 139.068 -144.086 144.139C-138.833 129.265 -134.453 114.852 -129.799 105.504C-138.389 110.518 -145.588 118.425 -151.515 127.052C-155.971 129.691 -160.711 133.317 -164.994 137.074C-158.225 121.21 -153.578 107.587 -146.879 94.5511C-153.497 98.707 -159.486 104.111 -164.658 110.106C-162.354 102.933 -160.105 96.8117 -158.139 91.6778C-166.495 101.033 -174.176 116.635 -179.829 130.327C-180.307 127.697 -180.92 124.672 -181.532 121.648C-183.253 125.071 -185.753 128.628 -188.119 132.578C-182.867 117.704 -178.486 103.291 -173.832 93.9429C-181.228 98.2318 -187.728 104.558 -192.955 111.605C-192.679 106.343 -192.536 100.686 -192.849 94.8987C-196.67 103.062 -201.913 111.885 -207.118 121.432C-202.187 106.821 -197.807 92.4084 -193.609 82.9293C-200.336 89.1901 -206.452 98.4754 -211.334 107.759C-207.009 94.3985 -201.717 80.2474 -194.264 64.5796C-203.476 72.6209 -212.469 86.7788 -220.094 101.329C-220.925 92.1878 -222.801 82.391 -226.5 72.0713C-226.746 84.1084 -232.25 96.4181 -236.763 110.436C-238.743 107.02 -241.178 103.472 -244.297 99.7289C-244.172 106.174 -245.321 111.899 -246.525 118.676C-250.419 104.739 -252.208 90.3378 -250.012 74.9427C-258.305 87.5208 -262.842 99.0395 -264.117 108.645C-265.429 107.2 -266.929 106.414 -268.658 105.562C-269.058 104.379 -269.553 103.524 -270.182 102.276C-266.849 97.5341 -264.105 92.2671 -261.668 85.4879C-264.018 87.6628 -266.501 89.4433 -268.89 90.8947C-267.459 84.1831 -267.033 77.5392 -268.485 71.4249C-270.129 76.2952 -274.028 83.0113 -278.249 89.991C-278.61 89.5313 -278.744 89.1369 -279.2 89.0062C-279.161 89.7297 -279.216 90.7821 -279.177 91.5055C-280.01 92.691 -280.71 94.2709 -281.543 95.4564C-282.871 95.7877 -284.199 96.1189 -285.394 96.8446C-280.173 85.522 -276.265 72.7547 -276.325 59.2055C-281.239 72.0404 -290.561 82.1866 -299.498 95.292C-294.207 81.141 -289.999 65.6107 -290.986 53.5759C-294.124 61.9349 -301.411 74.4453 -308.659 87.6791C-303.869 68.3987 -300.707 52.2125 -295.666 35.4967C-303.471 44.6536 -309.87 54.9261 -315.129 65.5253C-316.676 59.74 -318.961 54.8112 -322.308 51.0025C-322.239 58.5006 -326.691 75.7414 -330.498 92.4549C-332.337 93.708 -334.042 95.3555 -335.654 96.6739C-330.125 76.537 -327.512 60.5493 -322.11 44.2932C-334.104 56.878 -342.469 72.2844 -348.216 86.3048C-348.695 83.6747 -349.079 80.7156 -349.786 78.0201C-351.508 81.4435 -354.007 84.9999 -356.373 88.9507C-351.121 74.0762 -346.741 59.6637 -342.086 50.3153C-349.482 54.6042 -355.982 60.9304 -361.209 67.9778C-360.933 62.7154 -360.79 57.0587 -361.103 51.2712C-364.924 59.4341 -370.167 68.2573 -375.372 77.8041C-370.441 63.1933 -366.061 48.7808 -361.863 39.3017C-369.557 46.3536 -376.145 57.2842 -381.821 68.4762C-379.853 53.0157 -379.841 36.638 -384.491 25.3335C-387.992 43.5592 -390.848 61.2576 -394.372 76.984C-395.785 71.5932 -397.56 65.7425 -400.568 59.8942C-400.483 65.6163 -400.893 70.4844 -401.263 76.0758C-403.399 69.7655 -406.903 63.063 -412.873 56.365C-412.71 63.5341 -414.141 70.2456 -415.306 77.746C-419.548 71.8999 -426.14 68.2287 -434.659 70.4149C-430.055 76.7207 -429.059 82.7043 -427.607 88.8186C-426.145 88.8817 -281.621 129.264 -281.677 130.317Z" fill="#020A1D"/>
<path d="M1394.89 313.946L2230.6 190.055C2229.18 183.858 2246.38 170.896 2244.58 165.555C2228.97 172.275 2227.19 143.303 2226.47 141.809C2225.2 138.391 2220.83 161.467 2219.38 158.478C2211.9 141.966 2203.96 129.126 2200.4 113.634C2198.92 129.072 2201.49 144.711 2205.24 158.171C2203.9 157.569 2202.74 156.54 2201.39 155.938C2200.67 154.444 2200.13 152.521 2199.41 151.027C2199.54 150.206 2199.61 148.994 2199.74 148.174C2199.3 148.639 2199.11 149.067 2198.62 149.14C2195.26 140.027 2192.01 131.698 2190.95 126.248C2188.93 132.956 2188.8 140.584 2189.47 148.495C2187.15 146.435 2184.78 143.984 2182.83 141.068C2184.3 149.261 2186.82 156.096 2189.42 161.718C2188.85 163.003 2188.23 163.897 2187.67 165.182C2186 165.829 2184.4 166.868 2182.79 167.907C2182.39 156.752 2179.32 142.791 2172.45 126.989C2172.84 144.952 2169.64 160.646 2164.34 175.848C2164.29 175.456 2164.23 175.064 2164.17 174.672C2163.86 167.509 2163.42 161.166 2164.16 154.249C2163.05 155.215 2162.18 156.145 2161.37 157.467C2158.6 143.861 2155.75 131.467 2156.77 119.701C2152.64 129.125 2150.03 138.722 2148.05 147.426C2144.92 133.072 2140.31 118.938 2134.5 108.586C2136.76 123.869 2138 137.302 2138.32 149.669C2136.77 144.292 2134.67 138.597 2132.08 132.974C2132.31 141.349 2131.75 149.442 2130.39 157.253C2126.43 145.825 2121.49 134.543 2115.78 126.579C2118.76 138.153 2121.5 154.967 2124.91 172.883C2120.65 161.1 2116.5 150.101 2113.51 140.131C2112.72 146.656 2112.17 153.145 2111.81 159.206C2107.22 150.275 2101.7 141.883 2094.75 135.705C2098.46 147.169 2101.01 164.411 2104.67 182.291C2102.44 177.416 2100.57 173.288 2099.13 168.695C2098.44 170.8 2097.8 173.297 2097.11 175.403C2095.5 169.634 2093.59 163.51 2090.63 157.14C2090.98 166.299 2089.93 174.465 2088.38 182.704C2086.8 166.92 2084.96 151.172 2085.7 144.255C2075.41 154.591 2073.97 178.833 2074.31 196.404C2071.41 183.618 2068.49 172.436 2066.74 162.284C2064.58 169.812 2062.98 177.659 2062 184.613C2060.31 166.441 2058 149.162 2058.23 137.114C2052.31 146.402 2049.01 158.104 2047.25 169.979C2044.2 174.837 2041.32 180.871 2038.93 186.831C2038.24 166.909 2036.54 150.341 2037.05 133.445C2032.63 140.909 2029.36 149.403 2027.13 158.144C2026.1 149.486 2025.49 141.967 2025.05 135.625C2021.31 149.396 2021.01 169.464 2021.78 186.569C2020.15 184.009 2018.21 181.093 2016.26 178.177C2016.16 182.597 2015.38 187.518 2014.91 192.795C2013.22 174.623 2010.91 157.344 2011.14 145.296C2006.03 153.262 2002.69 162.969 2000.88 172.848C1998.78 167.152 1996.37 161.101 1993.48 155.123C1993.51 165.531 1992.49 177.297 1991.83 189.809C1989.95 172.066 1987.64 154.787 1987.37 142.812C1983.79 152.555 1982.14 165.214 1981.67 177.298C1979.78 161.159 1978.45 143.734 1978.5 123.702C1973.35 136.48 1971.16 155.628 1970.45 174.557C1965.55 165.271 1959.36 155.776 1951.2 146.572C1956.38 159.421 1956.67 174.996 1958.68 191.92C1955.26 189.223 1951.35 186.599 1946.7 184.084C1949.72 190.846 1951.2 197.435 1953.1 205.163C1943.13 192.223 1934.95 177.816 1930.12 160.51C1927.89 177.662 1928.75 191.952 1931.85 202.705C1929.95 201.785 1928.17 201.649 1926.15 201.549C1925.23 200.483 1924.38 199.808 1923.22 198.779C1924.26 192.217 1924.5 185.373 1923.77 177.07C1922.52 180.461 1920.95 183.496 1919.33 186.139C1917.68 178.374 1915.1 171.148 1910.97 165.352C1911.59 171.267 1910.9 180.18 1910.02 189.521C1909.47 189.203 1909.17 188.847 1908.68 188.92C1909.04 189.667 1909.46 190.807 1909.82 191.554C1909.56 193.194 1909.61 195.19 1909.35 196.831C1908.23 197.797 1907.12 198.763 1906.31 200.085C1906.18 185.685 1904.16 170.366 1898.02 156.059C1899.11 171.916 1894.8 186.972 1892.19 204.981C1890.86 187.556 1887.89 169.174 1881.54 156.9C1882.31 167.198 1881 183.812 1880.05 201.173C1875.95 178.554 1871.68 159.963 1868.96 139.941C1865.65 153.248 1864.18 167.082 1863.94 180.734C1859.87 175.33 1855.48 171.175 1850.59 168.697C1854.02 176.598 1857.53 196.902 1861.42 216.35C1860.24 218.528 1859.35 221.062 1858.41 223.204C1854.62 199.336 1849.92 181.21 1847.76 161.507C1842 180.382 1840.97 200.56 1841.8 218.057C1840.17 215.497 1838.47 212.544 1836.59 210.02C1836.49 214.44 1835.71 219.361 1835.23 224.638C1833.54 206.466 1831.23 189.187 1831.46 177.139C1826.35 185.105 1823.01 194.812 1821.2 204.691C1819.1 198.995 1816.7 192.944 1813.8 186.966C1813.62 201.01 1812.19 216.841 1811.36 234.986C1809.75 236.025 1808.2 237.456 1806.96 239.243C1806.6 230.084 1805.99 222.565 1806.8 214.436C1800.23 221.017 1795.99 228.053 1793.23 234.87C1793.28 228.454 1793.4 222.43 1794.25 216.297C1790.69 222.832 1788.05 228.829 1786.16 234.716C1784.41 216.152 1783.36 195.483 1781.95 174.067C1775.94 186.17 1774.43 204.817 1774.58 222.816C1770.34 209.429 1764.74 195.441 1758.06 186.018C1761.03 197.592 1763.78 214.406 1767.19 232.322C1762.93 220.539 1758.78 209.54 1755.79 199.57C1755 206.096 1754.45 212.585 1754.09 218.645C1749.5 209.715 1743.98 201.322 1737.02 195.144C1740.74 206.608 1743.29 223.851 1746.95 241.731C1744.72 236.855 1742.85 232.727 1741.41 228.134C1740.4 231.488 1739.58 234.414 1738.75 237.339C1734.72 220.316 1728.12 201.27 1717.38 184.84C1721.03 204.324 1722.03 222.997 1725.09 246.974C1723.81 245.161 1722.23 242.992 1720.46 241.252C1718.54 221.512 1716.02 201.062 1716.76 192.541C1713.04 196.296 1710.3 201.51 1708.21 207.825C1704.08 195.222 1698.91 182.373 1692.06 170.171C1695.52 190.083 1696.83 209.112 1699.46 231.95C1693.71 215.182 1687.88 199.626 1685.69 189.939C1683.17 203.528 1685.66 221.982 1689.44 239.042C1681.97 222.53 1673.97 209.298 1670.41 193.806C1668.93 209.244 1671.5 224.883 1675.25 238.343C1673.91 237.741 1672.75 236.712 1671.4 236.11C1670.68 234.616 1670.14 232.693 1669.41 231.198C1669.54 230.378 1669.62 229.166 1669.75 228.346C1669.31 228.811 1669.12 229.239 1668.63 229.312C1665.27 220.199 1662.02 211.87 1660.96 206.42C1658.94 213.128 1658.81 220.756 1659.48 228.666C1657.16 226.607 1654.79 224.156 1652.84 221.24C1654.31 229.433 1656.83 236.268 1659.43 241.89C1658.86 243.175 1658.24 244.069 1657.68 245.354C1656.01 246.001 1654.4 247.04 1652.8 248.079C1652.4 236.924 1649.33 222.963 1642.46 207.161C1642.85 225.124 1639.65 240.818 1634.35 256.02C1634.29 255.628 1634.24 255.236 1634.18 254.844C1633.87 247.681 1633.43 241.338 1634.17 234.421C1633.06 235.387 1632.19 236.317 1631.38 237.639C1628.6 224.033 1625.76 211.639 1626.78 199.873C1622.65 209.297 1620.04 218.894 1618.06 227.598C1614.93 213.244 1610.32 199.11 1604.51 188.758C1606.77 204.041 1608.01 217.474 1608.33 229.841C1606.78 224.464 1604.68 218.769 1602.09 213.146C1602.32 221.521 1601.76 229.614 1600.4 237.425C1596.44 225.997 1591.5 214.715 1585.79 206.751C1588.77 218.325 1591.51 235.139 1594.92 253.055C1590.66 241.272 1586.51 230.273 1583.52 220.303C1582.73 226.828 1582.18 233.317 1581.82 239.378C1577.23 230.447 1571.71 222.055 1564.76 215.877C1568.47 227.341 1571.02 244.583 1574.68 262.463C1572.45 257.588 1570.58 253.46 1569.14 248.867C1568.45 250.972 1567.81 253.469 1567.12 255.575C1565.51 249.806 1563.59 243.682 1560.64 237.312C1560.99 246.471 1559.94 254.637 1558.39 262.876C1556.8 247.092 1554.97 231.344 1555.71 224.427C1545.42 234.763 1543.98 259.005 1544.32 276.576C1541.42 263.79 1538.5 252.608 1536.75 242.456C1534.59 249.984 1532.99 257.831 1532.01 264.785C1530.32 246.613 1528.01 229.334 1528.24 217.286C1522.32 226.573 1519.02 238.276 1517.26 250.151C1514.21 255.009 1511.33 261.042 1508.94 267.003C1508.25 247.081 1506.55 230.513 1507.06 213.617C1502.63 221.081 1499.37 229.575 1497.14 238.316C1496.11 229.658 1495.5 222.14 1495.06 215.797C1491.31 229.568 1491.02 249.636 1491.79 266.741C1490.16 264.181 1488.22 261.265 1486.27 258.349C1486.17 262.769 1485.39 267.69 1484.92 272.967C1483.23 254.795 1480.92 237.516 1481.15 225.468C1476.04 233.434 1472.7 243.141 1470.89 253.02C1468.79 247.324 1466.38 241.273 1463.49 235.295C1463.52 245.703 1462.5 257.468 1461.83 269.981C1459.96 252.238 1457.65 234.959 1457.38 222.984C1453.8 232.727 1452.15 245.386 1451.68 257.47C1449.79 241.33 1448.46 223.906 1448.51 203.874C1443.36 216.652 1441.17 235.8 1440.45 254.729C1435.56 245.443 1429.37 235.948 1421.21 226.744C1426.39 239.593 1426.68 255.168 1428.69 272.092C1425.27 269.395 1421.36 266.771 1416.71 264.256C1419.73 271.018 1421.21 277.607 1423.11 285.335C1413.14 272.395 1404.96 257.988 1400.13 240.682C1397.9 257.834 1398.76 272.124 1401.86 282.877C1399.96 281.957 1398.18 281.821 1396.16 281.721C1395.24 280.655 1394.39 279.98 1393.23 278.951C1394.27 272.389 1394.51 265.544 1393.78 257.242C1392.53 260.633 1390.96 263.668 1389.34 266.311C1387.69 258.546 1385.11 251.32 1380.98 245.524C1381.6 251.439 1380.91 260.352 1380.03 269.693C1379.48 269.375 1379.18 269.019 1378.69 269.092C1379.05 269.839 1379.47 270.978 1379.83 271.726C1379.57 273.366 1379.62 275.362 1379.36 277.003C1378.24 277.969 1377.13 278.935 1376.32 280.257C1376.19 265.857 1374.17 250.538 1368.03 236.231C1369.12 252.088 1364.81 267.144 1362.2 285.153C1360.87 267.728 1357.9 249.346 1351.55 237.072C1352.32 247.37 1351.01 263.984 1350.06 281.345C1345.95 258.726 1341.69 240.135 1338.97 220.113C1335.66 233.42 1334.19 247.254 1333.95 260.906C1329.88 255.502 1325.49 251.347 1320.59 248.869C1324.03 256.77 1327.54 277.074 1331.43 296.522C1330.25 298.7 1329.36 301.234 1328.42 303.376C1324.63 279.508 1319.93 261.382 1317.77 241.679C1312.01 260.554 1310.98 280.732 1311.81 298.229C1310.17 295.669 1308.48 292.716 1306.6 290.192C1306.5 294.612 1305.72 299.533 1305.24 304.81C1303.55 286.638 1301.24 269.359 1301.47 257.311C1296.36 265.277 1293.02 274.984 1291.21 284.863C1289.11 279.167 1286.71 273.116 1283.81 267.138C1283.84 277.546 1282.82 289.312 1282.16 301.825C1280.28 284.081 1277.97 266.802 1277.71 254.827C1273.55 265.855 1272.2 280.473 1271.83 294.946C1266.75 277.676 1259.4 260.344 1249.9 250.539C1254.76 271.444 1260 291.493 1263.71 309.765C1259.94 304.717 1255.63 299.35 1250.14 294.557C1252.79 300.571 1254.59 305.912 1256.75 311.999C1251.88 306.313 1245.53 300.846 1236.84 296.528C1240.22 304.037 1241.88 311.801 1244.14 320.276C1237.48 316.058 1229.55 315.23 1222.43 321.492C1229.65 326.029 1233.28 331.898 1237.41 337.693C1238.83 337.082 1394.47 312.807 1394.89 313.946Z" fill="#020A1D"/>
</svg>
