<svg width="1918" height="1013" viewBox="0 0 1918 1013" fill="none" xmlns="http://www.w3.org/2000/svg">
<rect width="1920" height="1013" fill="url(#paint0_linear)"/>
<circle cx="1065.5" cy="401.5" r="2.5" fill="#DCBEBF"/>
<circle cx="649" cy="261" r="4" fill="#EDEEC8"/>
<circle cx="289" cy="215" r="4" fill="#EDEEC8"/>
<circle cx="1128" cy="175" r="4" fill="#EDEEC8"/>
<circle cx="510" cy="360" r="4" fill="#EDEEC8"/>
<circle cx="469" cy="197" r="4" fill="#EDEEC8"/>
<circle cx="62" cy="471" r="4" fill="#EDEEC8"/>
<circle cx="1607" cy="261" r="4" fill="#EDEEC8"/>
<circle cx="238" cy="541" r="4" fill="#EDEEC8"/>
<circle cx="1791" cy="288" r="4" fill="#EDEEC8"/>
<circle cx="1131.5" cy="570.5" r="1.5" fill="#EDEEC8"/>
<circle cx="1440" cy="122" r="4" fill="#EDEEC8"/>
<circle cx="1524" cy="555" r="4" fill="#EDEEC8"/>
<circle cx="967" cy="177" r="4" fill="#EDEEC8"/>
<circle cx="1098" cy="251" r="4" fill="#EDEEC8"/>
<circle cx="820" cy="471" r="4" fill="#EDEEC8"/>
<circle cx="1219" cy="326" r="4" fill="#EDEEC8"/>
<circle cx="1263" cy="27" r="4" fill="#EDEEC8"/>
<circle cx="1665" cy="382" r="4" fill="#EDEEC8"/>
<circle cx="1449" cy="332" r="4" fill="#EDEEC8"/>
<circle cx="55" cy="51" r="4" fill="#EDEEC8"/>
<circle cx="200" cy="398" r="4" fill="#EDEEC8"/>
<circle cx="1869" cy="549" r="4" fill="#EDEEC8"/>
<circle cx="1361" cy="268" r="4" fill="#EDEEC8"/>
<circle cx="982" cy="127" r="4" fill="#EDEEC8"/>
<circle cx="55" cy="591" r="4" fill="#EDEEC8"/>
<circle cx="770" cy="23" r="4" fill="#EDEEC8"/>
<circle cx="1861" cy="107" r="4" fill="#EDEEC8"/>
<circle cx="327.5" cy="93.5" r="1.5" fill="#EDEEC8"/>
<circle cx="133.5" cy="462.5" r="1.5" fill="#EDEEC8"/>
<circle cx="1893.5" cy="203.5" r="1.5" fill="#EDEEC8"/>
<circle cx="680.5" cy="454.5" r="1.5" fill="#EDEEC8"/>
<circle cx="1242.5" cy="554.5" r="1.5" fill="#EDEEC8"/>
<circle cx="1619.5" cy="278.5" r="1.5" fill="#EDEEC8"/>
<circle cx="593.5" cy="641.5" r="1.5" fill="#EDEEC8"/>
<circle cx="825.5" cy="322.5" r="1.5" fill="#EDEEC8"/>
<circle cx="35.5" cy="150.5" r="1.5" fill="#EDEEC8"/>
<circle cx="600.5" cy="165.5" r="1.5" fill="#EDEEC8"/>
<circle cx="1139.5" cy="356.5" r="1.5" fill="#EDEEC8"/>
<circle cx="642.5" cy="36.5" r="1.5" fill="#EDEEC8"/>
<circle cx="223.5" cy="295.5" r="1.5" fill="#EDEEC8"/>
<circle cx="1390.5" cy="396.5" r="1.5" fill="#EDEEC8"/>
<circle cx="1616.5" cy="586.5" r="1.5" fill="#EDEEC8"/>
<circle cx="812.5" cy="493.5" r="1.5" fill="#EDEEC8"/>
<circle cx="1603.5" cy="287.5" r="1.5" fill="#EDEEC8"/>
<circle cx="56.5" cy="604.5" r="1.5" fill="#EDEEC8"/>
<circle cx="637.5" cy="544.5" r="1.5" fill="#EDEEC8"/>
<circle cx="1067.5" cy="269.5" r="1.5" fill="#EDEEC8"/>
<circle cx="1846.5" cy="413.5" r="1.5" fill="#EDEEC8"/>
<circle cx="1246.5" cy="77.5" r="1.5" fill="#EDEEC8"/>
<circle cx="1358.5" cy="323.5" r="1.5" fill="#EDEEC8"/>
<circle cx="1563.5" cy="567.5" r="1.5" fill="#EDEEC8"/>
<circle cx="851.5" cy="483.5" r="1.5" fill="#EDEEC8"/>
<circle cx="1679.5" cy="331.5" r="1.5" fill="#EDEEC8"/>
<circle cx="504.5" cy="343.5" r="1.5" fill="#EDEEC8"/>
<circle cx="582.5" cy="128.5" r="1.5" fill="#EDEEC8"/>
<circle cx="1209.5" cy="267.5" r="1.5" fill="#206BD4"/>
<circle cx="35.5" cy="263.5" r="1.5" fill="#206BD4"/>
<circle cx="1473.5" cy="408.5" r="1.5" fill="#206BD4"/>
<circle cx="1774.5" cy="37.5" r="1.5" fill="#206BD4"/>
<circle cx="402.5" cy="238.5" r="1.5" fill="#206BD4"/>
<circle cx="437.5" cy="251.5" r="2.5" fill="#206BD4"/>
<circle cx="1781.5" cy="262.5" r="1.5" fill="#206BD4"/>
<circle cx="790.5" cy="344.5" r="1.5" fill="#206BD4"/>
<circle cx="1125.5" cy="600.5" r="1.5" fill="#206BD4"/>
<circle cx="111.5" cy="234.5" r="1.5" fill="#206BD4"/>
<circle cx="1772.5" cy="232.5" r="1.5" fill="#206BD4"/>
<circle cx="1537.5" cy="387.5" r="1.5" fill="#206BD4"/>
<circle cx="789.5" cy="238.5" r="1.5" fill="#206BD4"/>
<circle cx="1159.5" cy="229.5" r="1.5" fill="#206BD4"/>
<circle cx="1116.5" cy="446.5" r="1.5" fill="#206BD4"/>
<circle cx="1011.5" cy="468.5" r="1.5" fill="#206BD4"/>
<circle cx="1839.5" cy="518.5" r="1.5" fill="#206BD4"/>
<circle cx="1674.5" cy="627.5" r="1.5" fill="#206BD4"/>
<circle cx="1913.5" cy="575.5" r="1.5" fill="#206BD4"/>
<circle cx="553.5" cy="192.5" r="1.5" fill="#206BD4"/>
<circle cx="894.5" cy="179.5" r="1.5" fill="#206BD4"/>
<circle cx="972.5" cy="299.5" r="1.5" fill="#206BD4"/>
<circle cx="1526.5" cy="203.5" r="1.5" fill="#206BD4"/>
<circle cx="390.5" cy="62.5" r="1.5" fill="#206BD4"/>
<circle cx="1811.5" cy="491.5" r="1.5" fill="#206BD4"/>
<circle cx="1735.5" cy="249.5" r="1.5" fill="#206BD4"/>
<circle cx="698.5" cy="335.5" r="1.5" fill="#206BD4"/>
<circle cx="661.5" cy="336.5" r="1.5" fill="#206BD4"/>
<circle cx="1235.5" cy="154.5" r="1.5" fill="#206BD4"/>
<circle cx="925.5" cy="74.5" r="1.5" fill="#206BD4"/>
<circle cx="930.5" cy="423.5" r="1.5" fill="#206BD4"/>
<circle cx="1372.5" cy="588.5" r="1.5" fill="#206BD4"/>
<circle cx="820.5" cy="259.5" r="1.5" fill="#206BD4"/>
<circle cx="323.5" cy="35.5" r="2.5" fill="#206BD4"/>
<circle cx="1178.5" cy="546.5" r="2.5" fill="#206BD4"/>
<circle cx="1543.5" cy="523.5" r="2.5" fill="#206BD4"/>
<circle cx="1361.5" cy="416.5" r="2.5" fill="#206BD4"/>
<circle cx="1788.5" cy="384.5" r="2.5" fill="#206BD4"/>
<circle cx="821.5" cy="168.5" r="2.5" fill="#206BD4"/>
<circle cx="1509.5" cy="414.5" r="2.5" fill="#206BD4"/>
<circle cx="1556.5" cy="350.5" r="2.5" fill="#206BD4"/>
<circle cx="1015.5" cy="194.5" r="2.5" fill="#206BD4"/>
<circle cx="170.5" cy="256.5" r="2.5" fill="#206BD4"/>
<circle cx="1844.5" cy="178.5" r="2.5" fill="#206BD4"/>
<path opacity="0.2" d="M1099.48 251.559L968 177.471L981.891 127L1128.55 174.235L1099.48 251.559ZM1099.48 251.559L1219 325" stroke="white"/>
<path opacity="0.2" d="M1791 288L1666 384L1607.5 261L1791 288ZM1791 288L1860.5 105.5" stroke="white"/>
<path opacity="0.2" d="M199.5 398.5L238 541L56 591L62.5 470L199.5 398.5ZM199.5 398.5L289.5 214" stroke="white"/>
<defs>
<linearGradient id="paint0_linear" x1="960" y1="0" x2="960" y2="1013" gradientUnits="userSpaceOnUse">
<stop stop-color="#172463"/>
<stop offset="0.479167" stop-color="#644AAC"/>
<stop offset="1" stop-color="#5380DF"/>
</linearGradient>
</defs>
</svg>
