<svg width="375" height="441" viewBox="0 0 375 441" fill="none" xmlns="http://www.w3.org/2000/svg">
<rect width="375" height="441" fill="url(#paint0_linear)"/>
<circle cx="45.8486" cy="85.5133" r="1.95459" fill="#EDEEC8"/>
<circle cx="279.911" cy="127.537" r="1.95459" fill="#EDEEC8"/>
<circle cx="369.822" cy="140.73" r="1.95459" fill="#EDEEC8"/>
<circle cx="47.5587" cy="278.773" r="0.732971" fill="#EDEEC8"/>
<circle cx="198.307" cy="59.615" r="1.95459" fill="#EDEEC8"/>
<circle cx="239.353" cy="271.199" r="1.95459" fill="#EDEEC8"/>
<circle cx="31.189" cy="122.651" r="1.95459" fill="#EDEEC8"/>
<circle cx="90.3154" cy="159.299" r="1.95459" fill="#EDEEC8"/>
<circle cx="111.816" cy="13.1935" r="1.95459" fill="#EDEEC8"/>
<circle cx="308.252" cy="186.663" r="1.95459" fill="#EDEEC8"/>
<circle cx="202.704" cy="162.231" r="1.95459" fill="#EDEEC8"/>
<circle cx="159.703" cy="130.958" r="1.95459" fill="#EDEEC8"/>
<circle cx="101.799" cy="270.955" r="0.732971" fill="#EDEEC8"/>
<circle cx="286.019" cy="136.088" r="0.732971" fill="#EDEEC8"/>
<circle cx="51.4678" cy="174.203" r="0.732971" fill="#EDEEC8"/>
<circle cx="174.118" cy="193.749" r="0.732971" fill="#EDEEC8"/>
<circle cx="284.553" cy="286.592" r="0.732971" fill="#EDEEC8"/>
<circle cx="278.201" cy="140.486" r="0.732971" fill="#EDEEC8"/>
<circle cx="16.2852" cy="131.69" r="0.732971" fill="#EDEEC8"/>
<circle cx="103.753" cy="37.8702" r="0.732971" fill="#EDEEC8"/>
<circle cx="158.482" cy="158.077" r="0.732971" fill="#EDEEC8"/>
<circle cx="258.655" cy="277.307" r="0.732971" fill="#EDEEC8"/>
<circle cx="315.338" cy="161.987" r="0.732971" fill="#EDEEC8"/>
<circle cx="85.6734" cy="130.713" r="0.732971" fill="#206BD4"/>
<circle cx="214.676" cy="199.612" r="0.732971" fill="#206BD4"/>
<circle cx="361.759" cy="18.3243" r="0.732971" fill="#206BD4"/>
<circle cx="365.18" cy="128.27" r="0.732971" fill="#206BD4"/>
<circle cx="44.627" cy="293.433" r="0.732971" fill="#206BD4"/>
<circle cx="360.782" cy="113.611" r="0.732971" fill="#206BD4"/>
<circle cx="245.95" cy="189.351" r="0.732971" fill="#206BD4"/>
<circle cx="61.2408" cy="112.145" r="0.732971" fill="#206BD4"/>
<circle cx="40.2291" cy="218.181" r="0.732971" fill="#206BD4"/>
<circle cx="312.894" cy="306.626" r="0.732971" fill="#206BD4"/>
<circle cx="240.575" cy="99.4398" r="0.732971" fill="#206BD4"/>
<circle cx="342.702" cy="121.918" r="0.732971" fill="#206BD4"/>
<circle cx="98.378" cy="75.496" r="0.732971" fill="#206BD4"/>
<circle cx="165.323" cy="287.569" r="0.732971" fill="#206BD4"/>
<circle cx="70.5253" cy="267.046" r="1.22162" fill="#206BD4"/>
<circle cx="248.882" cy="255.807" r="1.22162" fill="#206BD4"/>
<circle cx="159.948" cy="203.522" r="1.22162" fill="#206BD4"/>
<circle cx="368.6" cy="187.885" r="1.22162" fill="#206BD4"/>
<circle cx="232.268" cy="202.544" r="1.22162" fill="#206BD4"/>
<circle cx="255.234" cy="171.271" r="1.22162" fill="#206BD4"/>
<path opacity="0.2" d="M31.9106 122.924L-32.335 86.7206L-25.5474 62.0582L46.1172 85.1396L31.9106 122.924ZM31.9106 122.924L90.3156 158.81" stroke="white" stroke-width="0.488648"/>
<path opacity="0.2" d="M369.822 140.731L308.741 187.641L280.155 127.537L369.822 140.731ZM369.822 140.731L403.783 51.5524" stroke="white" stroke-width="0.488648"/>
<defs>
<linearGradient id="paint0_linear" x1="187.5" y1="0" x2="187.5" y2="441" gradientUnits="userSpaceOnUse">
<stop stop-color="#172463"/>
<stop offset="0.479167" stop-color="#644AAC"/>
<stop offset="1" stop-color="#5380DF"/>
</linearGradient>
</defs>
</svg>
