<svg width="401" height="699" viewBox="0 0 401 699" fill="none" xmlns="http://www.w3.org/2000/svg">
<path d="M231.5 133C220.924 157.335 218.251 174.521 217 209L174 207.5C179.268 171.709 187.684 152.82 206.5 118C207.601 100.688 211.08 91.3744 219 75L262.5 93C253.949 109.753 248.107 118.814 231.5 133Z" fill="#081045"/>
<path d="M206.5 118C207.601 100.688 211.08 91.3744 219 75L221 76C212.661 91.3857 213.043 101.848 213.5 120.5C194.19 162.791 189.306 182.189 192.5 208.145L174 207.5C179.268 171.709 187.684 152.82 206.5 118Z" fill="url(#paint0_linear)"/>
<path d="M206.5 118C207.601 100.688 211.08 91.3744 219 75L221 76C212.661 91.3857 209.543 100.348 210 119C190.69 161.291 181.5 168.5 175.107 200.5L174 207.5C174.354 205.094 174.723 202.764 175.107 200.5C180.446 169.097 188.949 150.479 206.5 118Z" fill="#66FEFF"/>
<g filter="url(#filter0_dddddd)">
<path d="M80 31.5C83.5 23 90.7 5.8 91.5 5L191.5 52.5L191 56L268 85.5L264 94L187.5 65L186 67.5L80 31.5Z" fill="url(#paint1_linear)"/>
</g>
<g filter="url(#filter1_dddddd)">
<path fill-rule="evenodd" clip-rule="evenodd" d="M89.5 9.07752C90.0815 7.77806 90.5719 6.71758 90.9295 6L191.5 52.5L191.143 55L89.5 9.07752Z" fill="#FFFFD6"/>
</g>
<path d="M79.5 32.5L70 27.5L82.5 0L92.5 4.5L79.5 32.5Z" fill="#081045"/>
<path d="M168.91 201.125C203.549 202.086 222.111 203.665 250.91 202.625L283.41 253.125L263.41 264.625C215.822 262.798 176.259 255.929 149.91 244.625C134.575 238.046 126.215 232.992 120.41 224.125C114.736 215.458 112.91 192.125 112.91 192.125C108.07 123.067 110.529 91.8667 111.41 31.1254C111.41 31.1254 111.33 23.9216 114.41 24.1252C116.086 24.236 117.41 26.1254 117.41 26.1254C118.63 39.0965 119.093 46.9523 125.91 45.1254L128.41 29.1253C130.472 22.6127 136.841 15.6372 136.91 40.6252C136.912 41.4245 137.422 41.2575 137.41 42.1253C142.25 27.4706 145.144 21.0506 151.41 32.6254C155.113 30.1838 157.021 30.6537 159.91 37.1254C158.904 62.5482 157.32 73.8431 144.41 93.6255C144.41 131.625 139.542 152.182 168.91 201.125Z" fill="#081045"/>
<path fill-rule="evenodd" clip-rule="evenodd" d="M112.91 192.125C112.91 192.125 113.752 202.881 116.068 212.5C116.068 212.5 122.5 220 122.5 211.5C117.903 183.304 114.98 146.233 114.136 106.621C113.584 80.7243 113.027 54.5968 111.41 31.1254C111.22 44.2248 110.957 55.9503 110.709 66.978C109.808 107.085 109.114 137.96 112.91 192.125Z" fill="url(#paint2_linear)"/>
<path fill-rule="evenodd" clip-rule="evenodd" d="M110.709 66.978C109.808 107.085 109.114 137.96 112.91 192.125L112.083 137.5C110.997 103.889 110.868 86.6637 111.185 67.2782C111.355 56.8676 111.536 45.7709 111.41 31.1254C111.22 44.2248 110.957 55.9503 110.709 66.978Z" fill="#66FEFF"/>
<path d="M389 558.052C366 650.552 384 652.052 384 652.052L251.5 698.052V486.052L246.5 264.552C268.366 258.88 255.5 223.052 234 202.052C258.168 197.28 271.274 192.886 294 182.552C292.055 175.767 289.949 172.401 284.5 167.052C284.5 167.052 260 160.052 258.5 154.052C257.534 150.189 260.634 149.533 260.5 145.552C260.385 142.144 257.756 140.881 258.5 137.552C259.114 134.804 262.517 134.103 262.5 131.052C262.482 127.874 258 125.052 258 125.052L256.5 116.052C256.5 116.052 245.5 115.552 248.5 109.052C251.5 102.552 266.69 91.5525 266 77.0525C265.652 69.7495 276.5 58.5525 276.5 58.5525C276.5 58.5525 255.5 48.5526 257.5 44.0525C258.855 41.0038 278.5 49.0524 278.5 49.0524L322 12.0524C337.346 10.5053 368 43.5525 387 68.5524C395.213 77.2503 382.357 92.1022 373.5 110.552L386.5 118.552C381.943 125.071 377.217 126.198 366.5 125.552C354.134 139.297 351.648 148.907 358 164.552H380C381.96 168.139 379.828 173.137 381.5 176.552C424 253.552 383.363 293.022 380 378.052C380 429.552 412 465.552 389 558.052Z" fill="#081045"/>
<path fill-rule="evenodd" clip-rule="evenodd" d="M254.71 101.437C258.134 97.2638 262.034 92.5123 264 87.2065C261.566 92.8536 257.372 97.7591 253.887 101.835C251.485 104.645 249.42 107.06 248.5 109.052C247.847 110.467 247.857 111.597 248.273 112.5C248.134 109.449 251.168 105.753 254.71 101.437Z" fill="#355CC1"/>
<path d="M358 163H380C381.96 166.587 379.828 171.585 381.5 175C424 252 383.363 291.469 380 376.5C380 409.527 393.161 436.18 396.536 475.448C338.413 467.778 307.029 470.056 251.296 475.448L246.5 263C268.366 257.328 255.5 221.5 234 200.5C258.168 195.728 271.274 191.334 294 181C319.8 170.615 334.596 163.419 358 163Z" fill="url(#paint3_linear)"/>
<path opacity="0.5" d="M380 376.5C380 409.527 393.161 436.18 396.536 475.448C395.176 475.268 393.831 475.094 392.5 474.926C395.644 467 376.057 398.652 380 376.5Z" fill="#0D2775"/>
<path d="M379.932 163C381.892 166.587 379.76 171.585 381.432 175C411.824 230.064 399.701 265.935 389.098 313C410.932 200.5 370.432 175 375.432 163H379.932Z" fill="#77AAFC"/>
<path d="M387.134 118.552C382.577 125.071 377.851 126.198 367.134 125.552L277.134 58.5525C277.134 58.5525 256.134 48.5526 258.134 44.0525C259.489 41.0038 279.134 49.0524 279.134 49.0524L322.634 12.0524C337.981 10.5053 368.634 43.5525 387.634 68.5524C395.847 77.2503 382.992 92.1022 374.134 110.552L387.134 118.552Z" fill="#355CC1"/>
<path d="M277.134 58.1895C277.134 58.1895 256.134 48.1896 258.134 43.6895C258.895 41.9778 265.422 43.7645 271 45.6607C260.784 45.6704 264.009 49.1416 277.134 58.1895Z" fill="#77AAFC"/>
<path d="M289 42.0634C299.09 30.5831 322.087 10.7355 324 12.0634L326 17.5634C306.5 26.7363 303 48.5634 317.5 69.5634L289 42.0634Z" fill="#77AAFC"/>
<path d="M368.5 105.5C337.257 81.5185 319.911 67.6382 290.5 39L280 49C312.583 76.3318 332.774 86.9856 368.5 105.5Z" fill="#081045"/>
<path d="M277 57C314.321 84.0181 336.541 97.0833 379.866 114.448C336.593 89.1848 312.988 75.6204 277 57Z" fill="#66FEFF"/>
<path d="M321 13.4425L322.634 12.0524C335.022 10.8036 357.383 32.095 375.538 53.5C355.004 38.4099 343.177 29.7205 321 13.4425Z" fill="#66FEFF"/>
<path opacity="0.4" d="M251.5 514.5C296.334 445.46 306.64 368.643 334.64 257.143C334.64 257.143 309.14 253.643 293.14 258.893C277.14 264.143 251.64 260.643 251.64 260.643C247.014 359.184 250.858 414.158 251.5 514.5Z" fill="black"/>
<path d="M246 263C248.463 262.361 250.485 261.34 252.104 260C247.777 318.716 255.5 369.5 250.12 445.5L246 263Z" fill="#66FEFF"/>
<path d="M250 223C211.768 221.274 192.16 218.607 171 201L239 204.5C246.523 211.192 249.356 215.17 250 223Z" fill="url(#paint4_linear)"/>
<path d="M299.5 192.5C321.831 174.958 333.979 170.916 355.5 166C331.5 166 280 192.5 254.5 199C217.646 203.867 200.084 202.473 168 201C197.573 207.435 214.112 209.503 243.5 209.5C265.599 201.6 277.082 199.444 299.5 192.5Z" fill="#66FEFF"/>
<path d="M235.5 66.4923C227.554 59.175 223.989 59.1634 219 66.4923C223.738 73.5572 226.691 76.5235 234 74.9923C236.378 84.865 238.738 84.5455 244 77.9923C245.697 84.8254 247.619 86.0374 253 82.9923C256.035 89.8025 258.48 90.206 264 85.4923C265.765 76.3704 263.615 74.4805 256 74.9923C254.689 67.0698 252.342 65.2811 245.5 66.4923C241.586 61.7951 239.412 61.7055 235.5 66.4923Z" fill="#081045"/>
<path d="M242.162 99.5306C248.788 92.8114 252.348 89.6505 257.162 90.0306C251.862 94.0103 249.005 97.0491 244.162 104.031C244.162 104.031 235.67 107.971 234.162 104.531C232.656 101.095 242.162 99.5306 242.162 99.5306Z" fill="#355CC1"/>
<defs>
<filter id="filter0_dddddd" x="0" y="5" width="348" height="269" filterUnits="userSpaceOnUse" color-interpolation-filters="sRGB">
<feFlood flood-opacity="0" result="BackgroundImageFix"/>
<feColorMatrix in="SourceAlpha" type="matrix" values="0 0 0 0 0 0 0 0 0 0 0 0 0 0 0 0 0 0 127 0" result="hardAlpha"/>
<feOffset dy="2.76726"/>
<feGaussianBlur stdDeviation="1.1069"/>
<feColorMatrix type="matrix" values="0 0 0 0 0 0 0 0 0 0 0 0 0 0 0 0 0 0 0.07 0"/>
<feBlend mode="normal" in2="BackgroundImageFix" result="effect1_dropShadow"/>
<feColorMatrix in="SourceAlpha" type="matrix" values="0 0 0 0 0 0 0 0 0 0 0 0 0 0 0 0 0 0 127 0" result="hardAlpha"/>
<feOffset dy="6.6501"/>
<feGaussianBlur stdDeviation="2.66004"/>
<feColorMatrix type="matrix" values="0 0 0 0 0 0 0 0 0 0 0 0 0 0 0 0 0 0 0.0503198 0"/>
<feBlend mode="normal" in2="effect1_dropShadow" result="effect2_dropShadow"/>
<feColorMatrix in="SourceAlpha" type="matrix" values="0 0 0 0 0 0 0 0 0 0 0 0 0 0 0 0 0 0 127 0" result="hardAlpha"/>
<feOffset dy="12.5216"/>
<feGaussianBlur stdDeviation="5.00862"/>
<feColorMatrix type="matrix" values="0 0 0 0 0 0 0 0 0 0 0 0 0 0 0 0 0 0 0.0417275 0"/>
<feBlend mode="normal" in2="effect2_dropShadow" result="effect3_dropShadow"/>
<feColorMatrix in="SourceAlpha" type="matrix" values="0 0 0 0 0 0 0 0 0 0 0 0 0 0 0 0 0 0 127 0" result="hardAlpha"/>
<feOffset dy="22.3363"/>
<feGaussianBlur stdDeviation="8.93452"/>
<feColorMatrix type="matrix" values="0 0 0 0 0 0 0 0 0 0 0 0 0 0 0 0 0 0 0.035 0"/>
<feBlend mode="normal" in2="effect3_dropShadow" result="effect4_dropShadow"/>
<feColorMatrix in="SourceAlpha" type="matrix" values="0 0 0 0 0 0 0 0 0 0 0 0 0 0 0 0 0 0 127 0" result="hardAlpha"/>
<feOffset dy="41.7776"/>
<feGaussianBlur stdDeviation="16.711"/>
<feColorMatrix type="matrix" values="0 0 0 0 0 0 0 0 0 0 0 0 0 0 0 0 0 0 0.0282725 0"/>
<feBlend mode="normal" in2="effect4_dropShadow" result="effect5_dropShadow"/>
<feColorMatrix in="SourceAlpha" type="matrix" values="0 0 0 0 0 0 0 0 0 0 0 0 0 0 0 0 0 0 127 0" result="hardAlpha"/>
<feOffset dy="100"/>
<feGaussianBlur stdDeviation="40"/>
<feColorMatrix type="matrix" values="0 0 0 0 0 0 0 0 0 0 0 0 0 0 0 0 0 0 0.0196802 0"/>
<feBlend mode="normal" in2="effect5_dropShadow" result="effect6_dropShadow"/>
<feBlend mode="normal" in="SourceGraphic" in2="effect6_dropShadow" result="shape"/>
</filter>
<filter id="filter1_dddddd" x="9.5" y="6" width="262" height="229" filterUnits="userSpaceOnUse" color-interpolation-filters="sRGB">
<feFlood flood-opacity="0" result="BackgroundImageFix"/>
<feColorMatrix in="SourceAlpha" type="matrix" values="0 0 0 0 0 0 0 0 0 0 0 0 0 0 0 0 0 0 127 0" result="hardAlpha"/>
<feOffset dy="2.76726"/>
<feGaussianBlur stdDeviation="1.1069"/>
<feColorMatrix type="matrix" values="0 0 0 0 0 0 0 0 0 0 0 0 0 0 0 0 0 0 0.07 0"/>
<feBlend mode="normal" in2="BackgroundImageFix" result="effect1_dropShadow"/>
<feColorMatrix in="SourceAlpha" type="matrix" values="0 0 0 0 0 0 0 0 0 0 0 0 0 0 0 0 0 0 127 0" result="hardAlpha"/>
<feOffset dy="6.6501"/>
<feGaussianBlur stdDeviation="2.66004"/>
<feColorMatrix type="matrix" values="0 0 0 0 0 0 0 0 0 0 0 0 0 0 0 0 0 0 0.0503198 0"/>
<feBlend mode="normal" in2="effect1_dropShadow" result="effect2_dropShadow"/>
<feColorMatrix in="SourceAlpha" type="matrix" values="0 0 0 0 0 0 0 0 0 0 0 0 0 0 0 0 0 0 127 0" result="hardAlpha"/>
<feOffset dy="12.5216"/>
<feGaussianBlur stdDeviation="5.00862"/>
<feColorMatrix type="matrix" values="0 0 0 0 0 0 0 0 0 0 0 0 0 0 0 0 0 0 0.0417275 0"/>
<feBlend mode="normal" in2="effect2_dropShadow" result="effect3_dropShadow"/>
<feColorMatrix in="SourceAlpha" type="matrix" values="0 0 0 0 0 0 0 0 0 0 0 0 0 0 0 0 0 0 127 0" result="hardAlpha"/>
<feOffset dy="22.3363"/>
<feGaussianBlur stdDeviation="8.93452"/>
<feColorMatrix type="matrix" values="0 0 0 0 0 0 0 0 0 0 0 0 0 0 0 0 0 0 0.035 0"/>
<feBlend mode="normal" in2="effect3_dropShadow" result="effect4_dropShadow"/>
<feColorMatrix in="SourceAlpha" type="matrix" values="0 0 0 0 0 0 0 0 0 0 0 0 0 0 0 0 0 0 127 0" result="hardAlpha"/>
<feOffset dy="41.7776"/>
<feGaussianBlur stdDeviation="16.711"/>
<feColorMatrix type="matrix" values="0 0 0 0 0 0 0 0 0 0 0 0 0 0 0 0 0 0 0.0282725 0"/>
<feBlend mode="normal" in2="effect4_dropShadow" result="effect5_dropShadow"/>
<feColorMatrix in="SourceAlpha" type="matrix" values="0 0 0 0 0 0 0 0 0 0 0 0 0 0 0 0 0 0 127 0" result="hardAlpha"/>
<feOffset dy="100"/>
<feGaussianBlur stdDeviation="40"/>
<feColorMatrix type="matrix" values="0 0 0 0 0 0 0 0 0 0 0 0 0 0 0 0 0 0 0.0196802 0"/>
<feBlend mode="normal" in2="effect5_dropShadow" result="effect6_dropShadow"/>
<feBlend mode="normal" in="SourceGraphic" in2="effect6_dropShadow" result="shape"/>
</filter>
<linearGradient id="paint0_linear" x1="174" y1="75" x2="221.902" y2="75.6557" gradientUnits="userSpaceOnUse">
<stop stop-color="#0D3899"/>
<stop offset="1" stop-color="#0C2169"/>
</linearGradient>
<linearGradient id="paint1_linear" x1="163" y1="78" x2="175.721" y2="44.6722" gradientUnits="userSpaceOnUse">
<stop stop-color="#3F51B1"/>
<stop offset="0.13" stop-color="#5A55AE"/>
<stop offset="0.25" stop-color="#7B5FAC"/>
<stop offset="0.38" stop-color="#8F6AAE"/>
<stop offset="0.5" stop-color="#A86AA4"/>
<stop offset="0.62" stop-color="#CC6B8E"/>
<stop offset="0.75" stop-color="#F18271"/>
<stop offset="0.87" stop-color="#F3A469"/>
<stop offset="1" stop-color="#F7C978"/>
</linearGradient>
<linearGradient id="paint2_linear" x1="110" y1="23" x2="286.635" y2="27.9156" gradientUnits="userSpaceOnUse">
<stop stop-color="#0D3899"/>
<stop offset="1" stop-color="#0C2169"/>
</linearGradient>
<linearGradient id="paint3_linear" x1="317.375" y1="163" x2="317.375" y2="484.5" gradientUnits="userSpaceOnUse">
<stop stop-color="#39ACF4"/>
<stop offset="0.317708" stop-color="#206AD3"/>
<stop offset="0.651042" stop-color="#206AD3"/>
<stop offset="1" stop-color="#3296E5"/>
</linearGradient>
<linearGradient id="paint4_linear" x1="171" y1="201" x2="250" y2="212" gradientUnits="userSpaceOnUse">
<stop stop-color="#0D3899"/>
<stop offset="1" stop-color="#0C2169"/>
</linearGradient>
</defs>
</svg>
