<svg width="745" height="670" viewBox="0 0 745 670" fill="none" xmlns="http://www.w3.org/2000/svg">
<path d="M600.478 435.336C586.781 487.98 548.242 536.728 454.865 561.944C421.124 571.064 381.854 575.539 346.837 572.782C295.316 568.716 241.311 545.456 198.399 519.083C168.691 500.826 156.883 476.206 152.697 448.369C150.111 431.15 150.434 412.723 151.268 393.802C152.51 365.336 147.984 336.683 141.28 309C130.969 266.361 139.459 221.646 164.897 184.961C190.334 148.294 230.523 122.772 276.361 114.197C353.592 99.7509 431.946 109.279 431.946 109.279C535.141 119.999 587.377 222.445 600.104 305.835C605.906 343.949 611.997 391.012 600.478 435.336Z" fill="#0A0849"/>
<path opacity="0.5" d="M568.989 525.675C534.689 574.127 476.473 609.007 371.217 598.685C333.181 594.964 291.277 584.365 256.512 568.028C205.365 543.978 159.072 499.376 125.33 455.88C101.969 425.769 99.375 396.074 105.819 366.041C109.808 347.464 117.24 328.778 125.384 309.784C137.624 281.205 144.034 250.206 147.843 219.357C153.724 171.846 179.642 129.477 219.804 101.853C259.96 74.2451 310.914 63.7122 361.118 72.6612C445.703 87.7418 522.199 127.73 522.199 127.73C623.653 178.528 637.621 303.285 618.508 393.33C609.758 434.479 597.855 484.876 568.989 525.675Z" fill="#0A0849"/>
<circle cx="240.507" cy="499.53" r="4" transform="rotate(-148.806 240.507 499.53)" fill="#EDEEC8"/>
<circle r="4" transform="matrix(-0.955311 -0.295601 -0.295601 0.955311 61.9963 281.019)" fill="#EDEEC8"/>
<circle cx="522" cy="534.023" r="4" transform="rotate(-180 522 534.023)" fill="#EDEEC8"/>
<circle r="4" transform="matrix(-0.664089 -0.747654 -0.747654 0.664089 208.13 560.627)" fill="#EDEEC8"/>
<circle cx="584.56" cy="154.53" r="4" transform="rotate(-148.806 584.56 154.53)" fill="#EDEEC8"/>
<circle cx="390.5" cy="565.523" r="1.5" transform="rotate(-180 390.5 565.523)" fill="#EDEEC8"/>
<circle r="1.5" transform="matrix(-0.664089 -0.747654 -0.747654 0.664089 144.354 441.392)" fill="#EDEEC8"/>
<circle cx="443.94" cy="63.9629" r="1.5" transform="rotate(-148.806 443.94 63.9629)" fill="#EDEEC8"/>
<circle cx="408.5" cy="602.523" r="1.5" transform="rotate(-180 408.5 602.523)" fill="#EDEEC8"/>
<circle r="1.5" transform="matrix(-0.664089 -0.747654 -0.747654 0.664089 71.8824 236.905)" fill="#EDEEC8"/>
<circle cx="451.992" cy="154.34" r="1.5" transform="rotate(-148.806 451.992 154.34)" fill="#EDEEC8"/>
<circle cx="588.5" cy="492.523" r="1.5" transform="rotate(-180 588.5 492.523)" fill="#206BD4"/>
<circle cx="659.5" cy="312.523" r="1.5" transform="rotate(-180 659.5 312.523)" fill="#206BD4"/>
<circle cx="699.5" cy="276.523" r="1.5" transform="rotate(-180 699.5 276.523)" fill="#206BD4"/>
<circle cx="743.5" cy="340.523" r="1.5" transform="rotate(-180 743.5 340.523)" fill="#206BD4"/>
<circle cx="1.5" cy="314.523" r="1.5" transform="rotate(-180 1.5 314.523)" fill="#206BD4"/>
<circle r="1.5" transform="matrix(-0.664089 -0.747654 -0.747654 0.664089 221.265 637.905)" fill="#206BD4"/>
<circle cx="662.94" cy="153.472" r="1.5" transform="rotate(-148.806 662.94 153.472)" fill="#206BD4"/>
<circle cx="553.5" cy="479.523" r="2.5" transform="rotate(-180 553.5 479.523)" fill="#206BD4"/>
<circle cx="573.5" cy="581.523" r="2.5" transform="rotate(-180 573.5 581.523)" fill="#206BD4"/>
<circle r="2.5" transform="matrix(-0.664089 -0.747654 -0.747654 0.664089 277.845 567.587)" fill="#206BD4"/>
<circle cx="688.5" cy="457.523" r="2.5" transform="rotate(-180 688.5 457.523)" fill="#206BD4"/>
<circle cx="639.733" cy="124.224" r="2.5" transform="rotate(-148.806 639.733 124.224)" fill="#206BD4"/>
<circle cx="437.5" cy="538.523" r="1.5" transform="rotate(-180 437.5 538.523)" fill="#206BD4"/>
<circle r="1.5" transform="matrix(-0.664089 -0.747654 -0.747654 0.664089 155.379 494.462)" fill="#206BD4"/>
<circle cx="557.5" cy="618.523" r="1.5" transform="rotate(-180 557.5 618.523)" fill="#206BD4"/>
<circle r="1.5" transform="matrix(-0.664089 -0.747654 -0.747654 0.664089 294.882 531.053)" fill="#206BD4"/>
<circle cx="509.947" cy="114.613" r="1.5" transform="rotate(-148.806 509.947 114.613)" fill="#206BD4"/>
<circle cx="164.635" cy="161.658" r="4" transform="rotate(116.506 164.635 161.658)" fill="#EDEEC8"/>
<circle cx="284.81" cy="185.011" r="1.5" transform="rotate(116.506 284.81 185.011)" fill="#EDEEC8"/>
<circle cx="193.971" cy="131.886" r="1.5" transform="rotate(116.506 193.971 131.886)" fill="#206BD4"/>
<circle cx="109.937" cy="172.669" r="1.5" transform="rotate(116.506 109.937 172.669)" fill="#206BD4"/>
<circle cx="68.9882" cy="313.011" r="1.5" transform="rotate(116.506 68.9882 313.011)" fill="#206BD4"/>
<circle cx="315.988" cy="2.01127" r="1.5" transform="rotate(116.506 315.988 2.01127)" fill="#206BD4"/>
<circle cx="395.647" cy="117.67" r="2.5" transform="rotate(116.506 395.647 117.67)" fill="#206BD4"/>
<circle cx="286.647" cy="86.6698" r="2.5" transform="rotate(116.506 286.647 86.6698)" fill="#206BD4"/>
<circle opacity="0.2" cx="361.517" cy="253.545" r="180" stroke="white" stroke-width="2"/>
<circle opacity="0.2" cx="361.517" cy="253.545" r="120" stroke="white"/>
<circle opacity="0.2" cx="361.517" cy="253.545" r="65" stroke="white"/>
<path d="M401.001 304.473C404.166 303.979 413.898 299.692 416.502 291.541C418.271 285.978 415.192 282.949 417.506 277.266C420.143 270.817 425.35 271.702 430.097 265.458C435.626 258.175 436.647 246.316 432.292 238.574C428.786 232.33 424.635 233.844 418.033 225.405C412.197 217.952 413.95 214.889 409.849 211.078C401.852 203.659 391.473 211.827 377.18 208.543C357.324 204 357.715 183.769 342.062 182.51C327.667 181.353 309.937 197.058 307.317 212.116C306.262 218.156 307.964 221.355 305.071 226.647C300.63 234.78 292.735 232.636 286.372 240.718C281.557 246.826 278.987 257.052 282.901 263.161C287.478 270.307 297.397 266.257 301.991 273.284C306.96 280.839 297.908 289.261 302.655 297.224C307.147 304.745 319.891 305.63 327.276 305.255C336.174 304.813 344.801 302.227 353.598 300.798C369.898 298.143 384.973 306.923 401.001 304.473Z" fill="#66FEFF"/>
<path d="M403.001 304.473C406.166 303.979 415.898 299.692 418.502 291.541C420.271 285.978 417.192 282.949 419.506 277.266C422.143 270.817 427.35 271.702 432.097 265.458C437.626 258.175 438.647 246.316 434.292 238.574C430.786 232.33 426.635 233.844 420.033 225.405C414.197 217.952 415.95 214.889 411.849 211.078C403.852 203.659 393.473 211.827 379.18 208.543C359.324 204 359.715 183.769 344.062 182.51C329.667 181.353 311.937 197.058 309.317 212.116C308.262 218.156 309.964 221.355 307.071 226.647C302.63 234.78 294.735 232.636 288.372 240.718C283.557 246.826 280.987 257.052 284.901 263.161C289.478 270.307 299.397 266.257 303.991 273.284C308.96 280.839 299.908 289.261 304.655 297.224C309.147 304.745 321.891 305.63 329.276 305.255C338.174 304.813 346.801 302.227 355.598 300.798C371.898 298.143 386.973 306.923 403.001 304.473Z" fill="black"/>
<path d="M350.425 470.249L447.036 446.071L451.868 469.552L363.424 510.371L293.374 493.066L251.126 451.584L350.425 470.249Z" fill="url(#paint0_linear)"/>
<path d="M361.536 286.642C361.536 286.642 359.698 301.394 354.253 304.762C348.809 308.131 340.012 312.555 339.042 313.746C338.072 314.937 372.766 318.681 389.951 310.003C384.285 308.829 382.753 308.387 382.753 308.387C381.222 307.944 378.347 307.145 375.471 305.511C373.514 304.388 370.367 302.227 367.474 298.11L367.542 289.942L361.536 286.642Z" fill="url(#paint1_linear)"/>
<path d="M368.861 502.731C388.071 492.437 402.245 481.956 411.875 474.027C430.813 458.424 439.507 446.667 458.683 442.022C462.103 441.188 481.636 436.458 487.932 445.135C494.908 454.732 481.347 474.809 479.696 477.243C455.195 513.501 392.801 511.817 373.234 510.643C371.788 508.006 370.325 505.368 368.861 502.731Z" fill="#1D5AAB"/>
<path d="M366.861 502.731C386.071 492.437 400.245 481.956 409.875 474.027C428.813 458.424 437.507 446.667 456.683 442.022C460.103 441.188 479.636 436.458 485.932 445.135C492.908 454.732 479.347 474.809 477.696 477.243C453.195 513.501 390.801 511.817 371.234 510.643C369.788 508.006 368.325 505.368 366.861 502.731Z" fill="url(#paint2_linear)"/>
<path opacity="0.3" d="M485.932 445.118C484.094 442.583 481.099 441.222 477.73 440.542C478.853 444.421 478.955 448.062 477.56 451.244C473.732 459.938 462.4 457.267 454.437 467.476C446.61 477.498 452.038 487.162 445.113 491.297C437.184 496.027 427.366 484.967 418.876 490.259C413.108 493.866 414.894 500.689 408.173 504.415C403.528 506.985 398.968 505.777 393.677 505.113C387.602 504.347 379.299 504.194 368.852 506.372C369.652 507.801 370.434 509.231 371.234 510.66C390.801 511.834 453.195 513.535 477.696 477.26C479.347 474.793 492.925 454.732 485.932 445.118Z" fill="url(#paint3_linear)"/>
<path d="M381.375 508.159C381.375 508.159 384.897 505.64 390.002 507.359C395.106 509.077 403.222 510.473 403.205 512.957C403.188 515.458 395.072 517.023 389.474 515.986C384.114 514.999 379.895 510.354 381.375 508.159Z" fill="url(#paint4_linear)"/>
<path d="M376.219 503.888L385.612 506.917C385.612 506.917 387.143 509.452 385.084 511.068C383.025 512.685 375.862 509.265 375.862 509.265L376.219 503.888Z" fill="url(#paint5_linear)"/>
<path d="M243.596 459.568C240.823 475.715 275.686 493.207 283.666 497.205C299.932 505.355 330.542 516.874 375.972 512.467C376.585 508.843 377.18 505.219 377.793 501.595C371.786 499.536 362.905 496.201 352.577 491.114C334.966 482.453 328.279 476.26 303.829 461.491C276.792 445.139 268.914 443.047 260.849 445.071C253.975 446.807 244.889 452.064 243.596 459.568Z" fill="#66FEFF"/>
<path d="M245.596 460.568C242.823 476.715 277.686 494.207 285.666 498.205C301.932 506.355 332.542 517.874 377.972 513.467C378.585 509.843 379.18 506.219 379.793 502.595C373.786 500.536 364.905 497.201 354.577 492.114C336.966 483.453 330.279 477.26 305.829 462.491C278.792 446.139 270.914 444.047 262.849 446.071C255.975 447.807 246.889 453.064 245.596 460.568Z" fill="url(#paint6_linear)"/>
<path d="M381.517 265.089C381.517 280.056 373.004 294.544 362.517 294.544C352.03 294.544 343.517 280.056 343.517 265.089C343.517 250.122 352.03 248.544 362.517 248.544C373.004 248.568 381.517 250.146 381.517 265.089Z" fill="#66FEFF"/>
<path d="M382.517 265.089C382.517 280.056 374.004 294.544 363.517 294.544C353.03 294.544 344.517 280.056 344.517 265.089C344.517 250.122 353.03 248.544 363.517 248.544C374.004 248.568 382.517 250.146 382.517 265.089Z" fill="url(#paint7_linear)"/>
<path d="M223.953 345.751C223.953 345.751 235.353 347.81 238.059 341.276C240.764 334.743 237.004 328.753 234.894 329.434C232.784 330.114 234.094 334.521 233.669 337.108C233.243 339.694 227.816 342.11 226.369 339.949C224.923 337.805 224.94 333.33 229.926 331.391C234.911 329.434 233.788 328.362 230.793 327.426C227.799 326.49 224.821 328.005 222.847 331.51C220.874 335.015 214.272 321.148 213.455 317.455C212.638 313.763 199.333 331.629 223.953 345.751Z" fill="url(#paint8_linear)"/>
<path d="M441.782 346.333C445.015 338.455 422.81 316.88 394.957 308.9C374.743 303.115 357.592 306.348 348.676 307.913C319.751 313.018 301.732 327.48 294.96 333.554C300.507 336.566 315.838 345.754 323.426 363.194C330.76 380.056 325.519 395.54 322.78 404.524C320.398 412.368 316.791 424.278 306.088 432.887C300.439 437.43 294.195 439.744 281.723 444.373C267.005 449.817 257.885 451.332 257.953 454.275C258.038 458.036 272.977 461.098 272.467 463.446C272.433 463.616 272.314 463.633 272.297 463.753C272.092 465.386 288.886 469.401 310.104 472.6C334.911 476.327 347.315 478.198 359.175 476.173C377.67 473.009 374.556 467.326 393.085 464.127C414.643 460.418 424.427 467.156 443.943 459.669C447.227 458.41 460.379 453.339 460.005 448.065C459.546 441.548 437.852 443.777 418.965 427.102C410.645 419.752 406.629 412.044 405.234 409.152C403.43 405.408 395.876 386.079 403.464 365.032C403.907 363.79 404.264 363.211 404.741 362.395C413.895 346.741 438.719 353.768 441.782 346.333Z" fill="#66FEFF"/>
<path d="M223.073 344.24C223.073 344.24 226.203 386.096 257.953 394.4C289.686 402.703 335.184 360.455 335.184 360.455C335.184 360.455 306.718 326.714 294.96 333.571C283.203 340.428 264.776 378.406 231.75 344.257H223.073V344.24Z" fill="#66FEFF"/>
<path d="M505.724 342.862C505.724 342.862 502.593 384.718 470.843 393.022C439.111 401.325 393.613 359.077 393.613 359.077C393.613 359.077 422.079 325.336 433.836 332.193C445.593 339.05 464.02 377.028 497.046 342.879H505.724V342.862Z" fill="#66FEFF"/>
<path d="M444.782 347.333C448.015 339.455 425.81 317.88 397.957 309.9C377.743 304.115 360.592 307.348 351.676 308.913C322.751 314.018 304.732 328.48 297.96 334.554C303.507 337.566 318.838 346.754 326.426 364.194C333.76 381.056 328.519 396.54 325.78 405.524C323.398 413.368 319.791 425.278 309.088 433.887C303.439 438.43 297.195 440.744 284.723 445.373C270.005 450.817 260.885 452.332 260.953 455.275C261.038 459.036 275.977 462.098 275.467 464.446C275.433 464.616 275.314 464.633 275.297 464.753C275.092 466.386 291.886 470.401 313.104 473.6C337.911 477.327 350.315 479.198 362.175 477.173C380.67 474.009 377.556 468.326 396.085 465.127C417.643 461.418 427.427 468.156 446.943 460.669C450.227 459.41 463.379 454.339 463.005 449.065C462.546 442.548 440.852 444.777 421.965 428.102C413.645 420.752 409.629 413.044 408.234 410.152C406.43 406.408 398.876 387.079 406.464 366.032C406.907 364.79 407.264 364.211 407.741 363.395C416.895 347.741 441.719 354.768 444.782 347.333Z" fill="#1D5AAB"/>
<path d="M226.073 345.24C226.073 345.24 229.203 387.096 260.953 395.4C292.686 403.703 338.184 361.455 338.184 361.455C338.184 361.455 309.718 327.714 297.96 334.571C286.203 341.428 267.776 379.406 234.75 345.257H226.073V345.24Z" fill="#1D5AAB"/>
<path d="M508.724 343.862C508.724 343.862 505.593 385.718 473.843 394.022C442.111 402.325 396.613 360.077 396.613 360.077C396.613 360.077 425.079 326.336 436.836 333.193C448.593 340.05 467.02 378.028 500.046 343.879H508.724V343.862Z" fill="#1D5AAB"/>
<path d="M442.782 347.333C446.015 339.455 423.81 317.88 395.957 309.9C375.743 304.115 358.592 307.348 349.676 308.913C320.751 314.018 302.732 328.48 295.96 334.554C301.507 337.566 316.838 346.754 324.426 364.194C331.76 381.056 326.519 396.54 323.78 405.524C321.398 413.368 317.791 425.278 307.088 433.887C301.439 438.43 295.195 440.744 282.723 445.373C268.005 450.817 258.885 452.332 258.953 455.275C259.038 459.036 273.977 462.098 273.467 464.446C273.433 464.616 273.314 464.633 273.297 464.753C273.092 466.386 289.886 470.401 311.104 473.6C335.911 477.327 348.315 479.198 360.175 477.173C378.67 474.009 375.556 468.326 394.085 465.127C415.643 461.418 425.427 468.156 444.943 460.669C448.227 459.41 461.379 454.339 461.005 449.065C460.546 442.548 438.852 444.777 419.965 428.102C411.645 420.752 407.629 413.044 406.234 410.152C404.43 406.408 396.876 387.079 404.464 366.032C404.907 364.79 405.264 364.211 405.741 363.395C414.895 347.741 439.719 354.768 442.782 347.333Z" fill="url(#paint9_linear)"/>
<path d="M224.073 345.24C224.073 345.24 227.203 387.096 258.953 395.4C290.686 403.703 336.184 361.455 336.184 361.455C336.184 361.455 307.718 327.714 295.96 334.571C284.203 341.428 265.776 379.406 232.75 345.257H224.073V345.24Z" fill="url(#paint10_linear)"/>
<path d="M506.724 343.862C506.724 343.862 503.593 385.718 471.843 394.022C440.111 402.325 394.613 360.077 394.613 360.077C394.613 360.077 423.079 326.336 434.836 333.193C446.593 340.05 465.02 378.028 498.046 343.879H506.724V343.862Z" fill="url(#paint11_linear)"/>
<path d="M506.826 344.373C506.826 344.373 495.426 346.432 492.721 339.898C490.015 333.365 493.776 327.375 495.885 328.056C497.995 328.737 496.685 333.143 497.111 335.73C497.536 338.316 502.964 340.732 504.41 338.571C505.856 336.427 505.839 331.952 500.854 330.013C495.868 328.056 496.991 326.984 499.986 326.048C502.981 325.112 505.958 326.627 507.932 330.132C509.906 333.637 516.508 319.77 517.324 316.077C518.158 312.385 531.464 330.251 506.826 344.373Z" fill="url(#paint12_linear)"/>
<path d="M443.412 165.852C469.319 165.852 490.322 144.85 490.322 118.942C490.322 93.0346 469.319 72.0322 443.412 72.0322C417.504 72.0322 396.501 93.0346 396.501 118.942C396.501 144.85 417.504 165.852 443.412 165.852Z" fill="url(#paint13_linear)"/>
<g filter="url(#filter0_f)">
<path d="M443.412 165.852C469.319 165.852 490.322 144.85 490.322 118.942C490.322 93.0346 469.319 72.0322 443.412 72.0322C417.504 72.0322 396.501 93.0346 396.501 118.942C396.501 144.85 417.504 165.852 443.412 165.852Z" fill="url(#paint14_linear)"/>
</g>
<path d="M471.095 106.726L443.412 85.4575L415.745 106.709C414.401 107.747 415.133 109.891 416.817 109.891H420.731C420.68 110.112 420.663 110.35 420.663 110.589V142.321C420.663 144.261 422.228 145.826 424.168 145.826H462.638C464.578 145.826 466.143 144.261 466.143 142.321V110.606C466.143 110.367 466.126 110.129 466.075 109.908H469.989C471.707 109.891 472.439 107.747 471.095 106.726ZM452.412 133.508H434.428V115.523H452.412V133.508Z" fill="white"/>
<path d="M514.057 274.476C535.887 274.476 553.583 256.779 553.583 234.95C553.583 213.121 535.887 195.424 514.057 195.424C492.228 195.424 474.532 213.121 474.532 234.95C474.532 256.779 492.228 274.476 514.057 274.476Z" fill="url(#paint15_linear)"/>
<g filter="url(#filter1_f)">
<path d="M514.057 274.476C535.887 274.476 553.583 256.779 553.583 234.95C553.583 213.121 535.887 195.424 514.057 195.424C492.228 195.424 474.532 213.121 474.532 234.95C474.532 256.779 492.228 274.476 514.057 274.476Z" fill="url(#paint16_linear)"/>
</g>
<path d="M538.814 224.111C537.044 219.109 532.604 215.519 527.363 215.451C520.438 215.366 514.755 221.457 514.755 229.046C514.755 221.457 509.004 215.23 501.824 215.144C496.243 215.076 491.427 218.718 489.471 223.958C481.984 242.811 514.772 259.366 514.772 259.366C514.772 259.366 545.501 241.841 538.814 224.111Z" fill="white"/>
<path d="M213.659 276.603C232.801 276.603 248.319 261.085 248.319 241.944C248.319 222.802 232.801 207.284 213.659 207.284C194.518 207.284 179 222.802 179 241.944C179 261.085 194.518 276.603 213.659 276.603Z" fill="url(#paint17_linear)"/>
<g filter="url(#filter2_f)">
<path d="M213.659 276.603C232.801 276.603 248.319 261.085 248.319 241.944C248.319 222.802 232.801 207.284 213.659 207.284C194.518 207.284 179 222.802 179 241.944C179 261.085 194.518 276.603 213.659 276.603Z" fill="url(#paint18_linear)"/>
</g>
<path d="M233.192 233.266L220.448 231.258L215.072 219.892C214.306 218.275 211.941 218.241 211.073 219.841L204.914 231.071L191.897 232.772C189.992 233.027 189.056 235.341 190.332 236.703L199.231 246.18L196.117 259.962C195.658 262.038 197.631 263.637 199.469 262.667L211.856 256.1L223.749 262.82C225.502 263.807 227.578 262.242 227.254 260.183L225.093 246.435L234.486 237.213C235.83 235.869 235.064 233.555 233.192 233.266Z" fill="white"/>
<path d="M277.874 153.993C301.62 153.993 320.87 134.743 320.87 110.997C320.87 87.2503 301.62 68 277.874 68C254.127 68 234.877 87.2503 234.877 110.997C234.877 134.743 254.127 153.993 277.874 153.993Z" fill="url(#paint19_linear)"/>
<g filter="url(#filter3_f)">
<path d="M277.874 153.993C301.62 153.993 320.87 134.743 320.87 110.997C320.87 87.2503 301.62 68 277.874 68C254.127 68 234.877 87.2503 234.877 110.997C234.877 134.743 254.127 153.993 277.874 153.993Z" fill="url(#paint20_linear)"/>
</g>
<path d="M277.908 80.0637C278.979 80.1147 279.847 81.0505 279.847 82.1565L279.83 85.9508C281.991 86.0869 284.169 86.3592 286.347 86.7846C287.963 87.0908 289.563 87.4651 291.162 87.9246C292.115 88.1968 292.762 89.1326 292.659 90.1535L292.149 94.9517C292.013 96.2278 290.754 97.0105 289.58 96.5341C288.542 96.1087 287.47 95.7514 286.364 95.4622C284.458 94.9517 282.451 94.6624 280.341 94.5774L279.796 94.5604L279.728 105.314C285.343 106.726 289.478 108.734 292.166 111.337C294.837 113.94 296.148 117.241 296.113 121.24C296.062 125.544 294.548 129.016 291.553 131.619C288.559 134.222 284.424 135.702 279.116 136.043L279.099 140.092C279.099 141.164 278.231 141.998 277.176 141.964H277.142C276.087 141.93 275.236 141.011 275.236 139.939L275.253 135.958L274.402 135.924C271.952 135.821 269.621 135.583 267.392 135.209C265.759 134.937 264.16 134.562 262.594 134.12C261.658 133.848 261.012 132.946 261.097 131.976L261.624 126.106C261.743 124.83 262.985 124.081 264.177 124.541C265.572 125.068 266.984 125.527 268.413 125.885C270.659 126.446 272.922 126.804 275.253 126.94L275.338 115.165C270.047 113.974 266.116 112.12 263.547 109.602C260.978 107.083 259.685 103.799 259.685 99.7669C259.685 95.5642 261.08 92.2633 263.887 89.8472C266.695 87.4311 270.71 86.104 275.934 85.8487L275.951 81.9863C275.951 80.8804 276.836 80.0126 277.908 80.0637ZM275.883 94.5774C274.232 94.7645 272.939 95.275 272.02 96.1087C271.102 96.9424 270.642 98.0314 270.625 99.3756C270.625 100.652 271.034 101.69 271.884 102.506C272.735 103.323 274.045 103.97 275.832 104.412L275.883 94.5774ZM279.201 116.033L279.133 126.855C280.919 126.838 282.314 126.395 283.284 125.51C284.254 124.643 284.748 123.401 284.765 121.835C284.782 120.389 284.339 119.215 283.437 118.279C282.553 117.343 281.14 116.595 279.201 116.033Z" fill="white"/>
<defs>
<filter id="filter0_f" x="362.501" y="38.0322" width="161.82" height="161.82" filterUnits="userSpaceOnUse" color-interpolation-filters="sRGB">
<feFlood flood-opacity="0" result="BackgroundImageFix"/>
<feBlend mode="normal" in="SourceGraphic" in2="BackgroundImageFix" result="shape"/>
<feGaussianBlur stdDeviation="17" result="effect1_foregroundBlur"/>
</filter>
<filter id="filter1_f" x="440.532" y="161.424" width="147.051" height="147.051" filterUnits="userSpaceOnUse" color-interpolation-filters="sRGB">
<feFlood flood-opacity="0" result="BackgroundImageFix"/>
<feBlend mode="normal" in="SourceGraphic" in2="BackgroundImageFix" result="shape"/>
<feGaussianBlur stdDeviation="17" result="effect1_foregroundBlur"/>
</filter>
<filter id="filter2_f" x="145" y="173.284" width="137.319" height="137.319" filterUnits="userSpaceOnUse" color-interpolation-filters="sRGB">
<feFlood flood-opacity="0" result="BackgroundImageFix"/>
<feBlend mode="normal" in="SourceGraphic" in2="BackgroundImageFix" result="shape"/>
<feGaussianBlur stdDeviation="17" result="effect1_foregroundBlur"/>
</filter>
<filter id="filter3_f" x="190.877" y="24" width="173.993" height="173.993" filterUnits="userSpaceOnUse" color-interpolation-filters="sRGB">
<feFlood flood-opacity="0" result="BackgroundImageFix"/>
<feBlend mode="normal" in="SourceGraphic" in2="BackgroundImageFix" result="shape"/>
<feGaussianBlur stdDeviation="22" result="effect1_foregroundBlur"/>
</filter>
<linearGradient id="paint0_linear" x1="352.599" y1="438.845" x2="350.528" y2="479.75" gradientUnits="userSpaceOnUse">
<stop stop-color="#444B8C"/>
<stop offset="0.9964" stop-color="#3E4177"/>
</linearGradient>
<linearGradient id="paint1_linear" x1="339.022" y1="286.642" x2="390.697" y2="290.169" gradientUnits="userSpaceOnUse">
<stop stop-color="#0D3899"/>
<stop offset="1" stop-color="#0C2169"/>
</linearGradient>
<linearGradient id="paint2_linear" x1="366.862" y1="475.54" x2="487.921" y2="475.54" gradientUnits="userSpaceOnUse">
<stop stop-color="#444B8C"/>
<stop offset="0.9964" stop-color="#3E4177"/>
</linearGradient>
<linearGradient id="paint3_linear" x1="366.862" y1="475.822" x2="487.921" y2="475.822" gradientUnits="userSpaceOnUse">
<stop stop-color="#444B8C"/>
<stop offset="0.9964" stop-color="#3E4177"/>
</linearGradient>
<linearGradient id="paint4_linear" x1="381.076" y1="506.759" x2="403.454" y2="508.769" gradientUnits="userSpaceOnUse">
<stop stop-color="#0D3899"/>
<stop offset="1" stop-color="#0C2169"/>
</linearGradient>
<linearGradient id="paint5_linear" x1="375.862" y1="503.888" x2="386.33" y2="504.437" gradientUnits="userSpaceOnUse">
<stop stop-color="#0D3899"/>
<stop offset="1" stop-color="#0C2169"/>
</linearGradient>
<linearGradient id="paint6_linear" x1="317.724" y1="474.185" x2="291.05" y2="529.667" gradientUnits="userSpaceOnUse">
<stop stop-color="#444B8C"/>
<stop offset="0.9964" stop-color="#3E4177"/>
</linearGradient>
<linearGradient id="paint7_linear" x1="344.517" y1="248.544" x2="383.214" y2="249.784" gradientUnits="userSpaceOnUse">
<stop stop-color="#0D3899"/>
<stop offset="1" stop-color="#0C2169"/>
</linearGradient>
<linearGradient id="paint8_linear" x1="209.137" y1="316.964" x2="239.533" y2="318.174" gradientUnits="userSpaceOnUse">
<stop stop-color="#0D3899"/>
<stop offset="1" stop-color="#0C2169"/>
</linearGradient>
<linearGradient id="paint9_linear" x1="365.398" y1="306.59" x2="365.398" y2="478.003" gradientUnits="userSpaceOnUse">
<stop stop-color="#39ACF4"/>
<stop offset="0.317708" stop-color="#206AD3"/>
<stop offset="0.651042" stop-color="#206AD3"/>
<stop offset="1" stop-color="#3296E5"/>
</linearGradient>
<linearGradient id="paint10_linear" x1="365.398" y1="306.59" x2="365.398" y2="478.003" gradientUnits="userSpaceOnUse">
<stop stop-color="#39ACF4"/>
<stop offset="0.317708" stop-color="#206AD3"/>
<stop offset="0.651042" stop-color="#206AD3"/>
<stop offset="1" stop-color="#3296E5"/>
</linearGradient>
<linearGradient id="paint11_linear" x1="365.398" y1="306.59" x2="365.398" y2="478.003" gradientUnits="userSpaceOnUse">
<stop stop-color="#39ACF4"/>
<stop offset="0.317708" stop-color="#206AD3"/>
<stop offset="0.651042" stop-color="#206AD3"/>
<stop offset="1" stop-color="#3296E5"/>
</linearGradient>
<linearGradient id="paint12_linear" x1="491.777" y1="315.586" x2="522.186" y2="316.797" gradientUnits="userSpaceOnUse">
<stop stop-color="#0D3899"/>
<stop offset="1" stop-color="#0C2169"/>
</linearGradient>
<linearGradient id="paint13_linear" x1="409.611" y1="57.6506" x2="527.858" y2="272.019" gradientUnits="userSpaceOnUse">
<stop stop-color="#AA80F9"/>
<stop offset="0.9964" stop-color="#6165D7"/>
</linearGradient>
<linearGradient id="paint14_linear" x1="409.611" y1="57.6506" x2="527.858" y2="272.019" gradientUnits="userSpaceOnUse">
<stop stop-color="#AA80F9"/>
<stop offset="0.9964" stop-color="#6165D7"/>
</linearGradient>
<linearGradient id="paint15_linear" x1="485.561" y1="183.291" x2="585.21" y2="363.945" gradientUnits="userSpaceOnUse">
<stop stop-color="#FF9085"/>
<stop offset="1" stop-color="#FB6FBB"/>
</linearGradient>
<linearGradient id="paint16_linear" x1="485.561" y1="183.291" x2="585.21" y2="363.945" gradientUnits="userSpaceOnUse">
<stop stop-color="#FF9085"/>
<stop offset="1" stop-color="#FB6FBB"/>
</linearGradient>
<linearGradient id="paint17_linear" x1="188.684" y1="196.66" x2="276.056" y2="355.057" gradientUnits="userSpaceOnUse">
<stop offset="0.00359712" stop-color="#E38DDD"/>
<stop offset="1" stop-color="#9571F6"/>
</linearGradient>
<linearGradient id="paint18_linear" x1="188.684" y1="196.66" x2="276.056" y2="355.057" gradientUnits="userSpaceOnUse">
<stop offset="0.00359712" stop-color="#E38DDD"/>
<stop offset="1" stop-color="#9571F6"/>
</linearGradient>
<linearGradient id="paint19_linear" x1="246.884" y1="54.8108" x2="355.293" y2="251.346" gradientUnits="userSpaceOnUse">
<stop stop-color="#FFC444"/>
<stop offset="0.9964" stop-color="#F36F56"/>
</linearGradient>
<linearGradient id="paint20_linear" x1="246.884" y1="54.8108" x2="355.293" y2="251.346" gradientUnits="userSpaceOnUse">
<stop stop-color="#FFC444"/>
<stop offset="0.9964" stop-color="#F36F56"/>
</linearGradient>
</defs>
</svg>
