<svg width="746" height="725" viewBox="0 0 746 725" fill="none" xmlns="http://www.w3.org/2000/svg">
<path d="M557.736 192.72C600.258 226.645 629.116 281.679 614.172 377.24C608.78 411.773 596.895 449.469 580.134 480.337C555.464 525.75 512.249 565.626 470.703 594.1C441.941 613.814 414.646 614.587 387.514 607.089C370.731 602.448 354.029 594.658 337.083 586.201C311.583 573.488 283.567 565.968 255.55 560.833C212.403 552.909 175.007 526.966 151.841 488.807C128.69 450.655 121.721 403.559 132.531 358.196C150.746 281.767 191.32 214.063 191.32 214.063C243.086 124.149 357.922 118.098 439.279 140.389C476.457 150.591 521.929 164.168 557.736 192.72Z" fill="#0A0849"/>
<path opacity="0.5" d="M627.457 258.231C657.769 309.273 665.955 376.642 613.714 468.601C594.844 501.835 568.118 535.805 539.052 560.919C496.279 597.863 436.704 622.012 383.244 635.145C346.234 644.239 318.052 634.531 293.236 616.428C277.888 605.228 263.84 590.839 249.801 575.674C228.671 552.867 202.959 534.403 176.326 518.376C135.315 493.679 107.151 452.769 98.25 404.843C89.3621 356.93 100.465 306.096 129.06 263.873C177.241 192.734 244.885 139.116 244.885 139.116C332.557 67.0954 452.209 105.079 526.695 159.163C560.727 183.893 601.926 215.266 627.457 258.231Z" fill="#0A0849"/>
<ellipse cx="469.966" cy="547.68" rx="4" ry="4" transform="rotate(145.194 469.966 547.68)" fill="#EDEEC8"/>
<circle r="4" transform="matrix(-0.658605 0.752488 0.752488 0.658606 197.741 621.881)" fill="#EDEEC8"/>
<ellipse cx="615.971" cy="304.553" rx="4" ry="4" transform="rotate(114 615.971 304.553)" fill="#EDEEC8"/>
<circle r="4" transform="matrix(-0.953125 0.302577 0.302577 0.953125 512.613 602.108)" fill="#EDEEC8"/>
<ellipse cx="294.732" cy="93.0472" rx="4" ry="4" transform="rotate(145.194 294.732 93.0472)" fill="#EDEEC8"/>
<ellipse cx="591.262" cy="437.496" rx="1.5" ry="1.5" transform="rotate(114 591.262 437.496)" fill="#EDEEC8"/>
<circle r="1.5" transform="matrix(-0.953125 0.302577 0.302577 0.953125 377.746 611.873)" fill="#EDEEC8"/>
<ellipse cx="154.8" cy="184.673" rx="1.5" ry="1.5" transform="rotate(145.194 154.8 184.673)" fill="#EDEEC8"/>
<ellipse cx="632.384" cy="436.102" rx="1.5" ry="1.5" transform="rotate(114 632.384 436.102)" fill="#EDEEC8"/>
<circle r="1.5" transform="matrix(-0.953125 0.302577 0.302577 0.953125 161.462 594.907)" fill="#EDEEC8"/>
<ellipse cx="240.639" cy="214.078" rx="1.5" ry="1.5" transform="rotate(145.194 240.639 214.078)" fill="#EDEEC8"/>
<ellipse cx="605.107" cy="226.922" rx="1.5" ry="1.5" transform="rotate(114 605.107 226.922)" fill="#206BD4"/>
<ellipse cx="469.547" cy="88.8481" rx="1.5" ry="1.5" transform="rotate(114 469.547 88.8481)" fill="#206BD4"/>
<ellipse cx="452.929" cy="37.6635" rx="1.5" ry="1.5" transform="rotate(114 452.929 37.6635)" fill="#206BD4"/>
<ellipse cx="529.292" cy="23.499" rx="1.5" ry="1.5" transform="rotate(114 529.292 23.499)" fill="#206BD4"/>
<ellipse cx="203.742" cy="690.774" rx="1.5" ry="1.5" transform="rotate(114 203.742 690.774)" fill="#206BD4"/>
<circle r="1.5" transform="matrix(-0.953125 0.302577 0.302577 0.953125 588.552 621.541)" fill="#206BD4"/>
<ellipse cx="325.647" cy="21.0137" rx="1.5" ry="1.5" transform="rotate(145.194 325.647 21.0137)" fill="#206BD4"/>
<ellipse cx="578.995" cy="253.609" rx="2.5" ry="2.5" transform="rotate(114 578.995 253.609)" fill="#206BD4"/>
<ellipse cx="680.312" cy="276.825" rx="2.5" ry="2.5" transform="rotate(114 680.312 276.825)" fill="#206BD4"/>
<circle r="2.5" transform="matrix(-0.953125 0.302577 0.302577 0.953125 547.327 541.252)" fill="#206BD4"/>
<ellipse cx="613.807" cy="121.332" rx="2.5" ry="2.5" transform="rotate(114 613.807 121.332)" fill="#206BD4"/>
<ellipse cx="289.488" cy="30.3176" rx="2.5" ry="2.5" transform="rotate(145.194 289.488 30.3176)" fill="#206BD4"/>
<ellipse cx="585.713" cy="383.578" rx="1.5" ry="1.5" transform="rotate(114 585.713 383.578)" fill="#206BD4"/>
<circle r="1.5" transform="matrix(-0.953125 0.302577 0.302577 0.953125 430.712 623.386)" fill="#206BD4"/>
<ellipse cx="707.605" cy="306.491" rx="1.5" ry="1.5" transform="rotate(114 707.605 306.491)" fill="#206BD4"/>
<circle r="1.5" transform="matrix(-0.953125 0.302577 0.302577 0.953125 520.881 510.827)" fill="#206BD4"/>
<ellipse cx="227.919" cy="144.975" rx="1.5" ry="1.5" transform="rotate(145.194 227.919 144.975)" fill="#206BD4"/>
<ellipse cx="130.446" cy="479.567" rx="4" ry="4" transform="rotate(50.5062 130.446 479.567)" fill="#EDEEC8"/>
<ellipse cx="200.659" cy="379.28" rx="1.5" ry="1.5" transform="rotate(50.5062 200.659 379.28)" fill="#EDEEC8"/>
<ellipse cx="115.18" cy="440.658" rx="1.5" ry="1.5" transform="rotate(50.5062 115.18 440.658)" fill="#206BD4"/>
<ellipse cx="118.257" cy="534.015" rx="1.5" ry="1.5" transform="rotate(50.5062 118.257 534.015)" fill="#206BD4"/>
<ellipse cx="229.811" cy="628.506" rx="1.5" ry="1.5" transform="rotate(50.5062 229.811 628.506)" fill="#206BD4"/>
<ellipse cx="46.1619" cy="276.365" rx="1.5" ry="1.5" transform="rotate(50.5062 46.1619 276.365)" fill="#206BD4"/>
<ellipse cx="184.222" cy="250.636" rx="2.5" ry="2.5" transform="rotate(50.5062 184.222 250.636)" fill="#206BD4"/>
<ellipse cx="111.567" cy="337.604" rx="2.5" ry="2.5" transform="rotate(50.5062 111.567 337.604)" fill="#206BD4"/>
<path d="M197.802 371.034C192.613 361.764 188.901 357.439 181.605 350.477L177.245 388.476C181.274 391.129 184.382 392.587 191.261 395.017L197.802 371.034Z" fill="url(#paint0_linear)"/>
<path d="M502.731 311.225C527.96 338.323 531.605 382.519 537.616 457.928C539.173 507.763 506.78 542.336 433.585 539.221C383.123 540.158 354.866 540.671 327.685 533.615C313.005 528.658 308.653 522.98 310.243 505.894C311.589 485.453 312.574 474.112 315.538 454.501C297.784 468.829 277.543 467.634 250.752 451.387C223.342 433.01 203.408 409.65 185.655 397.814C186.9 382.863 191.884 367.913 200.294 361.683C234.867 391.896 276.915 377.257 286.571 351.405C300.93 317.116 310.062 299.911 335.16 285.685L502.731 311.225Z" fill="#52D1E8"/>
<path d="M503.354 313.094C528.583 340.192 532.229 384.388 538.239 459.796C539.796 509.631 507.403 544.205 434.208 541.09C383.746 542.026 355.489 542.539 328.308 535.483C313.628 530.527 309.276 524.849 310.866 507.763C312.212 487.322 313.197 475.981 316.161 456.37C298.407 470.698 278.166 469.502 251.375 453.255C223.965 434.879 204.031 411.518 186.278 399.682C187.523 384.732 192.507 369.781 200.917 363.552C235.49 393.765 277.538 379.125 287.194 353.273C301.553 318.984 310.685 301.78 335.783 287.553L503.354 313.094Z" fill="url(#paint1_linear)"/>
<path d="M376.897 290.357L375.651 313.406C381.881 326.176 407.733 328.045 424.552 317.143L422.995 269.488L376.897 290.357Z" fill="#62F5FC"/>
<path d="M378.143 290.357L376.897 313.406C383.127 326.176 408.979 328.045 425.798 317.143L424.241 269.488L378.143 290.357Z" fill="url(#paint2_linear)"/>
<path d="M453.207 378.814C442.306 428.338 469.092 468.206 457.256 494.369" stroke="#66FEFF"/>
<path d="M433.144 241.103C436.883 269.412 398.419 302.309 383.904 300.033C373.405 298.386 359.581 285.865 352.797 268.205C350.202 261.45 350.914 253.723 349.88 245.891C346.14 217.582 358.787 198.772 382.833 195.596C406.879 192.419 429.404 212.793 433.144 241.103Z" fill="#62F5FC"/>
<path d="M433.767 239.857C437.506 268.166 399.042 301.063 384.527 298.787C374.028 297.14 360.204 284.618 353.42 266.959C350.825 260.204 351.537 252.477 350.503 244.645C346.763 216.336 359.41 197.526 383.456 194.349C407.502 191.173 430.027 211.547 433.767 239.857Z" fill="url(#paint3_linear)"/>
<path fill-rule="evenodd" clip-rule="evenodd" d="M319.638 310.474C319.298 309.773 319.069 306.199 319.129 302.531C319.189 298.863 319.179 295.863 319.107 295.863C318.934 295.863 317.807 300.06 317.305 302.571C316.77 305.244 317.445 308.312 318.982 310.19C319.928 311.346 320.097 311.419 319.638 310.474Z" fill="#52D1E8"/>
<path fill-rule="evenodd" clip-rule="evenodd" d="M388.597 155.769C367.256 157.944 348.736 174.949 337.053 203.098C333.982 210.498 331.579 213.758 322.235 223.204C311.167 234.393 309.433 237.486 309.063 246.703C308.782 253.693 309.119 254.676 315.676 266.037C319.492 272.649 322.041 278.953 322.041 281.779C322.041 282.62 320.638 286.525 318.923 290.456C312.807 304.472 313.33 308.767 322.074 316.335C328.031 321.492 330.909 322.649 337.772 322.649C349.975 322.649 362.19 318.104 370.29 305.809C371.827 303.475 373.374 301.387 373.727 301.169C374.08 300.951 374.368 299.971 374.368 298.99C374.368 298.377 374.317 297.954 374.094 297.613C373.743 297.076 372.968 296.743 371.303 296.19C367.441 294.908 363.238 290.156 359.543 284.127C357.425 280.672 355.473 276.796 353.849 272.914C349.198 261.806 350.56 250.356 352.169 241.637C352.704 238.741 353.575 232.801 354.105 228.437C355.201 219.417 356.68 214.868 359.883 210.672C363.986 205.297 367.046 203.505 377.07 200.61C384.254 198.535 386.609 197.53 389.69 195.226L391.618 193.784L391.327 198.329C390.97 203.884 391.818 206.717 394.845 210.08C397.939 213.517 402.253 216.164 410.888 219.924C418.838 223.385 421.902 225.136 424.006 227.42C428.848 232.675 427.031 242.6 419.08 254.326C411.469 265.551 410.118 275.279 414.287 288.851C416.231 295.178 417.976 303.625 417.971 306.677C417.965 309.862 416.779 313.204 414.894 315.346C413.923 316.451 410.406 318.896 407.078 320.78C399.1 325.299 394.468 329.901 391.142 336.613C385.808 347.377 387.599 356.086 397.25 366.316C408.436 378.174 427.837 386.358 446.159 386.948L451.606 387.123L453.653 386.812H455.99C459.436 386.812 467.621 385.145 472.764 383.396C488.303 378.11 508.711 362.967 513.041 353.51C516.984 344.897 515.735 338.343 507.812 326.075C504.014 320.193 502.085 315.917 502.077 313.362C502.073 311.823 503.079 309.677 505.729 305.575C510.195 298.661 512.37 294.407 514.362 288.699C516.224 283.359 516.857 275.211 515.803 270.139C514.88 265.697 511.137 258.17 507.381 253.204C505.831 251.154 504.563 249.133 504.563 248.71C503.29 247.375 502.559 246.665 501.167 245.404C501 245.404 498.897 242.858 496.492 239.746C492.396 234.446 489.014 228.435 488.111 224.847C488.007 224.433 487.936 224.136 487.905 223.951C486.857 217.861 486.528 214.959 486.533 210.963C482.556 180.325 465.976 162.267 437.713 157.79C432.986 157.041 428.684 156.872 420.194 157.1C412.439 157.308 407.78 157.158 405.204 156.616C399.899 155.5 394.124 155.206 388.597 155.769ZM319.638 310.474C319.298 309.773 319.069 306.199 319.129 302.531C319.189 298.863 319.179 295.863 319.107 295.863C318.934 295.863 317.807 300.06 317.305 302.571C316.77 305.244 317.445 308.312 318.982 310.19C319.928 311.346 320.097 311.419 319.638 310.474Z" fill="#52D1E8"/>
<path d="M359.543 284.127C363.238 290.156 367.441 294.908 371.303 296.19C372.968 296.743 373.743 297.076 374.094 297.613V296.586C367.308 292.58 364.235 289.765 359.543 284.127Z" fill="#52D1E8"/>
<path fill-rule="evenodd" clip-rule="evenodd" d="M322.13 310.474C321.79 309.773 321.561 306.199 321.621 302.531C321.681 298.863 321.671 295.863 321.599 295.863C321.426 295.863 320.298 300.06 319.796 302.571C319.262 305.244 319.937 308.312 321.474 310.19C322.42 311.346 322.588 311.419 322.13 310.474Z" fill="black"/>
<path fill-rule="evenodd" clip-rule="evenodd" d="M391.089 155.769C369.747 157.944 351.228 174.949 339.545 203.098C336.474 210.498 334.071 213.758 324.727 223.204C313.659 234.393 311.925 237.486 311.555 246.703C311.274 253.693 311.61 254.676 318.167 266.037C321.984 272.649 324.533 278.953 324.533 281.779C324.533 282.62 323.13 286.525 321.415 290.456C315.299 304.472 315.822 308.767 324.566 316.335C330.523 321.492 333.401 322.649 340.264 322.649C352.467 322.649 364.682 318.104 372.782 305.809C374.319 303.475 375.866 301.387 376.219 301.169C376.572 300.951 376.86 299.971 376.86 298.99C376.86 298.377 376.808 297.954 376.586 297.613C376.235 297.076 375.46 296.743 373.795 296.19C369.933 294.908 365.73 290.156 362.035 284.127C359.917 280.672 357.965 276.796 356.34 272.914C351.69 261.806 353.051 250.356 354.661 241.637C355.196 238.741 356.066 232.801 356.597 228.437C357.692 219.417 359.172 214.868 362.375 210.672C366.478 205.297 369.537 203.505 379.561 200.61C386.746 198.535 389.1 197.53 392.182 195.226L394.11 193.784L393.818 198.329C393.462 203.884 394.31 206.717 397.337 210.08C400.431 213.517 404.744 216.164 413.38 219.924C421.329 223.385 424.394 225.136 426.498 227.42C431.34 232.675 429.523 242.6 421.572 254.326C413.961 265.551 412.61 275.279 416.779 288.851C418.722 295.178 420.468 303.625 420.462 306.677C420.457 309.862 419.271 313.204 417.386 315.346C416.414 316.451 412.897 318.896 409.57 320.78C401.592 325.299 396.96 329.901 393.633 336.613C388.3 347.377 390.091 356.086 399.741 366.316C410.928 378.174 430.329 386.358 448.65 386.948L454.097 387.123L456.145 386.812H458.482C461.928 386.812 470.112 385.145 475.255 383.396C490.795 378.11 511.203 362.967 515.533 353.51C519.476 344.897 518.227 338.343 510.304 326.075C506.505 320.193 504.577 315.917 504.569 313.362C504.565 311.823 505.571 309.677 508.221 305.575C512.687 298.661 514.862 294.407 516.854 288.699C518.715 283.359 519.348 275.211 518.295 270.139C517.372 265.697 513.629 258.17 509.872 253.204C508.322 251.154 507.055 249.133 507.055 248.71C505.782 247.375 505.051 246.665 503.658 245.404C503.492 245.404 501.388 242.858 498.983 239.746C494.887 234.446 491.506 228.435 490.603 224.847C490.498 224.433 490.427 224.136 490.396 223.951C489.349 217.861 489.019 214.959 489.024 210.963C485.047 180.325 468.468 162.267 440.205 157.79C435.478 157.041 431.176 156.872 422.686 157.1C414.931 157.308 410.272 157.158 407.696 156.616C402.391 155.5 396.615 155.206 391.089 155.769ZM322.13 310.474C321.79 309.773 321.561 306.199 321.621 302.531C321.681 298.863 321.671 295.863 321.599 295.863C321.426 295.863 320.298 300.06 319.796 302.571C319.262 305.244 319.937 308.312 321.474 310.19C322.42 311.346 322.588 311.419 322.13 310.474Z" fill="black"/>
<path d="M362.035 284.127C365.73 290.156 369.933 294.908 373.795 296.19C375.46 296.743 376.235 297.076 376.586 297.613V296.586C369.8 292.58 366.727 289.765 362.035 284.127Z" fill="black"/>
<path d="M374.41 265.127C383.29 269.842 388.809 270.738 399.328 270.111C390.24 283.672 374.084 277.965 374.41 265.127Z" fill="white"/>
<path d="M332.98 374.454C319.414 404.967 315.87 423.023 316.472 456.993" stroke="#66FEFF"/>
<path fill-rule="evenodd" clip-rule="evenodd" d="M158.557 317.773C158.557 317.773 148.901 404.051 169.458 404.673C190.015 405.296 181.294 319.019 181.294 319.019C209.137 296.062 220.851 271.987 220.851 238.348C221.437 237.142 218.243 180.929 169.458 181.66C120.673 182.392 119 238.348 119 238.348C120.869 275.101 135.819 291.921 158.557 317.773ZM178.491 196.299L134.574 240.217C134.574 240.217 130.524 222.151 144.541 207.201C158.557 192.25 178.491 196.299 178.491 196.299ZM193.441 204.086L190.015 201.283L135.819 254.856L137.065 259.216L193.441 204.086ZM141.114 271.364L199.982 213.119C205.367 224.351 206.41 231.676 205.589 246.135L155.753 295.347C148.109 286.825 144.821 281.595 141.114 271.364ZM202.785 265.134L166.032 301.888C166.032 301.888 176.622 305.314 189.392 291.921C202.163 278.528 202.785 265.134 202.785 265.134Z" fill="white"/>
<path d="M149.222 354.215C147.895 349.003 148.5 346.975 153.271 345.805L165.107 352.969C170.754 358.009 170.059 359.205 164.484 359.51C172.094 365.55 171.699 367.218 162.304 366.985C168.624 371.994 167.556 373.138 161.058 373.526C163.441 377.223 162.854 378.622 158.878 380.067L159.501 385.362L145.796 378.198C143.466 374.98 143.206 373.199 145.173 370.1C142.356 366.589 142.575 364.854 146.73 362.313C144.599 356.872 145.349 355.249 149.222 354.215Z" fill="url(#paint4_linear)"/>
<path d="M256.609 79.0256C261.608 77.9466 267.032 83.2309 268.766 90.8702C271.899 104.876 258.357 122.469 258.357 122.469C258.357 122.469 238.565 112.118 235.477 98.316C233.764 90.656 236.429 83.5395 241.43 82.4209C244.482 81.6997 247.872 83.418 250.418 86.9782C251.221 82.6889 253.549 79.6981 256.609 79.0256Z" fill="url(#paint5_linear)"/>
<path d="M295.096 128.888C298.317 130.314 299.196 135.456 297.064 140.414C293.13 149.484 278.455 153.792 278.455 153.792C278.455 153.792 271.629 140.002 275.505 131.063C277.657 126.103 282.026 123.219 285.265 124.624C287.258 125.46 288.449 127.791 288.424 130.807C290.61 128.743 293.119 128.022 295.096 128.888Z" fill="url(#paint6_linear)"/>
<path d="M251.611 166.078C255.013 165.825 258.11 169.815 258.553 175.022C259.334 184.565 248.767 194.942 248.767 194.942C248.767 194.942 236.642 186.282 235.873 176.878C235.446 171.659 237.862 167.203 241.269 166.924C243.352 166.728 245.434 168.175 246.789 170.762C247.714 168.002 249.527 166.24 251.611 166.078Z" fill="url(#paint7_linear)"/>
<path d="M272.476 214.456C274.538 215.43 275.024 218.771 273.566 221.946C270.876 227.752 261.312 230.306 261.312 230.306C261.312 230.306 257.114 221.274 259.765 215.552C261.236 212.376 264.109 210.58 266.183 211.541C267.459 212.113 268.192 213.641 268.128 215.592C269.576 214.291 271.211 213.864 272.476 214.456Z" fill="url(#paint8_linear)"/>
<g filter="url(#filter0_f)">
<path d="M256.609 79.0256C261.608 77.9466 267.032 83.2309 268.766 90.8702C271.899 104.876 258.357 122.469 258.357 122.469C258.357 122.469 238.565 112.118 235.477 98.316C233.764 90.656 236.429 83.5395 241.43 82.4209C244.482 81.6997 247.872 83.418 250.418 86.9782C251.221 82.6889 253.549 79.6981 256.609 79.0256Z" fill="url(#paint9_linear)"/>
<path d="M295.096 128.888C298.317 130.314 299.196 135.456 297.064 140.414C293.13 149.484 278.455 153.792 278.455 153.792C278.455 153.792 271.629 140.002 275.505 131.063C277.657 126.103 282.026 123.219 285.265 124.624C287.258 125.46 288.449 127.791 288.424 130.807C290.61 128.743 293.119 128.022 295.096 128.888Z" fill="url(#paint10_linear)"/>
<path d="M251.611 166.078C255.013 165.825 258.11 169.815 258.553 175.022C259.334 184.565 248.767 194.942 248.767 194.942C248.767 194.942 236.642 186.282 235.873 176.878C235.446 171.659 237.862 167.203 241.269 166.924C243.352 166.728 245.434 168.175 246.789 170.762C247.714 168.002 249.527 166.24 251.611 166.078Z" fill="url(#paint11_linear)"/>
<path d="M272.476 214.456C274.538 215.43 275.024 218.771 273.566 221.946C270.876 227.752 261.312 230.306 261.312 230.306C261.312 230.306 257.114 221.274 259.765 215.552C261.236 212.376 264.109 210.58 266.183 211.541C267.459 212.113 268.192 213.641 268.128 215.592C269.576 214.291 271.211 213.864 272.476 214.456Z" fill="url(#paint12_linear)"/>
</g>
<defs>
<filter id="filter0_f" x="198.375" y="43" width="136.585" height="224.503" filterUnits="userSpaceOnUse" color-interpolation-filters="sRGB">
<feFlood flood-opacity="0" result="BackgroundImageFix"/>
<feBlend mode="normal" in="SourceGraphic" in2="BackgroundImageFix" result="shape"/>
<feGaussianBlur stdDeviation="17" result="effect1_foregroundBlur"/>
</filter>
<linearGradient id="paint0_linear" x1="177.245" y1="350.477" x2="198.194" y2="350.852" gradientUnits="userSpaceOnUse">
<stop stop-color="#0D3899"/>
<stop offset="1" stop-color="#0C2169"/>
</linearGradient>
<linearGradient id="paint1_linear" x1="362.285" y1="287.553" x2="362.285" y2="541.626" gradientUnits="userSpaceOnUse">
<stop stop-color="#39ACF4"/>
<stop offset="0.317708" stop-color="#206AD3"/>
<stop offset="0.651042" stop-color="#206AD3"/>
<stop offset="1" stop-color="#3296E5"/>
</linearGradient>
<linearGradient id="paint2_linear" x1="376.897" y1="269.488" x2="426.687" y2="271.211" gradientUnits="userSpaceOnUse">
<stop stop-color="#0D3899"/>
<stop offset="1" stop-color="#0C2169"/>
</linearGradient>
<linearGradient id="paint3_linear" x1="343.772" y1="199.592" x2="428.876" y2="191.046" gradientUnits="userSpaceOnUse">
<stop stop-color="#0D3899"/>
<stop offset="1" stop-color="#0C2169"/>
</linearGradient>
<linearGradient id="paint4_linear" x1="143.295" y1="345.805" x2="170.303" y2="346.507" gradientUnits="userSpaceOnUse">
<stop stop-color="#0D3899"/>
<stop offset="1" stop-color="#0C2169"/>
</linearGradient>
<linearGradient id="paint5_linear" x1="235.586" y1="76.9996" x2="312.626" y2="148.136" gradientUnits="userSpaceOnUse">
<stop stop-color="#FF9085"/>
<stop offset="1" stop-color="#FB6FBB"/>
</linearGradient>
<linearGradient id="paint6_linear" x1="284.209" y1="119.235" x2="298.273" y2="190.091" gradientUnits="userSpaceOnUse">
<stop stop-color="#FF9085"/>
<stop offset="1" stop-color="#FB6FBB"/>
</linearGradient>
<linearGradient id="paint7_linear" x1="237.907" y1="162.804" x2="282.261" y2="216.896" gradientUnits="userSpaceOnUse">
<stop stop-color="#FF9085"/>
<stop offset="1" stop-color="#FB6FBB"/>
</linearGradient>
<linearGradient id="paint8_linear" x1="265.585" y1="208.037" x2="273.557" y2="254.11" gradientUnits="userSpaceOnUse">
<stop stop-color="#FF9085"/>
<stop offset="1" stop-color="#FB6FBB"/>
</linearGradient>
<linearGradient id="paint9_linear" x1="235.586" y1="76.9996" x2="312.626" y2="148.136" gradientUnits="userSpaceOnUse">
<stop stop-color="#FF9085"/>
<stop offset="1" stop-color="#FB6FBB"/>
</linearGradient>
<linearGradient id="paint10_linear" x1="284.209" y1="119.235" x2="298.273" y2="190.091" gradientUnits="userSpaceOnUse">
<stop stop-color="#FF9085"/>
<stop offset="1" stop-color="#FB6FBB"/>
</linearGradient>
<linearGradient id="paint11_linear" x1="237.907" y1="162.804" x2="282.261" y2="216.896" gradientUnits="userSpaceOnUse">
<stop stop-color="#FF9085"/>
<stop offset="1" stop-color="#FB6FBB"/>
</linearGradient>
<linearGradient id="paint12_linear" x1="265.585" y1="208.037" x2="273.557" y2="254.11" gradientUnits="userSpaceOnUse">
<stop stop-color="#FF9085"/>
<stop offset="1" stop-color="#FB6FBB"/>
</linearGradient>
</defs>
</svg>
