<svg width="745" height="670" viewBox="0 0 745 670" fill="none" xmlns="http://www.w3.org/2000/svg">
<path d="M600.478 435.337C586.781 487.981 548.242 536.729 454.865 561.945C421.124 571.065 381.854 575.539 346.837 572.783C295.316 568.717 241.311 545.457 198.399 519.084C168.691 500.827 156.883 476.207 152.697 448.37C150.111 431.151 150.434 412.724 151.268 393.803C152.51 365.337 147.984 336.684 141.28 309.001C130.969 266.362 139.459 221.647 164.897 184.962C190.334 148.295 230.523 122.773 276.361 114.197C353.592 99.7518 431.946 109.28 431.946 109.28C535.141 120 587.377 222.446 600.104 305.836C605.906 343.95 611.997 391.013 600.478 435.337Z" fill="#0A0849"/>
<path opacity="0.5" d="M125.843 309.982L125.384 309.785L125.843 309.982C138.109 281.342 144.528 250.293 148.339 219.419C154.202 172.053 180.041 129.811 220.087 102.266C260.129 74.7363 310.949 64.2273 361.03 73.1544C403.277 80.6866 443.513 94.4411 473.192 106.316C488.03 112.253 500.227 117.719 508.713 121.7C512.955 123.69 516.271 125.31 518.524 126.431C519.651 126.992 520.513 127.428 521.092 127.724C521.382 127.871 521.601 127.984 521.748 128.06L521.913 128.146L521.954 128.167L521.964 128.172L521.967 128.174C521.967 128.174 521.967 128.174 522.199 127.731L521.967 128.174L521.975 128.178C572.549 153.501 601.329 197.257 615.085 245.95C628.843 294.65 627.562 348.267 618.019 393.227C609.268 434.38 597.38 484.682 568.581 525.387C551.478 549.547 528.419 570.315 496.517 583.76C464.612 597.207 423.831 603.343 371.265 598.188L371.223 598.62L371.265 598.188C333.279 594.472 291.431 583.887 256.724 567.576C205.676 543.573 159.441 499.037 125.725 455.575C102.473 425.603 99.8881 396.067 106.308 366.147C110.286 347.621 117.7 328.973 125.843 309.982Z" fill="#0A0849" stroke="black"/>
<circle cx="240.507" cy="499.53" r="4" transform="rotate(-148.806 240.507 499.53)" fill="#EDEEC8"/>
<circle r="4" transform="matrix(-0.955311 -0.295601 -0.295601 0.955311 61.9963 281.02)" fill="#EDEEC8"/>
<circle cx="522" cy="534.023" r="4" transform="rotate(-180 522 534.023)" fill="#EDEEC8"/>
<circle r="4" transform="matrix(-0.664089 -0.747654 -0.747654 0.664089 208.13 560.627)" fill="#EDEEC8"/>
<circle cx="584.56" cy="154.53" r="4" transform="rotate(-148.806 584.56 154.53)" fill="#EDEEC8"/>
<circle cx="390.5" cy="565.523" r="1.5" transform="rotate(-180 390.5 565.523)" fill="#EDEEC8"/>
<circle r="1.5" transform="matrix(-0.664089 -0.747654 -0.747654 0.664089 144.354 441.392)" fill="#EDEEC8"/>
<circle cx="443.94" cy="63.9634" r="1.5" transform="rotate(-148.806 443.94 63.9634)" fill="#EDEEC8"/>
<circle cx="408.5" cy="602.523" r="1.5" transform="rotate(-180 408.5 602.523)" fill="#EDEEC8"/>
<circle r="1.5" transform="matrix(-0.664089 -0.747654 -0.747654 0.664089 71.8824 236.906)" fill="#EDEEC8"/>
<circle cx="451.992" cy="154.34" r="1.5" transform="rotate(-148.806 451.992 154.34)" fill="#EDEEC8"/>
<circle cx="588.5" cy="492.523" r="1.5" transform="rotate(-180 588.5 492.523)" fill="#206BD4"/>
<circle cx="659.5" cy="312.523" r="1.5" transform="rotate(-180 659.5 312.523)" fill="#206BD4"/>
<circle cx="699.5" cy="276.523" r="1.5" transform="rotate(-180 699.5 276.523)" fill="#206BD4"/>
<circle cx="743.5" cy="340.523" r="1.5" transform="rotate(-180 743.5 340.523)" fill="#206BD4"/>
<circle cx="1.5" cy="314.523" r="1.5" transform="rotate(-180 1.5 314.523)" fill="#206BD4"/>
<circle r="1.5" transform="matrix(-0.664089 -0.747654 -0.747654 0.664089 221.265 637.906)" fill="#206BD4"/>
<circle cx="662.94" cy="153.473" r="1.5" transform="rotate(-148.806 662.94 153.473)" fill="#206BD4"/>
<circle cx="553.5" cy="479.523" r="2.5" transform="rotate(-180 553.5 479.523)" fill="#206BD4"/>
<circle cx="573.5" cy="581.523" r="2.5" transform="rotate(-180 573.5 581.523)" fill="#206BD4"/>
<circle r="2.5" transform="matrix(-0.664089 -0.747654 -0.747654 0.664089 277.845 567.587)" fill="#206BD4"/>
<circle cx="688.5" cy="457.523" r="2.5" transform="rotate(-180 688.5 457.523)" fill="#206BD4"/>
<circle cx="639.733" cy="124.225" r="2.5" transform="rotate(-148.806 639.733 124.225)" fill="#206BD4"/>
<circle cx="437.5" cy="538.523" r="1.5" transform="rotate(-180 437.5 538.523)" fill="#206BD4"/>
<circle r="1.5" transform="matrix(-0.664089 -0.747654 -0.747654 0.664089 155.379 494.462)" fill="#206BD4"/>
<circle cx="557.5" cy="618.523" r="1.5" transform="rotate(-180 557.5 618.523)" fill="#206BD4"/>
<circle r="1.5" transform="matrix(-0.664089 -0.747654 -0.747654 0.664089 294.882 531.053)" fill="#206BD4"/>
<circle cx="509.947" cy="114.614" r="1.5" transform="rotate(-148.806 509.947 114.614)" fill="#206BD4"/>
<circle cx="164.635" cy="161.659" r="4" transform="rotate(116.506 164.635 161.659)" fill="#EDEEC8"/>
<circle cx="284.81" cy="185.012" r="1.5" transform="rotate(116.506 284.81 185.012)" fill="#EDEEC8"/>
<circle cx="193.971" cy="131.887" r="1.5" transform="rotate(116.506 193.971 131.887)" fill="#206BD4"/>
<circle cx="109.937" cy="172.669" r="1.5" transform="rotate(116.506 109.937 172.669)" fill="#206BD4"/>
<circle cx="68.9882" cy="313.012" r="1.5" transform="rotate(116.506 68.9882 313.012)" fill="#206BD4"/>
<circle cx="315.988" cy="2.01176" r="1.5" transform="rotate(116.506 315.988 2.01176)" fill="#206BD4"/>
<circle cx="395.647" cy="117.67" r="2.5" transform="rotate(116.506 395.647 117.67)" fill="#206BD4"/>
<circle cx="286.647" cy="86.6703" r="2.5" transform="rotate(116.506 286.647 86.6703)" fill="#206BD4"/>
<path opacity="0.2" d="M559.309 344.301C558.709 323.201 547.009 304.901 529.809 293.101C471.393 253.2 334.672 172.347 257.909 194.901C239.809 200.201 223.609 211.401 210.909 225.301C181.109 258.201 173.709 303.001 174.009 345.901C174.109 352.201 174.309 358.401 174.609 364.701C174.709 367.901 174.909 371.101 175.109 374.301C175.209 376.301 175.309 378.301 175.509 380.301C175.609 381.301 175.809 382.201 176.109 383.001C179.009 403.601 186.209 423.101 201.109 438.601C228.909 467.401 272.109 474.301 309.909 479.401C356.209 485.601 405.009 486.401 449.709 470.901C485.809 458.401 519.009 435.501 540.009 403.201C551.009 386.101 559.909 365.001 559.309 344.301Z" fill="url(#paint0_linear)"/>
<path d="M495.809 377.399C492.809 372.199 488.209 367.699 486.409 361.899C484.509 355.799 486.509 349.699 488.709 343.999C492.709 333.299 495.709 324.099 491.209 312.999C483.009 292.599 464.609 280.899 443.609 277.299C437.909 276.299 431.909 275.499 426.709 272.799C420.309 269.499 417.509 263.499 413.809 257.799C407.909 248.899 399.509 241.899 389.709 237.599C379.509 233.199 368.109 232.199 357.209 234.499C352.109 235.599 347.109 237.399 342.509 239.899C337.109 242.899 332.709 247.199 327.309 250.199C316.709 255.999 308.609 263.099 303.709 274.399C299.409 284.099 298.009 295.099 300.009 305.599C303.909 326.699 321.509 344.499 341.909 350.399C336.709 374.399 346.609 399.499 359.809 419.299C373.209 439.199 393.909 449.299 417.409 451.499C429.109 452.599 441.809 452.199 452.509 446.899C456.109 445.099 460.109 442.599 460.809 438.299C461.509 434.099 460.309 430.999 464.809 428.499C467.809 426.899 471.409 426.699 474.609 426.199C497.709 422.699 506.909 396.599 495.809 377.399Z" fill="#52D1E8"/>
<path d="M497.809 377.399C494.809 372.199 490.209 367.699 488.409 361.899C486.509 355.799 488.509 349.699 490.709 343.999C494.709 333.299 497.709 324.099 493.209 312.999C485.009 292.599 466.609 280.899 445.609 277.299C439.909 276.299 433.909 275.499 428.709 272.799C422.309 269.499 419.509 263.499 415.809 257.799C409.909 248.899 401.509 241.899 391.709 237.599C381.509 233.199 370.109 232.199 359.209 234.499C354.109 235.599 349.109 237.399 344.509 239.899C339.109 242.899 334.709 247.199 329.309 250.199C318.709 255.999 310.609 263.099 305.709 274.399C301.409 284.099 300.009 295.099 302.009 305.599C305.909 326.699 323.509 344.499 343.909 350.399C338.709 374.399 348.609 399.499 361.809 419.299C375.209 439.199 395.909 449.299 419.409 451.499C431.109 452.599 443.809 452.199 454.509 446.899C458.109 445.099 462.109 442.599 462.809 438.299C463.509 434.099 462.309 430.999 466.809 428.499C469.809 426.899 473.409 426.699 476.609 426.199C499.709 422.699 508.909 396.599 497.809 377.399Z" fill="black"/>
<path d="M341.109 260.999C340.809 261.499 337.309 262.599 334.909 266.799C332.509 270.999 331.809 273.299 332.109 277.999C332.309 282.599 332.709 286.799 331.309 291.299C329.909 295.699 327.409 299.599 326.009 303.899C322.209 315.699 333.909 336.899 342.609 340.499C346.209 341.999 349.909 341.999 353.509 341.599C353.609 346.199 352.609 351.399 346.909 349.499C344.109 348.499 342.109 346.199 339.109 345.399C334.009 344.099 328.509 345.099 324.009 347.699C323.109 348.199 322.009 348.599 321.409 349.399C317.509 354.399 318.409 361.599 318.109 367.999C317.809 375.399 317.609 382.699 317.409 390.099C317.009 404.999 316.909 419.899 317.109 434.899C317.309 448.899 317.209 462.999 317.809 476.999C317.809 477.299 317.909 477.599 317.909 477.999C317.909 478.799 318.009 479.499 318.009 480.299C323.009 482.699 329.809 483.099 334.609 483.499C344.609 484.499 354.809 484.499 364.809 483.999C383.109 483.199 401.409 480.499 419.409 477.199C419.909 472.799 420.209 468.399 420.109 463.999C419.909 454.899 419.809 445.699 419.709 436.499C419.609 417.899 420.109 399.299 418.409 380.699C417.509 370.699 416.209 360.599 412.809 351.099C412.009 348.799 411.109 345.799 409.409 344.199C408.409 343.199 406.809 342.799 405.309 342.299C398.709 340.299 391.909 342.399 386.309 345.999C384.209 347.299 382.409 348.899 380.109 347.299C378.509 346.199 378.009 344.399 377.509 342.599C376.209 337.699 377.109 332.899 377.109 327.999C377.109 327.899 377.109 327.899 377.109 327.799C378.209 326.499 379.209 325.099 380.109 323.599C384.009 317.399 387.909 308.899 388.109 301.499C388.309 294.599 382.909 290.699 377.009 288.399C369.009 285.099 360.209 282.599 353.909 276.399C347.909 270.499 347.909 265.899 341.109 260.999Z" fill="#52D1E8"/>
<path d="M342.209 260.499C341.909 260.999 338.409 262.099 336.009 266.299C333.609 270.499 332.909 272.799 333.209 277.499C333.409 282.099 333.809 286.299 332.409 290.799C331.009 295.199 328.509 299.099 327.109 303.399C323.309 315.199 335.009 336.399 343.709 339.999C347.309 341.499 351.009 341.499 354.609 341.099C354.709 345.699 353.709 350.899 348.009 348.999C345.209 347.999 343.209 345.699 340.209 344.899C335.109 343.599 329.609 344.599 325.109 347.199C324.209 347.699 323.109 348.099 322.509 348.899C318.609 353.899 319.509 361.099 319.209 367.499C318.909 374.899 318.709 382.199 318.509 389.599C318.109 404.499 318.009 419.399 318.209 434.399C318.409 448.399 318.309 462.499 318.909 476.499C318.909 476.799 319.009 477.099 319.009 477.499C319.009 478.299 319.109 478.999 319.109 479.799C324.109 482.199 330.909 482.599 335.709 482.999C345.709 483.999 355.909 483.999 365.909 483.499C384.209 482.699 402.509 479.999 420.509 476.699C421.009 472.299 421.309 467.899 421.209 463.499C421.009 454.399 420.909 445.199 420.809 435.999C420.709 417.399 421.209 398.799 419.509 380.199C418.609 370.199 417.309 360.099 413.909 350.599C413.109 348.299 412.209 345.299 410.509 343.699C409.509 342.699 407.909 342.299 406.409 341.799C399.809 339.799 393.009 341.899 387.409 345.499C385.309 346.799 383.509 348.399 381.209 346.799C379.609 345.699 379.109 343.899 378.609 342.099C377.309 337.199 378.209 332.399 378.209 327.499C378.209 327.399 378.209 327.399 378.209 327.299C379.309 325.999 380.309 324.599 381.209 323.099C385.109 316.899 389.009 308.399 389.209 300.999C389.409 294.099 384.009 290.199 378.109 287.899C370.109 284.599 361.309 282.099 355.009 275.899C349.009 269.999 349.009 265.399 342.209 260.499Z" fill="url(#paint1_linear)"/>
<path d="M406.209 407.999C408.109 397.699 405.609 387.299 402.409 377.499C400.509 371.699 398.409 365.999 396.309 360.299C394.409 355.099 392.909 349.299 390.009 344.499C390.009 344.399 389.909 344.399 389.909 344.399C389.809 343.799 389.309 343.399 388.509 343.499C386.909 343.799 385.309 344.399 384.109 345.499C384.009 345.599 383.909 345.699 383.909 345.799C383.209 345.999 382.709 346.699 383.109 347.599C386.309 355.899 389.009 367.199 384.709 375.599C381.209 382.399 373.709 386.399 366.409 387.699C356.009 389.599 347.609 385.399 344.209 375.199C341.109 365.999 343.009 357.399 345.709 348.399C345.809 348.099 345.709 347.899 345.609 347.699C345.609 347.499 345.509 347.199 345.209 347.099C343.509 346.199 341.809 345.699 340.009 345.099C339.409 344.899 338.709 345.299 338.509 345.899C335.509 357.499 332.609 369.099 329.409 380.699C326.809 390.399 324.509 401.099 327.709 410.899C329.209 415.599 332.309 419.399 334.509 423.699C337.509 429.599 337.309 436.299 337.609 442.799C338.209 455.699 338.909 468.599 339.509 481.399C339.509 482.299 340.209 482.899 340.909 482.999C341.109 483.199 341.309 483.399 341.609 483.399C360.509 486.099 380.709 484.799 399.509 481.799C400.909 481.599 401.109 479.899 400.509 478.899C400.609 478.699 400.709 478.499 400.709 478.199C401.009 465.799 399.209 453.199 398.909 440.899C398.709 434.599 397.709 427.599 400.609 421.799C402.809 417.299 405.209 413.299 406.209 407.999Z" fill="#56C5DD"/>
<path d="M407.209 407.999C409.109 397.699 406.609 387.299 403.409 377.499C401.509 371.699 399.409 365.999 397.309 360.299C395.409 355.099 393.909 349.299 391.009 344.499C391.009 344.399 390.909 344.399 390.909 344.399C390.809 343.799 390.309 343.399 389.509 343.499C387.909 343.799 386.309 344.399 385.109 345.499C385.009 345.599 384.909 345.699 384.909 345.799C384.209 345.999 383.709 346.699 384.109 347.599C387.309 355.899 390.009 367.199 385.709 375.599C382.209 382.399 374.709 386.399 367.409 387.699C357.009 389.599 348.609 385.399 345.209 375.199C342.109 365.999 344.009 357.399 346.709 348.399C346.809 348.099 346.709 347.899 346.609 347.699C346.609 347.499 346.509 347.199 346.209 347.099C344.509 346.199 342.809 345.699 341.009 345.099C340.409 344.899 339.709 345.299 339.509 345.899C336.509 357.499 333.609 369.099 330.409 380.699C327.809 390.399 325.509 401.099 328.709 410.899C330.209 415.599 333.309 419.399 335.509 423.699C338.509 429.599 338.309 436.299 338.609 442.799C339.209 455.699 339.909 468.599 340.509 481.399C340.509 482.299 341.209 482.899 341.909 482.999C342.109 483.199 342.309 483.399 342.609 483.399C361.509 486.099 381.709 484.799 400.509 481.799C401.909 481.599 402.109 479.899 401.509 478.899C401.609 478.699 401.709 478.499 401.709 478.199C402.009 465.799 400.209 453.199 399.909 440.899C399.709 434.599 398.709 427.599 401.609 421.799C403.809 417.299 406.209 413.299 407.209 407.999Z" fill="url(#paint2_linear)"/>
<path d="M357.109 323.199C352.509 326.799 346.909 326.299 342.109 323.099C341.809 322.899 341.409 323.399 341.709 323.599C345.909 328.299 353.509 327.999 358.209 324.299C359.109 323.699 357.909 322.599 357.109 323.199Z" fill="#52D1E8"/>
<path d="M260.293 127.512C244.134 131.106 233.928 147.15 237.522 163.31C241.116 179.469 257.16 189.675 273.32 186.081C289.479 182.487 299.685 166.443 296.091 150.284C292.497 134.124 276.453 123.918 260.293 127.512ZM272.755 183.541C258.006 186.821 243.342 177.493 240.062 162.745C236.782 147.997 246.11 133.333 260.858 130.053C275.606 126.772 290.27 136.1 293.551 150.849C296.831 165.597 287.503 180.261 272.755 183.541Z" fill="url(#paint3_linear)"/>
<path d="M280.636 147.056L271.745 149.033L269.767 140.142C269.61 139.437 268.92 138.998 268.215 139.154L258.053 141.414C257.348 141.571 256.909 142.261 257.066 142.967L259.043 151.858L250.152 153.836C249.446 153.993 249.007 154.683 249.164 155.388L251.424 165.55C251.581 166.255 252.271 166.694 252.977 166.537L261.868 164.56L263.846 173.451C264.002 174.157 264.693 174.596 265.398 174.439L275.56 172.179C276.265 172.022 276.704 171.332 276.547 170.626L274.57 161.735L283.461 159.758C284.167 159.601 284.606 158.911 284.449 158.205L282.189 148.044C281.961 147.354 281.271 146.915 280.636 147.056ZM281.696 157.484L272.735 159.477C272.029 159.634 271.59 160.324 271.747 161.03L273.724 169.921L266.103 171.616L264.126 162.725C263.969 162.019 263.279 161.58 262.573 161.737L253.682 163.715L251.987 156.094L260.878 154.116C261.584 153.959 262.023 153.269 261.866 152.563L259.888 143.672L267.58 141.962L269.557 150.853C269.714 151.558 270.404 151.997 271.11 151.84L280.001 149.863L281.696 157.484Z" fill="url(#paint4_linear)"/>
<path fill-rule="evenodd" clip-rule="evenodd" d="M272.755 183.541C258.006 186.821 243.342 177.493 240.062 162.745C236.782 147.997 246.11 133.333 260.858 130.053C275.606 126.772 290.27 136.1 293.551 150.849C296.831 165.597 287.503 180.261 272.755 183.541ZM271.745 149.033L280.636 147.056C281.271 146.915 281.961 147.354 282.189 148.044L284.449 158.205C284.606 158.911 284.167 159.601 283.461 159.758L274.57 161.735L276.547 170.626C276.704 171.332 276.265 172.022 275.56 172.179L265.398 174.439C264.693 174.596 264.002 174.157 263.846 173.451L261.868 164.56L252.977 166.537C252.271 166.694 251.581 166.255 251.424 165.55L249.164 155.388C249.007 154.683 249.446 153.993 250.152 153.836L259.043 151.858L257.066 142.967C256.909 142.261 257.348 141.571 258.053 141.414L268.215 139.154C268.92 138.998 269.61 139.437 269.767 140.142L271.745 149.033Z" fill="url(#paint5_linear)"/>
<path d="M324.25 195.845C310.152 192.067 295.632 200.45 291.855 214.548C288.077 228.646 296.46 243.165 310.558 246.943C324.656 250.72 339.175 242.338 342.953 228.24C346.73 214.142 338.348 199.622 324.25 195.845ZM311.152 244.727C298.285 241.279 290.623 228.009 294.071 215.142C297.519 202.275 310.789 194.613 323.656 198.061C336.523 201.509 344.184 214.779 340.737 227.646C337.289 240.513 324.019 248.174 311.152 244.727Z" fill="url(#paint6_linear)"/>
<path d="M332.186 219.416L324.429 217.338L326.508 209.581C326.673 208.965 326.312 208.341 325.697 208.176L316.831 205.8C316.216 205.635 315.591 205.996 315.426 206.611L313.348 214.368L305.591 212.29C304.975 212.125 304.351 212.486 304.186 213.101L301.81 221.966C301.645 222.582 302.006 223.207 302.621 223.371L310.378 225.45L308.3 233.207C308.135 233.823 308.496 234.447 309.111 234.612L317.976 236.988C318.592 237.152 319.217 236.792 319.381 236.176L321.46 228.419L329.217 230.498C329.833 230.663 330.457 230.302 330.622 229.687L332.998 220.821C333.101 220.189 332.74 219.565 332.186 219.416ZM328.764 228.001L320.946 225.906C320.33 225.741 319.706 226.102 319.541 226.717L317.462 234.474L310.813 232.693L312.892 224.936C313.057 224.32 312.696 223.696 312.08 223.531L304.323 221.452L306.105 214.803L313.862 216.882C314.478 217.047 315.102 216.686 315.267 216.07L317.346 208.313L324.056 210.111L321.978 217.869C321.813 218.484 322.173 219.109 322.789 219.274L330.546 221.352L328.764 228.001Z" fill="url(#paint7_linear)"/>
<path fill-rule="evenodd" clip-rule="evenodd" d="M311.152 244.727C298.285 241.279 290.623 228.009 294.071 215.142C297.519 202.275 310.789 194.613 323.656 198.061C336.523 201.509 344.184 214.779 340.737 227.646C337.289 240.513 324.019 248.174 311.152 244.727ZM324.429 217.338L332.186 219.416C332.74 219.565 333.101 220.189 332.998 220.821L330.622 229.687C330.457 230.302 329.833 230.663 329.217 230.498L321.46 228.419L319.381 236.176C319.217 236.792 318.592 237.152 317.976 236.988L309.111 234.612C308.496 234.447 308.135 233.823 308.3 233.207L310.378 225.45L302.621 223.371C302.006 223.207 301.645 222.582 301.81 221.966L304.186 213.101C304.351 212.486 304.975 212.125 305.591 212.29L313.348 214.368L315.426 206.611C315.591 205.996 316.216 205.635 316.831 205.8L325.697 208.176C326.312 208.341 326.673 208.965 326.508 209.581L324.429 217.338Z" fill="url(#paint8_linear)"/>
<path d="M257.508 265.79C245.644 266.779 236.812 277.217 237.8 289.08C238.788 300.943 249.227 309.776 261.09 308.788C272.953 307.799 281.786 297.361 280.798 285.498C279.809 273.635 269.371 264.802 257.508 265.79ZM260.935 306.923C250.108 307.825 240.567 299.752 239.665 288.925C238.763 278.098 246.836 268.557 257.663 267.655C268.49 266.753 278.031 274.826 278.933 285.653C279.835 296.48 271.762 306.021 260.935 306.923Z" fill="url(#paint9_linear)"/>
<path d="M270.1 281.694L263.573 282.238L263.029 275.711C262.986 275.193 262.537 274.813 262.019 274.856L254.559 275.478C254.041 275.521 253.661 275.97 253.704 276.488L254.248 283.015L247.721 283.559C247.203 283.602 246.823 284.051 246.866 284.569L247.487 292.029C247.531 292.547 247.979 292.927 248.498 292.884L255.025 292.34L255.569 298.867C255.612 299.385 256.061 299.765 256.579 299.722L264.039 299.101C264.557 299.057 264.937 298.608 264.893 298.09L264.35 291.563L270.877 291.019C271.395 290.976 271.775 290.527 271.732 290.009L271.11 282.549C271.015 282.035 270.566 281.656 270.1 281.694ZM269.841 289.228L263.262 289.776C262.744 289.819 262.364 290.268 262.407 290.786L262.951 297.313L257.356 297.779L256.812 291.252C256.769 290.734 256.32 290.354 255.802 290.397L249.275 290.941L248.808 285.346L255.336 284.802C255.854 284.759 256.234 284.31 256.191 283.792L255.647 277.265L261.293 276.794L261.837 283.322C261.88 283.84 262.329 284.22 262.847 284.177L269.375 283.633L269.841 289.228Z" fill="url(#paint10_linear)"/>
<path fill-rule="evenodd" clip-rule="evenodd" d="M260.935 306.923C250.108 307.825 240.567 299.752 239.665 288.925C238.763 278.098 246.836 268.557 257.663 267.655C268.49 266.753 278.031 274.826 278.933 285.653C279.835 296.48 271.762 306.021 260.935 306.923ZM263.573 282.238L270.1 281.694C270.566 281.656 271.015 282.035 271.11 282.549L271.732 290.009C271.775 290.527 271.395 290.976 270.877 291.019L264.35 291.563L264.893 298.09C264.937 298.608 264.557 299.057 264.039 299.101L256.579 299.722C256.061 299.765 255.612 299.385 255.569 298.867L255.025 292.34L248.498 292.884C247.979 292.927 247.531 292.547 247.487 292.029L246.866 284.569C246.823 284.051 247.203 283.602 247.721 283.559L254.248 283.015L253.704 276.488C253.661 275.97 254.041 275.521 254.559 275.478L262.019 274.856C262.537 274.813 262.986 275.193 263.029 275.711L263.573 282.238Z" fill="url(#paint11_linear)"/>
<path d="M293.222 338.874C285.241 336.736 277.022 341.481 274.884 349.461C272.746 357.442 277.491 365.66 285.471 367.799C293.452 369.937 301.67 365.192 303.809 357.212C305.947 349.231 301.202 341.013 293.222 338.874ZM285.807 366.544C278.524 364.593 274.187 357.081 276.139 349.797C278.09 342.514 285.602 338.177 292.885 340.129C300.169 342.08 304.506 349.592 302.554 356.876C300.603 364.159 293.091 368.496 285.807 366.544Z" fill="url(#paint12_linear)"/>
<path d="M297.714 352.217L293.323 351.04L294.5 346.65C294.593 346.301 294.389 345.948 294.041 345.854L289.022 344.51C288.674 344.416 288.32 344.62 288.227 344.969L287.05 349.36L282.659 348.183C282.311 348.09 281.957 348.294 281.864 348.642L280.519 353.661C280.426 354.009 280.63 354.363 280.979 354.456L285.37 355.633L284.193 360.023C284.1 360.372 284.304 360.725 284.652 360.819L289.671 362.163C290.019 362.257 290.372 362.053 290.466 361.704L291.642 357.313L296.033 358.49C296.382 358.583 296.735 358.379 296.829 358.031L298.173 353.012C298.232 352.655 298.028 352.301 297.714 352.217ZM295.777 357.077L291.351 355.891C291.003 355.797 290.649 356.001 290.556 356.35L289.379 360.741L285.616 359.732L286.792 355.341C286.886 354.993 286.682 354.639 286.333 354.546L281.942 353.369L282.951 349.606L287.342 350.782C287.69 350.876 288.044 350.672 288.137 350.323L289.313 345.932L293.112 346.95L291.935 351.341C291.842 351.689 292.046 352.043 292.395 352.136L296.786 353.313L295.777 357.077Z" fill="url(#paint13_linear)"/>
<path fill-rule="evenodd" clip-rule="evenodd" d="M285.807 366.544C278.524 364.593 274.187 357.081 276.139 349.797C278.09 342.514 285.602 338.177 292.885 340.129C300.169 342.08 304.506 349.592 302.554 356.876C300.603 364.159 293.091 368.496 285.807 366.544ZM293.323 351.04L297.714 352.217C298.028 352.301 298.232 352.655 298.173 353.012L296.829 358.031C296.735 358.379 296.382 358.583 296.033 358.49L291.642 357.313L290.466 361.704C290.372 362.053 290.019 362.257 289.671 362.163L284.652 360.819C284.304 360.725 284.1 360.372 284.193 360.023L285.37 355.633L280.979 354.456C280.63 354.363 280.426 354.009 280.519 353.661L281.864 348.642C281.957 348.294 282.311 348.09 282.659 348.183L287.05 349.36L288.227 344.969C288.32 344.62 288.674 344.416 289.022 344.51L294.041 345.854C294.389 345.948 294.593 346.301 294.5 346.65L293.323 351.04Z" fill="url(#paint14_linear)"/>
<path d="M453.382 88.4466C466.895 91.452 475.429 104.869 472.424 118.382C469.418 131.894 456.002 140.429 442.489 137.424C428.976 134.418 420.441 121.002 423.447 107.489C426.452 93.9756 439.869 85.4412 453.382 88.4466ZM442.961 135.299C455.294 138.042 467.556 130.242 470.299 117.909C473.042 105.576 465.242 93.3138 452.909 90.5709C440.576 87.8279 428.314 95.6283 425.571 107.961C422.828 120.294 430.628 132.556 442.961 135.299Z" fill="url(#paint15_linear)"/>
<path d="M436.37 104.79L443.806 106.443L445.459 99.0081C445.59 98.418 446.167 98.0509 446.758 98.1822L455.255 100.072C455.845 100.203 456.212 100.78 456.081 101.37L454.427 108.805L461.862 110.459C462.452 110.59 462.819 111.167 462.688 111.757L460.798 120.255C460.667 120.845 460.09 121.212 459.5 121.081L452.065 119.427L450.411 126.862C450.28 127.452 449.703 127.819 449.113 127.688L440.615 125.798C440.025 125.667 439.658 125.09 439.79 124.5L441.443 117.065L434.008 115.411C433.418 115.28 433.051 114.703 433.182 114.113L435.072 105.615C435.262 105.038 435.839 104.671 436.37 104.79ZM435.484 113.51L442.978 115.177C443.568 115.308 443.935 115.885 443.804 116.475L442.15 123.91L448.523 125.327L450.177 117.892C450.308 117.302 450.885 116.935 451.475 117.066L458.91 118.72L460.327 112.347L452.892 110.694C452.302 110.562 451.935 109.985 452.067 109.395L453.72 101.96L447.288 100.53L445.635 107.965C445.503 108.555 444.926 108.922 444.336 108.791L436.901 107.137L435.484 113.51Z" fill="url(#paint16_linear)"/>
<path fill-rule="evenodd" clip-rule="evenodd" d="M442.961 135.299C455.294 138.042 467.556 130.242 470.299 117.909C473.042 105.576 465.242 93.3138 452.909 90.5709C440.576 87.8279 428.314 95.6283 425.571 107.961C422.828 120.294 430.628 132.556 442.961 135.299ZM443.806 106.443L436.37 104.79C435.839 104.671 435.262 105.038 435.072 105.615L433.182 114.113C433.051 114.703 433.418 115.28 434.008 115.411L441.443 117.065L439.79 124.5C439.658 125.09 440.025 125.667 440.615 125.798L449.113 127.688C449.703 127.819 450.28 127.452 450.411 126.862L452.065 119.427L459.5 121.081C460.09 121.212 460.667 120.845 460.798 120.255L462.688 111.757C462.819 111.167 462.452 110.59 461.862 110.459L454.427 108.805L456.081 101.37C456.212 100.78 455.845 100.203 455.255 100.072L446.758 98.1822C446.167 98.0509 445.59 98.418 445.459 99.0081L443.806 106.443Z" fill="url(#paint17_linear)"/>
<path d="M387.472 160.877C395.458 158.737 403.683 163.485 405.822 171.471C407.962 179.457 403.214 187.681 395.228 189.821C387.242 191.961 379.018 187.213 376.878 179.227C374.738 171.241 379.487 163.017 387.472 160.877ZM394.892 188.566C402.18 186.613 406.52 179.096 404.567 171.808C402.614 164.519 395.097 160.179 387.809 162.132C380.52 164.085 376.181 171.602 378.133 178.89C380.086 186.179 387.603 190.519 394.892 188.566Z" fill="url(#paint18_linear)"/>
<path d="M382.977 174.229L387.371 173.051L386.193 168.657C386.1 168.309 386.304 167.955 386.653 167.862L391.675 166.516C392.023 166.423 392.377 166.627 392.47 166.976L393.648 171.37L398.042 170.192C398.39 170.099 398.744 170.303 398.838 170.652L400.183 175.673C400.277 176.022 400.072 176.376 399.724 176.469L395.33 177.647L396.507 182.041C396.601 182.389 396.396 182.743 396.048 182.836L391.026 184.182C390.677 184.275 390.323 184.071 390.23 183.723L389.053 179.329L384.659 180.506C384.31 180.599 383.956 180.395 383.863 180.046L382.517 175.025C382.459 174.667 382.663 174.313 382.977 174.229ZM384.915 179.092L389.344 177.905C389.693 177.811 390.046 178.016 390.14 178.364L391.317 182.758L395.083 181.749L393.906 177.355C393.813 177.007 394.017 176.653 394.366 176.559L398.76 175.382L397.75 171.616L393.356 172.793C393.008 172.887 392.654 172.682 392.561 172.334L391.383 167.94L387.582 168.958L388.759 173.352C388.853 173.701 388.649 174.055 388.3 174.148L383.906 175.325L384.915 179.092Z" fill="url(#paint19_linear)"/>
<path fill-rule="evenodd" clip-rule="evenodd" d="M394.892 188.566C402.18 186.613 406.52 179.096 404.567 171.808C402.614 164.519 395.097 160.179 387.809 162.132C380.52 164.085 376.181 171.602 378.133 178.89C380.086 186.179 387.603 190.519 394.892 188.566ZM387.371 173.051L382.977 174.229C382.663 174.313 382.459 174.667 382.517 175.025L383.863 180.046C383.956 180.395 384.31 180.599 384.659 180.506L389.053 179.329L390.23 183.723C390.323 184.071 390.677 184.275 391.026 184.182L396.048 182.836C396.396 182.743 396.601 182.389 396.507 182.041L395.33 177.647L399.724 176.469C400.072 176.376 400.277 176.022 400.183 175.673L398.838 170.652C398.744 170.303 398.39 170.099 398.042 170.192L393.648 171.37L392.47 166.976C392.377 166.627 392.023 166.423 391.675 166.516L386.653 167.862C386.304 167.955 386.1 168.309 386.193 168.657L387.371 173.051Z" fill="url(#paint20_linear)"/>
<path d="M445.291 187.79C457.154 188.779 465.987 199.217 464.999 211.08C464.01 222.943 453.572 231.776 441.709 230.788C429.846 229.799 421.013 219.361 422.001 207.498C422.99 195.635 433.428 186.802 445.291 187.79ZM441.864 228.923C452.691 229.825 462.232 221.752 463.134 210.925C464.036 200.098 455.963 190.557 445.136 189.655C434.309 188.753 424.768 196.826 423.866 207.653C422.964 218.48 431.037 228.021 441.864 228.923Z" fill="url(#paint21_linear)"/>
<path d="M432.699 203.694L439.226 204.238L439.77 197.711C439.813 197.193 440.262 196.813 440.78 196.856L448.24 197.478C448.758 197.521 449.138 197.97 449.095 198.488L448.551 205.015L455.078 205.559C455.596 205.602 455.976 206.051 455.933 206.569L455.311 214.029C455.268 214.547 454.819 214.927 454.301 214.884L447.774 214.34L447.23 220.867C447.187 221.385 446.738 221.765 446.22 221.722L438.76 221.101C438.242 221.057 437.862 220.608 437.905 220.09L438.449 213.563L431.922 213.019C431.404 212.976 431.024 212.527 431.067 212.009L431.689 204.549C431.784 204.035 432.233 203.656 432.699 203.694ZM432.958 211.228L439.537 211.776C440.055 211.819 440.435 212.268 440.392 212.786L439.848 219.313L445.443 219.779L445.987 213.252C446.03 212.734 446.479 212.354 446.997 212.397L453.524 212.941L453.99 207.346L447.463 206.802C446.945 206.759 446.565 206.31 446.608 205.792L447.152 199.265L441.505 198.794L440.962 205.322C440.918 205.84 440.469 206.22 439.951 206.177L433.424 205.633L432.958 211.228Z" fill="url(#paint22_linear)"/>
<path fill-rule="evenodd" clip-rule="evenodd" d="M441.864 228.923C452.691 229.825 462.232 221.752 463.134 210.925C464.036 200.098 455.963 190.557 445.136 189.655C434.309 188.753 424.768 196.826 423.866 207.653C422.964 218.48 431.037 228.021 441.864 228.923ZM439.226 204.238L432.699 203.694C432.233 203.656 431.784 204.035 431.689 204.549L431.067 212.009C431.024 212.527 431.404 212.976 431.922 213.019L438.449 213.563L437.905 220.09C437.862 220.608 438.242 221.057 438.76 221.101L446.22 221.722C446.738 221.765 447.187 221.385 447.23 220.867L447.774 214.34L454.301 214.884C454.819 214.927 455.268 214.547 455.311 214.029L455.933 206.569C455.976 206.051 455.596 205.602 455.078 205.559L448.551 205.015L449.095 198.488C449.138 197.97 448.758 197.521 448.24 197.478L440.78 196.856C440.262 196.813 439.813 197.193 439.77 197.711L439.226 204.238Z" fill="url(#paint23_linear)"/>
<path d="M409.577 260.874C417.558 258.736 425.776 263.481 427.915 271.461C430.053 279.442 425.308 287.66 417.328 289.799C409.347 291.937 401.128 287.192 398.99 279.212C396.852 271.231 401.597 263.013 409.577 260.874ZM416.991 288.544C424.275 286.593 428.612 279.081 426.66 271.797C424.709 264.514 417.197 260.177 409.913 262.129C402.63 264.08 398.293 271.592 400.245 278.876C402.196 286.159 409.708 290.496 416.991 288.544Z" fill="url(#paint24_linear)"/>
<path d="M405.085 274.217L409.476 273.04L408.299 268.65C408.206 268.301 408.41 267.948 408.758 267.854L413.776 266.51C414.125 266.416 414.478 266.62 414.572 266.969L415.748 271.36L420.139 270.183C420.488 270.09 420.841 270.294 420.935 270.642L422.279 275.661C422.373 276.009 422.169 276.363 421.82 276.456L417.429 277.633L418.606 282.023C418.699 282.372 418.495 282.725 418.147 282.819L413.128 284.163C412.78 284.257 412.426 284.053 412.333 283.704L411.156 279.313L406.765 280.49C406.417 280.583 406.063 280.379 405.97 280.031L404.625 275.012C404.567 274.655 404.771 274.301 405.085 274.217ZM407.022 279.077L411.448 277.891C411.796 277.797 412.15 278.001 412.243 278.35L413.419 282.741L417.183 281.732L416.007 277.341C415.913 276.993 416.117 276.639 416.466 276.546L420.857 275.369L419.848 271.606L415.457 272.782C415.109 272.876 414.755 272.672 414.662 272.323L413.485 267.932L409.687 268.95L410.863 273.341C410.957 273.689 410.753 274.043 410.404 274.136L406.013 275.313L407.022 279.077Z" fill="url(#paint25_linear)"/>
<path fill-rule="evenodd" clip-rule="evenodd" d="M416.991 288.544C424.275 286.593 428.612 279.081 426.66 271.797C424.709 264.514 417.197 260.177 409.913 262.129C402.63 264.08 398.293 271.592 400.245 278.876C402.196 286.159 409.708 290.496 416.991 288.544ZM409.476 273.04L405.085 274.217C404.771 274.301 404.567 274.655 404.625 275.012L405.97 280.031C406.063 280.379 406.417 280.583 406.765 280.49L411.156 279.313L412.333 283.704C412.426 284.053 412.78 284.257 413.128 284.163L418.147 282.819C418.495 282.725 418.699 282.372 418.606 282.023L417.429 277.633L421.82 276.456C422.169 276.363 422.373 276.009 422.279 275.661L420.935 270.642C420.841 270.294 420.488 270.09 420.139 270.183L415.748 271.36L414.572 266.969C414.478 266.62 414.125 266.416 413.776 266.51L408.758 267.854C408.41 267.948 408.206 268.301 408.299 268.65L409.476 273.04Z" fill="url(#paint26_linear)"/>
<g filter="url(#filter0_f)">
<path d="M453.382 88.4466C466.895 91.452 475.429 104.869 472.424 118.382C469.418 131.894 456.002 140.429 442.489 137.424C428.976 134.418 420.441 121.002 423.447 107.489C426.452 93.9756 439.869 85.4412 453.382 88.4466ZM442.961 135.299C455.294 138.042 467.556 130.242 470.299 117.909C473.042 105.576 465.242 93.3138 452.909 90.5709C440.576 87.8279 428.314 95.6283 425.571 107.961C422.828 120.294 430.628 132.556 442.961 135.299Z" fill="url(#paint27_linear)"/>
<path d="M436.37 104.79L443.806 106.443L445.459 99.0081C445.59 98.418 446.167 98.0509 446.758 98.1822L455.255 100.072C455.845 100.203 456.212 100.78 456.081 101.37L454.427 108.805L461.862 110.459C462.452 110.59 462.819 111.167 462.688 111.757L460.798 120.255C460.667 120.845 460.09 121.212 459.5 121.081L452.065 119.427L450.411 126.862C450.28 127.452 449.703 127.819 449.113 127.688L440.615 125.798C440.025 125.667 439.658 125.09 439.79 124.5L441.443 117.065L434.008 115.411C433.418 115.28 433.051 114.703 433.182 114.113L435.072 105.615C435.262 105.038 435.839 104.671 436.37 104.79ZM435.484 113.51L442.978 115.177C443.568 115.308 443.935 115.885 443.804 116.475L442.15 123.91L448.523 125.327L450.177 117.892C450.308 117.302 450.885 116.935 451.475 117.066L458.91 118.72L460.327 112.347L452.892 110.694C452.302 110.562 451.935 109.985 452.067 109.395L453.72 101.96L447.288 100.53L445.635 107.965C445.503 108.555 444.926 108.922 444.336 108.791L436.901 107.137L435.484 113.51Z" fill="url(#paint28_linear)"/>
<path fill-rule="evenodd" clip-rule="evenodd" d="M442.961 135.299C455.294 138.042 467.556 130.242 470.299 117.909C473.042 105.576 465.242 93.3138 452.909 90.5709C440.576 87.8279 428.314 95.6283 425.571 107.961C422.828 120.294 430.628 132.556 442.961 135.299ZM443.806 106.443L436.37 104.79C435.839 104.671 435.262 105.038 435.072 105.615L433.182 114.113C433.051 114.703 433.418 115.28 434.008 115.411L441.443 117.065L439.79 124.5C439.658 125.09 440.025 125.667 440.615 125.798L449.113 127.688C449.703 127.819 450.28 127.452 450.411 126.862L452.065 119.427L459.5 121.081C460.09 121.212 460.667 120.845 460.798 120.255L462.688 111.757C462.819 111.167 462.452 110.59 461.862 110.459L454.427 108.805L456.081 101.37C456.212 100.78 455.845 100.203 455.255 100.072L446.758 98.1822C446.167 98.0509 445.59 98.418 445.459 99.0081L443.806 106.443Z" fill="url(#paint29_linear)"/>
<path d="M387.472 160.877C395.458 158.737 403.683 163.485 405.822 171.471C407.962 179.457 403.214 187.681 395.228 189.821C387.242 191.961 379.018 187.213 376.878 179.227C374.738 171.241 379.487 163.017 387.472 160.877ZM394.892 188.566C402.18 186.613 406.52 179.096 404.567 171.808C402.614 164.519 395.097 160.179 387.809 162.132C380.52 164.085 376.181 171.602 378.133 178.89C380.086 186.179 387.603 190.519 394.892 188.566Z" fill="url(#paint30_linear)"/>
<path d="M382.977 174.229L387.371 173.051L386.193 168.657C386.1 168.309 386.304 167.955 386.653 167.862L391.675 166.516C392.023 166.423 392.377 166.627 392.47 166.976L393.648 171.37L398.042 170.192C398.39 170.099 398.744 170.303 398.838 170.652L400.183 175.673C400.277 176.022 400.072 176.376 399.724 176.469L395.33 177.647L396.507 182.041C396.601 182.389 396.396 182.743 396.048 182.836L391.026 184.182C390.677 184.275 390.323 184.071 390.23 183.723L389.053 179.329L384.659 180.506C384.31 180.599 383.956 180.395 383.863 180.046L382.517 175.025C382.459 174.667 382.663 174.313 382.977 174.229ZM384.915 179.092L389.344 177.905C389.693 177.811 390.046 178.016 390.14 178.364L391.317 182.758L395.083 181.749L393.906 177.355C393.813 177.007 394.017 176.653 394.366 176.559L398.76 175.382L397.75 171.616L393.356 172.793C393.008 172.887 392.654 172.682 392.561 172.334L391.383 167.94L387.582 168.958L388.759 173.352C388.853 173.701 388.649 174.055 388.3 174.148L383.906 175.325L384.915 179.092Z" fill="url(#paint31_linear)"/>
<path fill-rule="evenodd" clip-rule="evenodd" d="M394.892 188.566C402.18 186.613 406.52 179.096 404.567 171.808C402.614 164.519 395.097 160.179 387.809 162.132C380.52 164.085 376.181 171.602 378.133 178.89C380.086 186.179 387.603 190.519 394.892 188.566ZM387.371 173.051L382.977 174.229C382.663 174.313 382.459 174.667 382.517 175.025L383.863 180.046C383.956 180.395 384.31 180.599 384.659 180.506L389.053 179.329L390.23 183.723C390.323 184.071 390.677 184.275 391.026 184.182L396.048 182.836C396.396 182.743 396.601 182.389 396.507 182.041L395.33 177.647L399.724 176.469C400.072 176.376 400.277 176.022 400.183 175.673L398.838 170.652C398.744 170.303 398.39 170.099 398.042 170.192L393.648 171.37L392.47 166.976C392.377 166.627 392.023 166.423 391.675 166.516L386.653 167.862C386.304 167.955 386.1 168.309 386.193 168.657L387.371 173.051Z" fill="url(#paint32_linear)"/>
<path d="M445.291 187.79C457.154 188.779 465.987 199.217 464.999 211.08C464.01 222.943 453.572 231.776 441.709 230.788C429.846 229.799 421.013 219.361 422.001 207.498C422.99 195.635 433.428 186.802 445.291 187.79ZM441.864 228.923C452.691 229.825 462.232 221.752 463.134 210.925C464.036 200.098 455.963 190.557 445.136 189.655C434.309 188.753 424.768 196.826 423.866 207.653C422.964 218.48 431.037 228.021 441.864 228.923Z" fill="url(#paint33_linear)"/>
<path d="M432.699 203.694L439.226 204.238L439.77 197.711C439.813 197.193 440.262 196.813 440.78 196.856L448.24 197.478C448.758 197.521 449.138 197.97 449.095 198.488L448.551 205.015L455.078 205.559C455.596 205.602 455.976 206.051 455.933 206.569L455.311 214.029C455.268 214.547 454.819 214.927 454.301 214.884L447.774 214.34L447.23 220.867C447.187 221.385 446.738 221.765 446.22 221.722L438.76 221.101C438.242 221.057 437.862 220.608 437.905 220.09L438.449 213.563L431.922 213.019C431.404 212.976 431.024 212.527 431.067 212.009L431.689 204.549C431.784 204.035 432.233 203.656 432.699 203.694ZM432.958 211.228L439.537 211.776C440.055 211.819 440.435 212.268 440.392 212.786L439.848 219.313L445.443 219.779L445.987 213.252C446.03 212.734 446.479 212.354 446.997 212.397L453.524 212.941L453.99 207.346L447.463 206.802C446.945 206.759 446.565 206.31 446.608 205.792L447.152 199.265L441.505 198.794L440.962 205.322C440.918 205.84 440.469 206.22 439.951 206.177L433.424 205.633L432.958 211.228Z" fill="url(#paint34_linear)"/>
<path fill-rule="evenodd" clip-rule="evenodd" d="M441.864 228.923C452.691 229.825 462.232 221.752 463.134 210.925C464.036 200.098 455.963 190.557 445.136 189.655C434.309 188.753 424.768 196.826 423.866 207.653C422.964 218.48 431.037 228.021 441.864 228.923ZM439.226 204.238L432.699 203.694C432.233 203.656 431.784 204.035 431.689 204.549L431.067 212.009C431.024 212.527 431.404 212.976 431.922 213.019L438.449 213.563L437.905 220.09C437.862 220.608 438.242 221.057 438.76 221.101L446.22 221.722C446.738 221.765 447.187 221.385 447.23 220.867L447.774 214.34L454.301 214.884C454.819 214.927 455.268 214.547 455.311 214.029L455.933 206.569C455.976 206.051 455.596 205.602 455.078 205.559L448.551 205.015L449.095 198.488C449.138 197.97 448.758 197.521 448.24 197.478L440.78 196.856C440.262 196.813 439.813 197.193 439.77 197.711L439.226 204.238Z" fill="url(#paint35_linear)"/>
<path d="M409.577 260.874C417.558 258.736 425.776 263.481 427.915 271.461C430.053 279.442 425.308 287.66 417.328 289.799C409.347 291.937 401.128 287.192 398.99 279.212C396.852 271.231 401.597 263.013 409.577 260.874ZM416.991 288.544C424.275 286.593 428.612 279.081 426.66 271.797C424.709 264.514 417.197 260.177 409.913 262.129C402.63 264.08 398.293 271.592 400.245 278.876C402.196 286.159 409.708 290.496 416.991 288.544Z" fill="url(#paint36_linear)"/>
<path d="M405.085 274.217L409.476 273.04L408.299 268.65C408.206 268.301 408.41 267.948 408.758 267.854L413.776 266.51C414.125 266.416 414.478 266.62 414.572 266.969L415.748 271.36L420.139 270.183C420.488 270.09 420.841 270.294 420.935 270.642L422.279 275.661C422.373 276.009 422.169 276.363 421.82 276.456L417.429 277.633L418.606 282.023C418.699 282.372 418.495 282.725 418.147 282.819L413.128 284.163C412.78 284.257 412.426 284.053 412.333 283.704L411.156 279.313L406.765 280.49C406.417 280.583 406.063 280.379 405.97 280.031L404.625 275.012C404.567 274.655 404.771 274.301 405.085 274.217ZM407.022 279.077L411.448 277.891C411.796 277.797 412.15 278.001 412.243 278.35L413.419 282.741L417.183 281.732L416.007 277.341C415.913 276.993 416.117 276.639 416.466 276.546L420.857 275.369L419.848 271.606L415.457 272.782C415.109 272.876 414.755 272.672 414.662 272.323L413.485 267.932L409.687 268.95L410.863 273.341C410.957 273.689 410.753 274.043 410.404 274.136L406.013 275.313L407.022 279.077Z" fill="url(#paint37_linear)"/>
<path fill-rule="evenodd" clip-rule="evenodd" d="M416.991 288.544C424.275 286.593 428.612 279.081 426.66 271.797C424.709 264.514 417.197 260.177 409.913 262.129C402.63 264.08 398.293 271.592 400.245 278.876C402.196 286.159 409.708 290.496 416.991 288.544ZM409.476 273.04L405.085 274.217C404.771 274.301 404.567 274.655 404.625 275.012L405.97 280.031C406.063 280.379 406.417 280.583 406.765 280.49L411.156 279.313L412.333 283.704C412.426 284.053 412.78 284.257 413.128 284.163L418.147 282.819C418.495 282.725 418.699 282.372 418.606 282.023L417.429 277.633L421.82 276.456C422.169 276.363 422.373 276.009 422.279 275.661L420.935 270.642C420.841 270.294 420.488 270.09 420.139 270.183L415.748 271.36L414.572 266.969C414.478 266.62 414.125 266.416 413.776 266.51L408.758 267.854C408.41 267.948 408.206 268.301 408.299 268.65L409.476 273.04Z" fill="url(#paint38_linear)"/>
</g>
<g filter="url(#filter1_f)">
<path d="M260.293 127.512C244.134 131.106 233.928 147.15 237.522 163.31C241.116 179.469 257.16 189.675 273.32 186.081C289.479 182.487 299.685 166.443 296.091 150.284C292.497 134.124 276.453 123.918 260.293 127.512ZM272.755 183.541C258.006 186.821 243.342 177.493 240.062 162.745C236.782 147.997 246.11 133.333 260.858 130.053C275.606 126.772 290.27 136.1 293.551 150.849C296.831 165.597 287.503 180.261 272.755 183.541Z" fill="url(#paint39_linear)"/>
<path d="M280.636 147.056L271.745 149.033L269.767 140.142C269.61 139.437 268.92 138.998 268.215 139.154L258.053 141.414C257.348 141.571 256.909 142.261 257.066 142.967L259.043 151.858L250.152 153.836C249.446 153.993 249.007 154.683 249.164 155.388L251.424 165.55C251.581 166.255 252.271 166.694 252.977 166.537L261.868 164.56L263.846 173.451C264.002 174.157 264.693 174.596 265.398 174.439L275.56 172.179C276.265 172.022 276.704 171.332 276.547 170.626L274.57 161.735L283.461 159.758C284.167 159.601 284.606 158.911 284.449 158.205L282.189 148.044C281.961 147.354 281.271 146.915 280.636 147.056ZM281.696 157.484L272.735 159.477C272.029 159.634 271.59 160.324 271.747 161.03L273.724 169.921L266.103 171.616L264.126 162.725C263.969 162.019 263.279 161.58 262.573 161.737L253.682 163.715L251.987 156.094L260.878 154.116C261.584 153.959 262.023 153.269 261.866 152.563L259.888 143.672L267.58 141.962L269.557 150.853C269.714 151.558 270.404 151.997 271.11 151.84L280.001 149.863L281.696 157.484Z" fill="url(#paint40_linear)"/>
<path fill-rule="evenodd" clip-rule="evenodd" d="M272.755 183.541C258.006 186.821 243.342 177.493 240.062 162.745C236.782 147.997 246.11 133.333 260.858 130.053C275.606 126.772 290.27 136.1 293.551 150.849C296.831 165.597 287.503 180.261 272.755 183.541ZM271.745 149.033L280.636 147.056C281.271 146.915 281.961 147.354 282.189 148.044L284.449 158.205C284.606 158.911 284.167 159.601 283.461 159.758L274.57 161.735L276.547 170.626C276.704 171.332 276.265 172.022 275.56 172.179L265.398 174.439C264.693 174.596 264.002 174.157 263.846 173.451L261.868 164.56L252.977 166.537C252.271 166.694 251.581 166.255 251.424 165.55L249.164 155.388C249.007 154.683 249.446 153.993 250.152 153.836L259.043 151.858L257.066 142.967C256.909 142.261 257.348 141.571 258.053 141.414L268.215 139.154C268.92 138.998 269.61 139.437 269.767 140.142L271.745 149.033Z" fill="url(#paint41_linear)"/>
<path d="M324.25 195.845C310.152 192.067 295.632 200.45 291.855 214.548C288.077 228.646 296.46 243.165 310.558 246.943C324.656 250.72 339.175 242.338 342.953 228.24C346.73 214.142 338.348 199.622 324.25 195.845ZM311.152 244.727C298.285 241.279 290.623 228.009 294.071 215.142C297.519 202.275 310.789 194.613 323.656 198.061C336.523 201.509 344.184 214.779 340.737 227.646C337.289 240.513 324.019 248.174 311.152 244.727Z" fill="url(#paint42_linear)"/>
<path d="M332.186 219.416L324.429 217.338L326.508 209.581C326.673 208.965 326.312 208.341 325.697 208.176L316.831 205.8C316.216 205.635 315.591 205.996 315.426 206.611L313.348 214.368L305.591 212.29C304.975 212.125 304.351 212.486 304.186 213.101L301.81 221.966C301.645 222.582 302.006 223.207 302.621 223.371L310.378 225.45L308.3 233.207C308.135 233.823 308.496 234.447 309.111 234.612L317.976 236.988C318.592 237.152 319.217 236.792 319.381 236.176L321.46 228.419L329.217 230.498C329.833 230.663 330.457 230.302 330.622 229.687L332.998 220.821C333.101 220.189 332.74 219.565 332.186 219.416ZM328.764 228.001L320.946 225.906C320.33 225.741 319.706 226.102 319.541 226.717L317.462 234.474L310.813 232.693L312.892 224.936C313.057 224.32 312.696 223.696 312.08 223.531L304.323 221.452L306.105 214.803L313.862 216.882C314.478 217.047 315.102 216.686 315.267 216.07L317.346 208.313L324.056 210.111L321.978 217.869C321.813 218.484 322.173 219.109 322.789 219.274L330.546 221.352L328.764 228.001Z" fill="url(#paint43_linear)"/>
<path fill-rule="evenodd" clip-rule="evenodd" d="M311.152 244.727C298.285 241.279 290.623 228.009 294.071 215.142C297.519 202.275 310.789 194.613 323.656 198.061C336.523 201.509 344.184 214.779 340.737 227.646C337.289 240.513 324.019 248.174 311.152 244.727ZM324.429 217.338L332.186 219.416C332.74 219.565 333.101 220.189 332.998 220.821L330.622 229.687C330.457 230.302 329.833 230.663 329.217 230.498L321.46 228.419L319.381 236.176C319.217 236.792 318.592 237.152 317.976 236.988L309.111 234.612C308.496 234.447 308.135 233.823 308.3 233.207L310.378 225.45L302.621 223.371C302.006 223.207 301.645 222.582 301.81 221.966L304.186 213.101C304.351 212.486 304.975 212.125 305.591 212.29L313.348 214.368L315.426 206.611C315.591 205.996 316.216 205.635 316.831 205.8L325.697 208.176C326.312 208.341 326.673 208.965 326.508 209.581L324.429 217.338Z" fill="url(#paint44_linear)"/>
<path d="M257.508 265.79C245.644 266.779 236.812 277.217 237.8 289.08C238.788 300.943 249.227 309.776 261.09 308.788C272.953 307.799 281.786 297.361 280.798 285.498C279.809 273.635 269.371 264.802 257.508 265.79ZM260.935 306.923C250.108 307.825 240.567 299.752 239.665 288.925C238.763 278.098 246.836 268.557 257.663 267.655C268.49 266.753 278.031 274.826 278.933 285.653C279.835 296.48 271.762 306.021 260.935 306.923Z" fill="url(#paint45_linear)"/>
<path d="M270.1 281.694L263.573 282.238L263.029 275.711C262.986 275.193 262.537 274.813 262.019 274.856L254.559 275.478C254.041 275.521 253.661 275.97 253.704 276.488L254.248 283.015L247.721 283.559C247.203 283.602 246.823 284.051 246.866 284.569L247.487 292.029C247.531 292.547 247.979 292.927 248.498 292.884L255.025 292.34L255.569 298.867C255.612 299.385 256.061 299.765 256.579 299.722L264.039 299.101C264.557 299.057 264.937 298.608 264.893 298.09L264.35 291.563L270.877 291.019C271.395 290.976 271.775 290.527 271.732 290.009L271.11 282.549C271.015 282.035 270.566 281.656 270.1 281.694ZM269.841 289.228L263.262 289.776C262.744 289.819 262.364 290.268 262.407 290.786L262.951 297.313L257.356 297.779L256.812 291.252C256.769 290.734 256.32 290.354 255.802 290.397L249.275 290.941L248.808 285.346L255.336 284.802C255.854 284.759 256.234 284.31 256.191 283.792L255.647 277.265L261.293 276.794L261.837 283.322C261.88 283.84 262.329 284.22 262.847 284.177L269.375 283.633L269.841 289.228Z" fill="url(#paint46_linear)"/>
<path fill-rule="evenodd" clip-rule="evenodd" d="M260.935 306.923C250.108 307.825 240.567 299.752 239.665 288.925C238.763 278.098 246.836 268.557 257.663 267.655C268.49 266.753 278.031 274.826 278.933 285.653C279.835 296.48 271.762 306.021 260.935 306.923ZM263.573 282.238L270.1 281.694C270.566 281.656 271.015 282.035 271.11 282.549L271.732 290.009C271.775 290.527 271.395 290.976 270.877 291.019L264.35 291.563L264.893 298.09C264.937 298.608 264.557 299.057 264.039 299.101L256.579 299.722C256.061 299.765 255.612 299.385 255.569 298.867L255.025 292.34L248.498 292.884C247.979 292.927 247.531 292.547 247.487 292.029L246.866 284.569C246.823 284.051 247.203 283.602 247.721 283.559L254.248 283.015L253.704 276.488C253.661 275.97 254.041 275.521 254.559 275.478L262.019 274.856C262.537 274.813 262.986 275.193 263.029 275.711L263.573 282.238Z" fill="url(#paint47_linear)"/>
<path d="M293.222 338.874C285.241 336.736 277.022 341.481 274.884 349.461C272.746 357.442 277.491 365.66 285.471 367.799C293.452 369.937 301.67 365.192 303.809 357.212C305.947 349.231 301.202 341.013 293.222 338.874ZM285.807 366.544C278.524 364.593 274.187 357.081 276.139 349.797C278.09 342.514 285.602 338.177 292.885 340.129C300.169 342.08 304.506 349.592 302.554 356.876C300.603 364.159 293.091 368.496 285.807 366.544Z" fill="url(#paint48_linear)"/>
<path d="M297.714 352.217L293.323 351.04L294.5 346.65C294.593 346.301 294.389 345.948 294.041 345.854L289.022 344.51C288.674 344.416 288.32 344.62 288.227 344.969L287.05 349.36L282.659 348.183C282.311 348.09 281.957 348.294 281.864 348.642L280.519 353.661C280.426 354.009 280.63 354.363 280.979 354.456L285.37 355.633L284.193 360.023C284.1 360.372 284.304 360.725 284.652 360.819L289.671 362.163C290.019 362.257 290.372 362.053 290.466 361.704L291.642 357.313L296.033 358.49C296.382 358.583 296.735 358.379 296.829 358.031L298.173 353.012C298.232 352.655 298.028 352.301 297.714 352.217ZM295.777 357.077L291.351 355.891C291.003 355.797 290.649 356.001 290.556 356.35L289.379 360.741L285.616 359.732L286.792 355.341C286.886 354.993 286.682 354.639 286.333 354.546L281.942 353.369L282.951 349.606L287.342 350.782C287.69 350.876 288.044 350.672 288.137 350.323L289.313 345.932L293.112 346.95L291.935 351.341C291.842 351.689 292.046 352.043 292.395 352.136L296.786 353.313L295.777 357.077Z" fill="url(#paint49_linear)"/>
<path fill-rule="evenodd" clip-rule="evenodd" d="M285.807 366.544C278.524 364.593 274.187 357.081 276.139 349.797C278.09 342.514 285.602 338.177 292.885 340.129C300.169 342.08 304.506 349.592 302.554 356.876C300.603 364.159 293.091 368.496 285.807 366.544ZM293.323 351.04L297.714 352.217C298.028 352.301 298.232 352.655 298.173 353.012L296.829 358.031C296.735 358.379 296.382 358.583 296.033 358.49L291.642 357.313L290.466 361.704C290.372 362.053 290.019 362.257 289.671 362.163L284.652 360.819C284.304 360.725 284.1 360.372 284.193 360.023L285.37 355.633L280.979 354.456C280.63 354.363 280.426 354.009 280.519 353.661L281.864 348.642C281.957 348.294 282.311 348.09 282.659 348.183L287.05 349.36L288.227 344.969C288.32 344.62 288.674 344.416 289.022 344.51L294.041 345.854C294.389 345.948 294.593 346.301 294.5 346.65L293.323 351.04Z" fill="url(#paint50_linear)"/>
</g>
<defs>
<filter id="filter0_f" x="329" y="39" width="192.87" height="298.674" filterUnits="userSpaceOnUse" color-interpolation-filters="sRGB">
<feFlood flood-opacity="0" result="BackgroundImageFix"/>
<feBlend mode="normal" in="SourceGraphic" in2="BackgroundImageFix" result="shape"/>
<feGaussianBlur stdDeviation="22" result="effect1_foregroundBlur"/>
</filter>
<filter id="filter1_f" x="177.009" y="66.999" width="226.79" height="358.675" filterUnits="userSpaceOnUse" color-interpolation-filters="sRGB">
<feFlood flood-opacity="0" result="BackgroundImageFix"/>
<feBlend mode="normal" in="SourceGraphic" in2="BackgroundImageFix" result="shape"/>
<feGaussianBlur stdDeviation="27" result="effect1_foregroundBlur"/>
</filter>
<linearGradient id="paint0_linear" x1="227.762" y1="146.872" x2="537.234" y2="887.551" gradientUnits="userSpaceOnUse">
<stop stop-color="#59BC06"/>
<stop offset="1" stop-color="#01FF71"/>
</linearGradient>
<linearGradient id="paint1_linear" x1="318.109" y1="260.499" x2="423.194" y2="262.38" gradientUnits="userSpaceOnUse">
<stop stop-color="#0D3899"/>
<stop offset="1" stop-color="#0C2169"/>
</linearGradient>
<linearGradient id="paint2_linear" x1="367.507" y1="343.483" x2="367.507" y2="484.87" gradientUnits="userSpaceOnUse">
<stop stop-color="#39ACF4"/>
<stop offset="0.317708" stop-color="#206AD3"/>
<stop offset="0.651042" stop-color="#206AD3"/>
<stop offset="1" stop-color="#3296E5"/>
</linearGradient>
<linearGradient id="paint3_linear" x1="237.181" y1="123.218" x2="340.78" y2="240.644" gradientUnits="userSpaceOnUse">
<stop stop-color="#04AA3D"/>
<stop offset="1" stop-color="#07D981"/>
</linearGradient>
<linearGradient id="paint4_linear" x1="237.181" y1="123.218" x2="340.78" y2="240.644" gradientUnits="userSpaceOnUse">
<stop stop-color="#04AA3D"/>
<stop offset="1" stop-color="#07D981"/>
</linearGradient>
<linearGradient id="paint5_linear" x1="237.181" y1="123.218" x2="340.78" y2="240.644" gradientUnits="userSpaceOnUse">
<stop stop-color="#04AA3D"/>
<stop offset="1" stop-color="#07D981"/>
</linearGradient>
<linearGradient id="paint6_linear" x1="307.931" y1="183.066" x2="341.054" y2="317.099" gradientUnits="userSpaceOnUse">
<stop stop-color="#04AA3D"/>
<stop offset="1" stop-color="#07D981"/>
</linearGradient>
<linearGradient id="paint7_linear" x1="307.931" y1="183.066" x2="341.054" y2="317.099" gradientUnits="userSpaceOnUse">
<stop stop-color="#04AA3D"/>
<stop offset="1" stop-color="#07D981"/>
</linearGradient>
<linearGradient id="paint8_linear" x1="307.931" y1="183.066" x2="341.054" y2="317.099" gradientUnits="userSpaceOnUse">
<stop stop-color="#04AA3D"/>
<stop offset="1" stop-color="#07D981"/>
</linearGradient>
<linearGradient id="paint9_linear" x1="241.458" y1="260.482" x2="303.846" y2="354.228" gradientUnits="userSpaceOnUse">
<stop stop-color="#04AA3D"/>
<stop offset="1" stop-color="#07D981"/>
</linearGradient>
<linearGradient id="paint10_linear" x1="241.458" y1="260.482" x2="303.846" y2="354.228" gradientUnits="userSpaceOnUse">
<stop stop-color="#04AA3D"/>
<stop offset="1" stop-color="#07D981"/>
</linearGradient>
<linearGradient id="paint11_linear" x1="241.458" y1="260.482" x2="303.846" y2="354.228" gradientUnits="userSpaceOnUse">
<stop stop-color="#04AA3D"/>
<stop offset="1" stop-color="#07D981"/>
</linearGradient>
<linearGradient id="paint12_linear" x1="283.984" y1="331.641" x2="302.734" y2="407.511" gradientUnits="userSpaceOnUse">
<stop stop-color="#04AA3D"/>
<stop offset="1" stop-color="#07D981"/>
</linearGradient>
<linearGradient id="paint13_linear" x1="283.984" y1="331.641" x2="302.734" y2="407.511" gradientUnits="userSpaceOnUse">
<stop stop-color="#04AA3D"/>
<stop offset="1" stop-color="#07D981"/>
</linearGradient>
<linearGradient id="paint14_linear" x1="283.984" y1="331.641" x2="302.734" y2="407.511" gradientUnits="userSpaceOnUse">
<stop stop-color="#04AA3D"/>
<stop offset="1" stop-color="#07D981"/>
</linearGradient>
<linearGradient id="paint15_linear" x1="472.709" y1="84.856" x2="386.077" y2="183.051" gradientUnits="userSpaceOnUse">
<stop stop-color="#04AA3D"/>
<stop offset="1" stop-color="#07D981"/>
</linearGradient>
<linearGradient id="paint16_linear" x1="472.709" y1="84.856" x2="386.077" y2="183.051" gradientUnits="userSpaceOnUse">
<stop stop-color="#04AA3D"/>
<stop offset="1" stop-color="#07D981"/>
</linearGradient>
<linearGradient id="paint17_linear" x1="472.709" y1="84.856" x2="386.077" y2="183.051" gradientUnits="userSpaceOnUse">
<stop stop-color="#04AA3D"/>
<stop offset="1" stop-color="#07D981"/>
</linearGradient>
<linearGradient id="paint18_linear" x1="396.716" y1="153.639" x2="377.953" y2="229.561" gradientUnits="userSpaceOnUse">
<stop stop-color="#04AA3D"/>
<stop offset="1" stop-color="#07D981"/>
</linearGradient>
<linearGradient id="paint19_linear" x1="396.716" y1="153.639" x2="377.953" y2="229.561" gradientUnits="userSpaceOnUse">
<stop stop-color="#04AA3D"/>
<stop offset="1" stop-color="#07D981"/>
</linearGradient>
<linearGradient id="paint20_linear" x1="396.716" y1="153.639" x2="377.953" y2="229.561" gradientUnits="userSpaceOnUse">
<stop stop-color="#04AA3D"/>
<stop offset="1" stop-color="#07D981"/>
</linearGradient>
<linearGradient id="paint21_linear" x1="461.341" y1="182.482" x2="398.953" y2="276.228" gradientUnits="userSpaceOnUse">
<stop stop-color="#04AA3D"/>
<stop offset="1" stop-color="#07D981"/>
</linearGradient>
<linearGradient id="paint22_linear" x1="461.341" y1="182.482" x2="398.953" y2="276.228" gradientUnits="userSpaceOnUse">
<stop stop-color="#04AA3D"/>
<stop offset="1" stop-color="#07D981"/>
</linearGradient>
<linearGradient id="paint23_linear" x1="461.341" y1="182.482" x2="398.953" y2="276.228" gradientUnits="userSpaceOnUse">
<stop stop-color="#04AA3D"/>
<stop offset="1" stop-color="#07D981"/>
</linearGradient>
<linearGradient id="paint24_linear" x1="418.814" y1="253.641" x2="400.065" y2="329.511" gradientUnits="userSpaceOnUse">
<stop stop-color="#04AA3D"/>
<stop offset="1" stop-color="#07D981"/>
</linearGradient>
<linearGradient id="paint25_linear" x1="418.814" y1="253.641" x2="400.065" y2="329.511" gradientUnits="userSpaceOnUse">
<stop stop-color="#04AA3D"/>
<stop offset="1" stop-color="#07D981"/>
</linearGradient>
<linearGradient id="paint26_linear" x1="418.814" y1="253.641" x2="400.065" y2="329.511" gradientUnits="userSpaceOnUse">
<stop stop-color="#04AA3D"/>
<stop offset="1" stop-color="#07D981"/>
</linearGradient>
<linearGradient id="paint27_linear" x1="472.709" y1="84.856" x2="386.077" y2="183.051" gradientUnits="userSpaceOnUse">
<stop stop-color="#04AA3D"/>
<stop offset="1" stop-color="#07D981"/>
</linearGradient>
<linearGradient id="paint28_linear" x1="472.709" y1="84.856" x2="386.077" y2="183.051" gradientUnits="userSpaceOnUse">
<stop stop-color="#04AA3D"/>
<stop offset="1" stop-color="#07D981"/>
</linearGradient>
<linearGradient id="paint29_linear" x1="472.709" y1="84.856" x2="386.077" y2="183.051" gradientUnits="userSpaceOnUse">
<stop stop-color="#04AA3D"/>
<stop offset="1" stop-color="#07D981"/>
</linearGradient>
<linearGradient id="paint30_linear" x1="396.716" y1="153.639" x2="377.953" y2="229.561" gradientUnits="userSpaceOnUse">
<stop stop-color="#04AA3D"/>
<stop offset="1" stop-color="#07D981"/>
</linearGradient>
<linearGradient id="paint31_linear" x1="396.716" y1="153.639" x2="377.953" y2="229.561" gradientUnits="userSpaceOnUse">
<stop stop-color="#04AA3D"/>
<stop offset="1" stop-color="#07D981"/>
</linearGradient>
<linearGradient id="paint32_linear" x1="396.716" y1="153.639" x2="377.953" y2="229.561" gradientUnits="userSpaceOnUse">
<stop stop-color="#04AA3D"/>
<stop offset="1" stop-color="#07D981"/>
</linearGradient>
<linearGradient id="paint33_linear" x1="461.341" y1="182.482" x2="398.953" y2="276.228" gradientUnits="userSpaceOnUse">
<stop stop-color="#04AA3D"/>
<stop offset="1" stop-color="#07D981"/>
</linearGradient>
<linearGradient id="paint34_linear" x1="461.341" y1="182.482" x2="398.953" y2="276.228" gradientUnits="userSpaceOnUse">
<stop stop-color="#04AA3D"/>
<stop offset="1" stop-color="#07D981"/>
</linearGradient>
<linearGradient id="paint35_linear" x1="461.341" y1="182.482" x2="398.953" y2="276.228" gradientUnits="userSpaceOnUse">
<stop stop-color="#04AA3D"/>
<stop offset="1" stop-color="#07D981"/>
</linearGradient>
<linearGradient id="paint36_linear" x1="418.814" y1="253.641" x2="400.065" y2="329.511" gradientUnits="userSpaceOnUse">
<stop stop-color="#04AA3D"/>
<stop offset="1" stop-color="#07D981"/>
</linearGradient>
<linearGradient id="paint37_linear" x1="418.814" y1="253.641" x2="400.065" y2="329.511" gradientUnits="userSpaceOnUse">
<stop stop-color="#04AA3D"/>
<stop offset="1" stop-color="#07D981"/>
</linearGradient>
<linearGradient id="paint38_linear" x1="418.814" y1="253.641" x2="400.065" y2="329.511" gradientUnits="userSpaceOnUse">
<stop stop-color="#04AA3D"/>
<stop offset="1" stop-color="#07D981"/>
</linearGradient>
<linearGradient id="paint39_linear" x1="237.181" y1="123.218" x2="340.78" y2="240.644" gradientUnits="userSpaceOnUse">
<stop stop-color="#04AA3D"/>
<stop offset="1" stop-color="#07D981"/>
</linearGradient>
<linearGradient id="paint40_linear" x1="237.181" y1="123.218" x2="340.78" y2="240.644" gradientUnits="userSpaceOnUse">
<stop stop-color="#04AA3D"/>
<stop offset="1" stop-color="#07D981"/>
</linearGradient>
<linearGradient id="paint41_linear" x1="237.181" y1="123.218" x2="340.78" y2="240.644" gradientUnits="userSpaceOnUse">
<stop stop-color="#04AA3D"/>
<stop offset="1" stop-color="#07D981"/>
</linearGradient>
<linearGradient id="paint42_linear" x1="307.931" y1="183.066" x2="341.054" y2="317.099" gradientUnits="userSpaceOnUse">
<stop stop-color="#04AA3D"/>
<stop offset="1" stop-color="#07D981"/>
</linearGradient>
<linearGradient id="paint43_linear" x1="307.931" y1="183.066" x2="341.054" y2="317.099" gradientUnits="userSpaceOnUse">
<stop stop-color="#04AA3D"/>
<stop offset="1" stop-color="#07D981"/>
</linearGradient>
<linearGradient id="paint44_linear" x1="307.931" y1="183.066" x2="341.054" y2="317.099" gradientUnits="userSpaceOnUse">
<stop stop-color="#04AA3D"/>
<stop offset="1" stop-color="#07D981"/>
</linearGradient>
<linearGradient id="paint45_linear" x1="241.458" y1="260.482" x2="303.846" y2="354.228" gradientUnits="userSpaceOnUse">
<stop stop-color="#04AA3D"/>
<stop offset="1" stop-color="#07D981"/>
</linearGradient>
<linearGradient id="paint46_linear" x1="241.458" y1="260.482" x2="303.846" y2="354.228" gradientUnits="userSpaceOnUse">
<stop stop-color="#04AA3D"/>
<stop offset="1" stop-color="#07D981"/>
</linearGradient>
<linearGradient id="paint47_linear" x1="241.458" y1="260.482" x2="303.846" y2="354.228" gradientUnits="userSpaceOnUse">
<stop stop-color="#04AA3D"/>
<stop offset="1" stop-color="#07D981"/>
</linearGradient>
<linearGradient id="paint48_linear" x1="283.984" y1="331.641" x2="302.734" y2="407.511" gradientUnits="userSpaceOnUse">
<stop stop-color="#04AA3D"/>
<stop offset="1" stop-color="#07D981"/>
</linearGradient>
<linearGradient id="paint49_linear" x1="283.984" y1="331.641" x2="302.734" y2="407.511" gradientUnits="userSpaceOnUse">
<stop stop-color="#04AA3D"/>
<stop offset="1" stop-color="#07D981"/>
</linearGradient>
<linearGradient id="paint50_linear" x1="283.984" y1="331.641" x2="302.734" y2="407.511" gradientUnits="userSpaceOnUse">
<stop stop-color="#04AA3D"/>
<stop offset="1" stop-color="#07D981"/>
</linearGradient>
</defs>
</svg>
