<svg width="885" height="883" viewBox="0 0 885 883" fill="none" xmlns="http://www.w3.org/2000/svg">
<path opacity="0.1" d="M758.774 448.67C797.393 628.089 614.772 727.62 448.514 759.052C282.256 790.483 161.163 629.398 138.254 448.67C115.345 267.941 270.475 115.369 448.514 138.288C626.553 161.206 720.155 269.25 758.774 448.67Z" fill="url(#paint0_linear)"/>
<path opacity="0.1" d="M649.765 658.776C542.92 811.859 347.189 752.932 212.758 657.771C78.3281 562.61 116.459 364.245 234.779 221.319C353.099 78.392 569.665 80.7318 671.786 222.323C773.906 363.915 756.61 505.693 649.765 658.776Z" fill="url(#paint1_linear)"/>
<path opacity="0.4" d="M591.679 597.89C514.799 708.04 373.962 665.639 277.233 597.167C180.504 528.694 207.942 385.962 293.078 283.119C378.215 180.277 534.044 181.961 607.524 283.842C681.004 385.724 668.559 487.74 591.679 597.89Z" fill="url(#paint2_radial)"/>
<path d="M374.6 514.083L386.3 518.183C386.3 518.183 378.2 505.683 388.5 502.483C398.8 499.283 416.4 512.683 397 521.983L408.1 525.883" stroke="#634DAE" stroke-width="5" stroke-miterlimit="10" stroke-linecap="round" stroke-linejoin="round"/>
<path d="M369 523.883L406.1 536.983" stroke="#634DAE" stroke-width="5" stroke-miterlimit="10" stroke-linecap="round" stroke-linejoin="round"/>
<path d="M587.55 365.3C583.75 369 577.55 368.9 573.85 365C570.05 361.1 570.05 355 573.85 351.3C577.65 347.6 583.85 347.7 587.55 351.6C591.35 355.5 591.35 361.6 587.55 365.3Z" stroke="#634DAE" stroke-width="5" stroke-miterlimit="10" stroke-linecap="round" stroke-linejoin="round"/>
<path d="M585.55 333C585.55 333 589.45 337.5 586.45 342C583.45 346.5 586.75 353.9 593.15 354.4C599.55 354.9 601.45 349.8 606.45 354.3" stroke="#634DAE" stroke-width="5" stroke-miterlimit="10" stroke-linecap="round" stroke-linejoin="round"/>
<path d="M473.4 330.422C473.4 330.422 470.7 318.222 478.6 320.222C486.5 322.222 485.5 334.822 483 344.222L480 352.922" stroke="#634DAE" stroke-width="5" stroke-miterlimit="10" stroke-linecap="round" stroke-linejoin="round"/>
<path d="M495.873 339.438C495.873 339.438 511.472 331.622 499.448 328.496C487.261 325.369 475.887 335.628 469.875 344.421L465 352.922" stroke="#634DAE" stroke-width="5" stroke-miterlimit="10" stroke-linecap="round" stroke-linejoin="round"/>
<path d="M379 323.3C379 323.3 397.8 338.5 386.6 353" stroke="#634DAE" stroke-width="5" stroke-miterlimit="10" stroke-linecap="round" stroke-linejoin="round"/>
<path d="M399.9 318C399.9 318 390.6 340.4 407.5 347.7" stroke="#634DAE" stroke-width="5" stroke-miterlimit="10" stroke-linecap="round" stroke-linejoin="round"/>
<path d="M380.5 338.8L405.3 332.5" stroke="#634DAE" stroke-width="5" stroke-miterlimit="10" stroke-linecap="round" stroke-linejoin="round"/>
<path d="M681.5 372C681.5 372 680.2 384.5 688.6 403.3" stroke="#634DAE" stroke-width="5" stroke-miterlimit="10" stroke-linecap="round" stroke-linejoin="round"/>
<path d="M660.1 409.7C660.1 409.7 661.4 397.2 653 378.4" stroke="#634DAE" stroke-width="5" stroke-miterlimit="10" stroke-linecap="round" stroke-linejoin="round"/>
<path d="M681.8 381.6L656.6 387.3" stroke="#634DAE" stroke-width="5" stroke-miterlimit="10" stroke-linecap="round" stroke-linejoin="round"/>
<path d="M684.7 394.1L659.4 399.8" stroke="#634DAE" stroke-width="5" stroke-miterlimit="10" stroke-linecap="round" stroke-linejoin="round"/>
<path d="M662.3 467.15C661.4 470.45 658 472.45 654.6 471.55C651.3 470.65 649.3 467.25 650.2 463.85C651.1 460.55 654.5 458.55 657.9 459.45C661.3 460.45 663.2 463.85 662.3 467.15Z" stroke="#634DAE" stroke-width="5" stroke-miterlimit="10" stroke-linecap="round" stroke-linejoin="round"/>
<path d="M686.6 466.45C686.6 466.45 667.3 449.65 652.1 460.85" stroke="#634DAE" stroke-width="5" stroke-miterlimit="10" stroke-linecap="round" stroke-linejoin="round"/>
<path d="M671.3 475.25C672.2 471.95 675.6 469.95 679 470.85C682.3 471.75 684.3 475.15 683.4 478.55C682.5 481.85 679.1 483.85 675.7 482.95C672.4 481.95 670.4 478.55 671.3 475.25Z" stroke="#634DAE" stroke-width="5" stroke-miterlimit="10" stroke-linecap="round" stroke-linejoin="round"/>
<path d="M647 475.95C647 475.95 666.3 492.75 681.5 481.55" stroke="#634DAE" stroke-width="5" stroke-miterlimit="10" stroke-linecap="round" stroke-linejoin="round"/>
<path d="M575.706 511.786C578.806 514.286 579.306 518.786 576.806 521.786C574.306 524.886 569.806 525.386 566.806 522.886C563.706 520.386 563.206 515.886 565.706 512.886C568.206 509.886 572.706 509.386 575.706 511.786Z" stroke="#634DAE" stroke-width="5" stroke-miterlimit="10" stroke-linecap="round" stroke-linejoin="round"/>
<path d="M596.106 506.786C596.106 506.786 597.706 515.586 590.406 515.886C583.106 516.186 577.706 498.186 576.806 497.186C575.906 496.186 568.506 481.786 559.606 493.686C550.606 505.486 567.606 510.386 570.106 510.386" stroke="#634DAE" stroke-width="5" stroke-miterlimit="10" stroke-linecap="round" stroke-linejoin="round"/>
<path d="M468 511.82C468 511.82 472.8 511.12 475.2 518.92C477.5 526.72 481 538.62 481 538.62" stroke="#634DAE" stroke-width="5" stroke-miterlimit="10" stroke-linecap="round" stroke-linejoin="round"/>
<path d="M490.5 535.92C490.5 535.92 483.8 511.72 481.2 508.02C477.3 502.52 474.4 516.52 474.4 516.52" stroke="#634DAE" stroke-width="5" stroke-miterlimit="10" stroke-linecap="round" stroke-linejoin="round"/>
<path d="M483.7 513.72C483.7 513.72 485.2 504.52 488.3 505.02C491.4 505.52 497.3 541.32 504.1 541.82" stroke="#634DAE" stroke-width="5" stroke-miterlimit="10" stroke-linecap="round" stroke-linejoin="round"/>
<path d="M492.2 541.62C492.2 541.62 504.1 533.72 504.3 524.82C504.4 515.92 496.6 500.02 493.9 520.32" stroke="#634DAE" stroke-width="5" stroke-miterlimit="10" stroke-linecap="round" stroke-linejoin="round"/>
<path d="M287.9 483C287.9 483 290.5 486.9 284.7 492.1C278.9 497.3 270 505.1 270 505.1" stroke="#634DAE" stroke-width="5" stroke-miterlimit="10" stroke-linecap="round" stroke-linejoin="round"/>
<path d="M276.3 512.2C276.3 512.2 294.5 496.6 296.6 492.8C299.8 487.2 286.5 490.4 286.5 490.4" stroke="#634DAE" stroke-width="5" stroke-miterlimit="10" stroke-linecap="round" stroke-linejoin="round"/>
<path d="M292.7 497.3C292.7 497.3 301.3 494.8 302.1 497.7C302.9 500.6 275.8 517.3 280.4 523.3L284.3 527.9" stroke="#634DAE" stroke-width="5" stroke-miterlimit="10" stroke-linecap="round" stroke-linejoin="round"/>
<path d="M286.4 526L281.9 530L286.8 530.8L286.4 526Z" fill="white" stroke="#634DAE" stroke-width="5" stroke-miterlimit="10" stroke-linecap="round" stroke-linejoin="round"/>
<path d="M204 455.3L237.5 466.6" stroke="#634DAE" stroke-width="5" stroke-miterlimit="10" stroke-linecap="round" stroke-linejoin="round"/>
<path d="M220.9 450L214.3 469.9" stroke="#634DAE" stroke-width="5" stroke-miterlimit="10" stroke-linecap="round" stroke-linejoin="round"/>
<path d="M234.5 454.8L238.5 467L226.9 474.9" stroke="#634DAE" stroke-width="5" stroke-miterlimit="10" stroke-linecap="round" stroke-linejoin="round"/>
<path d="M204 398.673C204 398.673 207.6 389.073 226.1 397.373" stroke="#634DAE" stroke-width="5" stroke-miterlimit="10" stroke-linecap="round" stroke-linejoin="round"/>
<path d="M239.9 398.573C239.9 398.573 243.5 392.073 238.2 387.773C232.8 383.473 229.2 380.073 228.9 376.173C228.6 372.173 236 366.773 239.7 372.473C243.5 378.173 239.1 384.273 230.4 385.173C225.7 385.673 213.3 377.273 210.2 381.073C207 384.873 220.5 395.273 220.5 395.273" stroke="#634DAE" stroke-width="5" stroke-miterlimit="10" stroke-linecap="round" stroke-linejoin="round"/>
<path d="M292 360.8L295.6 348.1L301.3 350.5L303.8 340.9L310.3 344.7L312.8 333L317.5 336.2" stroke="#634DAE" stroke-width="5" stroke-miterlimit="10" stroke-linecap="round" stroke-linejoin="round"/>
<path d="M302.2 372.4L305.9 359.7L311.6 362.1L314.1 352.5L320.5 356.3L323 344.7L327.8 347.9" stroke="#634DAE" stroke-width="5" stroke-miterlimit="10" stroke-linecap="round" stroke-linejoin="round"/>
<g filter="url(#filter0_f)">
<path d="M374.6 514.083L386.3 518.183C386.3 518.183 378.2 505.683 388.5 502.483C398.8 499.283 416.4 512.683 397 521.983L408.1 525.883M369 523.883L406.1 536.983M585.55 333C585.55 333 589.45 337.5 586.45 342C583.45 346.5 586.75 353.9 593.15 354.4C599.55 354.9 601.45 349.8 606.45 354.3M473.4 330.422C473.4 330.422 470.7 318.222 478.6 320.222C486.5 322.222 485.5 334.822 483 344.222L480 352.922M495.873 339.438C495.873 339.438 511.472 331.622 499.448 328.496C487.261 325.369 475.887 335.628 469.875 344.421L465 352.922M379 323.3C379 323.3 397.8 338.5 386.6 353M399.9 318C399.9 318 390.6 340.4 407.5 347.7M380.5 338.8L405.3 332.5M681.5 372C681.5 372 680.2 384.5 688.6 403.3M660.1 409.7C660.1 409.7 661.4 397.2 653 378.4M681.8 381.6L656.6 387.3M684.7 394.1L659.4 399.8M686.6 466.45C686.6 466.45 667.3 449.65 652.1 460.85M647 475.95C647 475.95 666.3 492.75 681.5 481.55M596.106 506.786C596.106 506.786 597.706 515.586 590.406 515.886C583.106 516.186 577.706 498.186 576.806 497.186C575.906 496.186 568.506 481.786 559.606 493.686C550.606 505.486 567.606 510.386 570.106 510.386M468 511.82C468 511.82 472.8 511.12 475.2 518.92C477.5 526.72 481 538.62 481 538.62M490.5 535.92C490.5 535.92 483.8 511.72 481.2 508.02C477.3 502.52 474.4 516.52 474.4 516.52M483.7 513.72C483.7 513.72 485.2 504.52 488.3 505.02C491.4 505.52 497.3 541.32 504.1 541.82M492.2 541.62C492.2 541.62 504.1 533.72 504.3 524.82C504.4 515.92 496.6 500.02 493.9 520.32M287.9 483C287.9 483 290.5 486.9 284.7 492.1C278.9 497.3 270 505.1 270 505.1M276.3 512.2C276.3 512.2 294.5 496.6 296.6 492.8C299.8 487.2 286.5 490.4 286.5 490.4M292.7 497.3C292.7 497.3 301.3 494.8 302.1 497.7C302.9 500.6 275.8 517.3 280.4 523.3L284.3 527.9M204 455.3L237.5 466.6M220.9 450L214.3 469.9M234.5 454.8L238.5 467L226.9 474.9M204 398.673C204 398.673 207.6 389.073 226.1 397.373M239.9 398.573C239.9 398.573 243.5 392.073 238.2 387.773C232.8 383.473 229.2 380.073 228.9 376.173C228.6 372.173 236 366.773 239.7 372.473C243.5 378.173 239.1 384.273 230.4 385.173C225.7 385.673 213.3 377.273 210.2 381.073C207 384.873 220.5 395.273 220.5 395.273M292 360.8L295.6 348.1L301.3 350.5L303.8 340.9L310.3 344.7L312.8 333L317.5 336.2M302.2 372.4L305.9 359.7L311.6 362.1L314.1 352.5L320.5 356.3L323 344.7L327.8 347.9M587.55 365.3C583.75 369 577.55 368.9 573.85 365C570.05 361.1 570.05 355 573.85 351.3C577.65 347.6 583.85 347.7 587.55 351.6C591.35 355.5 591.35 361.6 587.55 365.3ZM662.3 467.15C661.4 470.45 658 472.45 654.6 471.55C651.3 470.65 649.3 467.25 650.2 463.85C651.1 460.55 654.5 458.55 657.9 459.45C661.3 460.45 663.2 463.85 662.3 467.15ZM671.3 475.25C672.2 471.95 675.6 469.95 679 470.85C682.3 471.75 684.3 475.15 683.4 478.55C682.5 481.85 679.1 483.85 675.7 482.95C672.4 481.95 670.4 478.55 671.3 475.25ZM575.706 511.786C578.806 514.286 579.306 518.786 576.806 521.786C574.306 524.886 569.806 525.386 566.806 522.886C563.706 520.386 563.206 515.886 565.706 512.886C568.206 509.886 572.706 509.386 575.706 511.786ZM286.4 526L281.9 530L286.8 530.8L286.4 526Z" stroke="#634DAE" stroke-width="5" stroke-miterlimit="10" stroke-linecap="round" stroke-linejoin="round"/>
</g>
<path d="M374.6 514.083L386.3 518.183C386.3 518.183 378.2 505.683 388.5 502.483C398.8 499.283 416.4 512.683 397 521.983L408.1 525.883M369 523.883L406.1 536.983M585.55 333C585.55 333 589.45 337.5 586.45 342C583.45 346.5 586.75 353.9 593.15 354.4C599.55 354.9 601.45 349.8 606.45 354.3M473.4 330.422C473.4 330.422 470.7 318.222 478.6 320.222C486.5 322.222 485.5 334.822 483 344.222L480 352.922M495.873 339.438C495.873 339.438 511.472 331.622 499.448 328.496C487.261 325.369 475.887 335.628 469.875 344.421L465 352.922M379 323.3C379 323.3 397.8 338.5 386.6 353M399.9 318C399.9 318 390.6 340.4 407.5 347.7M380.5 338.8L405.3 332.5M681.5 372C681.5 372 680.2 384.5 688.6 403.3M660.1 409.7C660.1 409.7 661.4 397.2 653 378.4M681.8 381.6L656.6 387.3M684.7 394.1L659.4 399.8M686.6 466.45C686.6 466.45 667.3 449.65 652.1 460.85M647 475.95C647 475.95 666.3 492.75 681.5 481.55M596.106 506.786C596.106 506.786 597.706 515.586 590.406 515.886C583.106 516.186 577.706 498.186 576.806 497.186C575.906 496.186 568.506 481.786 559.606 493.686C550.606 505.486 567.606 510.386 570.106 510.386M468 511.82C468 511.82 472.8 511.12 475.2 518.92C477.5 526.72 481 538.62 481 538.62M490.5 535.92C490.5 535.92 483.8 511.72 481.2 508.02C477.3 502.52 474.4 516.52 474.4 516.52M483.7 513.72C483.7 513.72 485.2 504.52 488.3 505.02C491.4 505.52 497.3 541.32 504.1 541.82M492.2 541.62C492.2 541.62 504.1 533.72 504.3 524.82C504.4 515.92 496.6 500.02 493.9 520.32M287.9 483C287.9 483 290.5 486.9 284.7 492.1C278.9 497.3 270 505.1 270 505.1M276.3 512.2C276.3 512.2 294.5 496.6 296.6 492.8C299.8 487.2 286.5 490.4 286.5 490.4M292.7 497.3C292.7 497.3 301.3 494.8 302.1 497.7C302.9 500.6 275.8 517.3 280.4 523.3L284.3 527.9M204 455.3L237.5 466.6M220.9 450L214.3 469.9M234.5 454.8L238.5 467L226.9 474.9M204 398.673C204 398.673 207.6 389.073 226.1 397.373M239.9 398.573C239.9 398.573 243.5 392.073 238.2 387.773C232.8 383.473 229.2 380.073 228.9 376.173C228.6 372.173 236 366.773 239.7 372.473C243.5 378.173 239.1 384.273 230.4 385.173C225.7 385.673 213.3 377.273 210.2 381.073C207 384.873 220.5 395.273 220.5 395.273M292 360.8L295.6 348.1L301.3 350.5L303.8 340.9L310.3 344.7L312.8 333L317.5 336.2M302.2 372.4L305.9 359.7L311.6 362.1L314.1 352.5L320.5 356.3L323 344.7L327.8 347.9M587.55 365.3C583.75 369 577.55 368.9 573.85 365C570.05 361.1 570.05 355 573.85 351.3C577.65 347.6 583.85 347.7 587.55 351.6C591.35 355.5 591.35 361.6 587.55 365.3ZM662.3 467.15C661.4 470.45 658 472.45 654.6 471.55C651.3 470.65 649.3 467.25 650.2 463.85C651.1 460.55 654.5 458.55 657.9 459.45C661.3 460.45 663.2 463.85 662.3 467.15ZM671.3 475.25C672.2 471.95 675.6 469.95 679 470.85C682.3 471.75 684.3 475.15 683.4 478.55C682.5 481.85 679.1 483.85 675.7 482.95C672.4 481.95 670.4 478.55 671.3 475.25ZM575.706 511.786C578.806 514.286 579.306 518.786 576.806 521.786C574.306 524.886 569.806 525.386 566.806 522.886C563.706 520.386 563.206 515.886 565.706 512.886C568.206 509.886 572.706 509.386 575.706 511.786ZM286.4 526L281.9 530L286.8 530.8L286.4 526Z" stroke="#66FEFF" stroke-miterlimit="10" stroke-linecap="round" stroke-linejoin="round"/>
<ellipse opacity="0.2" cx="449" cy="462" rx="257" ry="90" stroke="white" stroke-width="2"/>
<ellipse opacity="0.2" cx="449" cy="431" rx="257" ry="90" transform="rotate(-45 449 431)" stroke="white" stroke-dasharray="15 15"/>
<ellipse opacity="0.2" cx="449" cy="431" rx="257" ry="90" transform="rotate(45 449 431)" stroke="white" stroke-dasharray="15 15"/>
<ellipse opacity="0.2" cx="449" cy="430.5" rx="115" ry="40.5" stroke="white"/>
<circle cx="449.925" cy="428" r="25.075" fill="url(#paint3_radial)"/>
<g filter="url(#filter1_f)">
<circle cx="449.925" cy="428" r="25.075" fill="url(#paint4_radial)"/>
</g>
<circle cx="572.493" cy="267.493" r="4" transform="rotate(31.1939 572.493 267.493)" fill="#EDEEC8"/>
<circle r="4" transform="matrix(0.955311 0.295601 0.295601 -0.955311 751.004 486.004)" fill="#EDEEC8"/>
<circle cx="291" cy="233" r="4" fill="#EDEEC8"/>
<circle r="4" transform="matrix(0.664089 0.747654 0.747654 -0.664089 604.87 206.396)" fill="#EDEEC8"/>
<circle cx="228.44" cy="612.493" r="4" transform="rotate(31.1939 228.44 612.493)" fill="#EDEEC8"/>
<circle cx="422.5" cy="201.5" r="1.5" fill="#EDEEC8"/>
<circle r="1.5" transform="matrix(0.664089 0.747654 0.747654 -0.664089 668.646 325.631)" fill="#EDEEC8"/>
<circle cx="369.06" cy="703.06" r="1.5" transform="rotate(31.1939 369.06 703.06)" fill="#EDEEC8"/>
<circle cx="404.5" cy="164.5" r="1.5" fill="#EDEEC8"/>
<circle r="1.5" transform="matrix(0.664089 0.747654 0.747654 -0.664089 741.118 530.118)" fill="#EDEEC8"/>
<circle cx="361.008" cy="612.683" r="1.5" transform="rotate(31.1939 361.008 612.683)" fill="#EDEEC8"/>
<circle cx="224.5" cy="274.5" r="1.5" fill="#206BD4"/>
<circle cx="153.5" cy="454.5" r="1.5" fill="#206BD4"/>
<circle cx="113.5" cy="490.5" r="1.5" fill="#206BD4"/>
<circle cx="69.5" cy="426.5" r="1.5" fill="#206BD4"/>
<circle cx="811.5" cy="452.5" r="1.5" fill="#206BD4"/>
<circle r="1.5" transform="matrix(0.664089 0.747654 0.747654 -0.664089 591.735 129.118)" fill="#206BD4"/>
<circle cx="150.06" cy="613.551" r="1.5" transform="rotate(31.1939 150.06 613.551)" fill="#206BD4"/>
<circle cx="259.5" cy="287.5" r="2.5" fill="#206BD4"/>
<circle cx="239.5" cy="185.5" r="2.5" fill="#206BD4"/>
<circle r="2.5" transform="matrix(0.664089 0.747654 0.747654 -0.664089 535.155 199.436)" fill="#206BD4"/>
<circle cx="124.5" cy="309.5" r="2.5" fill="#206BD4"/>
<circle cx="173.267" cy="642.799" r="2.5" transform="rotate(31.1939 173.267 642.799)" fill="#206BD4"/>
<circle cx="375.5" cy="228.5" r="1.5" fill="#206BD4"/>
<circle r="1.5" transform="matrix(0.664089 0.747654 0.747654 -0.664089 657.621 272.561)" fill="#206BD4"/>
<circle cx="255.5" cy="148.5" r="1.5" fill="#206BD4"/>
<circle r="1.5" transform="matrix(0.664089 0.747654 0.747654 -0.664089 518.118 235.97)" fill="#206BD4"/>
<circle cx="303.053" cy="652.41" r="1.5" transform="rotate(31.1939 303.053 652.41)" fill="#206BD4"/>
<circle cx="648.365" cy="605.365" r="4" transform="rotate(-63.4938 648.365 605.365)" fill="#EDEEC8"/>
<circle cx="528.19" cy="582.012" r="1.5" transform="rotate(-63.4938 528.19 582.012)" fill="#EDEEC8"/>
<circle cx="619.029" cy="635.137" r="1.5" transform="rotate(-63.4938 619.029 635.137)" fill="#206BD4"/>
<circle cx="703.063" cy="594.354" r="1.5" transform="rotate(-63.4938 703.063 594.354)" fill="#206BD4"/>
<circle cx="744.012" cy="454.012" r="1.5" transform="rotate(-63.4938 744.012 454.012)" fill="#206BD4"/>
<circle cx="497.012" cy="765.012" r="1.5" transform="rotate(-63.4938 497.012 765.012)" fill="#206BD4"/>
<circle cx="417.353" cy="649.353" r="2.5" transform="rotate(-63.4938 417.353 649.353)" fill="#206BD4"/>
<circle cx="526.353" cy="680.353" r="2.5" transform="rotate(-63.4938 526.353 680.353)" fill="#206BD4"/>
<circle cx="514" cy="595" r="11" fill="url(#paint5_linear)"/>
<g filter="url(#filter2_f)">
<circle cx="514" cy="595" r="11" fill="url(#paint6_linear)"/>
</g>
<circle cx="641" cy="281" r="8" fill="#1ADC2D"/>
<g filter="url(#filter3_f)">
<circle cx="641" cy="281" r="8" fill="#1ADC2D"/>
</g>
<circle cx="317" cy="445" r="6" fill="#CC1ADC"/>
<g filter="url(#filter4_f)">
<circle cx="317" cy="445" r="6" fill="#CC1ADC"/>
</g>
<circle cx="257" cy="288" r="8" fill="url(#paint7_linear)"/>
<g filter="url(#filter5_f)">
<circle cx="257" cy="288" r="8" fill="url(#paint8_linear)"/>
</g>
<defs>
<filter id="filter0_f" x="167.499" y="281.499" width="557.601" height="296.82" filterUnits="userSpaceOnUse" color-interpolation-filters="sRGB">
<feFlood flood-opacity="0" result="BackgroundImageFix"/>
<feBlend mode="normal" in="SourceGraphic" in2="BackgroundImageFix" result="shape"/>
<feGaussianBlur stdDeviation="17" result="effect1_foregroundBlur"/>
</filter>
<filter id="filter1_f" x="401.447" y="379.522" width="96.9567" height="96.9567" filterUnits="userSpaceOnUse" color-interpolation-filters="sRGB">
<feFlood flood-opacity="0" result="BackgroundImageFix"/>
<feBlend mode="normal" in="SourceGraphic" in2="BackgroundImageFix" result="shape"/>
<feGaussianBlur stdDeviation="11.7017" result="effect1_foregroundBlur"/>
</filter>
<filter id="filter2_f" x="488" y="569" width="52" height="52" filterUnits="userSpaceOnUse" color-interpolation-filters="sRGB">
<feFlood flood-opacity="0" result="BackgroundImageFix"/>
<feBlend mode="normal" in="SourceGraphic" in2="BackgroundImageFix" result="shape"/>
<feGaussianBlur stdDeviation="7.5" result="effect1_foregroundBlur"/>
</filter>
<filter id="filter3_f" x="618" y="258" width="46" height="46" filterUnits="userSpaceOnUse" color-interpolation-filters="sRGB">
<feFlood flood-opacity="0" result="BackgroundImageFix"/>
<feBlend mode="normal" in="SourceGraphic" in2="BackgroundImageFix" result="shape"/>
<feGaussianBlur stdDeviation="7.5" result="effect1_foregroundBlur"/>
</filter>
<filter id="filter4_f" x="296" y="424" width="42" height="42" filterUnits="userSpaceOnUse" color-interpolation-filters="sRGB">
<feFlood flood-opacity="0" result="BackgroundImageFix"/>
<feBlend mode="normal" in="SourceGraphic" in2="BackgroundImageFix" result="shape"/>
<feGaussianBlur stdDeviation="7.5" result="effect1_foregroundBlur"/>
</filter>
<filter id="filter5_f" x="229" y="260" width="56" height="56" filterUnits="userSpaceOnUse" color-interpolation-filters="sRGB">
<feFlood flood-opacity="0" result="BackgroundImageFix"/>
<feBlend mode="normal" in="SourceGraphic" in2="BackgroundImageFix" result="shape"/>
<feGaussianBlur stdDeviation="10" result="effect1_foregroundBlur"/>
</filter>
<linearGradient id="paint0_linear" x1="450" y1="136" x2="450" y2="763" gradientUnits="userSpaceOnUse">
<stop stop-color="#172463"/>
<stop offset="0.479167" stop-color="#644AAC"/>
<stop offset="1" stop-color="#5380DF"/>
</linearGradient>
<linearGradient id="paint1_linear" x1="674.471" y1="221.766" x2="210.833" y2="661.588" gradientUnits="userSpaceOnUse">
<stop stop-color="#172463"/>
<stop offset="0.479167" stop-color="#644AAC"/>
<stop offset="1" stop-color="#5380DF"/>
</linearGradient>
<radialGradient id="paint2_radial" cx="0" cy="0" r="1" gradientUnits="userSpaceOnUse" gradientTransform="translate(442.652 441.678) rotate(136.51) scale(229.918 219.55)">
<stop stop-color="#634DAE"/>
<stop offset="1" stop-color="#55439E" stop-opacity="0"/>
</radialGradient>
<radialGradient id="paint3_radial" cx="0" cy="0" r="1" gradientUnits="userSpaceOnUse" gradientTransform="translate(453.268 421.313) rotate(96.009) scale(31.9371)">
<stop stop-color="#FFF5C1"/>
<stop offset="1" stop-color="#FFE600"/>
</radialGradient>
<radialGradient id="paint4_radial" cx="0" cy="0" r="1" gradientUnits="userSpaceOnUse" gradientTransform="translate(453.268 421.313) rotate(96.009) scale(31.9371)">
<stop stop-color="#FFF5C1"/>
<stop offset="1" stop-color="#FFE600"/>
</radialGradient>
<linearGradient id="paint5_linear" x1="506.069" y1="580.623" x2="533.802" y2="630.899" gradientUnits="userSpaceOnUse">
<stop stop-color="#FF9085"/>
<stop offset="1" stop-color="#FB6FBB"/>
</linearGradient>
<linearGradient id="paint6_linear" x1="506.069" y1="580.623" x2="533.802" y2="630.899" gradientUnits="userSpaceOnUse">
<stop stop-color="#FF9085"/>
<stop offset="1" stop-color="#FB6FBB"/>
</linearGradient>
<linearGradient id="paint7_linear" x1="251.235" y1="277.548" x2="271.402" y2="314.109" gradientUnits="userSpaceOnUse">
<stop offset="0.00359712" stop-color="#E38DDD"/>
<stop offset="1" stop-color="#9571F6"/>
</linearGradient>
<linearGradient id="paint8_linear" x1="251.235" y1="277.548" x2="271.402" y2="314.109" gradientUnits="userSpaceOnUse">
<stop offset="0.00359712" stop-color="#E38DDD"/>
<stop offset="1" stop-color="#9571F6"/>
</linearGradient>
</defs>
</svg>
