<svg width="774" height="774" viewBox="0 0 774 774" fill="none" xmlns="http://www.w3.org/2000/svg">
<path opacity="0.1" d="M383.377 646.185C540.386 688.668 623.44 532.313 653.283 386.266C685.952 226.385 524.862 97.9026 383.377 116.36C241.892 134.817 139.516 237.193 113.471 386.266C87.4253 535.339 226.367 603.701 383.377 646.185Z" fill="url(#paint0_linear)"/>
<path opacity="0.1" d="M574.403 575.188C715.899 494.639 662.473 323.756 578.814 197.893C487.231 60.1088 281.161 81.8552 194.355 195.14C107.55 308.424 108.595 454.25 197.109 579.598C285.623 704.946 432.907 655.736 574.403 575.188Z" fill="url(#paint1_linear)"/>
<path opacity="0.1" d="M627.146 396.84C683.718 244.495 547.029 145.836 414.185 101.305C268.759 52.5556 131.62 200.282 133.506 343.298C135.393 486.314 219.7 598.794 355.773 639.843C491.846 680.892 570.575 549.186 627.146 396.84Z" fill="url(#paint2_linear)"/>
<circle cx="244.817" cy="527.122" r="4" transform="rotate(-148.806 244.817 527.122)" fill="#EDEEC8"/>
<circle r="4" transform="matrix(-0.955311 -0.295601 -0.295601 0.955311 66.3069 308.611)" fill="#EDEEC8"/>
<circle cx="526.311" cy="561.615" r="4" transform="rotate(-180 526.311 561.615)" fill="#EDEEC8"/>
<circle r="4" transform="matrix(-0.664089 -0.747654 -0.747654 0.664089 212.441 588.218)" fill="#EDEEC8"/>
<circle cx="588.871" cy="182.121" r="4" transform="rotate(-148.806 588.871 182.121)" fill="#EDEEC8"/>
<circle cx="394.811" cy="593.115" r="1.5" transform="rotate(-180 394.811 593.115)" fill="#EDEEC8"/>
<circle r="1.5" transform="matrix(-0.664089 -0.747654 -0.747654 0.664089 148.664 468.984)" fill="#EDEEC8"/>
<circle cx="448.251" cy="91.5547" r="1.5" transform="rotate(-148.806 448.251 91.5547)" fill="#EDEEC8"/>
<circle cx="412.811" cy="630.115" r="1.5" transform="rotate(-180 412.811 630.115)" fill="#EDEEC8"/>
<circle r="1.5" transform="matrix(-0.664089 -0.747654 -0.747654 0.664089 76.1929 264.497)" fill="#EDEEC8"/>
<circle cx="456.302" cy="181.932" r="1.5" transform="rotate(-148.806 456.302 181.932)" fill="#EDEEC8"/>
<circle cx="592.811" cy="520.115" r="1.5" transform="rotate(-180 592.811 520.115)" fill="#206BD4"/>
<circle cx="663.811" cy="340.115" r="1.5" transform="rotate(-180 663.811 340.115)" fill="#206BD4"/>
<circle cx="703.811" cy="304.115" r="1.5" transform="rotate(-180 703.811 304.115)" fill="#206BD4"/>
<circle cx="747.811" cy="368.115" r="1.5" transform="rotate(-180 747.811 368.115)" fill="#206BD4"/>
<circle cx="667.251" cy="181.064" r="1.5" transform="rotate(-148.806 667.251 181.064)" fill="#206BD4"/>
<circle cx="676.811" cy="449.092" r="2.5" transform="rotate(-180 676.811 449.092)" fill="#206BD4"/>
<circle cx="577.811" cy="609.115" r="2.5" transform="rotate(-180 577.811 609.115)" fill="#206BD4"/>
<circle r="2.5" transform="matrix(-0.664089 -0.747654 -0.747654 0.664089 282.155 595.179)" fill="#206BD4"/>
<circle cx="692.811" cy="485.115" r="2.5" transform="rotate(-180 692.811 485.115)" fill="#206BD4"/>
<circle cx="644.044" cy="151.816" r="2.5" transform="rotate(-148.806 644.044 151.816)" fill="#206BD4"/>
<circle cx="441.811" cy="566.115" r="1.5" transform="rotate(-180 441.811 566.115)" fill="#206BD4"/>
<circle r="1.5" transform="matrix(-0.664089 -0.747654 -0.747654 0.664089 159.69 522.053)" fill="#206BD4"/>
<circle cx="561.811" cy="646.115" r="1.5" transform="rotate(-180 561.811 646.115)" fill="#206BD4"/>
<circle r="1.5" transform="matrix(-0.664089 -0.747654 -0.747654 0.664089 299.193 558.644)" fill="#206BD4"/>
<circle cx="514.257" cy="142.205" r="1.5" transform="rotate(-148.806 514.257 142.205)" fill="#206BD4"/>
<circle cx="168.946" cy="189.25" r="4" transform="rotate(116.506 168.946 189.25)" fill="#EDEEC8"/>
<circle cx="289.121" cy="212.603" r="1.5" transform="rotate(116.506 289.121 212.603)" fill="#EDEEC8"/>
<circle cx="198.282" cy="159.478" r="1.5" transform="rotate(116.506 198.282 159.478)" fill="#206BD4"/>
<circle cx="114.248" cy="200.261" r="1.5" transform="rotate(116.506 114.248 200.261)" fill="#206BD4"/>
<circle cx="73.2988" cy="340.603" r="1.5" transform="rotate(116.506 73.2988 340.603)" fill="#206BD4"/>
<circle cx="320.299" cy="29.6031" r="1.5" transform="rotate(116.506 320.299 29.6031)" fill="#206BD4"/>
<circle cx="399.958" cy="145.262" r="2.5" transform="rotate(116.506 399.958 145.262)" fill="#206BD4"/>
<circle cx="290.958" cy="114.262" r="2.5" transform="rotate(116.506 290.958 114.262)" fill="#206BD4"/>
<path d="M366.063 443C446.972 443 512.563 377.41 512.563 296.5C512.563 215.59 446.972 150 366.063 150C285.153 150 219.563 215.59 219.563 296.5C219.563 377.41 285.153 443 366.063 443Z" fill="#52D1E8"/>
<path d="M364.5 443C445.41 443 511 377.41 511 296.5C511 215.59 445.41 150 364.5 150C283.59 150 218 215.59 218 296.5C218 377.41 283.59 443 364.5 443Z" fill="url(#paint3_linear)"/>
<path d="M364.5 437.771C442.522 437.771 505.771 374.522 505.771 296.5C505.771 218.479 442.522 155.229 364.5 155.229C286.478 155.229 223.229 218.479 223.229 296.5C223.229 374.522 286.478 437.771 364.5 437.771Z" fill="url(#paint4_linear)"/>
<path d="M361.114 416.955C360.209 418.547 289.348 406.899 263.671 345.657C245.805 303.087 253.883 246.354 294.409 213.538C325.7 188.213 369.126 182.984 404.942 197.833C449.943 216.504 482.458 266.684 472.301 314.903C466.804 340.998 448.552 367.781 419.322 380.301C383.573 395.619 340.265 385.764 314.672 356.753C297.108 336.825 277.934 296.601 299.622 261.924C318.51 231.722 360.142 218.867 393.143 235.108C422.674 249.639 441.613 285.64 431.071 316.864C422.674 341.719 394.819 365.853 368.288 358.714C346.164 352.764 327.779 325.847 334.935 307.696C343.081 287.047 380.975 286.193 381.377 287.416C381.713 288.455 355.667 291.958 353.254 304.428C350.924 316.461 370.55 337.227 387.914 333.205C403.601 329.568 410.171 307.377 406.886 292.008C402.378 271.008 378.327 257.416 357.176 259.963C332.321 262.946 317.773 287.483 315.326 307.059C311.722 335.803 333.309 360.842 356.522 370.496C380.74 380.569 407.154 374.083 424.535 360.691C452.943 338.803 455.004 300.154 448.083 275.014C437.809 237.756 402.16 209.951 362.405 208.962C331.097 208.191 301.197 224.147 284.588 249.522C255.911 293.349 280.984 343.663 284.588 350.903C308.89 399.659 361.919 415.53 361.114 416.955Z" fill="url(#paint5_linear)"/>
<path opacity="0.2" d="M365.656 378.457C336.393 324.791 421.317 247.058 391.97 193.442C379.551 170.749 351.142 160.609 321.913 156.302C261.777 174.554 218 230.415 218 296.5C218 377.418 283.599 443 364.5 443C395.406 443 424.065 433.413 447.697 417.089C394.182 411.441 374.07 393.91 365.656 378.457Z" fill="white"/>
<path d="M455.265 601.415C455.265 601.415 440.228 608.258 439.992 609.331C439.756 610.425 449.666 608.966 453.699 609.116C457.753 609.266 461.078 608.086 460.714 606.37C460.349 604.654 458.933 600.343 458.933 600.343L455.265 601.415Z" fill="#52D1E8"/>
<path d="M454.265 600.416C454.265 600.416 439.228 607.259 438.992 608.332C438.756 609.426 448.666 607.967 452.699 608.117C456.753 608.267 460.078 607.087 459.714 605.371C459.349 603.655 457.933 599.344 457.933 599.344L454.265 600.416Z" fill="#0F1B75"/>
<path d="M453.729 594.86L454.651 601.638C454.651 601.638 457.032 602.475 458.62 601.488L459.306 594.066L453.729 594.86Z" fill="black"/>
<path d="M525.516 596.032L527.275 598.842C527.768 599.636 527.918 600.58 527.682 601.459C527.082 603.797 525.859 608.345 525.323 609.525C524.593 611.133 514.876 612.099 514.876 612.099C514.876 612.099 514.018 610.876 516.035 609.396C518.051 607.916 519.359 607.68 520.067 605.513C520.775 603.347 521.247 597.191 521.247 597.191L525.516 596.032Z" fill="#52D1E8"/>
<path d="M524.516 595.031L526.275 597.841C526.768 598.635 526.918 599.579 526.682 600.458C526.082 602.796 524.859 607.344 524.323 608.524C523.593 610.132 513.876 611.098 513.876 611.098C513.876 611.098 513.018 609.875 515.035 608.395C517.051 606.915 518.359 606.679 519.067 604.512C519.775 602.346 520.247 596.19 520.247 596.19L524.516 595.031Z" fill="#0F1B75"/>
<path d="M517.244 587.889C517.888 588.404 520.998 597.885 520.998 597.885C520.998 597.885 522.006 599.172 523.937 597.263C525.867 595.354 524.816 596.405 524.816 596.405L524.452 587.074L517.244 587.889Z" fill="black"/>
<path d="M445.449 458.885C444.655 479.07 444.634 501.014 445.792 524.438C447.1 550.822 449.739 575.212 453.042 597.327C454.265 597.37 455.573 597.37 456.925 597.327C457.847 597.306 458.727 597.263 459.585 597.198C461.301 592.608 463.339 586.58 465.162 579.373C467.071 571.801 468.229 565.001 469.044 558.523C471.94 535.657 468.551 533.662 470.889 516.716C472.97 501.7 475.93 501.121 479.405 479.799C483.18 456.675 480.37 453.2 478.997 451.956C473.184 446.636 459.542 450.262 445.449 458.885Z" fill="#1C2A8D"/>
<path d="M479.976 452.977C474.442 447.893 461.764 450.961 448.379 458.726C463.781 475.35 465.454 486.14 463.609 493.154C461.528 501.069 455.179 503.343 455.2 511.988C455.222 522.627 464.832 525.437 464.617 536.678C464.489 544.121 460.263 544.035 459.276 553.237C458.096 564.113 463.609 567.845 461.829 575.889C461.056 579.343 458.868 583.869 452.626 588.524C453.077 591.827 453.527 595.088 454.021 598.305C455.243 598.348 456.552 598.348 457.903 598.305C458.826 598.284 459.705 598.241 460.563 598.177C462.279 593.586 464.317 587.558 466.14 580.372C468.049 572.8 469.208 566.001 470.023 559.522C472.919 536.656 469.529 534.661 471.868 517.715C473.948 502.7 476.908 502.121 480.383 480.799C484.159 457.696 481.349 454.221 479.976 452.977Z" fill="#52D1E8"/>
<path d="M478.976 451.977C473.442 446.893 460.764 449.961 447.379 457.726C462.781 474.35 464.454 485.14 462.609 492.154C460.528 500.069 454.179 502.343 454.2 510.988C454.222 521.627 463.832 524.437 463.617 535.678C463.489 543.121 459.263 543.035 458.276 552.237C457.096 563.113 462.609 566.845 460.829 574.889C460.056 578.343 457.868 582.869 451.626 587.524C452.077 590.827 452.527 594.088 453.021 597.305C454.243 597.348 455.552 597.348 456.903 597.305C457.826 597.284 458.705 597.241 459.563 597.177C461.279 592.586 463.317 586.558 465.14 579.372C467.049 571.8 468.208 565.001 469.023 558.522C471.919 535.656 468.529 533.661 470.868 516.715C472.948 501.7 475.908 501.121 479.383 479.799C483.159 456.696 480.349 453.221 478.976 451.977Z" fill="#0F1B75"/>
<path d="M456.973 458.541C470.229 477.932 484.516 502.064 497.3 530.958C506.953 552.795 513.967 573.302 519.115 591.556C519.802 591.878 521.454 592.522 523.556 592.243C526.409 591.857 528.125 590.033 528.575 589.519C530.677 576.412 530.441 565.322 529.733 557.321C529.283 552.194 528.468 543.657 525.207 533.125C521.539 521.327 519.03 520.662 514.268 508.178C509.312 495.222 510.514 491.983 505.773 475.766C503.821 469.095 500.561 459.184 495.177 447.322C482.456 451.076 469.715 454.809 456.973 458.541Z" fill="#52D1E8"/>
<path d="M454.973 458.541C468.229 477.932 482.516 502.064 495.3 530.958C504.953 552.795 511.967 573.302 517.115 591.556C517.802 591.878 519.454 592.522 521.556 592.243C524.409 591.857 526.125 590.033 526.575 589.519C528.677 576.412 528.441 565.322 527.733 557.321C527.283 552.194 526.468 543.657 523.207 533.125C519.539 521.327 517.03 520.662 512.268 508.178C507.312 495.222 508.514 491.983 503.773 475.766C501.821 469.095 498.561 459.184 493.177 447.322C480.456 451.076 467.715 454.809 454.973 458.541Z" fill="#1C2A8D"/>
<path d="M392.294 320.485C392.294 320.485 389.72 317.396 388.09 315.122C386.46 312.827 378.887 306.456 378.887 306.456C378.887 306.456 378.351 307.507 379.981 309.137C381.612 310.768 385.044 313.535 384.293 314.757C383.542 315.98 381.397 317.096 383.006 319.326C384.615 321.557 387.318 319.949 388.755 321.75C390.192 323.552 391.672 325.504 391.672 325.504L392.294 320.485Z" fill="url(#paint6_linear)"/>
<path d="M510.986 373.274C510.986 373.274 521.024 407.402 514.804 420.552C508.583 433.679 488.784 419.265 488.784 419.265L510.986 373.274Z" fill="#52D1E8"/>
<path d="M392.659 317.246C390.943 319.391 389.227 321.558 387.51 323.703C389.698 333.205 394.375 347.513 405.25 361.391C416.769 376.128 441.373 398.179 456.667 390.95C465.998 386.553 478.59 371.409 474.064 364.116C469.709 357.101 450.876 360.426 437.941 357.487C425.285 354.656 408.832 345.432 392.659 317.246Z" fill="url(#paint7_linear)"/>
<path d="M481.641 360.62C468.749 360.384 458.839 360.813 453.348 366.54C447.556 372.589 453.691 379.131 452.747 394.64C451.288 418.386 436.316 424.5 435.694 448.589C435.479 456.697 437.002 463.282 438.161 467.251C441.571 471.305 447.127 477.011 455.235 481.708C467.033 488.551 473.769 487.157 490.607 491.383C518.15 498.268 520.767 507.149 534.302 504.575C547.966 501.979 559.743 490.181 558.155 483.875C557.212 480.1 551.699 481.301 545.199 475.638C536.833 468.345 539.837 461.159 533.423 453.286C524.221 441.96 511.886 449.275 504.035 439.451C496.099 429.519 498.716 409.548 505.001 398.566C509.098 391.38 510.749 383.035 514.203 375.528C514.482 374.906 514.825 373.876 514.632 372.632C513.946 367.806 505.816 365.36 499.66 363.558C490.264 360.834 482.714 360.641 481.641 360.62Z" fill="#52D1E8"/>
<path d="M508.986 373.275C508.986 373.275 519.024 407.403 512.804 420.553C506.583 433.68 486.784 419.266 486.784 419.266L508.986 373.275Z" fill="url(#paint8_linear)"/>
<path d="M479.641 360.62C466.749 360.384 456.839 360.813 451.348 366.54C445.556 372.589 451.691 379.131 450.747 394.64C449.288 418.386 434.316 424.5 433.694 448.589C433.479 456.697 435.002 463.282 436.161 467.251C439.571 471.305 445.127 477.011 453.235 481.708C465.033 488.551 471.769 487.157 488.607 491.383C516.15 498.268 518.767 507.149 532.302 504.575C545.966 501.979 557.743 490.181 556.155 483.875C555.212 480.1 549.699 481.301 543.199 475.638C534.833 468.345 537.837 461.159 531.423 453.286C522.221 441.96 509.886 449.275 502.035 439.451C494.099 429.519 496.716 409.548 503.001 398.566C507.098 391.38 508.749 383.035 512.203 375.528C512.482 374.906 512.825 373.876 512.632 372.632C511.946 367.806 503.816 365.36 497.66 363.558C488.264 360.834 480.714 360.641 479.641 360.62Z" fill="url(#paint9_linear)"/>
<path d="M469.173 349.314C468.487 345.56 470.589 342.343 471.039 341.656C472.97 338.76 473.442 338.374 474.278 337.924L475.437 337.345C475.437 337.345 475.501 337.323 475.565 337.302C476.295 337.109 478.697 337.259 479.169 337.409C480.692 337.881 481.765 344.359 480.478 353.261C480.542 353.969 480.606 354.655 480.671 355.363C484.124 354.891 485.132 355.213 485.325 355.685C485.712 356.693 483.288 362.571 480.006 363.708C475.866 365.166 470.096 361.369 469.752 360.018C469.602 359.46 469.645 359.932 472.455 358.302C472.713 357.487 473.528 355.277 473.785 354.441C473.163 354.055 469.688 352.06 469.173 349.314Z" fill="url(#paint10_linear)"/>
<path d="M597.547 307.799C580.751 298.297 552.951 311.317 540.36 327.362C534.504 334.806 532.595 342.013 523.928 345.338C517.343 347.869 505.846 348.792 497.887 343.322C496.879 342.635 492.825 339.697 487.012 336.222C484.459 334.699 481.95 333.283 478.904 333.755C478.131 333.883 475.557 334.27 474.463 336.372C473.562 338.066 473.97 340.404 474.871 341.885C475.407 342.764 475.75 342.764 475.901 343.408C476.351 345.209 473.391 347.011 473.841 347.848C474.163 348.448 475.772 347.676 476.308 348.384C476.909 349.156 475.321 350.486 475.236 352.953C474.077 354.412 473.927 357.179 474.678 360.568C475.75 365.566 477.509 369.341 479.376 372.001C488.385 384.829 494.82 394.01 504.301 397.249C516.85 401.539 523.714 391.629 549.09 382.255C583.84 369.406 596.475 378.522 606.513 366.274C619.041 350.98 614.986 317.667 597.547 307.799Z" fill="#52D1E8"/>
<path d="M596.547 306.799C579.751 297.297 551.951 310.317 539.36 326.362C533.504 333.806 531.595 341.013 522.928 344.338C516.343 346.869 504.846 347.792 496.887 342.322C495.879 341.635 491.825 338.697 486.012 335.222C483.459 333.699 480.95 332.283 477.904 332.755C477.131 332.883 474.557 333.27 473.463 335.372C472.562 337.066 472.97 339.404 473.871 340.885C474.407 341.764 474.75 341.764 474.901 342.408C475.351 344.209 472.391 346.011 472.841 346.848C473.163 347.448 474.772 346.676 475.308 347.384C475.909 348.156 474.321 349.486 474.236 351.953C473.077 353.412 472.927 356.179 473.678 359.568C474.75 364.566 476.509 368.341 478.376 371.001C487.385 383.829 493.82 393.01 503.301 396.249C515.85 400.539 522.714 390.629 548.09 381.255C582.84 368.406 595.475 377.522 605.513 365.274C618.041 349.98 613.986 316.667 596.547 306.799Z" fill="black"/>
<g opacity="0.3">
<path opacity="0.3" d="M522.607 484.196C509.65 475.594 497.917 485.44 488.757 477.847C481.207 471.605 487.406 463.453 479.233 452.471C470.289 440.415 457.869 443.504 454.908 434.495C451.841 425.185 464.111 418.858 464.432 405.944C464.583 399.337 461.622 390.757 449.803 380.439C450.447 384.193 451.09 388.784 450.747 394.64C449.288 418.386 434.316 424.499 433.694 448.588C433.479 456.696 435.002 463.282 436.161 467.25C439.571 471.304 445.127 477.01 453.235 481.708C465.033 488.551 471.769 487.156 488.607 491.382C516.15 498.268 518.767 507.148 532.302 504.574C536.249 503.824 540.025 502.301 543.371 500.391C539.424 499.769 536.507 498.439 534.254 496.895C528.334 492.798 529.364 488.679 522.607 484.196Z" fill="url(#paint11_linear)"/>
</g>
<defs>
<linearGradient id="paint0_linear" x1="383.931" y1="114.591" x2="383.931" y2="653.271" gradientUnits="userSpaceOnUse">
<stop stop-color="#172463"/>
<stop offset="0.479167" stop-color="#644AAC"/>
<stop offset="1" stop-color="#5380DF"/>
</linearGradient>
<linearGradient id="paint1_linear" x1="193.479" y1="193.479" x2="579.879" y2="579.879" gradientUnits="userSpaceOnUse">
<stop stop-color="#172463"/>
<stop offset="0.479167" stop-color="#644AAC"/>
<stop offset="1" stop-color="#5380DF"/>
</linearGradient>
<linearGradient id="paint2_linear" x1="131.919" y1="342.566" x2="633.809" y2="397.004" gradientUnits="userSpaceOnUse">
<stop stop-color="#172463"/>
<stop offset="0.479167" stop-color="#644AAC"/>
<stop offset="1" stop-color="#5380DF"/>
</linearGradient>
<linearGradient id="paint3_linear" x1="258.879" y1="105.029" x2="628.224" y2="774.615" gradientUnits="userSpaceOnUse">
<stop stop-color="#FF9085"/>
<stop offset="1" stop-color="#FB6FBB"/>
</linearGradient>
<linearGradient id="paint4_linear" x1="262.71" y1="111.919" x2="618.811" y2="757.495" gradientUnits="userSpaceOnUse">
<stop stop-color="#AA80F9"/>
<stop offset="0.9964" stop-color="#6165D7"/>
</linearGradient>
<linearGradient id="paint5_linear" x1="285.314" y1="154.681" x2="577.491" y2="665.697" gradientUnits="userSpaceOnUse">
<stop stop-color="#FF9085"/>
<stop offset="1" stop-color="#FB6FBB"/>
</linearGradient>
<linearGradient id="paint6_linear" x1="378.803" y1="306.456" x2="392.545" y2="306.833" gradientUnits="userSpaceOnUse">
<stop stop-color="#0D3899"/>
<stop offset="1" stop-color="#0C2169"/>
</linearGradient>
<linearGradient id="paint7_linear" x1="431.263" y1="317.246" x2="431.263" y2="392.367" gradientUnits="userSpaceOnUse">
<stop stop-color="#39ACF4"/>
<stop offset="0.317708" stop-color="#206AD3"/>
<stop offset="0.651042" stop-color="#206AD3"/>
<stop offset="1" stop-color="#3296E5"/>
</linearGradient>
<linearGradient id="paint8_linear" x1="500.811" y1="373.275" x2="500.811" y2="426.071" gradientUnits="userSpaceOnUse">
<stop stop-color="#39ACF4"/>
<stop offset="0.317708" stop-color="#206AD3"/>
<stop offset="0.651042" stop-color="#206AD3"/>
<stop offset="1" stop-color="#3296E5"/>
</linearGradient>
<linearGradient id="paint9_linear" x1="494.986" y1="360.571" x2="494.986" y2="505.03" gradientUnits="userSpaceOnUse">
<stop stop-color="#39ACF4"/>
<stop offset="0.317708" stop-color="#206AD3"/>
<stop offset="0.651042" stop-color="#206AD3"/>
<stop offset="1" stop-color="#3296E5"/>
</linearGradient>
<linearGradient id="paint10_linear" x1="469.037" y1="337.21" x2="485.673" y2="337.603" gradientUnits="userSpaceOnUse">
<stop stop-color="#0D3899"/>
<stop offset="1" stop-color="#0C2169"/>
</linearGradient>
<linearGradient id="paint11_linear" x1="453.847" y1="348.012" x2="491.318" y2="489.744" gradientUnits="userSpaceOnUse">
<stop stop-color="#AA80F9"/>
<stop offset="0.9964" stop-color="#6165D7"/>
</linearGradient>
</defs>
</svg>
