<svg width="774" height="774" viewBox="0 0 774 774" fill="none" xmlns="http://www.w3.org/2000/svg">
<circle opacity="0.2" cx="376.311" cy="347.591" r="234" stroke="white" stroke-width="2"/>
<circle opacity="0.2" cx="376.311" cy="347.591" r="156" stroke="white"/>
<path opacity="0.1" d="M383.377 646.185C540.386 688.668 623.44 532.313 653.283 386.266C685.952 226.385 524.862 97.9026 383.377 116.36C241.892 134.817 139.516 237.193 113.471 386.266C87.4253 535.339 226.367 603.701 383.377 646.185Z" fill="url(#paint0_linear)"/>
<path opacity="0.1" d="M574.403 575.188C715.899 494.639 662.473 323.756 578.814 197.893C487.231 60.1088 281.161 81.8552 194.355 195.14C107.55 308.424 108.595 454.25 197.109 579.598C285.623 704.946 432.907 655.736 574.403 575.188Z" fill="url(#paint1_linear)"/>
<path opacity="0.1" d="M627.146 396.84C683.718 244.494 547.029 145.836 414.185 101.304C268.759 52.5551 131.62 200.281 133.506 343.298C135.393 486.314 219.7 598.794 355.773 639.843C491.846 680.891 570.575 549.186 627.146 396.84Z" fill="url(#paint2_linear)"/>
<circle cx="244.817" cy="527.121" r="4" transform="rotate(-148.806 244.817 527.121)" fill="#EDEEC8"/>
<circle r="4" transform="matrix(-0.955311 -0.295601 -0.295601 0.955311 66.3069 308.611)" fill="#EDEEC8"/>
<circle cx="526.311" cy="561.615" r="4" transform="rotate(-180 526.311 561.615)" fill="#EDEEC8"/>
<circle r="4" transform="matrix(-0.664089 -0.747654 -0.747654 0.664089 212.441 588.218)" fill="#EDEEC8"/>
<circle cx="588.871" cy="182.121" r="4" transform="rotate(-148.806 588.871 182.121)" fill="#EDEEC8"/>
<circle cx="394.811" cy="593.115" r="1.5" transform="rotate(-180 394.811 593.115)" fill="#EDEEC8"/>
<circle r="1.5" transform="matrix(-0.664089 -0.747654 -0.747654 0.664089 148.664 468.984)" fill="#EDEEC8"/>
<circle cx="448.251" cy="91.5547" r="1.5" transform="rotate(-148.806 448.251 91.5547)" fill="#EDEEC8"/>
<circle cx="412.811" cy="630.115" r="1.5" transform="rotate(-180 412.811 630.115)" fill="#EDEEC8"/>
<circle r="1.5" transform="matrix(-0.664089 -0.747654 -0.747654 0.664089 76.1929 264.497)" fill="#EDEEC8"/>
<circle cx="456.302" cy="181.932" r="1.5" transform="rotate(-148.806 456.302 181.932)" fill="#EDEEC8"/>
<circle cx="592.811" cy="520.115" r="1.5" transform="rotate(-180 592.811 520.115)" fill="#206BD4"/>
<circle cx="663.811" cy="340.115" r="1.5" transform="rotate(-180 663.811 340.115)" fill="#206BD4"/>
<circle cx="703.811" cy="304.115" r="1.5" transform="rotate(-180 703.811 304.115)" fill="#206BD4"/>
<circle cx="747.811" cy="368.115" r="1.5" transform="rotate(-180 747.811 368.115)" fill="#206BD4"/>
<circle cx="667.251" cy="181.064" r="1.5" transform="rotate(-148.806 667.251 181.064)" fill="#206BD4"/>
<circle cx="676.811" cy="449.091" r="2.5" transform="rotate(-180 676.811 449.091)" fill="#206BD4"/>
<circle cx="577.811" cy="609.115" r="2.5" transform="rotate(-180 577.811 609.115)" fill="#206BD4"/>
<circle r="2.5" transform="matrix(-0.664089 -0.747654 -0.747654 0.664089 282.155 595.179)" fill="#206BD4"/>
<circle cx="692.811" cy="485.115" r="2.5" transform="rotate(-180 692.811 485.115)" fill="#206BD4"/>
<circle cx="644.044" cy="151.816" r="2.5" transform="rotate(-148.806 644.044 151.816)" fill="#206BD4"/>
<circle cx="441.811" cy="566.115" r="1.5" transform="rotate(-180 441.811 566.115)" fill="#206BD4"/>
<circle r="1.5" transform="matrix(-0.664089 -0.747654 -0.747654 0.664089 159.69 522.053)" fill="#206BD4"/>
<circle cx="561.811" cy="646.115" r="1.5" transform="rotate(-180 561.811 646.115)" fill="#206BD4"/>
<circle r="1.5" transform="matrix(-0.664089 -0.747654 -0.747654 0.664089 299.193 558.645)" fill="#206BD4"/>
<circle cx="514.257" cy="142.205" r="1.5" transform="rotate(-148.806 514.257 142.205)" fill="#206BD4"/>
<circle cx="168.946" cy="189.25" r="4" transform="rotate(116.506 168.946 189.25)" fill="#EDEEC8"/>
<circle cx="289.121" cy="212.603" r="1.5" transform="rotate(116.506 289.121 212.603)" fill="#EDEEC8"/>
<circle cx="198.282" cy="159.478" r="1.5" transform="rotate(116.506 198.282 159.478)" fill="#206BD4"/>
<circle cx="114.248" cy="200.261" r="1.5" transform="rotate(116.506 114.248 200.261)" fill="#206BD4"/>
<circle cx="73.2988" cy="340.603" r="1.5" transform="rotate(116.506 73.2988 340.603)" fill="#206BD4"/>
<circle cx="320.299" cy="29.6031" r="1.5" transform="rotate(116.506 320.299 29.6031)" fill="#206BD4"/>
<circle cx="399.958" cy="145.262" r="2.5" transform="rotate(116.506 399.958 145.262)" fill="#206BD4"/>
<circle cx="290.958" cy="114.262" r="2.5" transform="rotate(116.506 290.958 114.262)" fill="#206BD4"/>
<circle cx="376.037" cy="359.525" r="127.691" stroke="url(#paint3_linear)" stroke-width="43.5689"/>
<g filter="url(#filter0_f)">
<circle cx="376.037" cy="359.525" r="127.691" stroke="url(#paint4_linear)" stroke-width="43.5689"/>
</g>
<g opacity="0.2">
<path opacity="0.2" d="M394.876 257.996C425.455 257.996 451.475 277.283 461.644 304.285C448.74 286.12 427.559 274.267 403.573 274.267C364.227 274.267 332.316 306.179 332.316 345.524C332.316 354.291 333.929 362.707 336.805 370.422C328.529 358.779 323.69 344.612 323.69 329.253C323.69 289.837 355.531 257.996 394.876 257.996Z" fill="#F4A640"/>
</g>
<path d="M566.566 220.054C566.566 220.054 579.12 251.895 560.604 272.164C534.234 300.989 523.012 322.31 511.72 349.241C500.429 376.173 458.208 388.727 428.4 357.938C398.523 327.149 364.859 280.159 383.725 254.419C402.591 228.68 433.38 232.608 448.599 220.474C463.818 208.271 485.139 186.81 509.546 183.513C534.724 180.007 561.235 183.163 566.566 220.054Z" fill="#52D1E8"/>
<path d="M564.462 217.949C564.462 217.949 577.016 249.79 558.5 270.059C532.13 298.884 520.908 320.205 509.616 347.137C498.325 374.069 456.104 386.623 426.296 355.834C396.419 325.044 362.755 278.054 381.621 252.315C400.487 226.576 431.276 230.503 446.495 218.37C461.714 206.166 483.035 184.705 507.442 181.409C532.62 177.902 559.131 181.058 564.462 217.949Z" fill="black"/>
<path d="M471.043 249.089L480.02 255.191C481.072 254.489 483.036 253.507 483.036 253.507C483.036 253.507 486.051 257.014 487.033 258.557C487.384 258.978 487.524 259.399 487.384 259.679C487.735 259.539 488.085 259.749 488.506 260.17C489.909 261.362 494.748 266.763 494.748 266.763C494.748 266.763 493.486 268.516 492.714 269.498L495.87 277.143C495.87 277.143 484.438 295.658 483.456 296.5C482.474 297.341 461.154 299.375 458.909 298.744C456.665 298.113 456.104 287.943 456.034 287.242C455.403 287.102 445.373 285.208 445.023 282.964C444.672 280.579 449.371 259.749 450.353 258.908C451.265 258.066 471.043 249.089 471.043 249.089Z" fill="url(#paint5_linear)"/>
<path d="M492.784 257.224L497.974 263.046L494.678 266.763C492.433 265.36 487.945 261.853 482.755 253.507L486.963 250.632L492.153 256.453L492.784 257.224Z" fill="url(#paint6_linear)"/>
<path d="M540.265 261.432C539.844 259.679 538.512 258.346 536.758 257.645C548.751 248.177 550.505 230.363 539.914 218.79C530.166 206.517 512.281 205.325 501.06 215.705C500.639 213.881 499.517 212.338 497.834 211.637C494.678 210.234 490.68 212.408 488.997 216.336C487.314 220.333 488.506 224.612 491.662 226.014C492.083 226.225 492.574 226.295 492.994 226.365C484.508 235.903 484.157 250.07 492.293 259.398C500.148 268.937 514.245 270.83 524.976 263.957C524.976 264.448 524.976 264.869 525.116 265.36C525.958 268.726 530.025 270.55 534.234 269.498C538.371 268.376 541.107 264.799 540.265 261.432Z" fill="#52D1E8"/>
<path d="M539.564 260.03C539.143 258.277 537.811 256.944 536.057 256.243C548.05 246.774 549.804 228.96 539.213 217.388C529.465 205.115 511.58 203.922 500.359 214.302C499.938 212.479 498.816 210.936 497.133 210.234C493.976 208.832 489.979 211.006 488.296 214.933C486.612 218.931 487.805 223.209 490.961 224.612C491.381 224.822 491.872 224.892 492.293 224.963C483.807 234.501 483.456 248.668 491.592 257.996C499.447 267.534 513.544 269.428 524.275 262.555C524.275 263.046 524.275 263.466 524.415 263.957C525.257 267.324 529.324 269.147 533.532 268.095C537.67 266.973 540.406 263.396 539.564 260.03Z" fill="url(#paint7_linear)"/>
<path d="M536.057 256.243C536.057 256.243 530.166 237.938 533.462 218.16C533.462 218.16 508.845 221.035 500.289 214.302C500.289 214.302 503.725 208.06 504.427 207.429C505.128 206.798 523.503 199.644 523.503 199.644L545.806 207.219L557.098 225.874C557.098 225.874 567.337 238.919 564.321 242.847C561.306 246.774 555.975 255.471 554.503 256.734C553.03 257.996 539.494 254.419 539.494 254.419L536.057 256.243Z" fill="black"/>
<path d="M503.374 251.263C501.831 250 500.499 248.598 499.657 246.914C499.236 246.073 498.956 245.161 498.886 244.249C498.746 243.338 498.816 242.356 498.816 241.304C498.395 242.215 498.044 243.197 498.114 244.249C498.044 244.81 498.184 245.301 498.255 245.792C498.395 246.283 498.535 246.844 498.816 247.265C499.307 248.177 499.938 249.089 500.709 249.72C501.551 250.421 502.393 250.982 503.374 251.263Z" fill="white"/>
<path d="M497.834 282.192L563.409 289.346L559.342 272.023C559.482 271.813 559.692 271.672 559.833 271.462C566.846 263.747 569.441 254.349 569.862 245.652C576.665 263.396 591.884 305.688 585.151 312.491C576.595 321.117 500.358 315.296 484.999 309.194C469.639 303.093 486.963 294.256 487.524 293.274C488.225 292.362 497.834 282.192 497.834 282.192Z" fill="#52D1E8"/>
<path d="M496.431 280.79L562.007 287.944L557.939 270.621C558.079 270.41 558.29 270.27 558.43 270.06C565.443 262.345 568.038 252.947 568.459 244.25C575.262 261.994 590.481 304.285 583.749 311.088C575.192 319.715 498.956 313.894 483.596 307.792C468.237 301.69 485.56 292.853 486.121 291.871C486.823 290.96 496.431 280.79 496.431 280.79Z" fill="url(#paint8_linear)"/>
<path d="M448.67 157.423C456.174 151.742 495.099 171.52 512.282 180.708C510.668 180.848 509.055 181.058 507.372 181.269C500.008 182.251 492.995 184.916 486.262 188.493L468.868 182.04L467.606 248.037C467.606 248.037 456.314 256.242 455.262 256.733C454.21 257.154 437.799 269.708 433.661 253.647C429.593 237.657 438.991 164.787 448.67 157.423Z" fill="url(#paint9_linear)"/>
<path d="M334.28 366.704C334.28 366.704 369.277 356.254 370.75 356.184C372.223 356.044 405.958 368.177 405.958 368.177L410.657 391.812C410.657 391.812 384.567 425.898 319.622 456.126C319.622 456.126 311.977 460.544 305.946 468.119C299.914 475.693 272.983 505.36 236.092 517.563C236.092 517.563 218.488 526.33 210.914 532.642C200.253 542.181 194.151 550.807 194.151 550.807C194.151 550.807 189.943 562.309 184.683 561.397C179.423 560.486 174.724 561.397 171.287 558.803C167.921 556.278 166.589 558.522 163.853 555.436C161.399 552.701 192.749 528.925 202.567 521.14C211.615 512.233 247.594 476.394 248.576 475.903C249.628 475.342 310.645 426.318 311.346 418.393C312.047 410.468 334.28 366.704 334.28 366.704Z" fill="#52D1E8"/>
<path d="M333.579 365.302C333.579 365.302 368.576 354.852 370.049 354.781C371.522 354.641 405.256 366.774 405.256 366.774L409.955 390.41C409.955 390.41 383.865 424.495 318.921 454.723C318.921 454.723 311.276 459.142 305.244 466.716C299.213 474.291 272.281 503.958 235.39 516.161C235.39 516.161 217.787 524.928 210.212 531.24C199.552 540.778 193.45 549.405 193.45 549.405C193.45 549.405 189.242 560.907 183.982 559.995C178.722 559.083 174.023 559.995 170.586 557.4C167.22 554.875 165.887 557.12 163.152 554.034C160.697 551.298 192.047 527.523 201.866 519.738C210.913 510.831 246.892 474.992 247.874 474.501C248.926 473.94 309.943 424.916 310.645 416.991C311.346 409.066 333.579 365.302 333.579 365.302Z" fill="url(#paint10_linear)"/>
<path d="M171.077 495.822L170.937 495.682C170.937 495.682 219.89 439.925 247.523 440.275L277.331 437.891C277.331 437.891 280.487 361.304 321.656 331.427C321.656 331.427 338.207 321.608 349.289 321.327C349.289 321.327 374.397 384.448 311.626 450.445C311.626 450.445 304.333 461.456 293.953 463.42C284.555 465.173 199.832 499.118 183.491 505.711C172.199 514.127 141.901 537.131 139.867 534.045C137.482 530.468 140.148 529.767 138.464 525.699C136.851 521.631 139.025 517.143 139.516 511.672C140.007 506.202 152.702 505.08 152.702 505.08C152.702 505.08 160.627 502.064 171.077 495.822Z" fill="#52D1E8"/>
<path d="M169.674 494.42L169.534 494.279C169.534 494.279 218.488 438.522 246.121 438.873L275.928 436.488C275.928 436.488 279.084 359.902 320.253 330.024C320.253 330.024 336.805 320.205 347.886 319.925C347.886 319.925 372.994 383.046 310.224 449.043C310.224 449.043 302.93 460.054 292.55 462.017C283.152 463.771 198.429 497.716 182.088 504.309C170.796 512.725 140.498 535.729 138.464 532.643C136.08 529.066 138.745 528.365 137.062 524.297C135.449 520.229 137.623 515.74 138.114 510.27C138.605 504.799 151.299 503.677 151.299 503.677C151.299 503.677 159.224 500.661 169.674 494.42Z" fill="url(#paint11_linear)"/>
<path d="M349.219 321.959C363.666 310.387 397.962 296.991 401.539 295.729C405.116 294.537 406.519 283.035 420.826 263.958C435.134 244.811 452.878 255.402 454.912 255.472C456.945 255.612 469.009 248.599 469.009 248.599L472.445 251.194L457.577 262.135C459.751 274.619 457.577 288.225 457.436 289.277C458.559 289.207 472.305 288.856 484.368 292.573L497.133 279.247L499.237 282.965C499.237 282.965 490.75 294.046 490.61 296.08C490.47 298.114 498.675 317.05 477.916 328.833C457.156 340.615 444.251 339.072 442.568 342.439C440.955 345.805 424.543 379.61 411.218 392.445C411.218 392.445 374.818 379.75 350.621 383.187L350.481 383.257V383.187H350.411L350.551 383.117C357.214 359.692 349.219 321.959 349.219 321.959Z" fill="#52D1E8"/>
<path d="M347.816 319.854C362.264 308.282 396.559 294.886 400.136 293.624C403.713 292.432 405.116 280.93 419.423 261.853C433.731 242.706 451.475 253.297 453.509 253.367C455.543 253.507 467.606 246.494 467.606 246.494L471.042 249.089L456.174 260.03C458.348 272.514 456.174 286.12 456.034 287.172C457.156 287.102 470.902 286.751 482.965 290.468L495.73 277.142L497.834 280.86C497.834 280.86 489.347 291.941 489.207 293.975C489.067 296.009 497.273 314.945 476.513 326.728C455.753 338.51 442.848 336.967 441.165 340.334C439.552 343.7 423.14 377.505 409.815 390.34C409.815 390.34 373.415 377.645 349.219 381.082L349.078 381.152V381.082H349.008L349.148 381.012C355.811 357.587 347.816 319.854 347.816 319.854Z" fill="url(#paint12_linear)"/>
<g opacity="0.3">
<path opacity="0.3" d="M400.136 293.694C403.713 292.502 405.116 281 419.423 261.923C427.348 251.333 436.326 249.86 443.059 250.632C443.059 250.632 413.602 274.337 422.088 290.538C430.575 306.739 444.531 313.472 446.986 318.802C446.986 318.802 428.541 308.352 420.125 306.599C411.708 304.916 347.676 353.168 394.596 385.991C381.831 382.695 363.456 379.188 349.289 381.222L349.148 381.292V381.222H349.078L349.219 381.152C355.741 357.657 347.816 319.854 347.816 319.854C362.264 308.282 396.559 294.887 400.136 293.694Z" fill="#D65561"/>
</g>
<path d="M391.793 138.995L276.557 215.06L250.912 176.209L336.846 119.486L323.806 99.7313L353.109 80.3892L391.793 138.995Z" fill="url(#paint13_linear)"/>
<path d="M624.419 485.81L604.613 515.988L512.098 455.271L527.792 431.359L594.84 420.153C600.704 419.126 605.035 417.8 607.832 416.175C610.629 414.55 612.785 412.583 614.3 410.274C616.176 407.416 616.629 404.568 615.661 401.73C614.874 398.854 612.667 396.226 609.039 393.844C605.521 391.536 601.609 390.305 597.304 390.154C592.999 390.003 588.904 391.09 585.018 393.416L565.297 359.474C575.106 354.115 585.794 351.849 597.362 352.678C609.002 353.396 620.814 357.688 632.797 365.552C641.922 371.541 649.029 378.329 654.117 385.915C659.205 393.501 661.924 401.341 662.274 409.436C662.624 417.53 660.454 425.151 655.764 432.297C651.58 438.673 646.273 443.763 639.845 447.566C633.598 451.331 624.264 454.171 611.84 456.084L585.5 460.268L624.419 485.81Z" fill="url(#paint14_linear)"/>
<path d="M156.741 340.878C167.711 340.691 176.822 343.241 184.074 348.529C191.419 353.656 196.338 360.922 198.832 370.329C200.955 378.337 200.719 386.426 198.124 394.596C195.622 402.606 190.368 409.985 182.361 416.733C174.355 423.482 163.552 428.659 149.951 432.264C140.545 434.758 130.869 436.235 120.924 436.695C111.105 437.122 102.178 436.291 94.1424 434.204L100.6 396.984C106.908 398.713 113.396 399.578 120.062 399.579C126.856 399.547 133.176 398.755 139.023 397.205C144.235 395.823 148.194 393.821 150.9 391.199C153.606 388.577 154.52 385.614 153.644 382.309C152.027 376.208 145.943 374.555 135.393 377.353L117.661 382.054L110.331 354.407L124.662 329.181L76.9952 341.818L67.9973 307.879L167.525 281.492L174.855 309.139L156.741 340.878Z" fill="url(#paint15_linear)"/>
<path d="M444.528 605.784H426.183V629.455H381.012V605.784H309.409V576.196L367.994 491.377H415.729L363.654 569.687H382.393V548.581H426.183V569.687H444.528V605.784Z" fill="url(#paint16_linear)"/>
<g filter="url(#filter1_f)">
<path d="M391.793 138.995L276.557 215.06L250.912 176.209L336.846 119.486L323.806 99.7313L353.109 80.3892L391.793 138.995Z" fill="url(#paint17_linear)"/>
<path d="M624.419 485.81L604.613 515.988L512.098 455.271L527.792 431.359L594.84 420.153C600.704 419.126 605.035 417.8 607.832 416.175C610.629 414.55 612.785 412.583 614.3 410.274C616.176 407.416 616.629 404.568 615.661 401.73C614.874 398.854 612.667 396.226 609.039 393.844C605.521 391.536 601.609 390.305 597.304 390.154C592.999 390.003 588.904 391.09 585.018 393.416L565.297 359.474C575.106 354.115 585.794 351.849 597.362 352.678C609.002 353.396 620.814 357.688 632.797 365.552C641.922 371.541 649.029 378.329 654.117 385.915C659.205 393.501 661.924 401.341 662.274 409.436C662.624 417.53 660.454 425.151 655.764 432.297C651.58 438.673 646.273 443.763 639.845 447.566C633.598 451.331 624.264 454.171 611.84 456.084L585.5 460.268L624.419 485.81Z" fill="url(#paint18_linear)"/>
<path d="M156.741 340.878C167.711 340.691 176.822 343.241 184.074 348.529C191.419 353.656 196.338 360.922 198.832 370.329C200.955 378.337 200.719 386.426 198.124 394.596C195.622 402.606 190.368 409.985 182.361 416.733C174.355 423.482 163.552 428.659 149.951 432.264C140.545 434.758 130.869 436.235 120.924 436.695C111.105 437.122 102.178 436.291 94.1424 434.204L100.6 396.984C106.908 398.713 113.396 399.578 120.062 399.579C126.856 399.547 133.176 398.755 139.023 397.205C144.235 395.823 148.194 393.821 150.9 391.199C153.606 388.577 154.52 385.614 153.644 382.309C152.027 376.208 145.943 374.555 135.393 377.353L117.661 382.054L110.331 354.407L124.662 329.181L76.9952 341.818L67.9973 307.879L167.525 281.492L174.855 309.139L156.741 340.878Z" fill="url(#paint19_linear)"/>
<path d="M444.528 605.784H426.183V629.455H381.012V605.784H309.409V576.196L367.994 491.377H415.729L363.654 569.687H382.393V548.581H426.183V569.687H444.528V605.784Z" fill="url(#paint20_linear)"/>
</g>
<defs>
<filter id="filter0_f" x="162.562" y="146.05" width="426.95" height="426.95" filterUnits="userSpaceOnUse" color-interpolation-filters="sRGB">
<feFlood flood-opacity="0" result="BackgroundImageFix"/>
<feBlend mode="normal" in="SourceGraphic" in2="BackgroundImageFix" result="shape"/>
<feGaussianBlur stdDeviation="32" result="effect1_foregroundBlur"/>
</filter>
<filter id="filter1_f" x="27.1333" y="46.3892" width="669.177" height="617.066" filterUnits="userSpaceOnUse" color-interpolation-filters="sRGB">
<feFlood flood-opacity="0" result="BackgroundImageFix"/>
<feBlend mode="normal" in="SourceGraphic" in2="BackgroundImageFix" result="shape"/>
<feGaussianBlur stdDeviation="17" result="effect1_foregroundBlur"/>
</filter>
<linearGradient id="paint0_linear" x1="383.931" y1="114.591" x2="383.931" y2="653.271" gradientUnits="userSpaceOnUse">
<stop stop-color="#172463"/>
<stop offset="0.479167" stop-color="#644AAC"/>
<stop offset="1" stop-color="#5380DF"/>
</linearGradient>
<linearGradient id="paint1_linear" x1="193.479" y1="193.479" x2="579.879" y2="579.879" gradientUnits="userSpaceOnUse">
<stop stop-color="#172463"/>
<stop offset="0.479167" stop-color="#644AAC"/>
<stop offset="1" stop-color="#5380DF"/>
</linearGradient>
<linearGradient id="paint2_linear" x1="131.919" y1="342.566" x2="633.809" y2="397.003" gradientUnits="userSpaceOnUse">
<stop stop-color="#172463"/>
<stop offset="0.479167" stop-color="#644AAC"/>
<stop offset="1" stop-color="#5380DF"/>
</linearGradient>
<linearGradient id="paint3_linear" x1="376.037" y1="210.05" x2="376.037" y2="509" gradientUnits="userSpaceOnUse">
<stop stop-color="#53F7BC"/>
<stop offset="0.494792" stop-color="#6252B4"/>
<stop offset="1" stop-color="#55ECBC"/>
</linearGradient>
<linearGradient id="paint4_linear" x1="376.037" y1="210.05" x2="376.037" y2="509" gradientUnits="userSpaceOnUse">
<stop stop-color="#53F7BC"/>
<stop offset="0.494792" stop-color="#6252B4"/>
<stop offset="1" stop-color="#55ECBC"/>
</linearGradient>
<linearGradient id="paint5_linear" x1="445.004" y1="249.089" x2="496.775" y2="251.14" gradientUnits="userSpaceOnUse">
<stop stop-color="#0D3899"/>
<stop offset="1" stop-color="#0C2169"/>
</linearGradient>
<linearGradient id="paint6_linear" x1="482.755" y1="250.632" x2="498.248" y2="251.199" gradientUnits="userSpaceOnUse">
<stop stop-color="#0D3899"/>
<stop offset="1" stop-color="#0C2169"/>
</linearGradient>
<linearGradient id="paint7_linear" x1="485.703" y1="207.274" x2="547.286" y2="209.638" gradientUnits="userSpaceOnUse">
<stop stop-color="#0D3899"/>
<stop offset="1" stop-color="#0C2169"/>
</linearGradient>
<linearGradient id="paint8_linear" x1="477.26" y1="244.25" x2="587.145" y2="250.723" gradientUnits="userSpaceOnUse">
<stop stop-color="#0D3899"/>
<stop offset="1" stop-color="#0C2169"/>
</linearGradient>
<linearGradient id="paint9_linear" x1="432.688" y1="156.415" x2="513.755" y2="158.789" gradientUnits="userSpaceOnUse">
<stop stop-color="#0D3899"/>
<stop offset="1" stop-color="#0C2169"/>
</linearGradient>
<linearGradient id="paint10_linear" x1="163.015" y1="354.78" x2="414.196" y2="366.497" gradientUnits="userSpaceOnUse">
<stop stop-color="#0D3899"/>
<stop offset="1" stop-color="#0C2169"/>
</linearGradient>
<linearGradient id="paint11_linear" x1="136.475" y1="319.925" x2="356.699" y2="328.599" gradientUnits="userSpaceOnUse">
<stop stop-color="#0D3899"/>
<stop offset="1" stop-color="#0C2169"/>
</linearGradient>
<linearGradient id="paint12_linear" x1="422.825" y1="246.494" x2="422.825" y2="390.34" gradientUnits="userSpaceOnUse">
<stop stop-color="#39ACF4"/>
<stop offset="0.317708" stop-color="#206AD3"/>
<stop offset="0.651042" stop-color="#206AD3"/>
<stop offset="1" stop-color="#3296E5"/>
</linearGradient>
<linearGradient id="paint13_linear" x1="376.194" y1="76.8911" x2="331.36" y2="352.237" gradientUnits="userSpaceOnUse">
<stop stop-color="#FF9085"/>
<stop offset="1" stop-color="#FB6FBB"/>
</linearGradient>
<linearGradient id="paint14_linear" x1="533.088" y1="327.452" x2="748.072" y2="685.572" gradientUnits="userSpaceOnUse">
<stop stop-color="#AA80F9"/>
<stop offset="0.9964" stop-color="#6165D7"/>
</linearGradient>
<linearGradient id="paint15_linear" x1="71.4488" y1="284.554" x2="333.797" y2="517.644" gradientUnits="userSpaceOnUse">
<stop stop-color="#FFC444"/>
<stop offset="0.9964" stop-color="#F36F56"/>
</linearGradient>
<linearGradient id="paint16_linear" x1="328.285" y1="470.215" x2="504.316" y2="782.504" gradientUnits="userSpaceOnUse">
<stop offset="0.00359712" stop-color="#E38DDD"/>
<stop offset="1" stop-color="#9571F6"/>
</linearGradient>
<linearGradient id="paint17_linear" x1="376.194" y1="76.8911" x2="331.36" y2="352.237" gradientUnits="userSpaceOnUse">
<stop stop-color="#FF9085"/>
<stop offset="1" stop-color="#FB6FBB"/>
</linearGradient>
<linearGradient id="paint18_linear" x1="533.088" y1="327.452" x2="748.072" y2="685.572" gradientUnits="userSpaceOnUse">
<stop stop-color="#AA80F9"/>
<stop offset="0.9964" stop-color="#6165D7"/>
</linearGradient>
<linearGradient id="paint19_linear" x1="71.4488" y1="284.554" x2="333.797" y2="517.644" gradientUnits="userSpaceOnUse">
<stop stop-color="#FFC444"/>
<stop offset="0.9964" stop-color="#F36F56"/>
</linearGradient>
<linearGradient id="paint20_linear" x1="328.285" y1="470.215" x2="504.316" y2="782.504" gradientUnits="userSpaceOnUse">
<stop offset="0.00359712" stop-color="#E38DDD"/>
<stop offset="1" stop-color="#9571F6"/>
</linearGradient>
</defs>
</svg>
