<svg width="775" height="774" viewBox="0 0 775 774" fill="none" xmlns="http://www.w3.org/2000/svg">
<path opacity="0.1" d="M384.066 646.593C541.075 689.076 624.13 532.721 653.972 386.674C686.642 226.794 525.551 98.3108 384.066 116.768C242.581 135.225 140.205 237.601 114.16 386.674C88.1147 535.747 227.057 604.11 384.066 646.593Z" fill="url(#paint0_linear)"/>
<path opacity="0.1" d="M575.093 575.596C716.589 495.047 663.162 324.165 579.503 198.302C487.92 60.5175 281.85 82.2639 195.045 195.548C108.24 308.833 109.284 454.659 197.799 580.007C286.313 705.355 433.597 656.145 575.093 575.596Z" fill="url(#paint1_linear)"/>
<path opacity="0.1" d="M627.836 397.249C684.407 244.903 547.718 146.244 414.875 101.713C269.448 52.9638 132.309 200.69 134.196 343.706C136.083 486.722 220.389 599.203 356.462 640.251C492.536 681.3 571.264 549.594 627.836 397.249Z" fill="url(#paint2_linear)"/>
<path d="M412.464 536.551C271.114 536.551 156.527 517.366 156.527 493.7C156.527 470.034 271.114 450.849 412.464 450.849C553.814 450.849 668.4 470.034 668.4 493.7C668.4 517.366 553.814 536.551 412.464 536.551Z" fill="url(#paint3_linear)"/>
<path d="M358.498 516.515C420.507 516.661 461.896 497.649 488.221 471.324C512.206 447.339 523.613 417.504 526.684 391.033C529.463 367.926 525.953 347.304 518.933 335.604C495.095 295.532 446.832 290.998 446.832 290.998C446.832 290.998 415.974 210.854 313.014 209.391C305.409 209.245 298.243 209.684 291.369 210.707C290.199 210.854 289.029 211 288.005 211.292C205.813 225.479 184.607 316.299 179.927 365.147C176.417 401.709 190.311 515.93 358.498 516.515Z" fill="url(#paint4_linear)"/>
<path d="M358.498 516.515C420.507 516.661 461.896 497.649 488.221 471.324C512.206 447.339 523.613 417.504 526.684 391.033C529.463 367.926 525.953 347.304 518.933 335.604C495.095 295.532 446.832 290.998 446.832 290.998C446.832 290.998 415.974 210.854 313.014 209.391C305.409 209.245 298.243 209.684 291.369 210.707C290.199 210.854 289.029 211 288.005 211.292C205.813 225.479 184.607 316.299 179.927 365.147C176.417 401.709 190.311 515.93 358.498 516.515Z" fill="url(#paint5_radial)"/>
<path opacity="0.5" d="M296.634 317.615C320.327 351.691 305.409 349.644 305.409 349.644C305.409 349.644 305.448 385.543 319 401.5C323.84 407.198 333.5 414 333.5 414C333.5 414 351.5 422.476 362.593 422.476C362.593 422.476 383.506 422.768 412.318 410.63C441.129 398.491 451.366 391.179 451.366 391.179C451.366 391.179 466.576 422.915 481.932 433.298C497.142 443.828 488.221 471.47 488.221 471.47C512.206 447.485 523.613 417.65 526.685 391.179C519.226 383.574 512.645 378.162 512.645 378.162C512.645 378.162 390.38 341.308 378.68 327.999C367.712 315.568 300.291 222.992 291.369 210.707C290.784 209.829 290.346 209.391 290.346 209.391C290.346 209.391 289.322 209.976 287.859 211.292C283.179 215.094 278.353 221.968 278.207 235.862C277.914 253.119 288.298 267.89 288.298 267.89C288.298 267.89 278.938 282.662 278.938 291.144C278.938 291.144 265.776 279.59 243.838 287.927C244.131 287.78 272.064 282.369 296.634 317.615Z" fill="#0D2F79"/>
<path d="M402.519 323.612L428.113 290.998L432.208 293.338L408.808 322.734L402.519 323.612Z" fill="#2B2B4D"/>
<path d="M432.208 293.338L429.429 305.33L410.709 326.244L408.808 322.734L432.208 293.338Z" fill="#111224"/>
<path d="M432.208 293.338L428.405 292.314L402.519 323.612L428.113 290.998L432.208 293.338Z" fill="#61619B"/>
<path d="M339.145 178.094C339.145 178.094 349.675 149.282 368.834 150.014C388.139 150.745 395.89 167.271 389.748 178.094C389.748 178.094 405.396 175.315 405.835 188.77C406.274 202.371 391.21 201.64 391.21 201.64C391.21 201.64 400.278 206.027 392.38 213.632C392.38 213.632 401.886 209.537 409.637 215.387C420.899 223.87 413.001 240.25 413.001 240.25C413.001 240.25 422.215 233.668 429.527 240.25C436.84 246.831 432.452 273.887 399.254 286.611C366.055 299.334 303.022 284.709 290.298 246.1C278.013 207.49 313.405 175.169 339.145 178.094Z" fill="#66FEFF"/>
<path d="M336.145 178.094C336.145 178.094 346.675 149.282 365.834 150.014C385.139 150.745 392.89 167.271 386.748 178.094C386.748 178.094 402.396 175.315 402.835 188.77C403.274 202.371 388.21 201.64 388.21 201.64C388.21 201.64 397.278 206.027 389.38 213.632C389.38 213.632 398.886 209.537 406.637 215.387C417.899 223.87 410.001 240.25 410.001 240.25C410.001 240.25 419.215 233.668 426.527 240.25C433.84 246.831 429.452 273.887 396.254 286.611C363.055 299.334 300.022 284.709 287.298 246.1C275.013 207.49 310.405 175.169 336.145 178.094Z" fill="#1D5AAB"/>
<path d="M337.145 178.094C337.145 178.094 347.675 149.282 366.834 150.014C386.139 150.745 393.89 167.271 387.748 178.094C387.748 178.094 403.396 175.315 403.835 188.77C404.274 202.371 389.21 201.64 389.21 201.64C389.21 201.64 398.278 206.027 390.38 213.632C390.38 213.632 399.886 209.537 407.637 215.387C418.899 223.87 411.001 240.25 411.001 240.25C411.001 240.25 420.215 233.668 427.527 240.25C434.84 246.831 430.452 273.887 397.254 286.611C364.055 299.334 301.022 284.709 288.298 246.1C276.013 207.49 311.405 175.169 337.145 178.094Z" fill="black"/>
<path opacity="0.6" d="M428.113 290.998L374.878 177.801C374.878 177.801 297.951 188.038 295.611 286.757L402.519 323.611L428.113 290.998Z" fill="url(#paint6_linear)"/>
<path d="M494.51 477.905C501.968 486.68 510.012 486.68 526.538 501.451C540.725 514.321 553.595 518.562 563.686 515.637C568.512 514.175 570.121 510.957 568.951 507.886C568.658 507.155 568.366 506.424 567.781 505.839C563.393 499.696 546.575 483.462 546.575 483.462L508.55 462.549L497.873 456.699C491.146 465.181 492.462 475.419 494.51 477.905Z" fill="#1C2A8D"/>
<path d="M509.427 468.837C518.202 475.857 525.222 483.169 539.847 491.944C548.768 497.356 554.911 499.403 555.057 496.332C555.203 494.431 552.717 490.336 546.867 483.462C531.803 466.204 517.325 433.006 517.325 433.006C517.325 433.006 517.325 433.006 517.178 433.006C504.455 428.033 499.336 438.563 499.336 438.563C501.968 447.046 501.53 448.508 498.897 454.358C496.265 460.208 500.652 461.963 509.427 468.837Z" fill="black"/>
<path d="M568.512 431.251C570.559 441.635 579.188 447.046 582.259 447.046C593.374 446.9 598.347 440.758 619.699 437.54C638.127 434.761 649.388 427.595 653.336 418.235C655.676 412.678 652.898 409.168 648.51 409.021C641.198 408.583 618.675 411.215 618.675 411.215L575.678 428.473L568.512 431.251Z" fill="#1C2A8D"/>
<path d="M555.349 419.112C563.247 422.33 564.124 423.5 566.903 429.057C569.682 434.615 573.777 432.421 584.453 430.081C595.129 427.741 604.928 427.01 620.43 421.452C636.079 415.895 640.613 410.337 618.383 411.069C604.489 411.507 585.915 407.851 573.923 405.072C566.757 403.464 562.077 402.147 562.077 402.147C550.669 408.729 555.349 419.112 555.349 419.112Z" fill="black"/>
<path d="M359.521 350.961C359.521 350.961 412.756 325.075 430.891 316.738C449.026 308.256 466.284 303.868 479.446 328.438C492.608 353.008 446.832 347.89 446.832 347.89L360.253 360.028C360.253 360.028 355.573 358.566 359.521 350.961Z" fill="#1C2A8D"/>
<path d="M492.901 393.958C513.668 402.441 559.883 422.477 559.883 422.477C572.753 416.627 573.777 405.219 573.777 405.219L481.64 334.142C466.869 337.067 472.134 385.476 492.901 393.958Z" fill="#1C2A8D"/>
<path d="M492.901 393.958C513.668 402.44 559.883 422.476 559.883 422.476C572.753 416.626 573.777 405.219 573.777 405.219C564.563 415.456 537.215 398.93 512.645 378.017C487.928 357.103 481.786 334.727 481.493 333.996C466.869 337.067 472.134 385.475 492.901 393.958Z" fill="#081045"/>
<path d="M324.421 403.464C339.046 418.089 369.466 414.871 391.404 406.828C413.341 398.784 441.86 387.377 455.753 377.285C469.647 367.34 468.916 345.549 446.978 348.035C440.982 348.767 431.915 349.937 421.824 351.399C394.767 355.202 360.399 360.174 360.399 360.174C360.399 360.174 319.449 357.834 311.405 368.803C311.259 368.657 309.797 388.839 324.421 403.464Z" fill="#1C2A8D"/>
<path d="M324.421 403.464C339.046 418.089 369.466 414.871 391.404 406.828C413.341 398.784 441.86 387.377 455.753 377.285C469.647 367.34 468.916 345.549 446.978 348.035C440.982 348.767 431.915 349.937 421.824 351.399C450.342 350.814 422.116 371.728 388.186 380.795C354.256 389.863 351.916 379.772 356.158 373.19C360.399 366.609 360.399 360.174 360.399 360.174C360.399 360.174 319.449 357.834 311.405 368.803C311.259 368.657 309.797 388.839 324.421 403.464Z" fill="#081045"/>
<path d="M103 596.513C103 596.513 103 596.806 103.146 597.244" stroke="#111224" stroke-width="0.5" stroke-miterlimit="10"/>
<path d="M103.877 600.023C105.925 605.873 111.921 616.988 129.325 618.304C152.871 620.205 193.382 606.458 211.517 596.513C225.996 588.615 239.012 580.425 243.692 577.5" stroke="#111224" stroke-width="0.5" stroke-miterlimit="10" stroke-dasharray="1 1"/>
<path d="M245.008 576.769C245.447 576.477 245.593 576.331 245.593 576.331" stroke="#111224" stroke-width="0.5" stroke-miterlimit="10"/>
<path d="M446.832 347.889C446.832 347.889 446.832 348.036 446.832 347.889C447.125 349.644 451.366 377.578 464.967 396.005C478.715 414.725 498.605 437.686 499.19 438.418C502.846 438.564 506.21 437.979 508.842 437.101C515.277 435.054 518.933 431.544 518.933 431.544C518.933 431.544 512.352 414.286 501.383 385.768C493.34 364.854 485.296 343.794 481.64 333.996C480.47 330.778 479.592 328.731 479.592 328.438C471.549 325.513 465.552 325.806 460.872 327.853C449.319 332.826 446.832 347.889 446.832 347.889Z" fill="#1C2A8D"/>
<path d="M360.253 360.028L446.832 347.889C446.832 347.889 446.832 347.889 446.832 348.035C447.125 349.79 451.22 377.724 464.821 396.151C478.568 414.871 498.458 437.832 499.043 438.564C502.7 438.71 506.063 438.125 508.696 437.247C508.696 437.247 488.66 419.551 473.011 390.74C466.137 378.016 462.335 367.779 459.849 358.565C457.216 349.205 456.631 332.094 460.58 327.999C461.165 327.414 461.75 326.829 462.481 326.39C462.481 326.39 455.461 320.394 443.03 323.758C430.745 326.975 387.601 343.209 360.253 360.028Z" fill="#131F75"/>
<path d="M360.545 323.612L376.048 342.039C382.336 342.624 386.431 341.893 389.21 340.43C395.938 336.92 394.036 329.462 394.036 329.462L377.364 307.963C358.79 305.33 360.545 323.612 360.545 323.612Z" fill="url(#paint7_linear)"/>
<path d="M360.545 323.611L376.048 342.039C382.336 342.624 386.431 341.892 389.21 340.43C385.407 336.189 375.901 325.366 374 320.248C371.514 313.959 377.364 307.816 377.364 307.816C358.79 305.33 360.545 323.611 360.545 323.611Z" fill="url(#paint8_linear)"/>
<path d="M341.24 273.155C346.944 269.207 358.644 279.737 366.98 292.607C375.316 305.477 377.364 307.963 377.364 307.963C377.364 307.963 365.371 317.469 360.545 323.758C360.545 323.758 342.703 303.868 336.706 290.998C330.564 278.274 341.24 273.155 341.24 273.155Z" fill="url(#paint9_linear)"/>
<path d="M341.24 273.155C341.24 273.155 353.233 278.274 361.569 292.314C369.905 306.5 371.66 312.643 371.66 312.643L360.545 323.611L352.063 313.52C352.063 313.52 327.347 285.148 341.24 273.155Z" fill="url(#paint10_linear)"/>
<path d="M292.515 287.488C292.808 288.658 293.247 289.828 293.978 290.998C296.757 295.97 310.065 302.259 322.643 306.5C331.857 309.572 340.778 311.327 345.019 310.595C354.964 308.694 358.181 291.144 342.386 273.155C342.386 273.155 342.825 259.701 350.723 257.361C349.553 254.289 333.319 241.273 325.275 245.076C325.275 245.076 320.157 259.408 316.208 263.796C313.722 266.574 310.797 268.768 307.14 270.23C305.093 271.108 303.045 271.693 300.705 272.132C298.512 272.57 296.318 274.033 294.855 275.934C292.515 278.859 291.345 283.1 292.515 287.488Z" fill="url(#paint11_linear)"/>
<path d="M291.515 287.488C291.808 288.658 292.247 289.828 292.978 290.998C295.757 295.97 309.065 302.259 321.643 306.5C330.857 309.572 339.778 311.327 344.019 310.595C353.964 308.694 357.181 291.144 341.386 273.155C341.386 273.155 341.825 259.701 349.723 257.361C348.553 254.289 332.319 241.273 324.275 245.076C324.275 245.076 319.157 259.408 315.208 263.796C312.722 266.574 309.797 268.768 306.14 270.23C304.093 271.108 302.045 271.693 299.705 272.132C297.512 272.57 295.318 274.033 293.855 275.934C291.515 278.859 290.345 283.1 291.515 287.488Z" fill="url(#paint12_linear)"/>
<path d="M301.168 339.406C305.994 357.98 311.259 368.656 311.259 368.656C311.259 368.656 319.888 381.819 338.9 375.384C357.913 368.949 362.739 355.64 362.739 355.64C357.474 349.644 353.233 336.043 357.474 323.173C358.059 321.272 359.229 317.762 359.96 313.52C361.13 306.647 361.423 297.872 357.328 290.267C350.747 277.982 341.533 273.302 341.533 273.302C350.015 290.559 346.505 302.259 346.505 302.259C321.643 293.777 308.627 275.495 306.726 271.108C306.726 270.962 306.579 270.815 306.579 270.669C306.579 270.523 306.433 270.523 306.433 270.377V270.23C306.433 270.23 306.433 270.23 306.287 270.23C303.216 270.962 296.196 271.4 294.733 274.618C294.441 275.057 294.294 275.642 294.148 276.08C292.832 279.444 292.101 283.393 291.808 287.488C290.492 305.038 297.951 327.268 301.168 339.406Z" fill="url(#paint13_linear)"/>
<path d="M291.516 287.487C290.492 305.037 298.097 327.414 301.168 339.406C305.994 357.98 311.259 368.656 311.259 368.656C311.259 368.656 319.888 381.818 338.9 375.383C357.913 368.948 362.739 355.64 362.739 355.64C357.474 349.643 353.233 336.042 357.474 323.172C357.913 322.002 358.352 320.394 358.937 318.346C359.229 316.884 355.427 315.86 353.672 317.615C350.747 320.54 348.407 324.342 345.774 326.244C340.948 329.9 335.537 330.338 331.003 323.611C328.224 319.516 325.738 313.52 321.789 306.354C317.402 298.31 313.16 289.242 311.405 283.977C308.919 276.665 307.311 272.57 306.579 270.815C306.579 270.669 306.433 270.523 306.433 270.376C306.433 270.23 306.287 270.23 306.287 270.084V269.938C303.216 270.669 296.196 271.107 294.733 274.325C294.441 274.764 294.294 275.349 294.148 275.787C291.516 278.859 290.346 283.1 291.516 287.487Z" fill="url(#paint14_linear)"/>
<path d="M305.409 333.85C305.409 333.85 315.939 350.668 322.374 360.906C328.809 371.143 329.102 371.289 338.754 368.364C348.407 365.439 386.87 347.889 395.206 346.427C403.543 344.964 412.171 342.332 416.413 339.261C421.678 335.458 419.045 334.435 420.654 330.925C422.263 327.415 419.338 325.952 419.338 325.952C419.338 325.952 425.334 320.102 427.966 316.446C430.16 313.375 430.16 309.133 426.357 311.035C425.626 311.327 424.895 311.912 424.017 312.643C418.021 317.616 410.27 323.027 402.373 323.612C402.519 323.027 404.566 315.276 400.91 312.351C400.471 311.912 400.033 311.62 399.74 311.473C398.716 311.035 398.424 312.058 396.961 316.592C396.084 319.371 393.159 321.272 391.111 323.758C389.064 326.098 388.771 328.877 388.04 330.193C387.309 331.51 344.165 345.696 341.972 345.257C340.07 344.818 330.125 327.268 326.908 321.565C326.762 321.418 326.762 321.272 326.762 321.272C326.177 320.395 325.884 319.81 325.884 319.81C325.884 319.81 323.252 319.517 319.888 319.956C314.184 320.541 306.433 323.466 305.409 333.85Z" fill="url(#paint15_linear)"/>
<path d="M305.409 333.85C305.409 333.85 315.939 350.668 322.374 360.906C328.809 371.143 329.102 371.289 338.754 368.364C348.407 365.439 386.87 347.889 395.206 346.427C403.543 344.964 412.171 342.332 416.413 339.261C421.678 335.458 419.045 334.435 420.654 330.925C422.263 327.415 419.338 325.952 419.338 325.952C419.338 325.952 425.334 320.102 427.966 316.446C430.16 313.375 430.16 309.133 426.357 311.035C428.99 313.082 424.749 317.908 418.168 323.612C411.586 329.316 405.59 332.826 399.74 332.533C393.89 332.387 393.013 334.873 389.503 340.285C385.993 345.696 381.898 345.988 358.352 355.056C332.319 365.001 331.295 360.174 327.493 354.178C323.69 348.182 315.647 334.142 316.67 330.486C317.548 327.268 325.153 322.588 327.054 321.418C327.347 321.272 327.493 321.126 327.493 321.126L326.908 320.98L320.034 319.663C314.184 320.541 306.433 323.466 305.409 333.85Z" fill="url(#paint16_linear)"/>
<path d="M291.077 304.453C297.512 321.857 306.579 335.604 306.579 335.604C307.896 333.118 310.382 330.778 313.16 328.73C319.449 324.197 327.493 321.125 327.493 321.125C327.493 321.125 325.007 316.007 318.572 300.066C312.429 285.294 307.896 275.788 302.631 273.009C301.753 272.571 300.876 272.278 299.852 272.132C293.563 271.547 283.764 285.148 291.077 304.453Z" fill="url(#paint17_linear)"/>
<path d="M291.077 304.453C297.512 321.857 306.579 335.604 306.579 335.604C307.896 333.118 310.382 330.778 313.161 328.73C308.481 320.54 298.682 301.967 295.318 290.998C288.883 270.231 302.631 273.009 302.631 273.009C301.753 272.571 300.876 272.278 299.852 272.132C293.563 271.547 283.765 285.148 291.077 304.453Z" fill="url(#paint18_linear)"/>
<path d="M398.863 323.612C400.764 323.758 402.373 323.612 402.373 323.612C402.519 323.027 404.566 315.276 400.91 312.351C400.471 311.912 400.033 311.619 399.74 311.473C400.618 312.497 400.764 312.936 401.056 314.106C401.203 315.422 401.056 316.884 400.618 319.517C400.179 322.003 398.863 323.612 398.863 323.612Z" fill="url(#paint19_linear)"/>
<path d="M314.014 229.842C322.058 251.487 347.651 262.163 362.861 257.775C377.779 253.388 383.775 224.431 377.779 206.734C377.633 206.442 377.633 206.149 377.486 205.857C373.538 195.327 364.909 188.015 354.964 185.236C348.236 183.335 340.924 183.481 333.904 186.113C316.208 192.695 307.433 212.292 314.014 229.842Z" fill="#66FEFF"/>
<path d="M313.014 228.842C321.058 250.487 346.651 261.163 361.861 256.775C376.779 252.388 382.775 223.431 376.779 205.734C376.633 205.442 376.633 205.149 376.486 204.857C372.538 194.327 363.909 187.015 353.964 184.236C347.236 182.335 339.924 182.481 332.904 185.113C315.208 191.695 306.433 211.292 313.014 228.842Z" fill="url(#paint20_linear)"/>
<path d="M306.489 246.444C300.233 243.244 297.755 235.579 300.954 229.323C304.154 223.067 311.819 220.589 318.075 223.788C324.332 226.987 326.81 234.653 323.61 240.909C320.411 247.165 312.745 249.643 306.489 246.444Z" fill="url(#paint21_linear)"/>
<path d="M353.818 184.236C353.818 184.236 349.43 196.082 337.73 205.442C326.03 214.656 317.255 214.656 317.255 214.656C317.255 214.656 325.592 222.992 324.275 230.597C324.275 230.597 315.062 230.451 310.967 222.553C310.967 222.553 304.239 212.754 312.429 196.374C320.327 180.58 345.043 177.947 353.818 184.236Z" fill="black"/>
<path d="M344.312 242.15C344.312 242.15 344.312 242.297 344.312 242.15C344.165 242.297 344.165 242.15 344.312 242.15Z" fill="#F1F2EB"/>
<circle cx="245.507" cy="527.53" r="4" transform="rotate(-148.806 245.507 527.53)" fill="#EDEEC8"/>
<circle r="4" transform="matrix(-0.955311 -0.295601 -0.295601 0.955311 66.9963 309.02)" fill="#EDEEC8"/>
<circle cx="527" cy="562.023" r="4" transform="rotate(-180 527 562.023)" fill="#EDEEC8"/>
<circle r="4" transform="matrix(-0.664089 -0.747654 -0.747654 0.664089 213.13 588.627)" fill="#EDEEC8"/>
<circle cx="589.56" cy="182.53" r="4" transform="rotate(-148.806 589.56 182.53)" fill="#EDEEC8"/>
<circle cx="395.5" cy="593.523" r="1.5" transform="rotate(-180 395.5 593.523)" fill="#EDEEC8"/>
<circle r="1.5" transform="matrix(-0.664089 -0.747654 -0.747654 0.664089 149.354 469.392)" fill="#EDEEC8"/>
<circle cx="448.94" cy="91.9634" r="1.5" transform="rotate(-148.806 448.94 91.9634)" fill="#EDEEC8"/>
<circle cx="413.5" cy="630.523" r="1.5" transform="rotate(-180 413.5 630.523)" fill="#EDEEC8"/>
<circle r="1.5" transform="matrix(-0.664089 -0.747654 -0.747654 0.664089 76.8824 264.906)" fill="#EDEEC8"/>
<circle cx="456.992" cy="182.34" r="1.5" transform="rotate(-148.806 456.992 182.34)" fill="#EDEEC8"/>
<circle cx="593.5" cy="520.523" r="1.5" transform="rotate(-180 593.5 520.523)" fill="#206BD4"/>
<circle cx="664.5" cy="340.523" r="1.5" transform="rotate(-180 664.5 340.523)" fill="#206BD4"/>
<circle cx="704.5" cy="304.523" r="1.5" transform="rotate(-180 704.5 304.523)" fill="#206BD4"/>
<circle cx="748.5" cy="368.523" r="1.5" transform="rotate(-180 748.5 368.523)" fill="#206BD4"/>
<circle cx="6.5" cy="342.523" r="1.5" transform="rotate(-180 6.5 342.523)" fill="#206BD4"/>
<circle r="1.5" transform="matrix(-0.664089 -0.747654 -0.747654 0.664089 226.265 665.906)" fill="#206BD4"/>
<circle cx="667.94" cy="181.473" r="1.5" transform="rotate(-148.806 667.94 181.473)" fill="#206BD4"/>
<circle cx="677.5" cy="449.5" r="2.5" transform="rotate(-180 677.5 449.5)" fill="#206BD4"/>
<circle cx="578.5" cy="609.523" r="2.5" transform="rotate(-180 578.5 609.523)" fill="#206BD4"/>
<circle r="2.5" transform="matrix(-0.664089 -0.747654 -0.747654 0.664089 282.845 595.587)" fill="#206BD4"/>
<circle cx="693.5" cy="485.523" r="2.5" transform="rotate(-180 693.5 485.523)" fill="#206BD4"/>
<circle cx="644.733" cy="152.225" r="2.5" transform="rotate(-148.806 644.733 152.225)" fill="#206BD4"/>
<circle cx="442.5" cy="566.523" r="1.5" transform="rotate(-180 442.5 566.523)" fill="#206BD4"/>
<circle r="1.5" transform="matrix(-0.664089 -0.747654 -0.747654 0.664089 160.379 522.462)" fill="#206BD4"/>
<circle cx="562.5" cy="646.523" r="1.5" transform="rotate(-180 562.5 646.523)" fill="#206BD4"/>
<circle r="1.5" transform="matrix(-0.664089 -0.747654 -0.747654 0.664089 299.882 559.053)" fill="#206BD4"/>
<circle cx="514.947" cy="142.614" r="1.5" transform="rotate(-148.806 514.947 142.614)" fill="#206BD4"/>
<circle cx="169.635" cy="189.659" r="4" transform="rotate(116.506 169.635 189.659)" fill="#EDEEC8"/>
<circle cx="289.81" cy="213.012" r="1.5" transform="rotate(116.506 289.81 213.012)" fill="#EDEEC8"/>
<circle cx="198.971" cy="159.887" r="1.5" transform="rotate(116.506 198.971 159.887)" fill="#206BD4"/>
<circle cx="114.937" cy="200.669" r="1.5" transform="rotate(116.506 114.937 200.669)" fill="#206BD4"/>
<circle cx="73.9882" cy="341.012" r="1.5" transform="rotate(116.506 73.9882 341.012)" fill="#206BD4"/>
<circle cx="320.988" cy="30.0118" r="1.5" transform="rotate(116.506 320.988 30.0118)" fill="#206BD4"/>
<circle cx="400.647" cy="145.67" r="2.5" transform="rotate(116.506 400.647 145.67)" fill="#206BD4"/>
<circle cx="291.647" cy="114.67" r="2.5" transform="rotate(116.506 291.647 114.67)" fill="#206BD4"/>
<path d="M235.997 187.993C259.743 187.993 278.993 168.743 278.993 144.997C278.993 121.25 259.743 102 235.997 102C212.25 102 193 121.25 193 144.997C193 168.743 212.25 187.993 235.997 187.993Z" fill="url(#paint22_linear)"/>
<g filter="url(#filter0_f)">
<path d="M235.997 187.993C259.743 187.993 278.993 168.743 278.993 144.997C278.993 121.25 259.743 102 235.997 102C212.25 102 193 121.25 193 144.997C193 168.743 212.25 187.993 235.997 187.993Z" fill="url(#paint23_linear)"/>
</g>
<path d="M232.375 122.377C226.022 123.704 220.87 128.807 219.515 135.2C218.37 140.599 219.78 146.019 223.384 150.07C225.146 152.05 226.156 154.665 226.156 157.25V160.062C226.156 161.933 227.381 163.523 229.071 164.074C229.627 167.358 232.477 170 236 170C239.522 170 242.373 167.358 242.929 164.074C244.619 163.523 245.844 161.933 245.844 160.062V157.249C245.844 154.659 246.857 152.077 248.698 149.977C251.391 146.904 252.875 142.96 252.875 138.874C252.875 128.227 243.13 120.13 232.375 122.377ZM236 167.187C234.192 167.187 232.607 165.944 232.022 164.272H239.978C239.393 165.944 237.808 167.187 236 167.187ZM243.031 160.062C243.031 160.838 242.4 161.468 241.625 161.468H230.375C229.6 161.468 228.969 160.838 228.969 160.062V158.656H243.031V160.062ZM246.583 148.123C244.621 150.361 243.415 153.059 243.109 155.843H228.892C228.586 153.058 227.382 150.333 225.486 148.201C222.482 144.824 221.309 140.298 222.266 135.783C223.383 130.513 227.677 126.232 232.95 125.13C241.953 123.249 250.062 130.009 250.062 138.874C250.062 142.278 248.827 145.563 246.583 148.123Z" fill="white"/>
<path d="M216.219 138.874H213.406C212.63 138.874 212 139.503 212 140.28C212 141.057 212.63 141.686 213.406 141.686H216.219C216.995 141.686 217.625 141.057 217.625 140.28C217.625 139.503 216.995 138.874 216.219 138.874Z" fill="white"/>
<path d="M216.801 131.842L214.812 129.853C214.263 129.304 213.373 129.304 212.824 129.853C212.275 130.403 212.275 131.293 212.824 131.842L214.812 133.831C215.362 134.38 216.252 134.38 216.801 133.831C217.35 133.282 217.35 132.391 216.801 131.842Z" fill="white"/>
<path d="M216.801 146.729C216.252 146.18 215.362 146.18 214.812 146.729L212.824 148.718C212.275 149.267 212.275 150.157 212.824 150.707C213.373 151.256 214.263 151.256 214.812 150.707L216.801 148.718C217.35 148.169 217.35 147.278 216.801 146.729Z" fill="white"/>
<path d="M258.594 138.874H255.781C255.005 138.874 254.375 139.503 254.375 140.28C254.375 141.057 255.005 141.686 255.781 141.686H258.594C259.37 141.686 260 141.057 260 140.28C260 139.503 259.37 138.874 258.594 138.874Z" fill="white"/>
<path d="M259.176 129.853C258.627 129.304 257.737 129.304 257.188 129.853L255.199 131.842C254.65 132.391 254.65 133.282 255.199 133.831C255.748 134.38 256.638 134.38 257.188 133.831L259.176 131.842C259.725 131.293 259.725 130.403 259.176 129.853Z" fill="white"/>
<path d="M259.176 148.718L257.188 146.729C256.638 146.18 255.748 146.18 255.199 146.729C254.65 147.278 254.65 148.169 255.199 148.718L257.188 150.707C257.737 151.256 258.627 151.256 259.176 150.707C259.725 150.157 259.725 149.267 259.176 148.718Z" fill="white"/>
<path fill-rule="evenodd" clip-rule="evenodd" d="M246.583 148.123C244.621 150.361 243.415 153.059 243.109 155.843H228.892C228.586 153.058 227.382 150.333 225.486 148.201C222.482 144.824 221.309 140.298 222.266 135.783C223.383 130.513 227.677 126.232 232.95 125.13C241.953 123.249 250.062 130.009 250.062 138.874C250.062 142.278 248.827 145.563 246.583 148.123ZM234.592 129.03C234.592 128.253 235.222 127.623 235.999 127.623C242.203 127.623 247.25 132.67 247.25 138.874C247.25 139.65 246.62 140.28 245.844 140.28C245.067 140.28 244.438 139.65 244.438 138.874C244.438 134.221 240.652 130.436 235.999 130.436C235.222 130.436 234.592 129.806 234.592 129.03Z" fill="white"/>
<path d="M243.031 160.062C243.031 160.838 242.4 161.468 241.625 161.468H230.375C229.6 161.468 228.969 160.838 228.969 160.062V158.656H243.031V160.062Z" fill="white"/>
<path d="M236 167.187C234.192 167.187 232.607 165.944 232.022 164.272H239.978C239.393 165.944 237.808 167.187 236 167.187Z" fill="white"/>
<path d="M486.526 179.051C508.355 179.051 526.051 161.355 526.051 139.526C526.051 117.696 508.355 100 486.526 100C464.696 100 447 117.696 447 139.526C447 161.355 464.696 179.051 486.526 179.051Z" fill="url(#paint24_linear)"/>
<g filter="url(#filter1_f)">
<path d="M486.526 179.051C508.355 179.051 526.051 161.355 526.051 139.526C526.051 117.696 508.355 100 486.526 100C464.696 100 447 117.696 447 139.526C447 161.355 464.696 179.051 486.526 179.051Z" fill="url(#paint25_linear)"/>
</g>
<path d="M486.163 158H482.801C481.132 158 479.775 156.644 479.775 154.977V134.148C479.775 132.481 481.132 131.125 482.801 131.125H486.163C487.831 131.125 489.188 132.481 489.188 134.148V154.977C489.188 156.644 487.831 158 486.163 158ZM482.801 133.812C482.615 133.812 482.465 133.963 482.465 134.148V154.977C482.465 155.162 482.615 155.312 482.801 155.312H486.163C486.348 155.312 486.499 155.162 486.499 154.977V134.148C486.499 133.963 486.348 133.812 486.163 133.812H482.801Z" fill="white"/>
<path d="M473.388 158H470.026C468.357 158 467 156.644 467 154.977V140.867C467 139.2 468.357 137.844 470.026 137.844H473.388C475.056 137.844 476.413 139.2 476.413 140.867V154.977C476.413 156.644 475.056 158 473.388 158ZM470.026 140.531C469.84 140.531 469.69 140.682 469.69 140.867V154.977C469.69 155.162 469.84 155.312 470.026 155.312H473.388C473.573 155.312 473.724 155.162 473.724 154.977V140.867C473.724 140.682 473.573 140.531 473.388 140.531H470.026Z" fill="white"/>
<path d="M498.938 158H495.576C493.908 158 492.55 156.644 492.55 154.977V127.094H490.703C489.839 127.094 489.079 126.607 488.718 125.823C488.357 125.038 488.482 124.144 489.044 123.489C489.05 123.482 489.057 123.474 489.063 123.467L496.256 115.447C496.511 115.163 496.875 115 497.257 115C497.639 115 498.003 115.163 498.259 115.447L505.451 123.467C505.457 123.474 505.464 123.482 505.47 123.489C506.032 124.144 506.157 125.038 505.796 125.823C505.435 126.607 504.675 127.094 503.811 127.094H501.964V154.977C501.964 156.644 500.606 158 498.938 158ZM491.832 124.406H493.895C494.638 124.406 495.24 125.008 495.24 125.75V154.977C495.24 155.162 495.391 155.312 495.576 155.312H498.938C499.123 155.312 499.274 155.162 499.274 154.977V125.75C499.274 125.008 499.876 124.406 500.619 124.406H502.682L497.257 118.357L491.832 124.406Z" fill="white"/>
<path d="M491.832 124.406H493.895C494.638 124.406 495.24 125.008 495.24 125.75V154.977C495.24 155.162 495.391 155.312 495.576 155.312H498.938C499.123 155.312 499.274 155.162 499.274 154.977V125.75C499.274 125.008 499.876 124.406 500.619 124.406H502.682L497.257 118.357L491.832 124.406Z" fill="white"/>
<path d="M482.801 133.812C482.615 133.812 482.465 133.963 482.465 134.148V154.977C482.465 155.162 482.615 155.312 482.801 155.312H486.163C486.348 155.312 486.499 155.162 486.499 154.977V134.148C486.499 133.963 486.348 133.812 486.163 133.812H482.801Z" fill="white"/>
<path d="M470.026 140.531C469.84 140.531 469.69 140.682 469.69 140.867V154.977C469.69 155.162 469.84 155.312 470.026 155.312H473.388C473.573 155.312 473.724 155.162 473.724 154.977V140.867C473.724 140.682 473.573 140.531 473.388 140.531H470.026Z" fill="white"/>
<path d="M589.91 334.82C615.818 334.82 636.82 313.818 636.82 287.91C636.82 262.002 615.818 241 589.91 241C564.002 241 543 262.002 543 287.91C543 313.818 564.002 334.82 589.91 334.82Z" fill="url(#paint26_linear)"/>
<g filter="url(#filter2_f)">
<path d="M589.91 334.82C615.818 334.82 636.82 313.818 636.82 287.91C636.82 262.002 615.818 241 589.91 241C564.002 241 543 262.002 543 287.91C543 313.818 564.002 334.82 589.91 334.82Z" fill="url(#paint27_linear)"/>
</g>
<path d="M573.496 269C573.494 269 573.493 269 573.491 269C573.028 269 572.592 269.184 572.263 269.517C571.93 269.854 571.747 270.302 571.747 270.78V297.469C571.747 298.448 572.534 299.246 573.502 299.249C577.584 299.258 584.422 300.122 589.139 305.133V277.202C589.139 276.87 589.055 276.559 588.898 276.301C585.026 269.972 577.586 269.01 573.496 269Z" fill="white"/>
<path d="M609.253 297.469V270.78C609.253 270.302 609.07 269.854 608.737 269.517C608.408 269.183 607.972 269 607.509 269C607.507 269 607.506 269 607.505 269C603.414 269.01 595.974 269.972 592.102 276.301C591.945 276.559 591.861 276.87 591.861 277.202V305.133C596.579 300.122 603.416 299.258 607.498 299.248C608.466 299.246 609.253 298.448 609.253 297.469Z" fill="white"/>
<path d="M613.247 275.155H611.976V297.469C611.976 299.968 609.97 302.006 607.504 302.012C604.042 302.02 598.334 302.707 594.292 306.591C601.283 304.854 608.654 305.983 612.854 306.955C613.379 307.076 613.921 306.951 614.341 306.611C614.76 306.272 615 305.765 615 305.221V276.935C615 275.953 614.214 275.155 613.247 275.155Z" fill="white"/>
<path d="M569.024 297.469V275.155H567.753C566.787 275.155 566 275.953 566 276.935V305.22C566 305.764 566.24 306.271 566.659 306.61C567.079 306.95 567.62 307.076 568.146 306.954C572.346 305.982 579.717 304.853 586.708 306.591C582.666 302.707 576.958 302.02 573.496 302.012C571.03 302.006 569.024 299.968 569.024 297.469Z" fill="white"/>
<path d="M198.659 376.319C217.801 376.319 233.319 360.801 233.319 341.659C233.319 322.518 217.801 307 198.659 307C179.518 307 164 322.518 164 341.659C164 360.801 179.518 376.319 198.659 376.319Z" fill="url(#paint28_linear)"/>
<g filter="url(#filter3_f)">
<path d="M198.659 376.319C217.801 376.319 233.319 360.801 233.319 341.659C233.319 322.518 217.801 307 198.659 307C179.518 307 164 322.518 164 341.659C164 360.801 179.518 376.319 198.659 376.319Z" fill="url(#paint29_linear)"/>
</g>
<path d="M184.72 338.733C184.086 338.106 183.863 337.185 184.136 336.331C184.41 335.477 185.124 334.866 185.999 334.736L193.658 333.607C193.808 333.585 193.938 333.489 194.005 333.35L197.43 326.306C197.822 325.5 198.615 325 199.5 325C200.385 325 201.178 325.5 201.57 326.306L204.995 333.351C205.062 333.489 205.192 333.585 205.342 333.607L213 334.736C213.876 334.866 214.59 335.477 214.864 336.331C215.137 337.185 214.913 338.106 214.28 338.733L208.738 344.216C208.629 344.324 208.579 344.479 208.605 344.631L209.913 352.373C210.063 353.259 209.711 354.137 208.995 354.665C208.279 355.193 207.348 355.261 206.564 354.844L199.715 351.188C199.58 351.116 199.42 351.116 199.285 351.188L192.435 354.844C192.094 355.025 191.726 355.115 191.359 355.115C190.882 355.115 190.409 354.964 190.005 354.665C189.289 354.137 188.937 353.259 189.086 352.373L190.395 344.631C190.42 344.479 190.371 344.324 190.262 344.216L184.72 338.733ZM192.214 344.948L190.906 352.691C190.862 352.95 191.02 353.097 191.09 353.149C191.16 353.2 191.347 353.307 191.576 353.184L198.426 349.529C198.762 349.349 199.131 349.26 199.5 349.26C199.869 349.26 200.238 349.349 200.574 349.529L207.423 353.184C207.653 353.307 207.84 353.2 207.91 353.149C207.979 353.097 208.137 352.949 208.093 352.69L206.785 344.948C206.657 344.188 206.905 343.412 207.449 342.874L212.99 337.391C213.176 337.207 213.134 336.994 213.107 336.91C213.081 336.827 212.991 336.629 212.735 336.591L205.076 335.462C204.325 335.351 203.675 334.872 203.339 334.18L199.914 327.136C199.799 326.9 199.586 326.874 199.5 326.874C199.413 326.874 199.2 326.9 199.086 327.136L195.661 334.18C195.325 334.872 194.675 335.351 193.923 335.462L186.265 336.591C186.009 336.629 185.919 336.827 185.892 336.91C185.866 336.994 185.823 337.207 186.009 337.391L191.551 342.874C192.095 343.412 192.343 344.188 192.214 344.948Z" fill="white"/>
<path d="M188.714 326.306C189.127 326.001 189.704 326.094 190.004 326.513L190.984 327.882C191.283 328.301 191.192 328.887 190.779 329.191C190.615 329.312 190.426 329.37 190.237 329.37C189.952 329.37 189.67 329.236 189.49 328.984L188.51 327.615C188.21 327.196 188.301 326.61 188.714 326.306Z" fill="white"/>
<path d="M208.02 327.877L209 326.507C209.3 326.089 209.877 325.996 210.29 326.3C210.702 326.604 210.794 327.19 210.494 327.609L209.514 328.978C209.334 329.231 209.052 329.365 208.766 329.365C208.578 329.365 208.388 329.307 208.225 329.186C207.812 328.882 207.721 328.295 208.02 327.877Z" fill="white"/>
<path d="M213.613 346.027C213.77 345.535 214.291 345.265 214.776 345.425L216.362 345.949C216.847 346.108 217.112 346.637 216.955 347.129C216.828 347.526 216.466 347.777 216.077 347.777C215.982 347.777 215.886 347.762 215.791 347.731L214.205 347.208C213.72 347.048 213.455 346.519 213.613 346.027Z" fill="white"/>
<path d="M199.5 356.433C200.01 356.433 200.423 356.853 200.423 357.37V359.063C200.423 359.58 200.01 360 199.5 360C198.99 360 198.576 359.58 198.576 359.063V357.37C198.576 356.853 198.99 356.433 199.5 356.433Z" fill="white"/>
<path d="M182.638 345.95L184.224 345.427C184.709 345.267 185.23 345.536 185.387 346.029C185.545 346.521 185.28 347.05 184.795 347.21L183.209 347.733C183.114 347.764 183.018 347.779 182.923 347.779C182.534 347.779 182.172 347.527 182.045 347.131C181.888 346.638 182.153 346.11 182.638 345.95Z" fill="white"/>
<path d="M192.214 344.948L190.906 352.691C190.862 352.95 191.02 353.097 191.09 353.149C191.16 353.2 191.347 353.307 191.576 353.184L198.426 349.529C198.762 349.349 199.131 349.26 199.5 349.26C199.869 349.26 200.238 349.349 200.574 349.529L207.423 353.184C207.653 353.307 207.84 353.2 207.91 353.149C207.979 353.097 208.137 352.949 208.093 352.69L206.785 344.948C206.657 344.188 206.905 343.412 207.449 342.874L212.99 337.391C213.176 337.207 213.134 336.994 213.107 336.91C213.081 336.827 212.991 336.629 212.735 336.591L205.076 335.462C204.325 335.351 203.675 334.872 203.339 334.18L199.914 327.136C199.799 326.9 199.586 326.874 199.5 326.874C199.413 326.874 199.2 326.9 199.086 327.136L195.661 334.18C195.325 334.872 194.675 335.351 193.923 335.462L186.265 336.591C186.009 336.629 185.919 336.827 185.892 336.91C185.866 336.994 185.823 337.207 186.009 337.391L191.551 342.874C192.095 343.412 192.343 344.188 192.214 344.948Z" fill="white"/>
<defs>
<filter id="filter0_f" x="149" y="58" width="173.993" height="173.993" filterUnits="userSpaceOnUse" color-interpolation-filters="sRGB">
<feFlood flood-opacity="0" result="BackgroundImageFix"/>
<feBlend mode="normal" in="SourceGraphic" in2="BackgroundImageFix" result="shape"/>
<feGaussianBlur stdDeviation="22" result="effect1_foregroundBlur"/>
</filter>
<filter id="filter1_f" x="413" y="66" width="147.051" height="147.051" filterUnits="userSpaceOnUse" color-interpolation-filters="sRGB">
<feFlood flood-opacity="0" result="BackgroundImageFix"/>
<feBlend mode="normal" in="SourceGraphic" in2="BackgroundImageFix" result="shape"/>
<feGaussianBlur stdDeviation="17" result="effect1_foregroundBlur"/>
</filter>
<filter id="filter2_f" x="509" y="207" width="161.82" height="161.82" filterUnits="userSpaceOnUse" color-interpolation-filters="sRGB">
<feFlood flood-opacity="0" result="BackgroundImageFix"/>
<feBlend mode="normal" in="SourceGraphic" in2="BackgroundImageFix" result="shape"/>
<feGaussianBlur stdDeviation="17" result="effect1_foregroundBlur"/>
</filter>
<filter id="filter3_f" x="130" y="273" width="137.319" height="137.319" filterUnits="userSpaceOnUse" color-interpolation-filters="sRGB">
<feFlood flood-opacity="0" result="BackgroundImageFix"/>
<feBlend mode="normal" in="SourceGraphic" in2="BackgroundImageFix" result="shape"/>
<feGaussianBlur stdDeviation="17" result="effect1_foregroundBlur"/>
</filter>
<linearGradient id="paint0_linear" x1="384.621" y1="115" x2="384.621" y2="653.68" gradientUnits="userSpaceOnUse">
<stop stop-color="#172463"/>
<stop offset="0.479167" stop-color="#644AAC"/>
<stop offset="1" stop-color="#5380DF"/>
</linearGradient>
<linearGradient id="paint1_linear" x1="194.168" y1="193.888" x2="580.568" y2="580.288" gradientUnits="userSpaceOnUse">
<stop stop-color="#172463"/>
<stop offset="0.479167" stop-color="#644AAC"/>
<stop offset="1" stop-color="#5380DF"/>
</linearGradient>
<linearGradient id="paint2_linear" x1="132.608" y1="342.974" x2="634.499" y2="397.412" gradientUnits="userSpaceOnUse">
<stop stop-color="#172463"/>
<stop offset="0.479167" stop-color="#644AAC"/>
<stop offset="1" stop-color="#5380DF"/>
</linearGradient>
<linearGradient id="paint3_linear" x1="393.002" y1="486.558" x2="405.977" y2="569.354" gradientUnits="userSpaceOnUse">
<stop stop-color="#444B8C"/>
<stop offset="0.9964" stop-color="#3E4177"/>
</linearGradient>
<linearGradient id="paint4_linear" x1="146.5" y1="775" x2="480" y2="222" gradientUnits="userSpaceOnUse">
<stop stop-color="#172463"/>
<stop offset="0.479167" stop-color="#644AAC"/>
<stop offset="1" stop-color="#5380DF"/>
</linearGradient>
<radialGradient id="paint5_radial" cx="0" cy="0" r="1" gradientUnits="userSpaceOnUse" gradientTransform="translate(222.5 517) rotate(-48.8829) scale(391.575 443.841)">
<stop stop-color="#172463"/>
<stop offset="0.479167" stop-color="#644AAC"/>
<stop offset="1" stop-color="#5380DF"/>
</radialGradient>
<linearGradient id="paint6_linear" x1="418.364" y1="304.081" x2="375.465" y2="267.032" gradientUnits="userSpaceOnUse">
<stop stop-color="#66FEFF"/>
<stop offset="1" stop-color="#66FEFF" stop-opacity="0"/>
</linearGradient>
<linearGradient id="paint7_linear" x1="394.284" y1="307.704" x2="359.895" y2="309.008" gradientUnits="userSpaceOnUse">
<stop stop-color="#1C4DBC"/>
<stop offset="1" stop-color="#0C2169"/>
</linearGradient>
<linearGradient id="paint8_linear" x1="389.21" y1="307.584" x2="359.974" y2="308.523" gradientUnits="userSpaceOnUse">
<stop stop-color="#0D3899"/>
<stop offset="1" stop-color="#0C2169"/>
</linearGradient>
<linearGradient id="paint9_linear" x1="356.083" y1="272.314" x2="356.083" y2="323.758" gradientUnits="userSpaceOnUse">
<stop stop-color="#39ACF4"/>
<stop offset="0.317708" stop-color="#206AD3"/>
<stop offset="0.651042" stop-color="#206AD3"/>
<stop offset="1" stop-color="#3296E5"/>
</linearGradient>
<linearGradient id="paint10_linear" x1="354.331" y1="273.155" x2="354.331" y2="323.611" gradientUnits="userSpaceOnUse">
<stop stop-color="#39ACF4"/>
<stop offset="0.317708" stop-color="#206AD3"/>
<stop offset="0.651042" stop-color="#206AD3"/>
<stop offset="1" stop-color="#3296E5"/>
</linearGradient>
<linearGradient id="paint11_linear" x1="353.356" y1="244.386" x2="290.948" y2="246.621" gradientUnits="userSpaceOnUse">
<stop stop-color="#66FEFF"/>
<stop offset="1" stop-color="#0C2169"/>
</linearGradient>
<linearGradient id="paint12_linear" x1="352.356" y1="244.386" x2="289.948" y2="246.621" gradientUnits="userSpaceOnUse">
<stop stop-color="#0D3899"/>
<stop offset="1" stop-color="#0C2169"/>
</linearGradient>
<linearGradient id="paint13_linear" x1="327.196" y1="270.23" x2="327.196" y2="377.156" gradientUnits="userSpaceOnUse">
<stop stop-color="#39ACF4"/>
<stop offset="0.317708" stop-color="#206AD3"/>
<stop offset="0.651042" stop-color="#206AD3"/>
<stop offset="1" stop-color="#3296E5"/>
</linearGradient>
<linearGradient id="paint14_linear" x1="326.901" y1="269.938" x2="326.901" y2="377.155" gradientUnits="userSpaceOnUse">
<stop stop-color="#39ACF4"/>
<stop offset="0.317708" stop-color="#206AD3"/>
<stop offset="0.651042" stop-color="#206AD3"/>
<stop offset="1" stop-color="#3296E5"/>
</linearGradient>
<linearGradient id="paint15_linear" x1="429.451" y1="310.562" x2="303.827" y2="320.726" gradientUnits="userSpaceOnUse">
<stop stop-color="#0D3899"/>
<stop offset="1" stop-color="#0C2169"/>
</linearGradient>
<linearGradient id="paint16_linear" x1="429.451" y1="310.562" x2="303.827" y2="320.726" gradientUnits="userSpaceOnUse">
<stop stop-color="#1749B9"/>
<stop offset="1" stop-color="#0C2169"/>
</linearGradient>
<linearGradient id="paint17_linear" x1="307.986" y1="272.114" x2="307.986" y2="335.604" gradientUnits="userSpaceOnUse">
<stop stop-color="#39ACF4"/>
<stop offset="0.317708" stop-color="#206AD3"/>
<stop offset="0.651042" stop-color="#206AD3"/>
<stop offset="1" stop-color="#3296E5"/>
</linearGradient>
<linearGradient id="paint18_linear" x1="300.82" y1="272.114" x2="300.82" y2="335.604" gradientUnits="userSpaceOnUse">
<stop stop-color="#39ACF4"/>
<stop offset="0.317708" stop-color="#206AD3"/>
<stop offset="0.651042" stop-color="#206AD3"/>
<stop offset="1" stop-color="#3296E5"/>
</linearGradient>
<linearGradient id="paint19_linear" x1="403.075" y1="311.473" x2="398.782" y2="311.531" gradientUnits="userSpaceOnUse">
<stop stop-color="#0D3899"/>
<stop offset="1" stop-color="#0C2169"/>
</linearGradient>
<linearGradient id="paint20_linear" x1="379.078" y1="182.953" x2="309.595" y2="185.411" gradientUnits="userSpaceOnUse">
<stop stop-color="#0D3899"/>
<stop offset="1" stop-color="#0C2169"/>
</linearGradient>
<linearGradient id="paint21_linear" x1="329.403" y1="229.581" x2="305.886" y2="218.682" gradientUnits="userSpaceOnUse">
<stop stop-color="#0D3899"/>
<stop offset="1" stop-color="#0C2169"/>
</linearGradient>
<linearGradient id="paint22_linear" x1="205.007" y1="88.8108" x2="313.416" y2="285.346" gradientUnits="userSpaceOnUse">
<stop stop-color="#FFC444"/>
<stop offset="0.9964" stop-color="#F36F56"/>
</linearGradient>
<linearGradient id="paint23_linear" x1="205.007" y1="88.8108" x2="313.416" y2="285.346" gradientUnits="userSpaceOnUse">
<stop stop-color="#FFC444"/>
<stop offset="0.9964" stop-color="#F36F56"/>
</linearGradient>
<linearGradient id="paint24_linear" x1="458.029" y1="87.8668" x2="557.678" y2="268.521" gradientUnits="userSpaceOnUse">
<stop stop-color="#FF9085"/>
<stop offset="1" stop-color="#FB6FBB"/>
</linearGradient>
<linearGradient id="paint25_linear" x1="458.029" y1="87.8668" x2="557.678" y2="268.521" gradientUnits="userSpaceOnUse">
<stop stop-color="#FF9085"/>
<stop offset="1" stop-color="#FB6FBB"/>
</linearGradient>
<linearGradient id="paint26_linear" x1="556.11" y1="226.618" x2="674.356" y2="440.987" gradientUnits="userSpaceOnUse">
<stop stop-color="#AA80F9"/>
<stop offset="0.9964" stop-color="#6165D7"/>
</linearGradient>
<linearGradient id="paint27_linear" x1="556.11" y1="226.618" x2="674.356" y2="440.987" gradientUnits="userSpaceOnUse">
<stop stop-color="#AA80F9"/>
<stop offset="0.9964" stop-color="#6165D7"/>
</linearGradient>
<linearGradient id="paint28_linear" x1="173.684" y1="296.376" x2="261.056" y2="454.773" gradientUnits="userSpaceOnUse">
<stop offset="0.00359712" stop-color="#E38DDD"/>
<stop offset="1" stop-color="#9571F6"/>
</linearGradient>
<linearGradient id="paint29_linear" x1="173.684" y1="296.376" x2="261.056" y2="454.773" gradientUnits="userSpaceOnUse">
<stop offset="0.00359712" stop-color="#E38DDD"/>
<stop offset="1" stop-color="#9571F6"/>
</linearGradient>
</defs>
</svg>
