<svg width="1920" height="308" viewBox="0 0 1920 308" fill="none" xmlns="http://www.w3.org/2000/svg">
<path fill-rule="evenodd" clip-rule="evenodd" d="M0 0C12.8687 210.579 190.088 195.598 348.8 146C408 128 465.6 92 523.2 104C582.4 116 640 176 697.6 194C756.8 212 814.4 188 872 164C931.2 140 988.8 116 1048 122C1105.6 128 1163.2 164 1222.4 200C1280 236 1337.6 272 1396.8 236C1454.4 200 1512 92 1571.2 56C1628.8 20 1688 56 1745.6 62C1803.2 68 1862.4 44 1891.2 32L1920 20V308H1891.2C1862.4 308 1803.2 308 1745.6 308C1688 308 1628.8 308 1571.2 308C1512 308 1454.4 308 1396.8 308C1337.6 308 1280 308 1222.4 308C1163.2 308 1105.6 308 1048 308C988.8 308 931.2 308 872 308C814.4 308 756.8 308 697.6 308C640 308 582.4 308 523.2 308C465.6 308 408 308 348.8 308C291.2 308 232 308 174.4 308C116.8 308 57.6 308 28.8 308H0V0Z" fill="#0A0849"/>
</svg>
