<svg width="1920" height="288" viewBox="0 0 1920 288" fill="none" xmlns="http://www.w3.org/2000/svg">
<path fill-rule="evenodd" clip-rule="evenodd" d="M0 262.5C51.5 144 113.906 119.397 174.4 132C232 144 291.2 144 348.8 162C408 180 465.6 216 523.2 204C582.4 192 640 132 697.6 114C756.8 96 814.4 120 872 144C931.2 168 988.8 192 1048 186C1105.6 180 1163.2 144 1222.4 108C1280 72 1337.6 36 1396.8 72C1454.4 108 1512 216 1571.2 252C1628.8 288 1688 252 1745.6 246C1803.2 240 1862.4 264 1891.2 276L1920 288V0H1891.2C1862.4 0 1803.2 0 1745.6 0C1688 0 1628.8 0 1571.2 0C1512 0 1454.4 0 1396.8 0C1337.6 0 1280 0 1222.4 0C1163.2 0 1105.6 0 1048 0C988.8 0 931.2 0 872 0C814.4 0 756.8 0 697.6 0C640 0 582.4 0 523.2 0C465.6 0 408 0 348.8 0C291.2 0 232 0 174.4 0C116.8 0 57.6 0 28.8 0H0V262.5Z" fill="#0A0849"/>
</svg>
